<?xml version="1.0" standalone="no"?>
<!DOCTYPE svg PUBLIC "-//W3C//DTD SVG 20010904//EN"
 "http://www.w3.org/TR/2001/REC-SVG-20010904/DTD/svg10.dtd">
<svg version="1.0" xmlns="http://www.w3.org/2000/svg"
 width="440.000000pt" height="440.000000pt" viewBox="0 0 440.000000 440.000000"
 preserveAspectRatio="xMidYMid meet">
<metadata>
Created by potrace 1.14, written by Peter Selinger 2001-2017
</metadata>
<g transform="translate(0.000000,440.000000) scale(0.100000,-0.100000)"
fill="#000000" stroke="none">
<path d="M0 2200 l0 -2200 2200 0 2200 0 0 2200 0 2200 -2200 0 -2200 0 0
-2200z m2370 1815 c92 -10 173 -29 268 -61 345 -115 635 -370 796 -699 111
-228 153 -432 142 -695 -11 -266 -83 -489 -231 -716 -68 -105 -232 -276 -340
-356 -66 -49 -249 -148 -330 -179 -277 -107 -680 -107 -950 0 -71 28 -231 110
-290 150 -83 54 -268 231 -332 316 -93 123 -186 305 -227 445 -62 210 -72 482
-26 710 47 231 191 500 363 679 99 102 251 213 384 280 78 39 249 96 333 112
124 22 317 29 440 14z m750 -3085 l0 -150 -945 0 -945 0 0 150 0 150 945 0
945 0 0 -150z m370 -420 l0 -140 -1320 0 -1320 0 0 140 0 140 1320 0 1320 0 0
-140z"/>
<path d="M2070 3684 c-65 -8 -205 -47 -273 -76 -264 -112 -484 -345 -582 -616
-202 -560 98 -1189 658 -1376 92 -30 242 -56 327 -56 139 0 336 48 465 113
312 156 537 481 576 832 36 327 -66 627 -295 863 -199 206 -426 308 -706 316
-74 2 -151 2 -170 0z"/>
</g>
</svg>
