<svg width="70" height="69" viewBox="0 0 70 69" fill="none" xmlns="http://www.w3.org/2000/svg">
<rect width="69.46" height="69" rx="5.52" fill="white"/>
<path d="M34.2699 13.984C30.0592 13.984 26.6339 17.4093 26.6339 21.62C26.6339 25.8307 30.0592 29.256 34.2699 29.256C38.4806 29.256 41.9059 25.8307 41.9059 21.62C41.9059 17.4093 38.4806 13.984 34.2699 13.984ZM34.2699 27.232C31.1758 27.232 28.6579 24.7141 28.6579 21.62C28.6579 18.5259 31.1758 16.008 34.2699 16.008C37.364 16.008 39.8819 18.5259 39.8819 21.62C39.8819 24.7141 37.364 27.232 34.2699 27.232Z" fill="#B0B9D0" stroke="#B0B9D0" stroke-width="0.552"/>
<path d="M33.6564 19.7802H34.8831C35.2216 19.7802 35.4964 20.0556 35.4964 20.3935H36.7231C36.7231 19.3791 35.8975 18.5535 34.8831 18.5535V17.3269H33.6564V18.5535C32.642 18.5535 31.8164 19.3791 31.8164 20.3935C31.8164 21.408 32.642 22.2335 33.6564 22.2335H34.8831C35.2216 22.2335 35.4964 22.5089 35.4964 22.8469C35.4964 23.1848 35.2216 23.4602 34.8831 23.4602H33.6564C33.3178 23.4602 33.0431 23.1848 33.0431 22.8469H31.8164C31.8164 23.8613 32.642 24.6869 33.6564 24.6869V25.9135H34.8831V24.6869C35.8975 24.6869 36.7231 23.8613 36.7231 22.8469C36.7231 21.8324 35.8975 21.0069 34.8831 21.0069H33.6564C33.3178 21.0069 33.0431 20.7315 33.0431 20.3935C33.0431 20.0556 33.3178 19.7802 33.6564 19.7802Z" fill="url(#paint0_linear_1151_308)"/>
<path d="M29.0258 34.5C29.0258 30.2893 25.6005 26.864 21.3898 26.864C17.1791 26.864 13.7538 30.2893 13.7538 34.5C13.7538 38.7108 17.1791 42.136 21.3898 42.136C25.6005 42.136 29.0258 38.7108 29.0258 34.5ZM15.7778 34.5C15.7778 31.406 18.2957 28.888 21.3898 28.888C24.4839 28.888 27.0018 31.406 27.0018 34.5C27.0018 37.5941 24.4839 40.112 21.3898 40.112C18.2957 40.112 15.7778 37.5941 15.7778 34.5Z" fill="#B0B9D0" stroke="#B0B9D0" stroke-width="0.552"/>
<path d="M34.2699 39.7438C30.0592 39.7438 26.6339 43.1691 26.6339 47.3798C26.6339 51.5906 30.0592 55.0158 34.2699 55.0158C38.4806 55.0158 41.9059 51.5906 41.9059 47.3798C41.9059 43.1691 38.4806 39.7438 34.2699 39.7438ZM34.2699 52.9918C31.1758 52.9918 28.6579 50.4739 28.6579 47.3798C28.6579 44.2858 31.1758 41.7678 34.2699 41.7678C37.364 41.7678 39.8819 44.2858 39.8819 47.3798C39.8819 50.4739 37.364 52.9918 34.2699 52.9918Z" fill="#B0B9D0" stroke="#B0B9D0" stroke-width="0.552"/>
<path d="M47.1498 26.864C42.9391 26.864 39.5138 30.2893 39.5138 34.5C39.5138 38.7108 42.9391 42.136 47.1498 42.136C51.3605 42.136 54.7858 38.7108 54.7858 34.5C54.7858 30.2893 51.3605 26.864 47.1498 26.864ZM47.1498 40.112C44.0557 40.112 41.5378 37.5941 41.5378 34.5C41.5378 31.406 44.0557 28.888 47.1498 28.888C50.2439 28.888 52.7618 31.406 52.7618 34.5C52.7618 37.5941 50.2439 40.112 47.1498 40.112Z" fill="#B0B9D0" stroke="#B0B9D0" stroke-width="0.552"/>
<path d="M23.2299 38.18V36.9533H22.6166C22.0002 36.9533 21.4427 36.7172 21.0109 36.34H22.0032V35.1133H20.2503C20.1988 34.9158 20.1632 34.7128 20.1632 34.5C20.1632 34.2872 20.1988 34.0842 20.2503 33.8867H22.0032V32.66H21.0109C21.442 32.2828 21.9996 32.0467 22.6166 32.0467H23.2299V30.82H22.6166C21.258 30.82 20.0719 31.5621 19.4346 32.66H18.3232V33.8867H18.9918C18.958 34.0866 18.9366 34.2909 18.9366 34.5C18.9366 34.7092 18.958 34.9134 18.9918 35.1133H18.3232V36.34H19.4346C20.0719 37.4379 21.258 38.18 22.6166 38.18H23.2299Z" fill="url(#paint1_linear_1151_308)"/>
<path d="M45.9851 33.2733H44.6965V34.5H45.9232V35.1133C45.9232 35.7898 45.373 36.34 44.6965 36.34V37.5667H48.9899V36.34H46.8205C47.0303 35.9788 47.1499 35.5598 47.1499 35.1133V34.5H48.9899V33.2733H47.2627C47.5166 32.5613 48.1913 32.0467 48.9899 32.0467V30.82C47.5093 30.82 46.2703 31.8756 45.9851 33.2733Z" fill="url(#paint2_linear_1151_308)"/>
<path d="M36.2128 43.9729L34.2698 46.8874L32.3267 43.9729L31.3062 44.6537L33.1241 47.3799H31.8164V48.6066H33.6564V49.2199H31.8164V50.4466H33.6564V51.6733H34.8831V50.4466H36.7231V49.2199H34.8831V48.6066H36.7231V47.3799H35.4155L37.2334 44.6537L36.2128 43.9729Z" fill="url(#paint3_linear_1151_308)"/>
<defs>
<linearGradient id="paint0_linear_1151_308" x1="31.8164" y1="18.0958" x2="36.9234" y2="18.297" gradientUnits="userSpaceOnUse">
<stop stop-color="#00F0FF"/>
<stop offset="1" stop-color="#1DA5F1"/>
</linearGradient>
<linearGradient id="paint1_linear_1151_308" x1="18.3232" y1="31.4791" x2="23.4274" y2="31.7137" gradientUnits="userSpaceOnUse">
<stop stop-color="#00F0FF"/>
<stop offset="1" stop-color="#1DA5F1"/>
</linearGradient>
<linearGradient id="paint2_linear_1151_308" x1="44.6965" y1="31.4242" x2="49.1635" y2="31.6201" gradientUnits="userSpaceOnUse">
<stop stop-color="#00F0FF"/>
<stop offset="1" stop-color="#1DA5F1"/>
</linearGradient>
<linearGradient id="paint3_linear_1151_308" x1="31.3062" y1="44.6625" x2="37.4676" y2="44.9894" gradientUnits="userSpaceOnUse">
<stop stop-color="#00F0FF"/>
<stop offset="1" stop-color="#1DA5F1"/>
</linearGradient>
</defs>
</svg>
