<svg width="69" height="68" viewBox="0 0 69 68" fill="none" xmlns="http://www.w3.org/2000/svg">
<path d="M9.81142 49.4303C9.70501 46.4507 10.3701 43.7371 11.8333 41.2363C13.2966 38.7621 15.3451 36.8732 17.8991 35.543C14.6268 31.2598 15.9038 26.205 19.043 23.5978C22.2089 20.964 26.8646 21.0172 29.9773 23.6776C33.09 26.338 34.234 31.3396 31.0681 35.5164C36.4687 38.5493 39.1557 43.1518 39.1823 49.4037C39.3951 49.4037 39.608 49.4303 39.8208 49.4303C47.2699 49.4303 54.6925 49.4303 62.1416 49.4303C64.1635 49.4303 65.4405 48.18 65.4405 46.158C65.4405 36.0751 65.4405 26.0188 65.4405 15.9358C65.4405 15.8028 65.4139 15.6698 65.4139 15.457C43.8114 15.457 22.2089 15.457 0.526604 15.457C0.526604 15.1643 0.526604 14.9515 0.526604 14.7653C0.526604 11.9718 0.526604 9.1784 0.526604 6.38497C0.5 2.68701 3.18701 0 6.88498 0C25.2684 0 43.6784 0 62.0618 0C65.8396 0 68.5 2.66041 68.5 6.43818C68.5 19.6604 68.5 32.856 68.5 46.0782C68.5 49.7496 65.9992 52.3568 62.3278 52.543C62.115 52.543 61.8756 52.543 61.6627 52.543C43.5188 52.543 25.3482 52.543 7.20422 52.543C4.4374 52.543 2.30908 51.4789 1.08529 48.9249C0.739437 48.18 0.526604 47.302 0.5 46.5039C0.5 37.3521 0.5 28.1471 0.5 18.9687C0.5 18.8623 0.5 18.7559 0.526604 18.5962C1.53756 18.5962 2.52191 18.5962 3.58607 18.5962C3.58607 18.8889 3.58607 19.1815 3.58607 19.4476C3.58607 28.2269 3.58607 37.0329 3.58607 45.8122C3.58607 46.2645 3.61268 46.6901 3.69249 47.1424C3.95853 48.3928 5.04929 49.3505 6.32629 49.4037C7.44366 49.457 8.58764 49.4303 9.81142 49.4303ZM65.3341 12.3177C65.3607 12.2379 65.3873 12.1847 65.3873 12.1581C65.3873 10.349 65.4139 8.5399 65.4139 6.70422C65.4139 4.25665 64.2433 3.08607 61.7958 3.08607C54.2402 3.08607 46.7113 3.08607 39.1557 3.08607C28.4343 3.08607 17.7394 3.08607 7.018 3.08607C4.80986 3.08607 3.55947 4.30986 3.55947 6.5446C3.55947 7.55555 3.55947 8.59311 3.55947 9.60407C3.55947 10.5086 3.55947 11.4131 3.55947 12.3443C24.2308 12.3177 44.7692 12.3177 65.3341 12.3177ZM35.9898 49.4037C36.0164 49.1643 36.043 48.9515 36.043 48.7652C36.1761 44.0829 32.9836 39.4006 28.5939 37.8576C28.3545 37.7778 28.0352 37.831 27.7958 37.9108C25.5876 38.8153 23.3795 38.8153 21.1448 37.9108C20.8787 37.8044 20.4797 37.7778 20.2136 37.8842C16.4358 39.4272 14.0681 42.194 13.1635 46.158C12.9241 47.1956 12.9241 48.2598 12.8177 49.3771C20.6393 49.4037 28.2746 49.4037 35.9898 49.4037ZM24.4969 35.4898C27.5031 35.4898 29.8709 33.0955 29.8709 30.0626C29.8443 27.1361 27.4499 24.7418 24.4703 24.7418C21.464 24.7418 19.0696 27.1361 19.0696 30.1424C19.0962 33.1487 21.464 35.5164 24.4969 35.4898Z" fill="#636A86"/>
<path d="M68.5002 60.2844C68.5002 61.3485 68.5002 62.3063 68.5002 63.3438C52.9901 63.3438 37.5065 63.3438 21.9963 63.3438C21.8899 63.6099 21.8101 63.8227 21.7303 64.0356C20.7726 66.4565 18.458 68.0262 15.904 67.9996C13.3766 67.973 11.0887 66.3767 10.2107 63.9557C10.0511 63.4769 9.83829 63.3172 9.33281 63.3438C6.43297 63.3705 3.53313 63.3705 0.580078 63.3705C0.580078 62.3595 0.580078 61.3751 0.580078 60.2844C0.792911 60.2844 1.00574 60.2844 1.24518 60.2844C3.93219 60.2844 6.6458 60.2578 9.33281 60.311C9.86489 60.311 10.0511 60.1248 10.2107 59.6725C11.1153 57.2249 13.4032 55.6553 15.9838 55.6553C18.5644 55.6553 20.8524 57.2515 21.7569 59.6991C21.9431 60.178 22.156 60.311 22.6614 60.311C37.6395 60.2844 52.6176 60.311 67.5957 60.311C67.8617 60.2844 68.1544 60.2844 68.5002 60.2844ZM15.9838 58.7413C14.2812 58.7413 12.8978 60.0982 12.8712 61.8008C12.8446 63.5301 14.2546 64.9401 15.9838 64.9401C17.6865 64.9401 19.0699 63.5301 19.0699 61.854C19.0433 60.1248 17.6865 58.7413 15.9838 58.7413Z" fill="#2AA7EE"/>
<path d="M43.7847 30.9143C43.7847 28.4402 43.7847 25.966 43.7847 23.4918C43.7847 21.8956 44.9286 21.2039 46.312 21.9754C50.7815 24.4496 55.251 26.9237 59.6939 29.3979C60.3058 29.7438 60.7846 30.196 60.758 30.9409C60.758 31.6593 60.3058 32.0849 59.6939 32.4308C55.2244 34.905 50.7549 37.3791 46.2854 39.8533C44.902 40.6248 43.758 39.9331 43.7314 38.3635C43.7847 35.8893 43.7847 33.3885 43.7847 30.9143ZM46.8707 36.0223C49.9568 34.2931 52.9631 32.6436 56.0491 30.9143C52.9365 29.1851 49.9568 27.5356 46.8707 25.833C46.8707 29.2649 46.8707 32.5638 46.8707 36.0223Z" fill="#393D53"/>
<path d="M43.7582 9.25845C42.7207 9.25845 41.7629 9.25845 40.752 9.25845C40.752 8.24749 40.752 7.26314 40.752 6.22559C41.7629 6.22559 42.7473 6.22559 43.7582 6.22559C43.7582 7.23654 43.7582 8.22089 43.7582 9.25845Z" fill="#636A86"/>
<path d="M46.8975 6.22559C47.9084 6.22559 48.8928 6.22559 49.9037 6.22559C49.9037 7.23654 49.9037 8.22089 49.9037 9.23184C48.8928 9.23184 47.9084 9.23184 46.8975 9.23184C46.8975 8.24749 46.8975 7.26314 46.8975 6.22559Z" fill="#636A86"/>
<path d="M53.0967 6.22559C54.1076 6.22559 55.092 6.22559 56.1029 6.22559C56.1029 7.23654 56.1029 8.22089 56.1029 9.25845C55.092 9.25845 54.1076 9.25845 53.0967 9.25845C53.0967 8.22089 53.0967 7.26314 53.0967 6.22559Z" fill="#636A86"/>
<path d="M59.2949 6.22559C60.2793 6.22559 61.2636 6.22559 62.2746 6.22559C62.2746 7.23654 62.2746 8.22089 62.2746 9.25845C61.2902 9.25845 60.3059 9.25845 59.2949 9.25845C59.2949 8.2741 59.2949 7.28975 59.2949 6.22559Z" fill="#636A86"/>
</svg>
