<svg width="45" height="40" viewBox="0 0 45 40" fill="none" xmlns="http://www.w3.org/2000/svg">
<g clip-path="url(#clip0_921_502)">
<path d="M36.4956 30.0803C36.3911 29.7669 36.1126 29.5754 35.8166 29.6973C35.5902 29.7843 35.4161 30.0106 35.2769 30.2196C35.2072 30.324 35.2594 30.4981 35.2594 30.6548C35.2594 32.7441 35.2594 34.8334 35.2594 36.9227C35.2594 37.7932 34.8416 38.2111 33.9885 38.2111C32.8568 38.2111 31.7251 38.2111 30.5934 38.2111C30.4715 38.2111 30.3496 38.1937 30.2277 38.1937C30.2103 38.1066 30.1929 38.0718 30.1929 38.037C30.1929 35.8258 30.1755 33.5973 30.1929 31.3861C30.1929 31.2468 30.3496 31.0553 30.4715 30.9682C32.4737 29.7495 33.4313 27.9736 33.1702 25.6406C32.9612 23.7602 31.9166 22.4022 30.2452 21.549C29.5661 21.2008 28.8523 21.6535 28.8175 22.4022C28.8001 22.6982 28.8175 22.9767 28.8175 23.2727C28.8175 24.0562 28.8175 24.8223 28.8175 25.6232H27.059C27.059 24.5959 27.059 23.6209 27.059 22.6285C27.059 21.5665 26.3103 21.1312 25.3876 21.6535C23.6291 22.6633 22.6715 24.1955 22.6367 26.2325C22.6019 28.287 23.542 29.854 25.3005 30.8986C25.5965 31.0727 25.6836 31.2468 25.6836 31.5776C25.6661 33.6147 25.6836 35.6691 25.6836 37.7062V38.1937H24.3255C24.3255 38.2633 24.3081 38.3504 24.221 38.42C23.8728 38.7682 23.6117 39.1861 23.2635 39.5169C26.8327 39.5169 30.3844 39.5169 33.9536 39.5169C35.5554 39.5169 36.5652 38.5245 36.5652 36.9053C36.5652 34.7986 36.5652 32.6919 36.5652 30.6026C36.5652 30.4285 36.5478 30.237 36.4956 30.0803ZM28.8523 30.8986C28.8697 33.1098 28.8523 35.3383 28.8523 37.5495V38.0892H26.9719V37.6017C26.9719 35.3906 26.9545 33.162 26.9719 30.9508C26.9719 30.4285 26.7804 30.1325 26.2929 29.9236C24.9001 29.2968 24.0818 28.1999 23.9251 26.6852C23.7684 25.1531 24.3777 23.9169 25.6661 22.9419C25.6835 23.116 25.701 23.2379 25.701 23.3598C25.701 24.1781 25.701 24.979 25.701 25.7973C25.7184 26.5459 26.0666 26.929 26.8152 26.929C27.5291 26.9464 28.2429 26.9464 28.9394 26.929C29.6706 26.9115 30.0536 26.5285 30.0536 25.7798C30.0536 24.8745 30.0536 23.9517 30.0536 22.9245C31.2898 23.8473 31.8992 24.979 31.8469 26.4066C31.7773 28.0781 30.9416 29.2794 29.392 29.9584C29.009 30.1499 28.8523 30.4285 28.8523 30.8986Z" fill="#636A86"/>
<path d="M27.9467 3.77282C22.8454 3.75541 17.744 3.75541 12.6427 3.77282C10.9887 3.77282 10.0137 4.74782 10.0137 6.38443C10.0137 8.02104 10.0137 9.65765 10.0137 11.2943C10.4315 11.155 10.8668 11.0505 11.3195 11.0157C11.3195 9.51836 11.3195 8.02104 11.3195 6.50631C11.3195 5.42684 11.6677 5.07863 12.7646 5.07863C17.7092 5.07863 22.6713 5.07863 27.6159 5.07863C27.6159 4.62595 27.7204 4.15586 27.9467 3.77282Z" fill="#636A86"/>
<path d="M44.9218 8.16055C44.9044 7.4293 44.3124 6.90698 43.5986 7.01144C43.1807 7.08108 42.937 6.97662 42.8499 6.55876C42.8151 6.43689 42.7629 6.31501 42.7107 6.19314C42.8674 6.07126 43.024 5.94939 43.1633 5.82751C43.6682 5.37483 43.7553 4.66099 43.2852 4.15608C42.641 3.45965 41.962 2.78064 41.2482 2.11903C40.7432 1.64894 39.9946 1.73599 39.5419 2.25831C39.42 2.3976 39.3156 2.5543 39.2111 2.69358C38.4276 2.41501 38.4276 2.41501 38.4102 1.64894C38.4102 0.987333 37.9053 0.482422 37.2089 0.482422C36.3557 0.499833 35.4678 0.499833 34.5799 0.499833C33.779 0.517243 33.2741 1.12662 33.3785 1.9101C33.4133 2.11903 33.5352 2.38019 33.187 2.46724C32.8736 2.5543 32.595 2.86769 32.2816 2.36278C31.8116 1.64894 31.0281 1.63153 30.4187 2.22349C29.8441 2.78064 29.3044 3.33778 28.7299 3.87751C28.3642 4.22573 28.2598 4.73064 28.2772 5.21814C28.2772 5.23555 28.2772 5.23555 28.2772 5.25296C28.5209 5.58376 28.7647 5.93198 29.0432 6.31501C28.8343 6.99403 28.8343 6.99403 28.0682 6.99403C27.4241 6.99403 26.9017 7.48153 26.9017 8.14314C26.8843 9.04849 26.8843 9.97126 26.9017 10.8766C26.9191 11.6601 27.5285 12.1476 28.312 12.0431C28.5557 12.0083 28.7995 11.9039 28.904 12.2695C28.991 12.5829 29.2348 12.844 28.7995 13.14C28.0857 13.6101 28.0508 14.3936 28.6428 15.003C29.2348 15.6123 29.8441 16.2217 30.4535 16.8137C31.0629 17.4056 31.8464 17.3708 32.3165 16.6744C32.6124 16.2391 32.8736 16.4655 33.187 16.5525C33.5526 16.657 33.4482 16.9007 33.4133 17.1445C33.2741 18.0324 33.8312 18.4329 34.6495 18.5025C35.0499 18.5373 35.4504 18.5025 35.8508 18.4851C36.0424 18.4677 36.2339 18.4503 36.408 18.4503C36.6169 18.4503 36.8258 18.5547 37.0348 18.5547C37.0696 18.5547 37.087 18.5547 37.1218 18.5547C37.3133 18.5373 37.5049 18.5373 37.679 18.4851C38.2187 18.311 38.5321 17.8235 38.4276 17.2141C38.358 16.7789 38.4799 16.5699 38.8803 16.4655C39.0022 16.4306 39.124 16.3784 39.2459 16.3262C39.3504 16.4655 39.4549 16.6047 39.5593 16.7266C40.0294 17.3012 40.7781 17.3882 41.3178 16.8833C41.9968 16.2391 42.641 15.5949 43.2852 14.9159C43.7901 14.3936 43.7031 13.6623 43.1459 13.1922C43.0066 13.0704 42.8499 12.9659 42.7107 12.844C42.8499 12.548 42.9022 12.2347 43.1111 12.0605C43.233 11.9561 43.5464 12.078 43.7727 12.078C44.4169 12.078 44.9392 11.573 44.9392 10.9114C44.9392 9.98867 44.9392 9.0659 44.9218 8.16055ZM43.5986 10.7025C43.4071 10.6851 43.233 10.6677 43.0589 10.6677C42.5191 10.6329 42.1013 10.894 41.8924 11.3815C41.7705 11.6601 41.666 11.9387 41.5441 12.2172C41.2133 12.9659 41.3352 13.4186 41.9794 13.9235C42.049 13.9757 42.1187 14.028 42.1883 14.0976C41.6312 14.6547 41.074 15.1945 40.5169 15.7516C40.5343 15.7516 40.4995 15.7516 40.4821 15.7342C39.6464 14.7766 39.5245 14.7592 38.3232 15.2641C38.1839 15.3338 38.0272 15.3686 37.8705 15.4382C37.2263 15.6994 36.9651 16.1521 37.0522 16.8485C37.0696 16.953 37.0696 17.0748 37.087 17.2141H34.7888C34.7714 17.1619 34.7366 17.1445 34.7366 17.1271C34.7888 15.9083 34.7017 15.769 33.57 15.3163C33.4482 15.2641 33.3263 15.2119 33.2044 15.1597C32.4383 14.8114 31.9857 14.9333 31.4633 15.6123C31.4111 15.682 31.3589 15.7516 31.3066 15.8039C30.7495 15.2467 30.1924 14.6896 29.6352 14.1324C29.7223 14.0628 29.8267 13.9757 29.9312 13.8887C30.4535 13.4708 30.5754 13.0007 30.3142 12.3914C30.2098 12.1302 30.1053 11.8864 30.0008 11.6253C29.7049 10.8766 29.3392 10.6503 28.5383 10.7199C28.4339 10.7199 28.3468 10.7199 28.2075 10.7199V8.38689C28.2249 8.36948 28.2598 8.35206 28.2772 8.35206C29.4959 8.42171 29.6352 8.33465 30.1053 7.16814C30.1575 7.02885 30.2272 6.87215 30.2968 6.73287C30.5754 6.07126 30.4535 5.60117 29.8964 5.1659C29.8093 5.09626 29.7223 5.02662 29.6178 4.95698C30.1749 4.41724 30.7321 3.89492 31.3415 3.32037C32.1075 4.22573 32.3165 4.26055 33.4482 3.79046C33.57 3.73823 33.6919 3.7034 33.8138 3.65117C34.5799 3.35519 34.8062 2.98956 34.7366 2.18867C34.7366 2.08421 34.7191 1.97974 34.7191 1.85787H37.0696C37.0696 1.96233 37.0696 2.0668 37.0522 2.15385C36.9477 2.91992 37.2089 3.3726 37.9227 3.63376C38.149 3.72081 38.3754 3.80787 38.6017 3.91233C39.3156 4.22573 39.8031 4.12126 40.2732 3.49448C40.3428 3.40742 40.395 3.33778 40.4473 3.28555C41.0044 3.84269 41.5441 4.39983 42.1187 4.97439C41.1089 5.51412 41.2133 6.2976 41.666 7.23778C41.9446 7.79492 42.1535 8.33465 42.8674 8.4043C43.0937 8.42171 43.32 8.36948 43.5812 8.35206V10.7025H43.5986Z" fill="#2AA7EE"/>
<path d="M36.5646 19.1118C36.4775 19.0944 36.3905 19.077 36.3034 19.077C35.9552 19.0596 35.607 19.1292 35.2588 19.1466C35.2588 21.8279 35.2588 24.4917 35.2588 27.173C35.2588 27.2948 35.2588 27.4341 35.2588 27.556C35.2936 27.9216 35.5199 28.148 35.8856 28.1654C36.2338 28.1828 36.4601 27.9739 36.5472 27.6431C36.582 27.5038 36.5646 27.3471 36.5646 27.2078C36.5646 24.5091 36.5646 21.8105 36.5646 19.1118Z" fill="#636A86"/>
<path d="M18.9798 29.2974C18.3878 29.1407 17.7437 29.1233 17.1343 29.071C16.5249 29.0362 15.8981 29.071 15.2539 29.071C15.2539 28.6358 15.2713 28.2527 15.2539 27.8871C15.2365 27.5737 15.3584 27.3996 15.5847 27.2081C17.1865 25.9023 18.2137 24.2134 18.4575 22.159C18.6142 20.8358 18.562 19.4951 18.5445 18.1545C18.5097 15.2121 16.403 12.5831 13.5303 11.9215C12.9035 11.7822 12.2419 11.7474 11.5628 11.6777C10.9361 11.6951 10.3441 11.8693 9.75213 12.0956C9.71731 12.113 9.66508 12.1478 9.61285 12.1652C7.36686 13.0706 5.90436 14.7072 5.50392 17.1099C5.27758 18.4679 5.32981 19.8782 5.36463 21.271C5.43428 23.7085 6.49633 25.6934 8.37669 27.2429C8.48115 27.33 8.62044 27.4518 8.62044 27.5737C8.65526 28.0612 8.63785 28.5487 8.63785 29.071C7.88919 29.071 7.19276 29.071 6.49633 29.071C5.59097 29.071 4.72044 29.2626 3.88472 29.663C3.37981 29.9068 3.2057 30.2201 3.37981 30.6032C3.55392 30.9862 3.90213 31.0559 4.42445 30.8643C4.91195 30.6902 5.41686 30.4813 5.92177 30.4465C6.75749 30.3594 7.5932 30.4117 8.44633 30.3768C8.7249 30.3594 8.84678 30.4639 8.96865 30.7076C9.66508 32.1876 11.2495 32.9536 12.799 32.5358C13.9307 32.2224 14.6794 31.4737 15.0972 30.4117C16.0026 30.4117 16.8905 30.3594 17.7611 30.4291C19.9722 30.6032 21.7481 32.1527 22.1486 34.3117C22.3053 35.2344 22.253 36.192 22.2704 37.1322C22.2878 37.8809 21.9222 38.2117 21.1736 38.2117C19.8329 38.2117 18.5097 38.2117 17.1691 38.2117C12.3986 38.2117 7.62803 38.2117 2.85749 38.2117C1.96954 38.2117 1.67356 37.9157 1.67356 37.0451C1.67356 36.5925 1.69097 36.1398 1.67356 35.7045C1.62133 34.5032 1.8999 33.4063 2.59633 32.4139C2.84008 32.0483 2.77044 31.6652 2.45704 31.4563C2.14365 31.2474 1.7432 31.2996 1.51687 31.7001C1.18606 32.2746 0.872669 32.8666 0.646329 33.4934C0.211061 34.6773 0.385169 35.9309 0.367758 37.167C0.350347 38.5947 1.27311 39.5001 2.75303 39.5001C9.22981 39.5001 15.7066 39.5001 22.1834 39.5001C22.9146 39.3608 23.4718 38.6643 23.5414 37.9505C23.6459 37.0277 23.5936 36.0005 23.5588 35.0777C23.4544 32.292 21.6437 29.9764 18.9798 29.2974ZM11.7718 13.0358C14.9579 12.9313 17.2736 15.6126 17.2213 18.2764H16.7687C15.0798 18.2764 13.4084 18.259 11.7195 18.2764C10.9012 18.2938 10.1874 18.0849 9.50838 17.6322C8.74231 17.1273 8.44633 17.1969 7.92401 17.9108C7.61061 18.346 7.17535 18.259 6.70526 18.2416C6.56597 16.0826 8.48115 13.1576 11.7718 13.0358ZM13.9133 29.6456C13.8088 30.6032 12.9209 31.3344 11.9459 31.3344C10.9709 31.3344 10.1003 30.6032 9.99588 29.6456C9.94365 29.1755 9.99588 28.7054 9.99588 28.2701C10.7097 28.3572 11.3365 28.5139 11.9807 28.5139C12.6249 28.5139 13.2517 28.3572 13.9133 28.2527C13.9307 28.688 13.9655 29.1755 13.9133 29.6456ZM8.25481 25.3103C7.19276 24.0219 6.63561 22.542 6.67044 20.8706C6.67044 20.4701 6.67044 20.0697 6.67044 19.617C7.54097 19.6518 8.34186 19.5474 8.91642 18.8161C9.96106 19.53 11.0928 19.6344 12.2767 19.617C13.9133 19.5822 15.5499 19.617 17.2213 19.617C17.4651 21.863 17.0298 23.8478 15.5151 25.5193C13.3561 27.8349 10.2745 27.7652 8.25481 25.3103Z" fill="#4E5B76"/>
<path d="M19.6585 8.35268C18.3353 8.35268 17.0295 8.35268 15.7063 8.35268C15.1318 8.35268 14.8184 8.10893 14.8184 7.69107C14.8358 7.29063 15.1318 7.04688 15.6715 7.04688C18.3179 7.04688 20.9643 7.04688 23.6282 7.04688C24.2201 7.04688 24.5684 7.36027 24.4639 7.83036C24.3943 8.21339 24.1157 8.37009 23.7326 8.35268C22.3746 8.35268 21.0166 8.35268 19.6585 8.35268Z" fill="#636A86"/>
<path d="M20.8599 9.90137C21.8001 9.90137 22.7402 9.90137 23.6804 9.90137C24.2027 9.90137 24.4813 10.1277 24.4813 10.5456C24.4813 10.9634 24.2027 11.2072 23.6978 11.2072C21.8175 11.2072 19.9371 11.2072 18.0568 11.2072C17.5693 11.2072 17.2559 10.9286 17.2559 10.5456C17.2559 10.1625 17.5518 9.91878 18.0393 9.90137C18.9621 9.90137 19.9197 9.90137 20.8599 9.90137Z" fill="#636A86"/>
<path d="M21.7131 14.046C21.0689 14.046 20.4422 14.046 19.798 14.046C19.2931 14.046 18.9971 13.7675 18.9971 13.3844C18.9971 13.0014 19.2931 12.7576 19.7806 12.7402C21.1038 12.7402 22.427 12.7402 23.7328 12.7402C24.2203 12.7402 24.4814 12.984 24.4814 13.4018C24.4814 13.7849 24.2203 14.0286 23.7502 14.046C23.0712 14.0634 22.3922 14.046 21.7131 14.046Z" fill="#636A86"/>
<path d="M22.4625 15.1951C22.9152 15.1951 23.3679 15.1777 23.8031 15.1951C24.221 15.2126 24.4821 15.4563 24.4821 15.8219C24.4821 16.1876 24.2384 16.4835 23.8379 16.4835C22.9152 16.5009 21.9924 16.5009 21.0522 16.4835C20.6518 16.4835 20.3906 16.1876 20.3906 15.8219C20.3906 15.4737 20.6692 15.1951 21.0696 15.1777C21.5223 15.1951 21.9924 15.1951 22.4625 15.1951Z" fill="#636A86"/>
<path d="M35.9031 5.72363C33.7964 5.72363 32.0901 7.42988 32.1076 9.55399C32.125 11.6607 33.8138 13.3321 35.9031 13.3321C38.0272 13.3321 39.716 11.6259 39.6986 9.50176C39.6986 7.41247 37.9924 5.72363 35.9031 5.72363ZM36.8259 11.8174C36.5299 11.9567 36.1991 12.0263 35.8509 12.0263C34.4928 12.0263 33.3611 10.8772 33.3611 9.53658C33.3611 8.19595 34.5102 7.04685 35.8509 7.04685C36.1991 7.04685 36.5473 7.1339 36.8433 7.25578C37.8009 7.6214 38.4276 8.57899 38.3754 9.67587C38.358 10.6335 37.679 11.5388 36.8259 11.8174Z" fill="#2AA7EE"/>
</g>
<defs>
<clipPath id="clip0_921_502">
<rect width="44.6063" height="39" fill="white" transform="translate(0.333008 0.5)"/>
</clipPath>
</defs>
</svg>
