<svg width="43" height="42" viewBox="0 0 43 42" fill="none" xmlns="http://www.w3.org/2000/svg">
<g clip-path="url(#clip0_921_354)">
<path d="M3.12985 36.3971C3.12985 35.6916 3.12985 35.0354 3.12985 34.3791C3.12985 34.2971 3.12985 34.2151 3.11343 34.1002C2.62086 34.1002 2.14471 34.1002 1.66856 34.1002C0.978955 34.1002 0.666992 33.7885 0.666992 33.0994C0.666992 31.9182 0.666992 30.7205 0.666992 29.5393C0.666992 28.8502 0.978955 28.5385 1.66856 28.5385C2.21039 28.5385 2.75222 28.5385 3.39256 28.5385C1.43869 26.7994 0.502801 24.6994 0.69983 22.1565C0.864021 20.2205 1.70139 18.5799 3.16269 17.2838C6.03603 14.7244 10.3871 14.8557 13.2112 17.5463C15.7233 19.9416 16.692 25.0604 12.735 28.5385C12.9156 28.5385 13.047 28.5385 13.1783 28.5385C14.3605 28.5385 15.5591 28.5549 16.7413 28.5385C18.6787 28.5057 18.7444 28.5877 18.6951 30.5237C18.6787 31.1635 18.6951 31.8033 18.6951 32.476C19.2041 32.476 19.6803 32.476 20.1564 32.476C20.846 32.476 21.158 32.7877 21.158 33.4768C21.158 34.658 21.158 35.8557 21.158 37.0369C21.158 37.726 20.846 38.0377 20.1564 38.0377C19.6967 38.0377 19.237 38.0377 18.728 38.0377C18.728 38.7924 18.728 39.5471 18.728 40.3018C26.133 40.3018 33.538 40.3018 40.9594 40.3018C40.9594 29.933 40.9594 19.5479 40.9594 9.11348C40.8281 9.11348 40.6803 9.11348 40.5325 9.11348C38.5622 9.11348 36.5919 9.11348 34.6216 9.11348C33.8007 9.11348 33.5216 8.83458 33.5216 7.99786C33.5216 6.04551 33.5216 4.09317 33.5216 2.14082C33.5216 1.99317 33.5216 1.84551 33.5216 1.68145C26.7077 1.68145 19.943 1.68145 13.1455 1.68145C13.1455 2.58379 13.1455 3.48614 13.1455 4.4377C13.2933 4.4377 13.441 4.4377 13.5888 4.4377C16.2651 4.4377 18.9414 4.4377 21.6177 4.4377C21.7983 4.4377 21.979 4.4377 22.1431 4.48692C22.5208 4.58536 22.7507 4.89707 22.7342 5.27442C22.7178 5.65176 22.5208 5.93067 22.1596 6.02911C21.9954 6.07832 21.8148 6.07833 21.6342 6.07833C16.495 6.07833 11.3558 6.07833 6.21664 6.07833C6.1838 6.07833 6.16738 6.07833 6.13455 6.07833C5.47778 6.07833 5.08372 5.76661 5.08372 5.24161C5.10014 4.73301 5.47778 4.4377 6.11813 4.4377C7.74362 4.4377 9.3691 4.4377 10.9946 4.4377C11.1424 4.4377 11.2901 4.4377 11.4707 4.4377C11.4707 3.33848 11.4707 2.27207 11.4707 1.22207C11.4707 0.254102 11.7006 0.0244141 12.6858 0.0244141C19.7788 0.0244141 26.8718 0.0244141 33.9649 0.0244141C34.4739 0.0244141 34.8515 0.17207 35.1963 0.533008C37.5114 2.8627 39.8265 5.17598 42.158 7.48926C42.4864 7.81739 42.6506 8.17833 42.6506 8.65411C42.6342 19.3838 42.6506 30.1135 42.6506 40.8432C42.6506 41.7291 42.3879 41.9916 41.5012 41.9916C28.2675 41.9916 15.0501 41.9916 1.81633 41.9916C0.913278 41.9916 0.666992 41.7291 0.666992 40.8596C0.666992 39.7604 0.666992 38.6776 0.666992 37.5784C0.666992 36.676 0.913278 36.4135 1.84917 36.4135C2.25964 36.3971 2.67012 36.3971 3.12985 36.3971ZM13.7858 22.8127C13.7858 19.6627 11.208 17.0705 8.05558 17.0705C4.90311 17.0705 2.3089 19.6463 2.3089 22.7963C2.3089 25.9463 4.8867 28.5385 8.03916 28.5385C11.1916 28.5385 13.7858 25.9627 13.7858 22.8127ZM4.75534 40.3182C4.8046 39.4815 5.05089 39.1369 5.55988 39.1205C6.08529 39.1041 6.34799 39.4487 6.44651 40.3182C7.23462 40.3182 8.03916 40.3182 8.84369 40.3182C8.94221 39.4487 9.18849 39.1041 9.69748 39.1205C9.8781 39.1205 10.1244 39.1862 10.2065 39.3174C10.3871 39.6127 10.502 39.9573 10.6498 40.3018C11.3722 40.3018 12.1768 40.3018 12.9649 40.3018C13.0141 39.4815 13.2604 39.1205 13.7694 39.1041C14.2784 39.0877 14.5411 39.4159 14.656 40.3018C15.4442 40.3018 16.2487 40.3018 17.0532 40.3018C17.0532 39.5307 17.0532 38.7924 17.0532 38.0705C12.1275 38.0705 7.23462 38.0705 2.35816 38.0705C2.35816 38.8416 2.35816 39.5635 2.35816 40.3182C3.14627 40.3182 3.93439 40.3182 4.75534 40.3182ZM7.20179 36.3807C7.26746 35.4619 7.48091 35.1174 8.00632 35.0846C8.53173 35.0682 8.77802 35.3963 8.89295 36.3807C9.27059 36.3807 9.66465 36.3807 10.0587 36.3807C10.4692 36.3807 10.8632 36.3807 11.2737 36.3807C11.3886 35.4127 11.5857 35.101 12.0783 35.0846C12.2589 35.0846 12.5216 35.1338 12.6037 35.2487C12.8007 35.5768 12.932 35.9541 13.0962 36.3479C13.8023 36.3479 14.6068 36.3479 15.3949 36.3479C15.4442 35.4455 15.674 35.0846 16.2159 35.0682C16.7413 35.0518 16.9711 35.3799 17.1025 36.3479C17.8906 36.3479 18.6951 36.3479 19.4833 36.3479C19.4833 35.5768 19.4833 34.8385 19.4833 34.1166C14.5575 34.1166 9.66465 34.1166 4.78818 34.1166C4.78818 34.8877 4.78818 35.6096 4.78818 36.3643C5.60913 36.3807 6.39725 36.3807 7.20179 36.3807ZM17.0532 30.2119C12.1275 30.2119 7.23462 30.2119 2.34174 30.2119C2.34174 30.983 2.34174 31.7213 2.34174 32.4596C3.16269 32.4596 3.95081 32.4596 4.73892 32.4596C4.87028 31.2948 5.03447 30.9994 5.55988 30.9994C5.74049 30.9994 6.01961 31.0487 6.06887 31.1635C6.2659 31.5573 6.39725 31.9838 6.56144 32.4432C7.25104 32.4432 8.05558 32.4432 8.84369 32.4432C8.94221 31.2948 9.1064 30.983 9.63181 30.9994C10.6498 31.0158 10.4856 31.8198 10.5349 32.4432C11.3558 32.4432 12.1603 32.4432 12.9813 32.4432C12.9813 32.2135 12.9649 32.0002 12.9813 31.8033C13.0141 31.3112 13.3425 30.9994 13.7858 30.983C14.2456 30.983 14.5904 31.3112 14.6232 31.8198C14.6396 32.033 14.6232 32.2463 14.6232 32.4596C15.477 32.4596 16.2487 32.4596 17.0697 32.4596C17.0532 31.7049 17.0532 30.9666 17.0532 30.2119ZM39.7772 7.47286C38.2667 5.91426 36.789 4.38848 35.3112 2.8791C35.2784 2.91192 35.2456 2.92832 35.2292 2.96114C35.2292 4.47051 35.2292 5.96348 35.2292 7.48926C36.7397 7.47286 38.2338 7.47286 39.7772 7.47286Z" fill="#636A86"/>
<path d="M27.1842 19.6133C27.0364 19.7609 26.9215 19.843 26.8229 19.9578C25.5423 21.2375 24.2616 22.5336 22.9645 23.8133C22.8331 23.9445 22.6853 24.0922 22.5211 24.1742C22.1928 24.3711 21.8644 24.3055 21.5853 24.043C21.3061 23.7969 21.2569 23.3867 21.4375 23.075C21.536 22.9274 21.6509 22.7961 21.7823 22.6649C23.3093 21.1391 24.8362 19.6133 26.3632 18.0875C26.9707 17.4805 27.3648 17.4805 27.9559 18.0875C28.6947 18.8258 29.4172 19.5477 30.1232 20.2531C31.9621 18.4156 33.801 16.5781 35.6236 14.757C35.5251 14.7406 35.3773 14.7406 35.2295 14.7242C34.819 14.675 34.5235 14.3633 34.5071 13.9695C34.4907 13.5758 34.7369 13.182 35.1474 13.1492C36.0669 13.1 37.0028 13.1 37.9222 13.1492C38.3327 13.1656 38.5626 13.4938 38.579 13.9531C38.5954 14.7406 38.5954 15.5281 38.579 16.332C38.5626 16.8406 38.267 17.1688 37.8237 17.1852C37.3476 17.218 37.0192 16.9227 36.9535 16.3977C36.9371 16.2828 36.9371 16.1516 36.9207 15.9547C36.7729 16.1023 36.6744 16.1844 36.5759 16.2828C35.0161 17.8414 33.4563 19.3836 31.9129 20.9422C30.0903 22.7797 30.3038 22.7797 28.4649 20.9258C28.038 20.4828 27.6111 20.0563 27.1842 19.6133Z" fill="#4E5B76"/>
<path d="M30.7632 37.5615C28.366 37.5615 25.9524 37.5615 23.5552 37.5615C23.4238 37.5615 23.2761 37.5615 23.1447 37.5451C22.7178 37.4795 22.4059 37.1514 22.4059 36.7576C22.3894 36.3475 22.7178 35.9865 23.1611 35.9373C23.2761 35.9209 23.3746 35.9209 23.4895 35.9209C28.3496 35.9209 33.2096 35.9209 38.0697 35.9209C38.1846 35.9209 38.3159 35.9209 38.4309 35.9373C38.8742 36.0029 39.1533 36.3311 39.1533 36.7412C39.1533 37.1514 38.8578 37.4795 38.4309 37.5451C38.2995 37.5615 38.1518 37.5615 38.0204 37.5615C35.6068 37.5615 33.1768 37.5615 30.7632 37.5615Z" fill="#2AA7EE"/>
<path d="M12.4227 8.06348C14.4915 8.06348 16.5439 8.06348 18.6127 8.06348C18.7933 8.06348 19.0068 8.07988 19.1709 8.1291C19.5157 8.24395 19.6964 8.50645 19.6964 8.88379C19.6964 9.24473 19.5157 9.52363 19.1709 9.63848C18.9739 9.7041 18.7769 9.7041 18.5634 9.7041C14.4587 9.7041 10.3539 9.7041 6.24913 9.7041C6.21629 9.7041 6.19987 9.7041 6.16703 9.7041C5.49385 9.7041 5.11621 9.39238 5.11621 8.88379C5.11621 8.3752 5.51027 8.06348 6.16703 8.06348C8.25225 8.06348 10.3375 8.06348 12.4227 8.06348Z" fill="#636A86"/>
<path d="M10.5351 13.3135C9.04101 13.3135 7.56329 13.3135 6.06915 13.3135C5.34672 13.3135 4.91982 12.7557 5.18252 12.165C5.36313 11.7549 5.72435 11.6729 6.13483 11.6729C8.1708 11.6729 10.2068 11.6729 12.2263 11.6729C13.1786 11.6729 14.1309 11.6729 15.0996 11.6729C15.74 11.6729 16.134 12.1486 15.9863 12.7064C15.8878 13.1002 15.5594 13.3135 15.034 13.3135C13.5398 13.3135 12.0293 13.3135 10.5351 13.3135Z" fill="#636A86"/>
<path d="M34.9495 28.8992C34.9495 30.3101 34.9495 31.7047 34.9495 33.1156C34.9495 33.4765 34.8674 33.7883 34.539 34.0015C34.0793 34.2805 33.4882 34.0508 33.3405 33.5094C33.3076 33.3617 33.3076 33.1812 33.3076 33.0172C33.3076 30.2609 33.3076 27.5047 33.3076 24.7648C33.3076 24.6664 33.3076 24.5679 33.3076 24.4859C33.3569 23.9937 33.7181 23.6492 34.1614 23.6656C34.6047 23.682 34.9495 24.0429 34.9495 24.5515C34.9659 25.5195 34.9495 26.4875 34.9495 27.4554C34.9495 27.9148 34.9495 28.407 34.9495 28.8992Z" fill="#2AA7EE"/>
<path d="M36.5918 28.8668C36.5918 27.4395 36.5918 26.0121 36.5918 24.5684C36.5918 23.8629 37.1993 23.4363 37.7576 23.7152C38.1352 23.9121 38.2337 24.2402 38.2337 24.634C38.2337 26.4223 38.2337 28.2106 38.2337 29.9824C38.2337 31.0324 38.2337 32.0824 38.2337 33.1324C38.2337 33.4934 38.1188 33.8051 37.7904 33.9856C37.2486 34.2809 36.6246 33.8871 36.6082 33.2145C36.5918 32.3942 36.6082 31.5738 36.6082 30.7535C36.5918 30.1465 36.5918 29.5067 36.5918 28.8668Z" fill="#2AA7EE"/>
<path d="M28.3821 29.1132C28.3821 30.4257 28.3821 31.7382 28.3821 33.0343C28.3821 33.2148 28.3657 33.3952 28.3165 33.5593C28.2015 33.9038 27.9388 34.1007 27.5776 34.1007C27.2 34.1007 26.9208 33.9202 26.8059 33.5429C26.7567 33.3788 26.7402 33.1984 26.7402 33.0179C26.7402 30.3929 26.7402 27.7515 26.7402 25.1265C26.7402 24.9788 26.7402 24.8312 26.7731 24.6835C26.8552 24.3062 27.2 24.0273 27.5612 24.0437C27.9388 24.0437 28.2672 24.3062 28.3493 24.6999C28.3821 24.8476 28.3821 24.9952 28.3821 25.1429C28.3821 26.4718 28.3821 27.7843 28.3821 29.1132Z" fill="#2AA7EE"/>
<path d="M25.1152 30.2282C25.1152 31.2126 25.1152 32.197 25.1152 33.1649C25.1152 33.6735 24.8853 33.9852 24.4749 34.0837C23.9495 34.2149 23.4897 33.8212 23.4897 33.1813C23.4733 32.1149 23.4897 31.0485 23.4897 29.9985C23.4897 29.0634 23.4733 28.1118 23.4897 27.1766C23.5061 26.4712 24.0972 26.0446 24.6719 26.3399C25.0331 26.5204 25.1316 26.8485 25.1316 27.2259C25.0988 28.2266 25.1152 29.2274 25.1152 30.2282Z" fill="#2AA7EE"/>
<path d="M31.6663 30.5402C31.6663 31.3934 31.6663 32.2629 31.6663 33.116C31.6663 33.7395 31.3215 34.1332 30.8289 34.1168C30.3364 34.1004 30.0244 33.7231 30.0244 33.116C30.0244 31.377 30.0244 29.6543 30.0244 27.9152C30.0244 27.3082 30.3528 26.9473 30.8454 26.9473C31.3379 26.9473 31.6663 27.3246 31.6663 27.9152C31.6663 28.7848 31.6663 29.6543 31.6663 30.5402Z" fill="#2AA7EE"/>
<path d="M24.1631 9.70371C23.7527 9.70371 23.3422 9.70371 22.9317 9.70371C22.3899 9.68731 22.0287 9.37559 22.0122 8.89981C21.9958 8.42402 22.3735 8.06309 22.9317 8.06309C23.7527 8.04668 24.5736 8.04668 25.3946 8.06309C25.9364 8.06309 26.2976 8.40762 26.314 8.86699C26.3305 9.34277 25.9528 9.68731 25.3946 9.70371C24.9841 9.70371 24.5736 9.70371 24.1631 9.70371Z" fill="#636A86"/>
<path d="M37.3963 20.2041C37.8232 20.2041 38.2173 20.5814 38.2173 21.008C38.2173 21.4346 37.8396 21.8283 37.4128 21.8283C36.9859 21.8283 36.5918 21.451 36.5918 21.0244C36.5918 20.5979 36.9694 20.2041 37.3963 20.2041Z" fill="#2AA7EE"/>
<path d="M26.133 5.29102C26.133 5.73398 25.739 6.09492 25.3121 6.09492C24.8688 6.09492 24.5076 5.71758 24.524 5.27461C24.524 4.83164 24.9016 4.4707 25.3449 4.4707C25.7718 4.4707 26.133 4.84805 26.133 5.29102Z" fill="#636A86"/>
<path d="M19.7131 12.4768C19.7131 12.9197 19.3683 13.2807 18.925 13.2971C18.4816 13.3135 18.0876 12.9197 18.104 12.4768C18.104 12.0502 18.4817 11.6729 18.9085 11.6729C19.3354 11.6729 19.6967 12.0338 19.7131 12.4768Z" fill="#636A86"/>
<path d="M23.6374 12.4937C23.6374 12.9366 23.2597 13.2976 22.8329 13.2976C22.406 13.2976 22.0283 12.9202 22.0283 12.4937C22.0283 12.0507 22.4224 11.6569 22.8657 11.6733C23.2926 11.6898 23.6538 12.0507 23.6374 12.4937Z" fill="#636A86"/>
<path d="M26.7733 13.2974C26.3464 13.2974 25.9688 12.92 25.9688 12.4771C25.9688 12.0341 26.3628 11.6403 26.8061 11.6567C27.2494 11.6732 27.5942 12.0505 27.5778 12.4935C27.5778 12.9364 27.2002 13.2974 26.7733 13.2974Z" fill="#636A86"/>
<path d="M10.666 21.0245C10.666 21.5823 10.3704 21.9433 9.92711 21.9761C9.50021 22.0089 9.10615 21.7464 9.0569 21.2542C8.99122 20.5815 8.31804 20.2534 7.72695 20.4175C7.34931 20.5323 7.07019 20.844 7.07019 21.1722C7.08661 21.5659 7.31647 21.812 7.67769 21.9105C7.9404 21.9925 8.21952 21.9925 8.48223 22.0417C9.41812 22.2058 10.1241 22.698 10.4854 23.6003C10.9615 24.798 10.4033 26.0941 9.18825 26.6683C9.02406 26.7503 8.89271 26.9144 8.79419 27.062C8.63 27.3573 8.40013 27.5542 8.05533 27.5542C7.71053 27.5542 7.48067 27.3737 7.30006 27.0784C7.20154 26.9144 7.05377 26.7503 6.87316 26.6519C6.01937 26.1925 5.47754 25.5198 5.42828 24.5191C5.39544 24.0761 5.64173 23.7644 6.03579 23.6659C6.41342 23.5675 6.70897 23.6987 6.92242 24.0269C7.00451 24.1417 7.05377 24.3058 7.05377 24.4534C7.11945 25.1753 8.08817 25.5362 8.7121 25.0276C9.18825 24.6503 9.04048 23.9448 8.43297 23.7316C8.23594 23.6659 8.00608 23.6495 7.79263 23.6331C6.59403 23.5183 5.64173 22.698 5.4447 21.5823C5.24767 20.4995 5.83876 19.4823 6.95525 18.9573C7.08661 18.8917 7.20154 18.7605 7.2508 18.6292C7.39857 18.2847 7.66128 18.0714 8.03891 18.0878C8.40013 18.0878 8.63 18.3011 8.79419 18.6292C8.85987 18.7769 9.00764 18.9245 9.15541 18.9901C10.0749 19.4167 10.6003 20.1058 10.666 21.0245Z" fill="#636A86"/>
</g>
<defs>
<clipPath id="clip0_921_354">
<rect width="42" height="41.9508" fill="white" transform="translate(0.666992 0.0244141)"/>
</clipPath>
</defs>
</svg>
