<svg width="65" height="81" viewBox="0 0 65 81" fill="none" xmlns="http://www.w3.org/2000/svg">
<g clip-path="url(#clip0_1221_334)">
<path d="M0 37.4115C0 26.6614 0 15.9446 0 5.19453C0 2.25661 1.6025 0.6875 4.54042 0.6875C19.3302 0.6875 34.1533 0.6875 48.943 0.6875C51.8475 0.6875 53.4167 2.29 53.4167 5.19453C53.4167 7.5649 53.4167 9.93526 53.4167 12.2722C53.4167 13.4073 52.9493 14.0417 52.1146 14.0417C51.2466 14.0417 50.7458 13.4073 50.7458 12.2389C50.7458 9.86849 50.7458 7.49812 50.7458 5.16115C50.7458 3.82573 50.3118 3.39172 48.943 3.39172C34.1199 3.35833 19.2968 3.35833 4.44026 3.35833C3.10484 3.35833 2.67083 3.79234 2.67083 5.16115C2.67083 26.6614 2.67083 48.1616 2.67083 69.6618C2.67083 71.0306 3.10484 71.4312 4.47365 71.4312C14.3223 71.4312 24.171 71.4312 34.0197 71.4312C34.2868 71.4312 34.5873 71.3978 34.8544 71.4312C35.5889 71.5313 35.9895 71.9654 36.0562 72.6998C36.0896 73.4009 35.5889 73.9685 34.8544 74.0686C34.6207 74.102 34.3536 74.0686 34.1199 74.0686C24.2378 74.0686 14.3557 74.0686 4.50703 74.0686C1.6025 74.1354 0 72.5329 0 69.6284C0 58.9117 0 48.1616 0 37.4115Z" fill="#636A86"/>
<path d="M42.7667 56.7748C42.7667 59.4456 42.7667 62.083 42.7667 64.7873C43.2007 64.7873 43.6013 64.7873 44.002 64.7873C44.8366 64.8207 45.4041 65.288 45.4041 66.1227C45.4375 70.5629 45.4375 75.0366 45.4041 79.4769C45.4041 80.2781 44.87 80.7789 44.0687 80.8123C42.2993 80.8456 40.4965 80.8456 38.7271 80.8123C37.8256 80.7789 37.3916 80.2113 37.3916 79.143C37.3916 75.4038 37.3916 71.6313 37.3916 67.8921C37.3916 67.3913 37.3916 66.8905 37.3916 66.3898C37.425 65.288 37.8924 64.8207 38.9608 64.7873C39.2946 64.7873 39.6285 64.7873 39.9957 64.7873C39.9957 62.1164 39.9957 59.479 39.9957 56.8082C38.9608 56.6412 37.8924 56.5077 36.8241 56.274C28.0771 54.5046 20.9994 46.6924 20.1648 37.7785C19.0964 26.5276 26.1074 16.8458 37.1579 14.4754C41.9321 13.4405 46.5392 14.1416 50.9461 16.3116C51.9811 16.8124 52.3149 17.4801 51.9477 18.2814C51.5804 19.0826 50.8126 19.2496 49.7442 18.7154C39.7286 13.8411 27.9102 18.4483 23.9707 28.7644C19.5304 40.4159 27.5763 53.069 39.9957 53.9704C51.2132 54.805 60.5611 45.7576 60.027 34.5067C59.9602 32.8374 59.4594 31.1681 59.0922 29.5323C58.8585 28.4639 59.0588 27.7628 59.9268 27.4958C60.728 27.2621 61.329 27.6961 61.6628 28.731C65.8026 41.1504 57.7567 54.371 44.7698 56.5077C44.1689 56.5745 43.5012 56.6746 42.7667 56.7748ZM42.6665 78.108C42.6665 74.5358 42.6665 71.0303 42.6665 67.4915C41.7985 67.4915 40.9639 67.4915 40.0959 67.4915C40.0959 71.0303 40.0959 74.5358 40.0959 78.108C40.9639 78.108 41.7985 78.108 42.6665 78.108Z" fill="#4E5B76"/>
<path d="M59.293 16.7123C58.3248 16.7123 57.3232 16.7123 56.3217 16.7123C55.3535 16.7123 54.7526 16.1782 54.7526 15.3435C54.7526 14.5757 55.3535 14.0415 56.2549 14.0415C58.3916 14.0415 60.5282 14.0415 62.6649 14.0415C63.5663 14.0415 64.0671 14.5089 64.0671 15.4103C64.0671 17.547 64.0671 19.6836 64.0671 21.8203C64.0671 22.7885 63.4995 23.3894 62.6983 23.356C61.9304 23.3226 61.3963 22.7551 61.3963 21.8203C61.3963 20.8187 61.3963 19.8172 61.3963 18.6821C61.1626 18.8824 60.9956 18.9825 60.8621 19.1161C55.654 24.3242 50.4458 29.5323 45.2377 34.7405C44.3697 35.6085 43.702 35.6085 42.834 34.7071C41.4986 33.3383 40.1298 32.0029 38.7276 30.6341C38.4939 30.8678 38.2602 31.0347 38.0599 31.2684C35.1887 34.1395 32.3176 37.0107 29.4464 39.8818C29.2461 40.0821 29.0458 40.2824 28.8455 40.4494C28.2445 40.8834 27.6102 40.85 27.1094 40.3158C26.6087 39.7817 26.5753 39.1473 27.0093 38.5798C27.3431 38.1792 27.7438 37.8119 28.111 37.4447C31.2492 34.3064 34.3875 31.1348 37.5257 27.9966C38.3937 27.1286 39.0614 27.162 39.9294 28.03C41.2649 29.3988 42.6337 30.7342 43.9357 32.0029C49.077 26.9283 54.1516 21.8537 59.293 16.7123Z" fill="#2AA7EE"/>
<path d="M16.0248 12.4724C16.0248 13.4072 15.5241 13.9748 14.7896 14.0415C14.0885 14.1083 13.4876 13.6075 13.354 12.8063C13.3206 12.6727 13.354 12.5392 13.2872 12.4056C13.1203 11.7379 12.486 11.3039 11.8517 11.4041C11.2173 11.4708 10.6832 12.0384 10.6832 12.7061C10.7166 13.4406 11.1172 13.8746 11.8183 14.0415C12.2189 14.1083 12.6529 14.1083 13.0535 14.2085C14.656 14.6425 15.8245 15.9779 15.9915 17.5804C16.1584 19.283 15.4573 20.6185 14.0217 21.5199C13.6545 21.7536 13.354 21.8871 13.2872 22.3879C13.1871 23.0222 12.6863 23.3894 12.0186 23.3894C11.3509 23.3894 10.9836 22.9888 10.7166 22.3879C10.583 22.0874 10.3493 21.7536 10.0822 21.5532C8.88037 20.7854 8.14589 19.7504 8.04573 18.3149C7.97896 17.4135 8.47974 16.7791 9.24761 16.7124C9.98208 16.6456 10.5496 17.1464 10.6832 18.0144C10.8501 18.9492 11.3843 19.45 12.1521 19.3498C12.8198 19.283 13.3206 18.7155 13.3206 18.0478C13.3206 17.2799 12.7865 16.7791 11.8517 16.679C9.91531 16.5454 8.47974 15.3102 8.07912 13.474C7.71188 11.7713 8.51313 10.0687 10.149 9.10048C10.3827 8.96694 10.583 8.66647 10.6832 8.39939C10.9169 7.76507 11.3175 7.33105 12.0186 7.33105C12.7197 7.33105 13.1203 7.76507 13.354 8.39939C13.4542 8.66647 13.6545 8.96694 13.8882 9.10048C15.2236 9.93512 15.9247 11.1036 16.0248 12.4724Z" fill="#636A86"/>
<path d="M21.4004 60.7814C17.1604 60.7814 12.8871 60.7814 8.64714 60.7814C8.38005 60.7814 8.07958 60.8148 7.8125 60.748C7.11141 60.5811 6.6774 60.1471 6.71078 59.3792C6.74417 58.6781 7.14479 58.2441 7.8125 58.1106C8.01281 58.0772 8.24651 58.0772 8.48021 58.0772C17.0603 58.0772 25.6403 58.0772 34.2538 58.0772C34.4874 58.0772 34.6878 58.0438 34.9215 58.1106C35.6226 58.2441 36.0566 58.6781 36.0566 59.4126C36.0566 60.1471 35.6226 60.5811 34.8881 60.7146C34.6544 60.748 34.3873 60.748 34.1536 60.748C29.8803 60.7814 25.6403 60.7814 21.4004 60.7814Z" fill="#636A86"/>
<path d="M53.4163 64.3202C53.4163 66.2232 53.4163 68.0928 53.4163 69.9958C53.383 72.4329 51.6803 74.1022 49.2432 74.1356C48.8425 74.1356 48.4753 74.1689 48.0747 74.1356C47.2734 74.0688 46.7393 73.5346 46.7393 72.8335C46.7393 72.099 47.2734 71.5649 48.0413 71.4981C48.275 71.4647 48.5421 71.4981 48.7758 71.4981C50.3115 71.4981 50.7121 71.0975 50.7121 69.5951C50.7121 66.0229 50.7121 62.4173 50.7121 58.845C50.7121 58.6113 50.7121 58.411 50.7121 58.1773C50.7789 57.3761 51.2797 56.8419 52.0142 56.8085C52.782 56.7751 53.3496 57.3427 53.383 58.1773C53.4497 60.2138 53.4163 62.2837 53.4163 64.3202Z" fill="#636A86"/>
<path d="M53.4169 38.8473C53.4169 41.1509 53.4169 43.4544 53.4169 45.758C53.4169 46.8264 52.9161 47.4273 52.0815 47.4273C51.2469 47.4273 50.7461 46.8264 50.7461 45.7914C50.7461 41.0841 50.7461 36.4101 50.7461 31.7028C50.7461 30.6678 51.2803 30.0669 52.1149 30.0669C52.9161 30.1003 53.4169 30.6678 53.4169 31.6694C53.4169 34.0731 53.4169 36.4435 53.4169 38.8473Z" fill="#636A86"/>
<path d="M14.7568 48.7624C16.8267 48.7624 18.93 48.7624 20.9999 48.7624C22.0682 48.7624 22.6692 49.2298 22.7026 50.0644C22.7359 50.9324 22.1016 51.4332 20.9999 51.4332C16.76 51.4332 12.4866 51.4332 8.24668 51.4332C7.01142 51.4332 6.24355 50.3649 6.87787 49.4635C7.14496 49.0963 7.77928 48.7958 8.24668 48.7624C10.4167 48.729 12.5868 48.7624 14.7568 48.7624Z" fill="#636A86"/>
<path d="M26.0072 14.0414C24.5717 14.0414 23.1361 14.0414 21.6671 14.0414C20.6322 14.0414 20.0312 13.5073 20.0312 12.6726C20.0646 11.8714 20.6322 11.3706 21.6338 11.3706C24.5717 11.3706 27.5096 11.3706 30.4475 11.3706C31.4157 11.3706 32.0166 11.8714 32.0166 12.706C32.0166 13.5073 31.4157 14.0414 30.4475 14.0414C28.9785 14.0414 27.4762 14.0414 26.0072 14.0414Z" fill="#636A86"/>
<path d="M34.7207 41.4179C34.7207 39.9489 34.7207 38.4799 34.7207 37.011C34.7207 36.0094 35.2215 35.4419 36.0227 35.4085C36.8574 35.3751 37.3915 36.0094 37.3915 37.0444C37.3915 39.9489 37.3915 42.8868 37.3915 45.7913C37.3915 46.8263 36.8574 47.4272 36.0561 47.4272C35.2215 47.4272 34.7541 46.7929 34.7207 45.758C34.7207 44.3224 34.7207 42.8534 34.7207 41.4179Z" fill="#636A86"/>
<path d="M12.0184 32.7377C10.7498 32.7377 9.48113 32.7377 8.1791 32.7377C7.24431 32.7377 6.67676 32.2036 6.67676 31.4357C6.67676 30.6344 7.24431 30.0669 8.21249 30.0669C10.7498 30.0669 13.2537 30.0669 15.791 30.0669C16.7592 30.0669 17.3601 30.6011 17.3601 31.4023C17.3601 32.2036 16.7592 32.7043 15.7576 32.7377C14.5223 32.7377 13.2871 32.7377 12.0184 32.7377Z" fill="#636A86"/>
<path d="M42.7333 42.0852C42.7333 43.3204 42.7333 44.5891 42.7333 45.8243C42.7333 46.7925 42.2326 47.3935 41.4313 47.4268C40.6301 47.4268 40.0959 46.8259 40.0625 45.8577C40.0625 43.3204 40.0625 40.8165 40.0625 38.2792C40.0625 37.3111 40.5967 36.7101 41.4313 36.7435C42.2326 36.7435 42.7333 37.3444 42.7333 38.346C42.7333 39.5813 42.7333 40.8499 42.7333 42.0852Z" fill="#636A86"/>
<path d="M12.0184 39.4146C13.2871 39.4146 14.5557 39.4146 15.8577 39.4146C16.7925 39.4146 17.3601 39.9487 17.3601 40.7166C17.3601 41.5178 16.7592 42.0854 15.8244 42.0854C13.2871 42.0854 10.7832 42.0854 8.24587 42.0854C7.2777 42.0854 6.67676 41.5512 6.67676 40.75C6.67676 39.9487 7.2777 39.4479 8.27926 39.4479C9.51452 39.4146 10.7832 39.4146 12.0184 39.4146Z" fill="#636A86"/>
<path d="M48.0751 42.8532C48.0751 43.8548 48.0751 44.8563 48.0751 45.8579C48.0751 46.8261 47.5744 47.427 46.7731 47.4604C45.9719 47.4604 45.4377 46.8594 45.4043 45.9247C45.4043 43.8548 45.4043 41.7515 45.4043 39.6816C45.4043 38.7134 45.9385 38.1125 46.7731 38.1459C47.5744 38.1459 48.0751 38.7468 48.0751 39.7484C48.0751 40.7165 48.0751 41.7849 48.0751 42.8532Z" fill="#636A86"/>
<path d="M32.0502 44.1551C32.0502 44.7895 32.0836 45.4238 32.0502 46.0581C32.0168 46.8927 31.4159 47.4269 30.6814 47.4269C29.9469 47.3935 29.4127 46.8593 29.4127 46.0581C29.3793 44.7227 29.3793 43.3873 29.4127 42.0852C29.4461 41.284 30.0137 40.7832 30.7482 40.7832C31.4826 40.7832 32.0502 41.3174 32.0836 42.1186C32.0836 42.7529 32.0502 43.454 32.0502 44.1551Z" fill="#636A86"/>
</g>
<defs>
<clipPath id="clip0_1221_334">
<rect width="64.1" height="80.125" fill="white" transform="translate(0 0.6875)"/>
</clipPath>
</defs>
</svg>
