<svg width="42" height="42" viewBox="0 0 42 42" fill="none" xmlns="http://www.w3.org/2000/svg">
<g clip-path="url(#clip0_921_103)">
<path d="M41.8892 28.7721C41.5578 27.4289 40.6371 26.4952 39.2562 25.9383C39.5139 24.2511 38.7958 23.0389 37.1571 22.2362C36.3653 21.8431 35.592 21.4336 34.745 20.9913C35.5367 20.5818 36.2364 20.2214 36.9361 19.861C37.286 19.6809 37.6358 19.5171 37.9488 19.2877C39.0904 18.4523 39.4771 17.3548 39.2562 16.0607C39.385 15.9952 39.5139 15.9461 39.6244 15.8969C41.2079 15.1107 41.9813 13.9149 41.9813 12.3096C41.9813 11.8345 41.6867 11.5724 41.2632 11.5888C40.8397 11.6052 40.6371 11.8673 40.6003 12.326C40.5635 12.7355 40.453 13.1286 40.3425 13.5217C40.2689 13.833 40.0479 13.9149 39.6981 13.8821C37.6726 13.7019 36.4206 11.7035 37.3412 10.0818C37.4701 9.86886 37.6174 9.75419 37.8936 9.8361C38.3539 9.96714 38.8327 10.0818 39.2746 10.262C39.7349 10.4422 40.1032 10.4094 40.3241 10.0982C40.5451 9.78695 40.4346 9.44296 39.9927 9.19725C39.1641 8.72221 38.2619 8.54203 37.2676 8.60755C36.4021 8.67307 35.6472 8.96792 34.9475 9.4102C33.364 8.29632 31.7621 8.32908 30.1049 9.26277C29.4973 9.60677 28.8528 9.90162 28.2268 10.2292C28.1347 10.2784 28.0242 10.3111 27.8769 10.3767C27.8769 9.47572 27.8769 8.64031 27.8769 7.78852C27.8585 6.29788 27.122 5.21676 25.5753 4.57791C25.4648 4.52877 25.3544 4.34858 25.3359 4.21754C25.2807 3.9063 25.3359 3.57869 25.2807 3.28384C24.8756 1.25264 22.8134 -0.139714 20.567 0.0732348C18.2654 0.253422 16.5898 1.97339 16.6634 4.05373C16.6818 4.34858 16.6082 4.49601 16.2768 4.62705C15.0799 5.11847 14.325 5.95388 14.1777 7.13329C14.0672 8.01785 14.1224 8.9024 14.104 9.78695C14.104 9.96714 14.104 10.1473 14.104 10.393C13.1466 9.90162 12.2627 9.44296 11.3789 9.00068C10.3662 8.49288 9.27983 8.3946 8.19347 8.78773C7.78838 8.93516 7.42012 9.16449 7.01503 9.36106C4.43722 7.78852 1.76734 8.83688 0.717796 10.3111C0.110168 11.1465 -0.129201 12.0639 0.0365161 13.0467C0.294298 14.4882 1.25177 15.471 2.68798 16.0607C2.68798 16.503 2.63275 16.8962 2.7064 17.2893C2.89053 18.3376 3.55339 19.1075 4.58452 19.6481C5.44993 20.0904 6.29693 20.5327 7.21758 21.0077C6.2601 21.4991 5.37628 21.9414 4.49246 22.4164C3.18514 23.1208 2.55909 24.1855 2.68798 25.5451C2.72481 25.8891 2.61433 26.0038 2.30131 26.1512C0.441602 27.0194 -0.423808 28.9359 0.18382 30.7214C0.791448 32.4905 2.78005 33.6535 4.8423 33.3915C5.61565 33.2932 6.33375 32.9656 7.08869 32.7526C7.19916 32.7198 7.32805 32.8181 7.47536 32.9C8.50649 33.5061 9.61126 33.6699 10.7713 33.2604C11.4526 33.0311 12.0786 32.6543 12.7231 32.3431C13.165 32.1301 13.6253 31.8844 14.1224 31.6387C14.1224 32.0974 14.1224 32.4741 14.1224 32.8509C14.1409 33.3259 14.4171 33.6044 14.8406 33.588C15.264 33.5716 15.5034 33.3096 15.5034 32.8509C15.5034 32.1301 15.485 31.4094 15.5218 30.6887C15.5218 30.4757 15.5771 30.23 15.7244 30.0826C16.0374 29.7222 16.4241 29.411 16.7555 29.1161C17.2158 29.4929 17.6209 29.8369 18.0812 30.23C17.8971 30.3774 17.6946 30.4757 17.5473 30.6395C17.4184 30.7869 17.2711 30.9835 17.2711 31.1801C17.2342 31.8844 17.2526 32.6052 17.2711 33.3096C17.2895 33.6863 17.5841 33.9484 17.9708 33.9484C18.3574 33.9484 18.6336 33.6863 18.652 33.3096C18.6704 33.0638 18.652 32.8345 18.652 32.6543H23.3842C23.3842 32.8181 23.3842 33.0147 23.3842 33.2276C23.4026 33.6699 23.642 33.9484 24.0655 33.9484C24.4705 33.9484 24.7651 33.6699 24.7651 33.2276C24.7836 32.8018 24.7283 32.3759 24.7836 31.9663C24.8572 31.2784 24.7099 30.6723 24.047 30.23C24.0286 30.2136 24.0286 30.1808 24.0286 30.1972C24.4153 29.8369 24.802 29.4765 25.1886 29.1161C25.5753 29.4601 25.9804 29.7713 26.3302 30.1153C26.4407 30.23 26.496 30.4102 26.496 30.574C26.5144 31.8844 26.5328 33.1949 26.496 34.5053C26.4591 35.439 25.7963 36.1598 24.894 36.34C24.0286 35.0131 22.7397 34.2596 21.0089 34.2596C19.2597 34.2596 17.9892 35.0459 17.1238 36.3727C16.5714 36.2253 16.2031 35.9305 15.8901 35.5373C15.6139 35.1933 15.2272 35.1114 14.8958 35.308C14.5459 35.5209 14.4907 35.8649 14.7485 36.2417C15.1536 36.7986 15.706 37.2081 16.3872 37.4539C16.6266 37.5358 16.7003 37.6504 16.6818 37.8797C16.6634 38.2074 16.6634 38.535 16.7371 38.8626C17.179 40.8446 19.2044 42.2042 21.414 42.0077C23.7156 41.7947 25.4096 40.0911 25.3359 38.0108C25.3175 37.6996 25.4096 37.5521 25.741 37.4047C26.9379 36.9133 27.656 36.0615 27.8217 34.8821C27.8954 34.3088 27.8769 33.7355 27.8769 33.1621C27.8769 32.6871 27.8769 32.1957 27.8769 31.6387C28.8344 32.1301 29.6998 32.5724 30.5836 33.0147C31.5779 33.5061 32.6091 33.6208 33.677 33.2604C34.1189 33.113 34.5424 32.8673 34.9659 32.6543C37.3412 34.1613 40.0847 33.3423 41.2632 31.6879C41.9076 30.7706 42.147 29.8041 41.8892 28.7721ZM23.421 39.5997C22.8134 40.3205 22.0032 40.6972 20.9905 40.73C19.9778 40.6972 19.1676 40.3205 18.56 39.5997C18.3943 39.4032 18.3758 39.2393 18.5416 39.01C19.7016 37.503 22.2978 37.503 23.4394 39.01C23.6051 39.2393 23.5867 39.4032 23.421 39.5997ZM18.1917 37.5358C18.1365 36.5857 19.4438 35.5701 20.8248 35.4554C22.261 35.3571 23.734 36.3564 23.8445 37.5521C21.9295 36.34 20.0514 36.3564 18.1917 37.5358ZM35.684 10.4913C35.4447 12.588 36.3837 14.0459 38.5196 14.9141C37.5438 15.4055 35.9418 14.9469 35.1869 13.964C34.3399 12.8501 34.5424 11.3267 35.684 10.4913ZM27.1588 12.4242C27.2325 12.2441 27.4166 12.0802 27.6007 11.982C28.8344 11.3267 30.0497 10.7043 31.3018 10.0818C32.204 9.62315 33.1431 9.72143 33.9716 10.3439C33.1246 11.6707 32.9957 13.0467 33.8796 14.4063C34.7634 15.7495 36.1444 16.3392 37.8936 16.3556C38.0409 17.1582 37.8199 17.879 37.0834 18.3213C36.1444 18.911 35.1317 19.386 34.0821 19.9266C33.7875 17.4367 32.7748 15.3072 31.0071 13.4235C31.2833 13.276 31.5411 13.145 31.7989 12.9976C32.1856 12.7846 32.2961 12.4242 32.0751 12.1294C31.8726 11.8345 31.4859 11.7526 31.1176 11.9492C30.3995 12.2932 29.6814 12.6208 29.0185 13.0467C28.7239 13.2433 28.5766 13.6364 28.3373 13.9968C27.8953 13.8985 27.3614 13.7674 26.7906 13.6364C26.9195 13.1941 26.9931 12.801 27.1588 12.4242ZM26.9931 15.7823C26.5328 15.6512 26.3302 15.3072 26.4776 14.8322C27.0115 14.9632 27.5271 15.0779 28.0795 15.2089C27.8401 15.7331 27.4534 15.9133 26.9931 15.7823ZM28.8528 22.7768C28.595 22.8751 28.3557 22.9734 28.0795 23.088C27.5823 22.0888 27.0668 21.1387 26.6433 20.1395C26.0909 18.8454 25.428 18.5506 23.9734 19.2058C23.3289 19.4843 22.6661 19.7136 21.948 19.9921C21.727 19.5498 21.5245 19.1239 21.3035 18.6653C22.4635 18.2066 24.6178 17.3876 26.0172 16.847C26.1645 17.2074 26.3302 17.6005 26.3302 17.6005C27.1588 19.3205 27.9874 21.0241 28.8528 22.7768ZM18.5231 2.43205C19.1308 1.67854 19.9409 1.2854 20.9721 1.25264C22.0216 1.2854 22.8318 1.66216 23.4394 2.41567C23.6051 2.61223 23.5867 2.75966 23.4394 2.97261C22.2978 4.49601 19.6279 4.47963 18.5047 2.95623C18.3758 2.75966 18.3943 2.61223 18.5231 2.43205ZM23.8077 4.46325C23.8261 5.47885 22.4635 6.49445 21.0641 6.54359C19.6648 6.59273 18.2285 5.57713 18.1549 4.44687C20.0514 5.64265 21.9295 5.65903 23.8077 4.46325ZM15.5402 7.379C15.5955 6.52721 16.2399 5.90474 17.0869 5.69179C18.8362 8.4765 23.1448 8.4765 24.9124 5.69179C25.7779 5.87198 26.4223 6.55997 26.4776 7.44452C26.5328 8.3946 26.496 9.34468 26.496 10.3603C22.8134 8.95154 19.186 8.95154 15.5218 10.3439C15.5218 9.3283 15.4666 8.34546 15.5402 7.379ZM2.20925 13.8821C1.93305 13.8985 1.76734 13.833 1.69368 13.6036C1.56479 13.2269 1.45432 12.8501 1.32542 12.4734C1.39908 11.0646 2.63275 9.90162 4.19785 9.8361C4.34515 9.8361 4.56611 9.95076 4.63976 10.0654C5.61565 11.6707 4.25309 13.7838 2.20925 13.8821ZM3.46133 14.9141C5.57882 14.0623 6.5363 12.6044 6.31534 10.5405C7.29123 10.9991 7.64108 12.5717 6.99662 13.6692C6.31534 14.8322 4.63976 15.4219 3.46133 14.9141ZM4.47404 32.1629C3.94007 32.0482 3.36927 32.0319 2.90894 31.8189C1.54638 31.1964 1.04923 29.7222 1.65686 28.4609C1.80416 28.166 1.98829 28.1005 2.31973 28.1169C3.79276 28.2479 4.95278 29.3946 4.97119 30.7378L5.08167 30.7869C4.87913 31.2456 4.67659 31.7042 4.47404 32.1629ZM6.29693 31.4749C6.60995 29.4929 5.50517 27.8548 3.44292 27.0685C4.78706 26.6099 6.35217 27.1832 7.01503 28.3462C7.62266 29.4437 7.29123 30.918 6.29693 31.4749ZM10.2373 32.081C9.44555 32.3922 8.6722 32.1629 8.02775 31.6879C9.86905 28.9032 7.75155 25.627 4.14261 25.6434C3.81118 24.8571 4.40039 23.8907 5.06326 23.5467C6.37058 22.8587 7.6779 22.1871 9.00364 21.5155C9.15094 21.4336 9.3719 21.4008 9.5192 21.4336C9.96111 21.5155 10.403 21.6302 10.9002 21.7612C10.7529 22.2526 10.6056 22.744 10.4398 23.2846C9.59285 22.7768 8.98522 23.2846 8.34077 23.6122C7.97251 23.7924 7.58584 23.989 7.23599 24.1855C6.88614 24.3821 6.79408 24.7097 6.97821 25.0046C7.16234 25.3158 7.5306 25.4141 7.93568 25.2503C8.15664 25.152 8.35918 25.0373 8.48807 24.9882C9.16935 26.0202 9.75857 27.1013 10.5503 28.035C11.3421 28.9687 12.3364 29.7386 13.2754 30.6231C12.318 31.0982 11.3237 31.6551 10.2373 32.081ZM17.8603 28.1333C18.2654 27.9531 18.652 27.9695 18.9651 28.2643C19.2597 28.5428 19.2597 28.8704 19.0571 29.1816C18.6705 28.8376 18.2838 28.51 17.8603 28.1333ZM18.8362 31.2784C18.7993 31.2292 18.7625 31.1964 18.7257 31.1473C19.0939 30.8688 19.4622 30.5904 19.8121 30.2791C20.7879 29.411 20.8248 28.166 19.9041 27.3634C19.0019 26.5771 17.6209 26.6099 16.645 27.4453C15.8349 28.1333 14.9879 28.7721 14.104 29.4765C12.2443 28.2971 10.7713 26.6099 9.86905 24.4149C10.4951 24.5623 11.0291 24.6933 11.5815 24.7916C12.5758 24.9882 13.5885 24.5787 14.0672 23.776C14.5275 22.9897 14.3618 22.0233 13.6437 21.4008C13.5701 21.3353 13.4964 21.2862 13.4412 21.2206C13.165 21.0896 12.8335 21.0241 12.5389 20.9749C12.4837 20.9586 12.4469 20.9094 12.4653 20.8603C11.3605 20.6146 10.3478 20.3688 9.31666 20.1395C9.3719 19.1731 9.62968 18.223 10.0348 17.322C10.2373 16.847 10.4951 16.4047 10.7529 15.9461C10.9922 15.5038 10.937 15.1598 10.5503 14.9796C10.1821 14.7994 9.79539 14.9305 9.53761 15.34C8.69062 16.6996 8.17505 18.1738 7.97251 19.7136C7.97251 19.7628 7.9541 19.8119 7.91727 19.9429C6.88614 19.386 5.8366 18.8782 4.87913 18.2885C4.28991 17.9281 4.08737 17.3384 4.08737 16.6996C4.08737 16.4211 4.17944 16.3392 4.51087 16.3228C6.57312 16.2573 8.23029 15.0124 8.65379 13.2269C8.87475 12.326 8.69062 11.4578 8.06457 10.3603C8.61696 9.78695 9.64809 9.59039 10.4951 9.98352C11.471 10.4258 12.41 10.95 13.3859 11.4414C12.8519 11.8673 12.318 12.2604 11.8208 12.6699C11.3789 13.0303 11.3421 13.3743 11.6367 13.6692C11.9497 13.964 12.3364 13.9313 12.7967 13.5381C16.3136 10.5077 21.4692 9.68867 25.7963 11.4578C25.8699 11.4905 25.9252 11.5233 25.962 11.5397C25.6674 12.9484 24.8572 14.2261 25.0598 15.7331C25.0782 15.7659 25.0966 15.7986 25.1334 15.8314C24.5074 16.0771 23.4762 16.4703 22.8686 16.6996C22.8686 16.6996 22.8686 16.6996 22.8502 16.716C22.0584 17.1091 21.1746 17.3057 20.4013 17.6988C19.8121 18.2066 19.7384 18.5997 20.0698 19.3041C20.254 19.6972 20.4381 20.074 20.6406 20.4835C19.9594 20.7947 19.1124 20.9258 19.0203 21.8267C19.2228 22.4656 19.5174 23.0717 19.7752 23.7105C19.7752 23.7269 19.7936 23.7269 19.7936 23.7433C20.3276 24.7916 21.3035 26.7082 21.8191 27.7893C21.7454 27.8712 21.6718 27.9531 21.5797 28.035C21.2483 28.854 21.3956 29.5748 22.0769 30.2136C22.4451 30.5576 22.8318 30.8688 23.2921 31.262C21.7086 31.5077 20.2724 31.5241 18.8362 31.2784ZM11.8392 23.5631C11.9681 23.088 12.1154 22.613 12.2627 22.1052C12.8335 22.3018 13.0361 22.613 12.9256 23.0225C12.7967 23.432 12.4285 23.6286 11.8392 23.5631ZM22.9607 29.1652C22.7397 28.9032 22.7397 28.5755 22.9791 28.2971C23.2553 28.0022 23.6235 27.9531 24.1575 28.1824C23.734 28.5264 23.3473 28.8376 22.9607 29.1652ZM24.7651 27.1341C24.8572 27.1996 24.9861 27.2979 25.115 27.3961C24.894 27.2487 24.6547 27.1013 24.4337 26.9375C24.2364 26.87 24.0234 26.8247 23.8077 26.8075C23.5 26.7829 23.1868 26.8152 22.9054 26.9211C22.2242 25.5287 21.1194 23.3174 20.4381 21.9086C22.0032 21.3025 23.5315 20.7128 25.0966 20.1068C25.1702 20.2542 25.2255 20.3525 25.2807 20.4507C26.1829 22.3018 27.0852 24.1364 28.0058 26.0365C27.3061 26.2986 25.4648 26.872 24.7651 27.1341ZM27.6928 29.5748C27.656 29.5911 26.4039 28.379 26.275 28.2643C26.2198 28.2152 26.1645 28.166 26.0909 28.1169C26.5696 27.9367 27.9506 27.3961 28.3741 27.2487C29.4052 26.8556 29.6446 26.2986 29.1843 25.3813C29.0001 25.0046 28.816 24.6278 28.6319 24.2183C28.9265 24.1036 29.1658 24.0217 29.3868 23.9234C30.197 23.5958 30.4548 22.9897 30.0865 22.2362C29.442 20.9094 28.3741 18.567 27.6192 17.0108C27.6376 17.0108 27.656 17.0108 27.656 17.0108H27.6744C29.3316 16.6668 29.4605 15.3728 29.8103 14.2097C33.9164 17.8954 34.1189 25.5779 27.6928 29.5748ZM33.9532 31.6551C33.3272 32.212 32.4065 32.4086 31.5779 32.0482C30.5652 31.606 29.6078 31.0654 28.5766 30.5576C31.7805 28.4281 33.6034 25.627 34.0821 22.0561C35.1501 22.6294 36.1996 23.1208 37.1571 23.7433C37.8384 24.1692 38.0225 24.8735 37.8752 25.6434C36.1444 25.6598 34.7266 26.2495 33.8612 27.6091C32.9957 28.9687 33.1062 30.3283 33.9532 31.6551ZM35.684 31.5077C34.6345 30.7542 34.3583 29.3454 35.0396 28.2643C35.7209 27.1668 37.1939 26.659 38.5565 27.0685C36.4206 27.9367 35.4447 29.3946 35.684 31.5077ZM37.8199 32.1629C37.6726 32.1629 37.4333 32.0482 37.3596 31.9336C36.3469 30.3283 37.7279 28.1988 39.7901 28.1169C40.0663 28.1005 40.232 28.1824 40.3057 28.4117C40.4346 28.7885 40.5451 29.1652 40.674 29.542C40.6003 30.9507 39.3666 32.0974 37.8199 32.1629Z" fill="#636A86"/>
<path fill-rule="evenodd" clip-rule="evenodd" d="M28.079 23.0883C28.3552 22.9736 28.5946 22.8753 28.8524 22.777C27.9869 21.0243 27.1584 19.3207 26.3298 17.6007C26.3298 17.6007 26.2017 17.2969 26.0707 16.9786C26.0756 16.9801 26.0807 16.9817 26.0857 16.9832C26.6674 17.1557 27.1945 17.1267 27.6217 17.0172C28.0106 17.8191 28.4821 18.8285 28.936 19.8001C29.3629 20.7139 29.7741 21.5942 30.086 22.2365C30.4543 22.99 30.1965 23.5961 29.3863 23.9237C29.2406 23.9885 29.0869 24.0462 28.9147 24.1108C28.8257 24.1442 28.7317 24.1795 28.6314 24.2185C28.8155 24.628 28.9996 25.0048 29.1838 25.3815L29.1838 25.3816C29.6441 26.2989 29.4048 26.8558 28.3736 27.2489C28.0957 27.3457 27.4054 27.6118 26.8284 27.8342C26.7479 27.8652 26.6695 27.8954 26.5949 27.9242C26.3111 27.5092 25.9042 27.121 25.3515 26.9283C25.6607 26.8237 26.0229 26.7046 26.385 26.5855C27.0203 26.3767 27.6555 26.1678 28.0054 26.0368C27.4255 24.84 26.8529 23.6692 26.2831 22.5039C25.9482 21.8191 25.6142 21.1361 25.2802 20.451L25.2802 20.4509C25.225 20.3527 25.1698 20.2544 25.0961 20.107C24.3136 20.41 23.5402 20.709 22.7668 21.0079C21.9935 21.3069 21.2202 21.6058 20.4376 21.9089C20.8399 22.7407 21.3899 23.8525 21.9132 24.9102C22.276 25.6437 22.626 26.3512 22.905 26.9213C23.1864 26.8154 23.4996 26.7831 23.8072 26.8077C23.8936 26.8146 23.9795 26.826 24.0641 26.8415C23.0397 26.9985 22.1358 27.5887 21.554 28.0997C21.5621 28.0783 21.5705 28.0568 21.5792 28.0352C21.6713 27.9533 21.745 27.8714 21.8186 27.7895C21.303 26.7084 20.3272 24.7919 19.7932 23.7435C19.7932 23.7353 19.7886 23.7312 19.784 23.7271C19.7794 23.723 19.7748 23.7189 19.7748 23.7107C19.6912 23.5037 19.6038 23.3001 19.5169 23.0977C19.3673 22.7491 19.2192 22.4042 19.095 22.0515L19.0625 21.8923L19.1274 21.4301C19.3344 21.0011 19.7892 20.8239 20.2466 20.6457C20.3796 20.5938 20.5128 20.5419 20.6402 20.4837C20.4376 20.0742 20.2535 19.6975 20.0694 19.3043C19.8337 18.8035 19.8029 18.46 20.0165 18.1208L22.5741 16.9832L22.9106 16.6838C23.507 16.4585 24.4698 16.0914 25.0846 15.8506C25.1972 16.292 25.4335 16.6926 25.874 16.9023C25.4221 17.0766 24.9023 17.276 24.3679 17.481C23.2473 17.9108 22.0622 18.3653 21.303 18.6655C21.3477 18.7582 21.3916 18.8495 21.435 18.9399C21.6066 19.2969 21.7712 19.6394 21.9475 19.9923C22.1894 19.8985 22.4249 19.8103 22.6557 19.7239C23.11 19.5538 23.5455 19.3907 23.9729 19.2061C25.4275 18.5508 26.0904 18.8457 26.6428 20.1397C26.9517 20.8686 27.3096 21.5713 27.6736 22.2859C27.8086 22.5511 27.9445 22.8179 28.079 23.0883ZM27.6452 17.011H27.6555H27.6739C28.0756 16.9277 28.3874 16.7885 28.6344 16.6089L28.594 16.5369C28.4241 16.688 28.0903 16.8928 27.6452 17.011Z" fill="#2AA7EE"/>
<path d="M13.5883 19.8448C14.2511 18.4525 14.8956 17.0765 15.5585 15.6678C17.1236 16.2575 19.0201 16.9946 20.6036 17.5843C21.156 17.3058 21.7636 17.1256 22.3528 16.8963C20.4379 16.1919 18.1547 15.3074 16.2397 14.5866C15.2638 14.2263 14.6378 14.4556 14.2143 15.3238C13.6067 16.5851 13.0359 17.8628 12.4098 19.1241C12.0968 19.7465 12.0784 20.2707 12.6676 20.7949C13.0911 20.8604 13.533 20.9915 13.846 21.2536C13.8645 21.2699 13.8829 21.2863 13.8829 21.3027C13.9197 21.3191 13.9565 21.3355 13.9933 21.3355C15.7426 21.9907 17.8785 22.8097 19.6277 23.4813C19.4068 22.9572 19.1674 22.4494 19.0201 21.9088C17.3077 21.2699 15.3007 20.4837 13.5883 19.8448Z" fill="#4E5B76"/>
</g>
<defs>
<clipPath id="clip0_921_103">
<rect width="42" height="41.9508" fill="white" transform="translate(0 0.0244141)"/>
</clipPath>
</defs>
</svg>
