<svg width="33" height="42" viewBox="0 0 33 42" fill="none" xmlns="http://www.w3.org/2000/svg">
<g clip-path="url(#clip0_921_604)">
<path d="M13.8243 2.95789C14.0197 1.26437 15.0945 0.205922 16.5763 0.189638C18.107 0.173355 19.198 1.2318 19.4097 2.95789C20.0285 2.95789 20.6635 2.97417 21.2986 2.95789C21.8034 2.9416 22.2105 3.10444 22.5687 3.49525C22.6664 3.60924 22.8618 3.65809 23.0247 3.65809C25.0276 3.67437 27.0305 3.65809 29.0334 3.67437C30.8083 3.69066 32.1762 4.81424 32.5019 6.50776C32.5507 6.78458 32.567 7.07769 32.567 7.35452C32.567 17.6133 32.567 27.8721 32.567 38.1309C32.567 40.3944 31.1177 41.8274 28.8543 41.8274C20.6798 41.8274 12.489 41.8274 4.31457 41.8274C2.49078 41.8274 1.09037 40.7363 0.748411 39.0103C0.69956 38.7334 0.683276 38.4403 0.683276 38.1635C0.666992 27.8884 0.666992 17.6133 0.666992 7.33823C0.666992 5.10735 2.11625 3.65809 4.36342 3.65809C6.28491 3.65809 8.2064 3.65809 10.1279 3.65809C10.3884 3.65809 10.5838 3.62552 10.763 3.39755C11.0235 3.05559 11.4143 2.9416 11.854 2.9416C12.5053 2.95789 13.1404 2.95789 13.8243 2.95789ZM28.382 37.6424C28.382 27.693 28.382 17.7762 28.382 7.82675C26.4117 7.82675 24.4576 7.82675 22.5036 7.82675C22.3896 7.82675 22.243 7.90817 22.1453 7.98959C21.7545 8.33155 21.2986 8.51067 20.7775 8.51067C17.993 8.51067 15.2247 8.51067 12.4402 8.51067C11.9354 8.51067 11.4957 8.33155 11.1049 8.00587C10.9746 7.90817 10.7955 7.82675 10.6327 7.82675C8.8089 7.81046 6.96883 7.82675 5.14504 7.82675C5.04734 7.82675 4.93335 7.84303 4.85193 7.85931C4.85193 17.8087 4.85193 27.7093 4.85193 37.6424C12.717 37.6424 20.5332 37.6424 28.382 37.6424ZM22.8781 6.44262C23.0735 6.44262 23.2038 6.44262 23.3503 6.44262C24.9624 6.44262 26.5745 6.44262 28.1866 6.44262C29.2614 6.44262 29.7825 6.96371 29.7825 8.03844C29.7825 17.8413 29.7825 27.6604 29.7825 37.4633C29.7825 38.5055 29.2451 39.0591 28.2192 39.0591C20.4844 39.0591 12.7496 39.0591 5.01477 39.0591C3.97261 39.0591 3.43524 38.5217 3.43524 37.4796C3.43524 27.6604 3.43524 17.8413 3.43524 8.00587C3.43524 6.97999 3.97261 6.44262 4.9822 6.44262C6.62687 6.44262 8.25525 6.44262 9.89992 6.44262C10.0465 6.44262 10.193 6.44262 10.3396 6.44262C10.3396 5.95411 10.3396 5.53073 10.3396 5.07478C10.2093 5.07478 10.1116 5.0585 9.99762 5.0585C8.07613 5.0585 6.15464 5.0585 4.23315 5.0585C2.89788 5.0585 2.05112 5.92154 2.05112 7.25681C2.05112 17.5808 2.05112 27.9047 2.05112 38.2286C2.05112 39.5639 2.91416 40.4269 4.26572 40.4432C12.489 40.4432 20.7124 40.4432 28.9357 40.4432C30.3035 40.4432 31.1666 39.5802 31.1666 38.2123C31.1666 27.921 31.1666 17.6133 31.1666 7.32195C31.1666 5.92154 30.3361 5.07478 28.9194 5.07478C27.0305 5.07478 25.1579 5.07478 23.2689 5.07478C23.1387 5.07478 23.0084 5.07478 22.8781 5.07478C22.8781 5.54701 22.8781 5.95411 22.8781 6.44262ZM21.4777 4.34201C21.2986 4.34201 21.1683 4.34201 21.038 4.34201C20.2727 4.34201 19.4911 4.34201 18.7257 4.34201C18.0744 4.34201 17.7976 4.00005 17.9441 3.38127C18.0907 2.68106 17.9116 2.15998 17.3905 1.81802C16.9182 1.49234 16.3157 1.49234 15.8435 1.81802C15.3224 2.15998 15.1433 2.69735 15.2899 3.38127C15.4201 3.98377 15.1596 4.34201 14.5408 4.34201C13.7592 4.35829 12.9776 4.34201 12.1796 4.34201C12.0331 4.34201 11.9028 4.35829 11.74 4.35829C11.74 5.07478 11.7237 5.74242 11.74 6.39377C11.7563 6.83343 12.0331 7.09398 12.4728 7.09398C15.2247 7.09398 17.9767 7.09398 20.7287 7.09398C21.1683 7.09398 21.4451 6.83343 21.4614 6.39377C21.494 5.74242 21.4777 5.09107 21.4777 4.34201Z" fill="#636A86"/>
<path d="M19.3766 18.9157C18.8393 18.9157 18.3508 18.9157 17.846 18.9157C16.9829 18.9157 16.6084 18.5249 16.6084 17.6782C16.6084 17.092 16.6084 16.5057 16.6084 15.9358C16.6084 15.1705 17.0318 14.7634 17.7971 14.7634C18.3019 14.7634 18.823 14.7634 19.3766 14.7634C19.3766 14.2097 19.3766 13.7049 19.3766 13.2001C19.3766 12.4022 19.7837 12.0114 20.5816 11.9951C21.1842 11.9951 21.8029 11.9951 22.4054 11.9951C23.1056 12.0114 23.5127 12.4022 23.529 13.1024C23.5453 13.6398 23.529 14.1771 23.529 14.7634C24.0664 14.7634 24.5386 14.7634 25.0271 14.7634C25.9065 14.7634 26.2973 15.1379 26.3136 16.0172C26.3136 16.5872 26.3136 17.1571 26.3136 17.727C26.2973 18.5575 25.9227 18.932 25.076 18.932C24.6038 18.932 24.1315 18.9483 23.6593 18.9483C23.643 18.9483 23.6104 18.9646 23.529 19.0134C23.529 19.4857 23.529 19.9742 23.529 20.479C23.529 21.342 23.1545 21.7166 22.2915 21.7166C21.7052 21.7166 21.119 21.7328 20.5491 21.7166C19.7675 21.7003 19.3766 21.2932 19.3766 20.5278C19.3766 19.9905 19.3766 19.4857 19.3766 18.9157ZM24.8969 16.1475C24.2129 16.1475 23.5453 16.1475 22.894 16.1475C22.4543 16.1475 22.1937 15.8869 22.1612 15.4473C22.1449 15.2356 22.1612 15.0076 22.1612 14.7959C22.1612 14.3237 22.1612 13.8678 22.1612 13.4118C21.6564 13.4118 21.233 13.4118 20.8259 13.4118C20.8096 13.4607 20.7933 13.4932 20.7933 13.5095C20.7933 14.0469 20.7933 14.6005 20.7933 15.1379C20.7933 15.9847 20.6142 16.1475 19.7675 16.1475C19.1975 16.1475 18.6113 16.1475 18.0414 16.1475C18.0414 16.636 18.0414 17.0757 18.0414 17.5316C18.6927 17.5316 19.3115 17.5316 19.9303 17.5316C20.5491 17.5316 20.7771 17.7759 20.7933 18.3947C20.7933 19.0134 20.7933 19.6322 20.7933 20.2673C21.2819 20.2673 21.7052 20.2673 22.1449 20.2673C22.1612 20.2022 22.1775 20.1859 22.1775 20.1533C22.1775 19.6159 22.1775 19.0623 22.1775 18.5249C22.1775 17.727 22.3892 17.5153 23.1871 17.5153C23.757 17.5153 24.3432 17.5153 24.9131 17.5153C24.8969 17.0431 24.8969 16.6034 24.8969 16.1475Z" fill="#4E5B76"/>
<path d="M26.33 27.8721C26.216 29.4191 25.5484 30.6404 24.5388 31.6988C23.7897 32.4805 22.9104 33.0341 21.9008 33.3761C21.7054 33.4412 21.4612 33.5063 21.282 33.4412C18.9046 32.6433 17.3088 31.0638 16.7063 28.6049C16.1201 26.2112 18.3835 24.5665 20.5167 25.3807C21.2169 25.6413 21.7217 25.6575 22.4219 25.3807C24.0503 24.7131 25.8089 25.6087 26.2323 27.1719C26.2975 27.3999 26.3137 27.6604 26.33 27.8721ZM24.9947 27.9536C24.9296 27.2534 24.5551 26.7648 23.9037 26.602C23.2361 26.4392 22.6499 26.6346 22.1451 27.1068C21.5914 27.6116 21.3472 27.6116 20.8098 27.1231C20.5981 26.9277 20.3213 26.7648 20.0608 26.6671C19.4745 26.4554 18.9046 26.5043 18.4324 26.9277C17.9439 27.3511 17.9439 27.9047 18.1067 28.4584C18.5789 30.1356 19.6699 31.2755 21.2495 31.9594C21.396 32.0245 21.6077 32.0082 21.738 31.9594C23.0081 31.422 23.9689 30.5427 24.5551 29.2888C24.7505 28.8655 24.8482 28.3932 24.9947 27.9536Z" fill="#2AA7EE"/>
<path d="M10.73 19.6159C11.7233 19.6159 12.7003 19.6159 13.6936 19.6159C14.231 19.6159 14.5241 19.8602 14.5241 20.2835C14.5404 20.7232 14.231 21 13.6773 21C11.707 21 9.72037 21 7.75003 21C7.22895 21 6.91956 20.7558 6.91956 20.3161C6.90327 19.8764 7.21267 19.6159 7.76632 19.5996C8.74334 19.6159 9.73666 19.6159 10.73 19.6159Z" fill="#636A86"/>
<path d="M10.6812 29.3216C9.70414 29.3216 8.72711 29.3216 7.75008 29.3216C7.19643 29.3216 6.90332 29.0611 6.90332 28.6214C6.9196 28.198 7.21271 27.9375 7.7338 27.9375C9.72042 27.9375 11.707 27.9375 13.71 27.9375C14.0845 27.9375 14.3776 28.0678 14.4916 28.4586C14.573 28.768 14.4916 29.0611 14.1822 29.2239C14.0193 29.3053 13.8239 29.3216 13.6285 29.3216C12.6515 29.3216 11.6745 29.3216 10.6812 29.3216Z" fill="#636A86"/>
<path d="M10.7144 16.8478C9.76995 16.8478 8.82548 16.8478 7.86474 16.8478C7.73447 16.8478 7.58791 16.8478 7.45764 16.8315C7.0994 16.7501 6.88771 16.457 6.92028 16.0825C6.95285 15.7405 7.1971 15.48 7.55535 15.48C9.65596 15.4637 11.7566 15.4637 13.8572 15.48C14.2643 15.48 14.5248 15.7731 14.5248 16.1476C14.5248 16.5384 14.2643 16.8315 13.8409 16.8478C13.3198 16.8641 12.815 16.8478 12.2939 16.8478C11.7729 16.8478 11.2355 16.8478 10.7144 16.8478Z" fill="#636A86"/>
<path d="M10.7137 25.1527C9.72037 25.1527 8.74334 25.1527 7.75003 25.1527C7.21267 25.1527 6.91956 24.9084 6.91956 24.485C6.90327 24.0454 7.21267 23.7686 7.76632 23.7686C9.73666 23.7686 11.7233 23.7686 13.6936 23.7686C14.2147 23.7686 14.5241 24.0291 14.5241 24.4525C14.5404 24.8921 14.231 25.1527 13.6773 25.1527C12.7003 25.169 11.707 25.1527 10.7137 25.1527Z" fill="#636A86"/>
<path d="M10.7463 11.2946C11.6745 11.2946 12.6189 11.2946 13.5471 11.2946C13.6774 11.2946 13.8239 11.2946 13.9542 11.3109C14.3125 11.376 14.5079 11.604 14.5079 11.9622C14.5241 12.3205 14.345 12.5647 14.0031 12.6462C13.8565 12.6787 13.71 12.6787 13.5634 12.6787C11.6745 12.6787 9.76927 12.6787 7.88035 12.6787C7.76636 12.6787 7.66866 12.6787 7.55467 12.6624C7.14758 12.6136 6.90332 12.3368 6.90332 11.9622C6.90332 11.5877 7.16386 11.3109 7.57096 11.2946C7.9292 11.2783 8.27116 11.2783 8.62941 11.2783C9.34589 11.2946 10.0461 11.2946 10.7463 11.2946Z" fill="#636A86"/>
<path d="M9.31397 32.1059C9.86762 32.1059 10.4213 32.0896 10.9749 32.1059C11.4797 32.1222 11.7565 32.3827 11.7403 32.8061C11.7403 33.2295 11.4471 33.49 10.9586 33.5063C9.86762 33.5226 8.7766 33.5226 7.6693 33.5063C7.18079 33.5063 6.88768 33.2295 6.90397 32.8061C6.90397 32.399 7.19707 32.1222 7.68559 32.1222C8.23924 32.0896 8.7766 32.1059 9.31397 32.1059Z" fill="#636A86"/>
</g>
<defs>
<clipPath id="clip0_921_604">
<rect width="31.9" height="41.6214" fill="white" transform="translate(0.666992 0.189453)"/>
</clipPath>
</defs>
</svg>
