<svg width="15" height="15" viewBox="0 0 15 15" fill="none"
                                 xmlns="http://www.w3.org/2000/svg">
                                <path
                                        d="M8.01814 0.388113C7.74282 0.140748 7.38576 0.00390625 7.01564 0.00390625C6.64551 0.00390625 6.28846 0.140748 6.01314 0.388113L0.513137 5.33011C0.356577 5.47065 0.231332 5.64255 0.145535 5.83464C0.0597391 6.02674 0.015311 6.23473 0.0151367 6.44511V13.5001C0.0151367 13.8979 0.173172 14.2795 0.454477 14.5608C0.735781 14.8421 1.11731 15.0001 1.51514 15.0001H3.51514C3.91296 15.0001 4.29449 14.8421 4.5758 14.5608C4.8571 14.2795 5.01514 13.8979 5.01514 13.5001V9.50011C5.01514 9.36751 5.06781 9.24033 5.16158 9.14656C5.25535 9.05279 5.38253 9.00011 5.51514 9.00011H8.51514C8.64775 9.00011 8.77492 9.05279 8.86869 9.14656C8.96246 9.24033 9.01514 9.36751 9.01514 9.50011V13.5001C9.01514 13.8979 9.17317 14.2795 9.45448 14.5608C9.73578 14.8421 10.1173 15.0001 10.5151 15.0001H12.5151C12.913 15.0001 13.2945 14.8421 13.5758 14.5608C13.8571 14.2795 14.0151 13.8979 14.0151 13.5001V6.44511C14.0151 6.2348 13.9708 6.02686 13.8852 5.83477C13.7996 5.64268 13.6745 5.47074 13.5181 5.33011L8.01814 0.388113Z"
                                        fill="#D4DAE7"/>
                            </svg>