<svg width="43" height="40" viewBox="0 0 43 40" fill="none" xmlns="http://www.w3.org/2000/svg">
<g clip-path="url(#clip0_921_169)">
<path d="M26.9107 21.0361C29.6894 21.0361 32.4052 21.0361 35.1682 21.0361C35.1682 23.2182 35.1682 25.3846 35.1682 27.5196C35.9531 27.4725 36.6909 27.4411 37.5073 27.394C37.5073 27.3155 37.5073 27.1742 37.5073 27.0486C37.5073 20.3453 37.5073 13.6263 37.5073 6.92305C37.5073 5.60437 36.8165 4.91363 35.5135 4.91363C32.9861 4.91363 30.4586 4.91363 27.9468 4.91363C27.8055 4.91363 27.6642 4.91363 27.4445 4.91363C27.5701 5.2433 27.6799 5.52587 27.8055 5.83985C27.5073 6.10672 27.2247 6.3736 26.9264 6.64047C26.6124 6.93875 26.6124 7.78647 26.9264 8.08474C27.209 8.35162 27.6642 8.5871 27.727 8.90107C27.7898 9.21504 27.4916 9.62321 27.3503 9.98427C27.1933 10.3767 27.0049 10.7692 26.8636 11.1774C26.7694 11.4285 26.6595 11.5384 26.377 11.4913C26.1258 11.4442 25.8589 11.4756 25.592 11.4442C25.3252 11.4128 25.1682 11.5384 24.9798 11.6954C24.5559 12.0251 24.4617 12.4176 24.5245 12.9356C24.6187 13.642 24.5873 13.6577 23.9123 13.9403C23.3628 14.1758 22.7977 14.3799 22.2482 14.6311C22.0128 14.7409 21.8715 14.7252 21.7145 14.5212C21.5732 14.3171 21.3691 14.1601 21.2278 13.956C21.0551 13.7205 20.8354 13.7048 20.5685 13.642C19.9248 13.5165 19.6109 13.9246 19.2969 14.3485C19.0457 14.6938 18.8102 14.7409 18.4178 14.5526C17.8526 14.27 17.2718 14.0502 16.6752 13.8304C16.377 13.7205 16.22 13.5793 16.2985 13.2339C16.3299 13.124 16.2985 12.9984 16.3299 12.8885C16.4869 12.2763 16.1415 11.8995 15.7176 11.5698C15.6077 11.4913 15.435 11.4756 15.2781 11.4756C14.8856 11.4599 14.4146 11.6012 14.1478 11.4285C13.8809 11.2559 13.8181 10.7692 13.6768 10.4238C13.5041 9.99997 13.3314 9.57611 13.1431 9.15225C13.0646 8.97956 13.0646 8.83828 13.2372 8.71269C13.3785 8.6185 13.4727 8.46151 13.614 8.38302C14.0379 8.10044 14.1949 7.72368 14.1478 7.22132C14.1164 6.95445 14.085 6.75036 13.8495 6.59338C13.771 6.54628 13.7082 6.46779 13.6454 6.405C13.0803 5.88694 13.0803 5.88694 13.3314 5.13341C13.3471 5.08631 13.3471 5.03922 13.3628 4.94503C11.95 4.94503 10.5528 4.94503 9.13991 4.94503C9.13991 4.53686 9.13991 4.1758 9.13991 3.75193C9.50098 3.75193 9.84635 3.75193 10.2074 3.75193C11.322 3.75193 12.4366 3.75193 13.5355 3.75193C13.7867 3.75193 13.9437 3.70484 14.0536 3.45366C14.085 3.34377 14.2577 3.26528 14.3832 3.23388C14.5245 3.20248 14.6972 3.21818 14.8542 3.24958C15.388 3.37517 15.7647 3.18679 16.1258 2.79432C16.3613 2.54314 16.3456 2.29197 16.3299 2.00939C16.2985 1.06748 16.2985 1.06748 17.1776 0.706409C17.6799 0.502327 18.1666 0.298246 18.6533 0.0784653C18.8416 -2.75895e-05 18.9672 0.015671 19.0928 0.188355C19.2184 0.36104 19.3911 0.486629 19.501 0.659313C19.7365 1.00468 20.0504 1.06748 20.4586 1.09887C21.0551 1.14597 21.2749 0.737806 21.5418 0.392437C21.8087 0.0470682 22.0442 -0.0157262 22.4523 0.172657C23.0489 0.47093 23.6768 0.69071 24.2891 0.941888C24.4931 1.02038 24.5873 1.13027 24.5559 1.35005C24.5402 1.47564 24.5559 1.61693 24.5245 1.74252C24.3361 2.38616 24.6501 2.81002 25.1368 3.17109C25.2153 3.23388 25.3409 3.28098 25.4507 3.28098C25.7019 3.28098 25.9531 3.26528 26.1886 3.23388C26.5026 3.20248 26.7851 3.18679 26.8793 3.59495C26.895 3.67344 27.1305 3.73624 27.2718 3.73624C28.9986 3.75193 30.7255 3.73624 32.4523 3.73624C33.4884 3.73624 34.5245 3.73624 35.5449 3.73624C37.4445 3.73624 38.6847 4.97642 38.6847 6.89165C38.6847 13.7519 38.6847 20.6279 38.6847 27.4882C38.6847 27.8179 38.7788 28.0063 39.0457 28.226C39.5795 28.6656 40.0504 29.1993 40.5842 29.7331C38.0567 31.3187 35.6391 32.8257 33.1902 34.3642C32.9861 34.0345 32.782 33.7205 32.5622 33.3595C34.6344 32.0565 36.6752 30.7692 38.7474 29.4819C37.8055 28.5086 36.2828 28.3202 35.0112 28.9953C32.7977 30.1884 30.5999 31.3971 28.4021 32.5902C28.0881 32.7629 27.8526 32.967 27.6799 33.2967C27.2561 34.113 26.5339 34.5683 25.6077 34.5683C22.9704 34.584 20.3173 34.5683 17.6799 34.5683C17.6485 34.5683 17.6015 34.5526 17.5387 34.5526C17.5387 34.1915 17.5387 33.8147 17.5387 33.3909C17.6799 33.3909 17.8212 33.3909 17.9625 33.3909C20.4586 33.3909 22.9547 33.3909 25.4507 33.3909C26.377 33.3909 26.9735 32.6216 26.7537 31.7582C26.5967 31.1774 26.0944 30.8006 25.435 30.8006C23.614 30.8006 21.793 30.7849 19.9876 30.8163C19.5481 30.8163 19.3597 30.675 19.1713 30.2982C18.8102 29.5133 18.4178 28.7441 17.7584 28.1632C16.4555 27.0329 14.8856 26.7975 13.2372 26.923C11.2749 27.08 9.42249 27.6766 7.64855 28.5086C7.49156 28.5714 7.33458 28.6499 7.16189 28.6499C4.94839 28.6656 2.73489 28.6499 0.537089 28.6499C0.474295 28.6499 0.411501 28.6342 0.333008 28.6185C0.333008 28.2417 0.333008 27.8807 0.333008 27.4725C0.913855 27.4725 1.5104 27.4725 2.15404 27.4725C2.15404 27.2527 2.15404 27.08 2.15404 26.9073C2.15404 20.2511 2.15404 13.5949 2.15404 6.93875C2.15404 6.04393 2.35813 5.2276 3.01747 4.58396C3.55122 4.05021 4.17916 3.73624 4.93269 3.73624C5.90601 3.72054 6.89502 3.73624 7.89973 3.73624C7.89973 4.1287 7.89973 4.48977 7.89973 4.91363C7.0834 4.91363 6.26707 4.91363 5.46645 4.91363C5.19957 4.91363 4.93269 4.89793 4.68152 4.96073C3.95938 5.11771 3.42563 5.74565 3.34714 6.48349C3.33144 6.65617 3.33144 6.82886 3.33144 6.98584C3.33144 13.642 3.33144 20.2982 3.33144 26.9544C3.33144 27.1114 3.33144 27.2684 3.33144 27.4568C4.10067 27.4568 4.8385 27.4568 5.62343 27.4568C5.62343 25.3375 5.62343 23.2182 5.62343 21.0675C8.38638 21.0675 11.1179 21.0675 13.8652 21.0675C13.8652 22.6216 13.8652 24.1444 13.8652 25.6672C14.6658 25.7771 15.4507 25.8869 16.2671 25.9968C16.2671 25.6672 16.2671 25.3218 16.2671 24.9293C16.4398 24.9136 16.581 24.8979 16.7066 24.8979C19.1713 24.8979 21.6203 24.8979 24.085 24.8822C24.4303 24.8822 24.5245 24.9607 24.5245 25.3218C24.5088 26.7504 24.5088 28.1789 24.5088 29.6546C25.3095 29.686 26.1258 29.5447 26.8793 30.1099C26.9107 27.0329 26.9107 24.0659 26.9107 21.0361ZM26.377 5.47878C26.2828 5.259 26.1729 5.03922 26.1101 4.81944C26.0159 4.47407 25.8275 4.34848 25.4821 4.42697C24.9798 4.53686 24.5873 4.37988 24.2577 3.95602C24.0536 3.68914 23.7867 3.45366 23.5355 3.23388C23.3471 3.0612 23.2686 2.88851 23.2843 2.62164C23.3314 1.77391 23.3157 1.77391 22.5308 1.47564C22.5151 1.47564 22.4994 1.47564 22.4994 1.45994C22.3267 1.35005 22.1697 1.36575 22.0756 1.55413C21.7145 2.18208 21.1493 2.32336 20.4743 2.22917C20.2388 2.19777 20.0033 2.21347 19.7679 2.22917C19.4853 2.26057 19.2812 2.15068 19.0928 1.9309C18.5905 1.35005 18.5748 1.36575 17.8526 1.64832C17.5701 1.75821 17.4288 1.8838 17.5073 2.18208C17.6485 2.77862 17.4288 3.21818 16.9578 3.56355C16.8793 3.61065 16.8165 3.68914 16.7694 3.75193C16.3613 4.28569 15.8589 4.58396 15.1525 4.42697C15.0583 4.41128 14.8856 4.48977 14.8385 4.56826C14.6815 4.86653 14.5716 5.18051 14.4303 5.55727C15.3723 5.93404 15.3723 6.71897 15.3095 7.5196C15.2938 7.70798 15.3409 7.89636 15.2938 8.06905C15.2467 8.25743 15.1839 8.47721 15.0583 8.6028C14.446 9.19934 14.446 9.18365 14.7757 9.98427C14.8699 10.2041 14.9955 10.2982 15.2153 10.2512C15.8746 10.0785 16.3456 10.361 16.7223 10.8634C16.8322 11.0047 16.9421 11.1303 17.0834 11.2245C17.4759 11.507 17.6172 11.8681 17.523 12.3391C17.4916 12.5117 17.4759 12.7943 17.5701 12.8571C17.8683 13.0455 18.198 13.2025 18.5434 13.2653C18.669 13.281 18.873 13.0455 18.9829 12.8728C19.2184 12.5431 19.501 12.4176 19.9091 12.449C20.3173 12.4803 20.7412 12.4333 21.165 12.4647C21.3534 12.4803 21.5732 12.5745 21.6988 12.7001C22.311 13.3281 22.311 13.3595 23.1117 12.9513C23.2215 12.9042 23.3471 12.7158 23.3314 12.6059C23.1745 11.8838 23.4884 11.3814 24.0222 10.9576C24.2106 10.8006 24.3518 10.5808 24.5559 10.4395C24.7129 10.3296 24.9327 10.2198 25.1211 10.2198C25.9374 10.2511 25.9217 10.2668 26.2671 9.49762C26.377 9.23074 26.3613 9.08945 26.1258 8.90107C25.906 8.72839 25.5606 8.49291 25.5606 8.28883C25.5763 7.33121 25.1525 6.21661 26.2985 5.55727C26.3142 5.55727 26.3299 5.54157 26.377 5.47878ZM28.1352 22.2292C28.1352 25.2904 28.1352 28.3202 28.1352 31.3814C28.2294 31.35 28.2922 31.3187 28.3393 31.2873C30.1446 30.2982 31.9657 29.3092 33.771 28.3359C33.9751 28.226 33.9908 28.0847 33.9908 27.8964C33.9908 26.1381 33.9908 24.3642 33.9908 22.6059C33.9908 22.496 33.9751 22.3705 33.9751 22.2449C32.0128 22.2292 30.0975 22.2292 28.1352 22.2292ZM12.7035 25.7771C12.7035 24.5683 12.7035 23.4223 12.7035 22.2449C10.7412 22.2449 8.81024 22.2449 6.86362 22.2449C6.86362 24.0031 6.86362 25.73 6.86362 27.5667C8.76315 26.6876 10.647 26.0125 12.7035 25.7771ZM17.3974 26.091C17.4916 26.3108 17.523 26.562 17.6486 26.6405C18.7318 27.2841 19.4539 28.2103 19.9876 29.3092C20.1132 29.5761 20.2702 29.6546 20.5528 29.6389C21.2749 29.6232 21.9971 29.6389 22.7035 29.6389C22.9076 29.6389 23.1117 29.6389 23.3157 29.6389C23.3157 28.4144 23.3157 27.2684 23.3157 26.091C21.3848 26.091 19.4539 26.091 17.3974 26.091Z" fill="#636A86"/>
<path d="M31.573 34.0029C31.7771 34.3326 31.9654 34.6309 32.1852 34.9762C32.0596 35.0547 31.9497 35.1489 31.8398 35.2117C29.799 36.499 27.7268 37.7706 25.7017 39.0736C24.1475 40.0626 22.5149 40.2667 20.7566 39.6858C16.8791 38.4299 13.0015 37.1897 9.124 35.9496C8.85712 35.8711 8.55885 35.824 8.27627 35.824C5.81159 35.8083 3.33122 35.824 0.866539 35.824C0.709553 35.824 0.552567 35.824 0.379883 35.824C0.379883 35.4315 0.379883 35.0547 0.379883 34.6466C0.536869 34.6466 0.693855 34.6466 0.85084 34.6466C3.23703 34.6466 5.60751 34.6623 7.9937 34.6466C8.62164 34.6466 9.20249 34.7408 9.79904 34.9291C13.5824 36.1536 17.3815 37.3624 21.1648 38.5869C22.5463 39.0422 23.8336 38.8852 25.0581 38.1003C27.1146 36.7973 29.1711 35.51 31.2276 34.2227C31.3061 34.1285 31.4317 34.0814 31.573 34.0029Z" fill="#636A86"/>
<path d="M16.3145 15.7773C19.046 15.7773 21.7619 15.7773 24.5091 15.7773C24.5091 18.399 24.5091 21.0207 24.5091 23.6737C21.7776 23.6737 19.0617 23.6737 16.3145 23.6737C16.3145 21.0364 16.3145 18.4147 16.3145 15.7773ZM23.3474 16.9861C21.3694 16.9861 19.4385 16.9861 17.5232 16.9861C17.5232 18.8543 17.5232 20.6753 17.5232 22.4963C19.4856 22.4963 21.4165 22.4963 23.3474 22.4963C23.3474 20.6282 23.3474 18.8072 23.3474 16.9861Z" fill="#2AA7EE"/>
<path d="M13.8813 13.9873C13.8813 15.9496 13.8813 17.8806 13.8813 19.8272C11.134 19.8272 8.41815 19.8272 5.6709 19.8272C5.6709 17.8806 5.6709 15.9496 5.6709 13.9873C8.40245 13.9873 11.1183 13.9873 13.8813 13.9873ZM12.6882 18.6498C12.6882 17.4567 12.6882 16.3107 12.6882 15.1647C10.7258 15.1647 8.77922 15.1647 6.84829 15.1647C6.84829 16.3421 6.84829 17.4881 6.84829 18.6498C8.81062 18.6498 10.7415 18.6498 12.6882 18.6498Z" fill="#4E5B76"/>
<path d="M26.958 13.9717C29.6896 13.9717 32.4054 13.9717 35.137 13.9717C35.137 15.9183 35.137 17.8649 35.137 19.8273C32.4211 19.8273 29.7053 19.8273 26.958 19.8273C26.958 17.8806 26.958 15.9497 26.958 13.9717ZM33.9753 18.6499C33.9753 17.4568 33.9753 16.3108 33.9753 15.1648C32.013 15.1648 30.082 15.1648 28.1354 15.1648C28.1354 16.3422 28.1354 17.4882 28.1354 18.6499C30.082 18.6499 32.013 18.6499 33.9753 18.6499Z" fill="#4E5B76"/>
<path d="M8.37046 8.68115C7.99369 8.68115 7.63263 8.68115 7.25586 8.68115C7.25586 8.30439 7.25586 7.92762 7.25586 7.53516C7.63263 7.53516 7.97799 7.53516 8.37046 7.53516C8.37046 7.91192 8.37046 8.27299 8.37046 8.68115Z" fill="#636A86"/>
<path d="M10.7407 7.55078C10.7407 7.92755 10.7407 8.28861 10.7407 8.68108C10.364 8.68108 9.98719 8.68108 9.59473 8.68108C9.59473 8.30431 9.59473 7.94325 9.59473 7.55078C9.95579 7.55078 10.3326 7.55078 10.7407 7.55078Z" fill="#636A86"/>
<path d="M30.0977 7.53516C30.4901 7.53516 30.8355 7.53516 31.2123 7.53516C31.2123 7.91192 31.2123 8.28869 31.2123 8.68115C30.8512 8.68115 30.4901 8.68115 30.0977 8.68115C30.0977 8.30439 30.0977 7.94332 30.0977 7.53516Z" fill="#636A86"/>
<path d="M32.4521 7.55093C32.5306 7.53523 32.6091 7.51953 32.6876 7.51953C32.9702 7.51953 33.2528 7.51953 33.5667 7.51953C33.5667 7.912 33.5667 8.28876 33.5667 8.68123C33.19 8.68123 32.8446 8.68123 32.4521 8.68123C32.4521 8.30446 32.4521 7.94339 32.4521 7.55093Z" fill="#636A86"/>
<path d="M17.4757 7.26856C17.4914 5.683 18.8258 4.36432 20.4271 4.38002C22.0283 4.39572 23.3784 5.7458 23.3627 7.29996C23.347 9.0111 22.0597 10.267 20.3643 10.2513C18.7159 10.2356 17.46 8.94831 17.4757 7.26856ZM20.4114 9.0896C21.369 9.0896 22.1696 8.30467 22.1853 7.36275C22.1853 6.35804 21.4004 5.55742 20.3957 5.57311C19.391 5.58881 18.6531 6.34234 18.6531 7.36275C18.6688 8.32037 19.4381 9.0896 20.4114 9.0896Z" fill="#636A86"/>
</g>
<defs>
<clipPath id="clip0_921_169">
<rect width="40.2512" height="40" fill="white" transform="translate(0.333008)"/>
</clipPath>
</defs>
</svg>
