<svg width="70" height="76" viewBox="0 0 70 76" fill="none" xmlns="http://www.w3.org/2000/svg">
<path d="M44.5778 73.0208C37.3983 68.5038 35.2797 60.6137 37.3394 54.0728C39.1343 48.4412 45.1369 42.135 54.6704 42.8976C54.6704 42.6043 54.6704 42.311 54.6704 42.047C54.6704 33.101 54.6704 24.1843 54.6704 15.2383C54.6704 15.0036 54.6704 14.7396 54.6704 14.505C54.7292 13.889 55.2 13.4197 55.7885 13.4491C56.4064 13.4784 56.7889 13.8304 56.8772 14.4463C56.9066 14.681 56.8772 14.945 56.8772 15.1796C56.8772 24.2723 56.8772 33.3943 56.8478 42.487C56.8478 43.1323 56.9949 43.3963 57.6422 43.5722C67.7642 46.6814 72.1778 58.6485 66.5284 67.5945C65.9987 68.4451 65.0571 68.5918 64.5569 67.9172C64.2038 67.4185 64.3215 66.9786 64.6158 66.4799C65.5868 64.9254 66.2341 63.2242 66.5872 61.4056C67.9407 54.1022 62.9974 46.7987 55.7002 45.3321C47.4614 43.6896 39.7817 49.2332 38.8107 57.5339C37.7808 66.3626 45.5488 73.9887 54.4055 72.9035C56.7889 72.6102 58.9369 71.7889 60.9083 70.4103C60.9966 70.3517 61.1143 70.2637 61.2026 70.205C61.8205 69.7944 62.4384 69.853 62.8209 70.381C63.2034 70.8796 63.0857 71.5543 62.4972 71.9942C60.7023 73.3435 58.7015 74.3407 56.4947 74.7807C55.2294 75.0447 53.9348 75.2207 52.6401 75.2207C36.545 75.25 20.4793 75.25 4.38422 75.25C1.70661 75.25 0 73.5488 0 70.909C0 68.4158 0 65.9227 0 63.4295C0 63.1069 0.0294243 62.6376 0.235394 62.4909C0.559062 62.2269 1.05927 62.0509 1.44179 62.0803C1.97143 62.1389 2.20682 62.6376 2.20682 63.1655C2.20682 65.6293 2.20682 68.0932 2.20682 70.557C2.20682 72.4049 2.85416 73.0208 4.64904 73.0208C17.6252 73.0208 30.6013 73.0208 43.5774 73.0208C43.9011 73.0208 44.1365 73.0208 44.5778 73.0208Z" fill="#636A86"/>
<path d="M46.196 37.741C47.6672 37.741 49.0796 37.741 50.4625 37.741C51.61 37.741 52.1397 38.0929 52.1397 38.8262C52.1691 39.5888 51.61 39.9408 50.4331 39.9408C35.8092 39.9408 21.1559 39.9408 6.532 39.9408C6.38488 39.9408 6.23776 39.9408 6.09064 39.9408C5.29618 39.8821 4.82539 39.4715 4.85482 38.7969C4.88424 38.1516 5.32561 37.741 6.09064 37.741C7.35588 37.7116 8.65055 37.741 9.9158 37.741C10.1806 37.741 10.4454 37.741 10.7691 37.741C10.7691 36.5677 10.7691 35.4531 10.7691 34.3679C10.7691 33.3999 11.1516 33.0186 12.152 32.9893C13.535 32.9893 14.9474 32.9893 16.3303 32.9893C17.3307 32.9893 17.6838 33.3706 17.6838 34.3679C17.6838 35.4238 17.6838 36.509 17.6838 37.653C18.5371 37.653 19.361 37.653 20.2437 37.653C20.2437 37.213 20.2437 36.8024 20.2437 36.3917C20.2437 34.4265 20.2437 32.4907 20.2437 30.5255C20.2437 29.4989 20.5968 29.1469 21.5972 29.1469C23.0096 29.1469 24.4514 29.1469 25.8638 29.1469C26.8054 29.1469 27.1879 29.5282 27.1879 30.4961C27.1879 32.872 27.1879 35.2185 27.1879 37.653C28.0117 37.653 28.8062 37.653 29.7184 37.653C29.7184 37.389 29.7184 37.0957 29.7184 36.8024C29.7184 32.9013 29.7184 29.0002 29.7184 25.0992C29.7184 23.8673 30.0715 23.5153 31.2778 23.5153C32.6019 23.5153 33.926 23.5153 35.2501 23.5153C36.3388 23.5153 36.6919 23.8673 36.6919 24.9819C36.6919 28.9122 36.6919 32.8426 36.6919 36.773C36.6919 37.0663 36.6919 37.3596 36.6919 37.6823C37.5746 37.6823 38.3691 37.6823 39.2224 37.6823C39.2224 37.3596 39.2224 37.0663 39.2224 36.773C39.2224 31.3174 39.2224 25.8325 39.2224 20.3769C39.2224 19.0863 39.5461 18.793 40.8113 18.793C42.106 18.793 43.4007 18.793 44.6953 18.793C45.784 18.793 46.1371 19.1449 46.1371 20.2595C46.1371 25.7445 46.1371 31.2294 46.1371 36.7437C46.196 37.037 46.196 37.3303 46.196 37.741ZM41.5175 21.0515C41.5175 26.6244 41.5175 32.1387 41.5175 37.7116C42.3414 37.7116 43.1358 37.7116 43.9597 37.7116C43.9597 32.1387 43.9597 26.6244 43.9597 21.0515C43.1358 21.0515 42.3708 21.0515 41.5175 21.0515ZM34.4263 37.7116C34.4263 33.7226 34.4263 29.7629 34.4263 25.8325C33.5729 25.8325 32.7785 25.8325 31.984 25.8325C31.984 29.8215 31.984 33.7519 31.984 37.7116C32.8373 37.7116 33.6318 37.7116 34.4263 37.7116ZM22.5388 31.4054C22.5388 33.5466 22.5388 35.6291 22.5388 37.7116C23.3921 37.7116 24.1572 37.7116 24.9516 37.7116C24.9516 35.5998 24.9516 33.5173 24.9516 31.4054C24.1277 31.4054 23.3627 31.4054 22.5388 31.4054ZM15.4476 37.7116C15.4476 36.8904 15.4476 36.0984 15.4476 35.2478C14.6237 35.2478 13.8292 35.2478 13.0348 35.2478C13.0348 36.0984 13.0348 36.8904 13.0348 37.7116C13.8587 37.7116 14.6531 37.7116 15.4476 37.7116Z" fill="#636A86"/>
<path d="M0.0592413 30.9305C0.0592413 22.2484 0.0592413 13.5664 0.0592413 4.88434C0.0592413 1.86322 1.67758 0.25 4.67886 0.25C20.5386 0.25 36.3983 0.25 52.258 0.25C55.2592 0.25 56.8776 1.86322 56.8776 4.85501C56.8776 6.29224 56.8776 13.7295 56.8776 15.1667C56.8776 16.0173 56.4656 16.5159 55.7889 16.5159C55.0827 16.5159 54.7002 16.0466 54.6708 15.1667C54.6708 13.6415 54.6708 6.08692 54.6708 4.56169C54.6708 3.18313 53.9351 2.44984 52.5228 2.44984C36.4865 2.44984 20.4503 2.44984 4.41404 2.44984C2.9134 2.44984 2.23664 3.18312 2.23664 4.76701C2.23664 22.2484 2.23664 47.7299 2.23664 65.182C2.23664 65.4459 2.23664 65.7099 2.23664 65.9739C2.17779 66.5899 1.8247 66.9712 1.20679 67.0005C0.559455 67.0298 0.206363 66.6778 0.0592413 66.0619C0.000392705 65.7979 0.029817 65.5339 0.029817 65.2699C0.0592413 56.4999 0.0592413 39.7299 0.0592413 30.9305Z" fill="#636A86"/>
<path d="M28.5416 6.97269C33.8968 6.97269 39.252 6.97269 44.6367 6.97269C46.5198 6.97269 47.3731 7.8233 47.4025 9.67117C47.4025 10.6978 47.4025 11.7244 47.4025 12.7509C47.3731 14.1002 46.461 15.0388 45.1075 15.0974C45.0192 15.0974 44.9015 15.0974 44.8132 15.0974C33.9556 15.0974 23.0686 15.0974 12.2111 15.0974C11.3578 15.0974 10.5633 14.8921 10.0925 14.1588C9.82771 13.7482 9.65117 13.2202 9.62174 12.7509C9.56289 11.695 9.59232 10.6098 9.59232 9.52451C9.59232 7.85263 10.5045 6.94336 12.1817 6.94336C17.0661 6.94336 21.9211 6.94336 26.8055 6.94336C27.3646 6.97269 27.9531 6.97269 28.5416 6.97269ZM45.1369 9.2312C33.9851 9.2312 22.9215 9.2312 11.8286 9.2312C11.8286 10.4631 11.8286 11.6657 11.8286 12.8683C22.951 12.8683 34.0145 12.8683 45.1369 12.8683C45.1369 11.6364 45.1369 10.4631 45.1369 9.2312Z" fill="#636A86"/>
<path d="M50.7574 57.1524C52.3757 55.5392 53.8763 53.9846 55.4064 52.4888C56.5539 51.3742 57.9369 51.0515 59.467 51.5501C60.9382 52.0488 61.8209 53.1047 62.0857 54.6006C62.3211 55.8618 61.9974 57.0058 61.1147 57.915C58.496 60.5548 55.8772 63.1947 53.229 65.7758C51.8461 67.125 49.7275 67.0957 48.3151 65.7465C47.0499 64.5439 45.8141 63.2826 44.5783 62.0214C43.0482 60.4375 43.0776 58.003 44.6077 56.4778C46.1377 54.9526 48.5211 54.9232 50.1689 56.4485C50.3748 56.6245 50.522 56.8591 50.7574 57.1524ZM45.5787 59.3523C45.7847 59.7336 45.9023 60.1735 46.1672 60.4668C47.3441 61.6988 48.5505 62.9013 49.7864 64.1039C50.4043 64.6905 51.1399 64.7199 51.7578 64.1333C54.3471 61.5814 56.907 59.0589 59.4375 56.4485C59.7906 56.0965 59.9672 55.3632 59.8495 54.8646C59.5847 53.4567 57.9663 53.1047 56.8776 54.1606C55.171 55.8325 53.4938 57.5337 51.7872 59.2349C51.081 59.9389 50.5514 59.9389 49.8452 59.2349C49.4038 58.8243 48.9919 58.355 48.5211 57.9737C47.962 57.5044 47.3147 57.4164 46.6674 57.739C46.02 58.0324 45.6964 58.5603 45.5787 59.3523Z" fill="#2AA7EE"/>
<path d="M23.4487 58.2416C21.4104 58.2416 19.3972 58.2416 17.3589 58.2416C17.0821 58.2416 16.7298 58.2943 16.5788 58.136C16.302 57.8986 16 57.4766 16 57.1864C16.0252 56.8699 16.4026 56.5533 16.7046 56.3159C16.8304 56.2104 17.1072 56.2632 17.3086 56.2632C21.4356 56.2632 25.5626 56.2632 29.6896 56.2632C29.8657 56.2632 30.067 56.2632 30.2432 56.2896C30.7213 56.3687 30.9729 56.6852 30.9981 57.1864C31.0233 57.6876 30.7968 58.0305 30.3187 58.1624C30.0922 58.2416 29.8154 58.2416 29.5637 58.2416C27.5506 58.2416 25.4871 58.2416 23.4487 58.2416Z" fill="#636A86"/>
<path d="M15.5253 63.2233C13.4688 63.2233 11.4374 63.2233 9.38093 63.2233C9.1803 63.2233 8.95458 63.25 8.75395 63.1967C8.25237 63.0633 7.97649 62.69 8.00157 62.13C8.05173 61.5967 8.35268 61.3033 8.85427 61.25C8.95458 61.25 9.0549 61.25 9.15522 61.25C13.3685 61.25 17.5818 61.25 21.7951 61.25C21.8453 61.25 21.8704 61.25 21.9205 61.25C22.5726 61.2767 22.9739 61.6233 22.999 62.21C23.024 62.7967 22.5977 63.25 21.9456 63.25C19.8139 63.2233 17.6822 63.2233 15.5253 63.2233Z" fill="#636A86"/>
<path d="M15.5286 54.25C13.4731 54.25 11.4426 54.25 9.38704 54.25C9.1865 54.25 8.96089 54.25 8.76035 54.21C8.30913 54.09 8.05846 53.65 8.00832 52.93C7.95819 52.21 8.13366 51.65 8.55981 51.41C8.81048 51.25 9.08623 51.25 9.36197 51.25C13.448 51.25 17.534 51.25 21.62 51.25C21.7955 51.25 21.9459 51.25 22.1214 51.25C22.6729 51.37 23.0238 51.97 22.9987 52.77C22.9987 53.57 22.6227 54.17 22.0712 54.21C21.3192 54.25 20.5672 54.21 19.8152 54.21C18.4114 54.25 16.9825 54.25 15.5286 54.25Z" fill="#636A86"/>
<path d="M23.9875 47.25C25.9094 47.25 27.8314 47.25 29.7533 47.25C30.5585 47.25 31 47.6233 31 48.2633C31 48.8767 30.5585 49.25 29.7793 49.25C25.9354 49.25 22.0915 49.25 18.2476 49.25C17.4685 49.25 16.975 48.85 17.001 48.2367C17.0269 47.6233 17.4685 47.2767 18.2217 47.2767C20.1436 47.25 22.0656 47.25 23.9875 47.25Z" fill="#636A86"/>
<path d="M28.4757 54.2202C27.9417 54.2202 27.432 54.2599 26.8981 54.2202C26.3641 54.1805 26.0243 53.5844 26 52.7897C26 51.995 26.3155 51.3195 26.8495 51.2798C27.9417 51.2401 29.034 51.2401 30.1262 51.2798C30.6602 51.3195 31 51.9553 31 52.75C31 53.5844 30.6359 54.1805 30.0534 54.2202C29.5194 54.2599 29.0097 54.2599 28.4757 54.2202Z" fill="#636A86"/>
<path d="M28.5485 61.25C29.0583 61.25 29.568 61.25 30.0534 61.25C30.6359 61.2768 31 61.6513 31 62.2132C31 62.7751 30.6602 63.2032 30.0777 63.2299C29.034 63.2567 27.9903 63.2567 26.9223 63.2299C26.3641 63.2032 26 62.7751 26 62.2132C26 61.6513 26.3883 61.25 26.9466 61.25C27.5049 61.25 28.0388 61.25 28.5485 61.25Z" fill="#636A86"/>
<path d="M10.4757 58.2236C9.96602 58.2236 9.45631 58.25 8.97087 58.2236C8.33981 58.1972 8 57.8012 8 57.2203C8 56.6394 8.36408 56.2698 9.01942 56.2698C10.0146 56.2434 10.9854 56.2434 11.9806 56.2698C12.5874 56.2698 13 56.6658 13 57.2467C13 57.8012 12.6116 58.1972 12.0049 58.25C11.9563 58.25 11.932 58.25 11.8835 58.25C11.3981 58.2236 10.9369 58.2236 10.4757 58.2236Z" fill="#636A86"/>
<path d="M13.0571 47.2618C13.4226 47.2618 13.7881 47.2352 14.1308 47.2618C14.6333 47.2884 14.976 47.6874 14.9989 48.1927C15.0217 48.7247 14.7019 49.2035 14.2222 49.2301C13.3998 49.2566 12.6002 49.2566 11.7778 49.2301C11.2981 49.2035 10.9783 48.7513 11.0011 48.1927C11.0468 47.6342 11.321 47.315 11.8007 47.2618C12.2347 47.2352 12.6459 47.2618 13.0571 47.2618Z" fill="#636A86"/>
<circle cx="53.0586" cy="59.25" r="14.75" stroke="#4E5B76" stroke-width="2.5"/>
</svg>
