<svg width="27" height="35" viewBox="0 0 27 35" fill="none" xmlns="http://www.w3.org/2000/svg">
                        <path d="M13.18 26.6946C10.5732 26.6946 8.025 25.9128 5.85757 24.4481C3.69013 22.9834 2.00083 20.9016 1.00327 18.4659C0.00571067 16.0303 -0.255296 13.3501 0.253255 10.7644C0.761806 8.17867 2.01707 5.80354 3.86032 3.93935C5.70357 2.07515 8.05201 0.805619 10.6087 0.291289C13.1653 -0.223041 15.8154 0.0409318 18.2237 1.04983C20.632 2.05872 22.6904 3.76722 24.1387 5.95928C25.5869 8.15134 26.3599 10.7285 26.3599 13.3649C26.3566 16.8991 24.9669 20.2876 22.4959 22.7867C20.0249 25.2858 16.6745 26.6913 13.18 26.6946ZM13.18 3.18193C11.1886 3.18193 9.24194 3.77915 7.58618 4.89807C5.93041 6.01698 4.6399 7.60734 3.87784 9.46803C3.11578 11.3287 2.91639 13.3762 3.30488 15.3515C3.69338 17.3268 4.65231 19.1412 6.06042 20.5653C7.46853 21.9894 9.26257 22.9593 11.2157 23.3522C13.1688 23.7451 15.1932 23.5434 17.033 22.7727C18.8728 22.002 20.4453 20.6968 21.5516 19.0222C22.658 17.3476 23.2485 15.3789 23.2485 13.3649C23.2452 10.6652 22.1833 8.07708 20.2958 6.16813C18.4083 4.25918 15.8493 3.18526 13.18 3.18193Z"
                              fill="white"/>
                        <path d="M22.004 28.1543H3.94531V30.9612H22.004V28.1543Z" fill="white"/>
                        <path d="M25.4771 32.2461H0.237305V34.8264H25.4771V32.2461Z" fill="white"/>
                    </svg>