<svg width="62" height="81" viewBox="0 0 62 81" fill="none" xmlns="http://www.w3.org/2000/svg">
<path d="M45.1855 20.4281C45.1855 21.2684 45.1855 22.1087 45.1855 22.9491C45.1855 24.3416 46.194 25.326 47.5625 25.326C51.356 25.326 55.1495 25.326 58.9431 25.326C60.3596 25.326 61.344 24.3176 61.344 22.9011C61.344 19.1315 61.344 15.338 61.344 11.5685C61.344 10.152 60.3596 9.14355 58.9431 9.14355C55.1495 9.14355 51.356 9.14355 47.5625 9.14355C46.1699 9.14355 45.1855 10.152 45.1855 11.5205C45.1855 12.4569 45.1855 13.3933 45.1855 14.3296M47.0103 11.7846C47.0103 11.0883 47.1543 10.9443 47.8506 10.9443C51.4761 10.9443 55.1255 10.9443 58.751 10.9443C59.4473 10.9443 59.5913 11.0883 59.5913 11.7846C59.5913 15.4101 59.5913 19.0595 59.5913 22.685C59.5913 23.3812 59.4473 23.5253 58.751 23.5253C56.9262 23.5253 55.0775 23.5253 53.2528 23.5253C51.4521 23.5253 49.6513 23.5253 47.8506 23.5253C47.1543 23.5253 47.0103 23.3812 47.0103 22.685C47.0103 19.0595 47.0103 15.4341 47.0103 11.7846Z" fill="#2AA7EE"/>
<path d="M16.1825 63.5256C16.1825 63.5016 16.1825 63.4776 16.1825 63.4536V59.7561C16.1825 59.7081 16.1825 59.6841 16.1825 59.636C16.1825 58.6757 16.1825 57.7393 16.1825 56.8029C16.1825 55.3623 15.1981 54.3779 13.7815 54.3779C9.988 54.3779 6.19448 54.3779 2.40096 54.3779C1.0084 54.3779 0.0240096 55.3623 0 56.7549C0 60.5484 0 64.3659 0 68.1594C0 69.504 1.0084 70.5124 2.35294 70.5124C6.17047 70.5364 9.988 70.5364 13.8055 70.5124C15.1741 70.5124 16.1585 69.504 16.1825 68.1114C16.2065 66.6468 16.1825 65.2063 16.1825 63.7417V63.5256ZM13.5414 68.7357C9.91597 68.7357 6.26651 68.7357 2.64106 68.7357C1.94478 68.7357 1.80072 68.5916 1.80072 67.8953C1.80072 64.2699 1.80072 60.6204 1.80072 56.995C1.80072 56.2987 1.94478 56.1546 2.64106 56.1546C4.46579 56.1546 6.26651 56.1546 8.09124 56.1546C9.91597 56.1546 11.7167 56.1546 13.5414 56.1546C14.2377 56.1546 14.3818 56.2987 14.3818 56.995C14.3818 60.6204 14.3818 64.2699 14.3818 67.8953C14.3818 68.5916 14.2617 68.7357 13.5414 68.7357Z" fill="#393D53"/>
<path d="M58.6795 64.4136C57.2149 64.4136 55.7263 64.4136 54.2137 64.4136V63.7173C54.2137 59.5396 54.2137 45.2779 54.2137 41.1002C54.2137 40.0918 53.9496 39.8277 52.9412 39.8277C49.3397 39.8277 45.7383 39.8277 42.1609 39.8277H41.4886V36.8025C42.8331 36.8025 44.1537 36.7785 45.4742 36.8265C45.6182 36.8265 45.8103 37.0426 45.9304 37.2107C46.6267 38.3631 47.8992 38.8673 49.1236 38.4592C50.2761 38.075 51.0204 36.9946 50.9724 35.7941C50.9244 34.6417 50.108 33.5852 48.9796 33.2971C47.8271 32.985 46.6026 33.4652 45.9544 34.4976C45.8343 34.6897 45.6663 34.9778 45.4982 34.9778C44.1537 35.0258 42.8331 35.0018 41.4166 35.0018C41.4166 34.0894 41.4406 33.2251 41.4166 32.3848C41.4166 31.9766 41.3926 31.5444 41.2725 31.1363C40.9364 29.9118 39.88 29.1675 38.5354 29.1435C37.479 29.1194 36.4226 29.1435 35.3661 29.1435V18.1711H45.09V16.3463C42.401 16.3463 37.551 16.3463 34.8619 16.3463C33.7335 16.3463 33.4934 16.5864 33.4934 17.7149C33.4934 21.2683 33.4934 24.8217 33.4934 28.3751C33.4934 28.6152 33.4694 28.8313 33.4454 29.0714H28.5714C28.5714 28.039 28.5474 27.0546 28.5954 26.0702C28.5954 25.8541 28.7875 25.566 28.9796 25.446C30.108 24.7257 30.6363 23.5012 30.2761 22.3007C29.94 21.1483 28.8836 20.3559 27.6831 20.3559C26.4826 20.3559 25.4262 21.1483 25.09 22.3007C24.7539 23.5012 25.2581 24.7497 26.4106 25.422C26.5546 25.494 26.7467 25.6381 26.7467 25.7581C26.7707 26.8385 26.7707 27.943 26.7707 29.0234C26.6266 29.0714 26.5786 29.0954 26.5306 29.0954C25.3782 29.0954 24.2017 29.0954 23.0492 29.0954C21.1044 29.0954 19.976 30.2239 19.952 32.1687C19.952 33.5852 19.952 35.0018 19.952 36.4184C19.952 36.6345 19.928 36.8505 19.928 37.0666H9.05162V16.6585C10.6843 16.6585 12.2449 16.6825 13.8295 16.6585C15.1741 16.6345 16.1825 15.6501 16.2065 14.3055C16.2305 13.5852 16.2065 12.8649 16.2065 12.1447C16.2065 11.4964 15.8703 11.0882 15.3181 11.0882C14.7419 11.0882 14.4058 11.4724 14.4058 12.1687C14.4058 12.7689 14.4058 13.3691 14.4058 13.9694C14.4058 14.7137 14.2857 14.8337 13.5414 14.8337C9.91597 14.8337 6.31453 14.8337 2.68908 14.8337C1.94478 14.8337 1.82473 14.7137 1.82473 13.9454C1.82473 10.3199 1.82473 6.71849 1.82473 3.09304C1.82473 2.37275 1.96879 2.22869 2.64106 2.22869C6.26651 2.22869 9.91597 2.22869 13.5414 2.22869C14.2617 2.22869 14.3818 2.37275 14.3818 3.06903C14.3818 4.67767 14.3818 6.2623 14.3818 7.87095C14.3818 8.59124 14.6939 8.97539 15.2461 8.9994C15.8223 9.02341 16.1585 8.61525 16.1825 7.87095C16.1825 6.21429 16.1825 4.55762 16.1825 2.90096C16.1825 1.48439 15.1981 0.5 13.7335 0.5C9.988 0.5 6.21849 0.5 2.47299 0.5C0.984394 0.5 0 1.48439 0 2.997C0 6.7425 0 10.464 0 14.2095C0 15.7221 0.984394 16.6825 2.47299 16.7065C3.84154 16.7065 5.23409 16.7065 6.60264 16.7065H7.20288C7.20288 20.8361 7.20288 33.5132 7.20288 37.5468C7.20288 38.7233 7.41897 38.9634 8.59544 38.9634C12.1248 38.9634 15.6783 38.9634 19.2077 38.9634H19.928V42.7329C19.2557 42.8529 18.7755 42.8529 18.3673 42.1327C17.7911 41.1002 16.4706 40.7401 15.3661 41.1002C14.2377 41.4604 13.4934 42.5168 13.5174 43.6933C13.5414 44.8697 14.3097 45.9022 15.4382 46.2383C16.5426 46.5744 17.7911 46.1423 18.4394 45.1579C18.8956 44.4856 19.1357 44.4136 20 44.6777C20 45.7101 19.952 46.7665 20 47.8229C20.072 49.3115 21.1044 50.3679 22.569 50.488C23.0732 50.536 23.6014 50.512 24.1297 50.512C24.994 50.512 25.8824 50.512 26.7707 50.512V61.1242H16.2065V62.973C19.0876 62.973 24.3697 62.973 27.2509 62.973C28.3794 62.973 28.6194 62.7329 28.6194 61.6044C28.6194 58.1471 28.6194 54.6897 28.6194 51.2323V50.536H33.5174C33.5174 51.6405 33.4934 52.6969 33.5174 53.7533C33.5174 54.2095 33.4454 54.4976 32.9892 54.7377C31.9568 55.3139 31.5006 56.5624 31.8127 57.6909C32.1008 58.7953 33.1333 59.6357 34.3097 59.6837C35.4862 59.7317 36.5426 59.0354 36.9508 57.907C37.3589 56.8025 37.0228 55.458 36.0384 54.8818C35.3661 54.4976 35.2941 54.0174 35.3181 53.3691C35.3421 52.4088 35.3181 51.4724 35.3181 50.464C36.3986 50.464 37.3589 50.464 38.3433 50.464C40.2881 50.44 41.4166 49.3115 41.4406 47.3667C41.4406 45.6381 41.4406 43.9334 41.4406 42.2047C41.4406 41.9886 41.4646 41.7725 41.4646 41.5564H52.3649V64.3175C50.7323 64.3175 49.1717 64.3175 47.587 64.3175C46.1945 64.3415 45.2101 65.3259 45.2101 66.6945C45.2101 67.4148 45.2101 68.1351 45.2101 68.8553C45.2101 69.5036 45.5942 69.8877 46.1465 69.8637C46.6747 69.8397 47.0108 69.4796 47.0108 68.8553C47.0108 68.2071 47.0348 67.5348 47.0108 66.8866C46.9868 66.3103 47.2509 66.1182 47.8031 66.1182C51.4526 66.1182 55.126 66.1182 58.7755 66.1182C59.4478 66.1182 59.5918 66.2623 59.5918 66.9106C59.5918 70.56 59.5918 74.2335 59.5918 77.8829C59.5918 78.5552 59.4478 78.6993 58.7755 78.6993C55.126 78.6993 51.4526 78.6993 47.8031 78.6993C47.1549 78.6993 47.0108 78.5552 47.0108 77.8829C47.0108 76.2743 47.0108 74.6417 47.0108 73.033C47.0108 72.3367 46.6747 71.9286 46.1224 71.9286C45.5702 71.9286 45.2341 72.3367 45.2341 73.033C45.2341 74.6417 45.2341 76.2743 45.2341 77.8829C45.2341 79.5636 46.1705 80.5 47.8751 80.5C51.5006 80.5 55.1501 80.5 58.7755 80.5C60.4802 80.5 61.4166 79.5636 61.4166 77.8829C61.4166 74.2575 61.4166 70.6561 61.4166 67.0306C61.3926 65.3259 60.4802 64.4136 58.6795 64.4136ZM48.3313 35.0018C48.8115 35.0498 49.1717 35.458 49.1477 35.9142C49.1236 36.4184 48.6915 36.7785 48.1873 36.7545C47.7071 36.7065 47.3469 36.2983 47.3709 35.8421C47.395 35.3379 47.8271 34.9538 48.3313 35.0018ZM16.1345 44.5576C15.6303 44.5336 15.2941 44.1495 15.2941 43.6453C15.3181 43.1411 15.7023 42.7809 16.1825 42.8049C16.6867 42.8049 17.0468 43.1891 17.0468 43.6933C17.0708 44.1975 16.6627 44.5816 16.1345 44.5576ZM27.7311 22.1807C28.2353 22.2047 28.5714 22.5888 28.5714 23.093C28.5474 23.5972 28.1873 23.9574 27.6831 23.9334C27.1789 23.9334 26.8187 23.5492 26.8187 23.045C26.8187 22.5408 27.2269 22.1567 27.7311 22.1807ZM34.4058 57.979C33.9016 57.979 33.5414 57.5948 33.5414 57.0906C33.5414 56.5624 33.9496 56.1783 34.4538 56.2023C34.958 56.2263 35.2941 56.6104 35.2941 57.1146C35.2701 57.6188 34.886 57.979 34.4058 57.979ZM39.6158 47.3187C39.6158 48.4472 39.3037 48.7593 38.1993 48.7593C33.1813 48.7593 28.1633 48.7593 23.1693 48.7593C22.0888 48.7593 21.7767 48.4472 21.7767 47.3667C21.7767 42.3247 21.7767 37.3067 21.7767 32.2647C21.7767 31.2083 22.0888 30.8962 23.1212 30.8962C28.1633 30.8962 33.2293 30.8962 38.2713 30.8962C39.3037 30.8962 39.6158 31.2083 39.6158 32.2647C39.6158 34.8097 39.6158 37.3307 39.6158 39.8757C39.6158 42.3727 39.6158 44.8457 39.6158 47.3187Z" fill="#636A86"/>
<path d="M12.6052 8.59129C12.6052 9.59969 12.6052 10.5841 12.6052 11.5925C12.6052 12.5289 12.0529 13.0811 11.1166 13.0811C9.09976 13.0811 7.08295 13.1051 5.06615 13.0811C4.17779 13.0811 3.62557 12.5049 3.60156 11.6165C3.60156 9.59969 3.60156 7.58288 3.60156 5.56608C3.60156 4.67772 4.15378 4.10149 5.06615 4.10149C7.08295 4.07748 9.09976 4.10149 11.1166 4.10149C12.0529 4.10149 12.5812 4.65371 12.6052 5.6141C12.6052 6.59849 12.6052 7.60689 12.6052 8.59129ZM10.7804 5.95023C8.9557 5.95023 7.203 5.95023 5.4503 5.95023C5.4503 7.75095 5.4503 9.50365 5.4503 11.2564C7.25102 11.2564 9.02773 11.2564 10.7804 11.2564C10.7804 9.45563 10.7804 7.72694 10.7804 5.95023Z" fill="#636A86"/>
<path d="M53.3009 77.0182C52.2925 77.0182 51.3081 77.0182 50.2997 77.0182C49.3633 77.0182 48.8111 76.466 48.7871 75.5297C48.7871 73.5128 48.7871 71.496 48.7871 69.4792C48.7871 68.5909 49.3633 68.0387 50.2517 68.0146C52.2685 68.0146 54.2853 68.0146 56.3021 68.0146C57.2145 68.0146 57.7667 68.5669 57.7667 69.4792C57.7907 71.496 57.7907 73.5128 57.7667 75.5297C57.7667 76.466 57.2145 77.0182 56.2541 77.0182C55.2937 77.0182 54.2853 77.0182 53.3009 77.0182ZM55.942 75.1935C55.942 73.4168 55.942 71.6401 55.942 69.8634C54.1653 69.8634 52.3885 69.8634 50.6358 69.8634C50.6358 71.6641 50.6358 73.4168 50.6358 75.1935C52.4126 75.1935 54.1653 75.1935 55.942 75.1935Z" fill="#636A86"/>
<path d="M35.9907 45.1338C35.9907 41.6044 35.9907 38.099 35.9907 34.4976C35.5345 34.4976 35.0783 34.5216 34.6461 34.4976C33.9979 34.4736 33.6137 34.1134 33.6377 33.5612C33.6618 33.033 34.0219 32.7209 34.6461 32.6969C35.1984 32.6729 35.7746 32.6729 36.3268 32.6969C37.2872 32.7209 37.7914 33.2251 37.8154 34.1855C37.8394 35.1939 37.8154 36.2263 37.8154 37.2347C37.8154 39.8757 37.8154 42.5168 37.8154 45.1338C37.8154 46.4544 37.3352 46.9346 36.0147 46.9346C32.4613 46.9346 28.9079 46.9346 25.3544 46.9346C24.0099 46.9346 23.5537 46.4544 23.5537 45.1338C23.5537 41.5804 23.5537 38.027 23.5537 34.4736C23.5537 33.129 24.0099 32.6729 25.3544 32.6729C27.0831 32.6729 28.7878 32.6729 30.5165 32.6729C30.9727 32.6729 31.3568 32.7929 31.5249 33.2491C31.765 33.8733 31.3328 34.4496 30.5645 34.4736C29.4841 34.4976 28.4037 34.4736 27.3232 34.4736C26.699 34.4736 26.0507 34.4736 25.3784 34.4736C25.3784 38.051 25.3784 41.5564 25.3784 45.1098C28.9319 45.1338 32.4373 45.1338 35.9907 45.1338Z" fill="#636A86"/>
<path d="M48.7877 17.2343C48.7877 16.2499 48.7877 15.2896 48.7877 14.3052C48.7877 13.2968 49.3399 12.7686 50.3483 12.7686C52.2931 12.7686 54.2619 12.7686 56.2066 12.7686C57.2151 12.7686 57.7673 13.3208 57.7673 14.3052C57.7673 16.274 57.7673 18.2668 57.7673 20.2355C57.7673 21.1959 57.215 21.7481 56.2307 21.7481C54.2619 21.7481 52.2691 21.7481 50.3003 21.7481C49.3399 21.7481 48.7877 21.1959 48.7637 20.2355C48.7877 19.2271 48.7877 18.2187 48.7877 17.2343ZM50.6364 14.5693C50.6364 16.37 50.6364 18.1467 50.6364 19.8754C52.4371 19.8754 54.2139 19.8754 55.9425 19.8754C55.9425 18.0747 55.9425 16.322 55.9425 14.5693C54.1898 14.5693 52.4371 14.5693 50.6364 14.5693Z" fill="#2AA7EE"/>
<path d="M12.6052 62.4203C12.6052 63.4287 12.6052 64.4131 12.6052 65.4215C12.6052 66.3579 12.0529 66.9101 11.1166 66.9341C9.09976 66.9341 7.08295 66.9581 5.06615 66.9341C4.17779 66.9341 3.62557 66.3579 3.60156 65.4695C3.60156 63.4527 3.60156 61.4359 3.60156 59.4191C3.60156 58.5308 4.15378 57.9545 5.06615 57.9545C7.10696 57.9305 9.14778 57.9305 11.1646 57.9545C12.0289 57.9545 12.5812 58.5308 12.5812 59.3951C12.6052 60.4035 12.6052 61.4119 12.6052 62.4203ZM10.7564 59.7793C8.9557 59.7793 7.17899 59.7793 5.4503 59.7793C5.4503 61.58 5.4503 63.3567 5.4503 65.0854C7.25102 65.0854 9.00372 65.0854 10.7564 65.0854C10.7564 63.3087 10.7564 61.58 10.7564 59.7793Z" fill="#393D53"/>
</svg>
