<svg width="43" height="44" viewBox="0 0 43 44" fill="none" xmlns="http://www.w3.org/2000/svg">
<path d="M29.1866 7.71931C28.683 7.71931 28.2049 7.72569 27.7268 7.71931C27.032 7.71293 26.3372 7.70655 25.6424 7.68104C25.0304 7.66191 24.5077 7.41956 24.087 6.97951C23.7619 6.6415 23.6535 6.20782 23.6216 5.76777C23.5515 4.8494 23.5069 3.92466 23.4623 2.99991C23.4431 2.67465 23.4623 2.35577 23.4623 2.01139C23.3666 2.00501 23.3093 2.00501 23.2519 2.00501C18.3308 2.00501 13.4033 2.00501 8.48215 2.01139C7.22637 2.01139 5.96422 2.04965 4.70844 2.07516C4.40246 2.08154 4.09648 2.11343 3.78413 2.13894C3.45266 2.16445 3.15943 2.30475 2.87258 2.45782C2.64947 2.57899 2.52835 2.78307 2.4901 3.01904C2.41361 3.49736 2.31799 3.98205 2.30524 4.46675C2.25425 6.20145 2.20325 7.94252 2.20325 9.67722C2.1905 16.0931 2.1905 22.5089 2.19688 28.9247C2.19688 30.6403 2.216 32.3558 2.24787 34.0714C2.26062 34.8112 2.33712 35.5446 2.38811 36.2781C2.40086 36.412 2.43273 36.5523 2.46461 36.6862C2.5411 37.0434 2.75146 37.273 3.08293 37.4324C3.5164 37.6365 3.96899 37.6939 4.42796 37.7066C5.39688 37.7385 6.37219 37.764 7.34111 37.7704C8.99211 37.7832 10.6431 37.7768 12.2941 37.7895C12.7148 37.7959 13.1292 37.8342 13.5499 37.8724C13.9324 37.9043 14.0726 38.1913 14.0854 38.4911C14.0981 38.8355 13.9005 39.0778 13.5499 39.1097C13.0399 39.1543 12.5363 39.1862 12.0264 39.1926C10.1523 39.2054 8.27817 39.2117 6.40406 39.199C5.56262 39.1926 4.72756 39.148 3.88612 39.1224C2.98094 39.0906 2.267 38.676 1.65504 38.0383C1.52118 37.898 1.39369 37.7449 1.27895 37.5855C0.941096 37.1326 0.76261 36.6288 0.756235 36.0485C0.743486 34.1288 0.698865 32.2155 0.69249 30.2959C0.679741 25.9336 0.673367 21.5714 0.666992 17.2091C0.666992 15.3469 0.673367 13.491 0.679741 11.6288C0.686116 10.1173 0.69249 8.61217 0.711614 7.10068C0.724363 5.86981 0.76261 4.63894 0.788108 3.4017C0.794483 3.10833 0.902849 2.84047 1.03671 2.59174C1.45743 1.83281 2.05026 1.24608 2.8407 0.882556C3.18493 0.723117 3.55465 0.684852 3.93075 0.672097C4.83593 0.633831 5.74111 0.595566 6.63991 0.589188C9.96104 0.576433 13.2822 0.563678 16.5969 0.570056C18.5284 0.576433 20.4599 0.608321 22.3977 0.633831C22.9204 0.640209 23.4495 0.691229 23.9722 0.710362C24.2718 0.723117 24.5396 0.818781 24.769 0.997353C25.2471 1.37363 25.7316 1.74991 26.1778 2.16445C27.3698 3.26777 28.5173 4.42211 29.5946 5.64022C30.0153 6.11854 30.3595 6.6415 30.6655 7.19635C30.6973 7.25375 30.7101 7.3239 30.7165 7.39405C30.7356 9.41574 30.7547 11.4311 30.7675 13.4527C30.7738 14.7857 30.7802 16.1186 30.7738 17.4515C30.7675 18.102 30.7228 18.7589 30.691 19.4094C30.6655 19.9579 30.1619 20.1173 29.8113 20.0408C29.5117 19.977 29.3332 19.7793 29.3204 19.4604C29.2822 18.7334 29.2312 18.0063 29.2248 17.2793C29.2057 14.167 29.1993 11.0484 29.1866 7.93614C29.1866 7.87237 29.1866 7.80859 29.1866 7.71931ZM25.0878 3.18486C25.0814 3.25501 25.0814 3.2869 25.0814 3.31241C25.0814 3.96292 25.0814 4.61981 25.0878 5.27032C25.0878 5.44889 25.1133 5.62747 25.1515 5.80604C25.1961 6.04839 25.3619 6.19507 25.6041 6.23971C25.7443 6.26522 25.891 6.27798 26.0312 6.27798C26.522 6.26522 27.0192 6.24609 27.5101 6.22696C27.7013 6.22058 27.8862 6.20782 28.0647 6.20145C27.083 5.20017 26.1013 4.20527 25.0878 3.18486Z" fill="#636A86"/>
<path d="M40.6672 19.869C40.6544 20.392 40.4951 20.9468 40.1253 21.4188C39.813 21.8205 39.4688 22.1968 39.1245 22.5667C38.8504 22.8601 38.672 23.1853 38.6656 23.5999C38.6592 24.1802 38.3787 24.6522 38.0154 25.0859C37.9453 25.1688 37.8751 25.2453 37.805 25.3282C37.6457 25.5195 37.6393 25.6024 37.7668 25.8193C37.8305 25.9277 37.8943 26.0297 37.9644 26.1254C38.7676 27.3116 38.7166 28.517 37.7476 29.5757C36.7596 30.6471 35.7269 31.6866 34.6943 32.7198C34.0441 33.3703 33.362 33.9826 32.6927 34.6139C32.6353 34.6713 32.5715 34.716 32.5078 34.767C32.2719 34.9583 32.0233 34.9647 31.7683 34.7861C31.5516 34.6331 31.4369 34.3014 31.5516 34.0591C31.6472 33.855 31.7684 33.6509 31.915 33.4851C32.4823 32.8537 33.0624 32.2287 33.6488 31.6165C34.5413 30.6854 35.4528 29.767 36.3389 28.8295C36.5556 28.5999 36.7468 28.3384 36.9062 28.0642C37.1484 27.656 37.1102 27.3754 36.7277 26.9864C36.6321 26.8907 36.511 26.9226 36.4217 26.9864C36.1476 27.1905 35.8672 27.3818 35.6249 27.6178C34.4903 28.7019 33.3492 29.7925 32.2337 30.8958C30.0664 33.0387 27.9118 35.2007 25.7508 37.3563C24.4632 38.6446 23.1691 39.9265 21.8751 41.2147C21.8177 41.2721 21.7476 41.3295 21.6711 41.355C20.0966 41.8716 18.5221 42.401 16.9412 42.8984C16.2974 43.1025 15.6408 43.2555 14.9906 43.4086C14.589 43.5043 14.3404 43.3002 14.385 42.8856C14.4424 42.401 14.5317 41.9163 14.6783 41.4571C15.2583 39.6203 15.8703 37.7964 16.4695 35.966C16.4886 35.9022 16.5333 35.8448 16.5842 35.8002C18.5412 33.8486 20.4918 31.8971 22.4488 29.9456C23.7492 28.6445 25.0496 27.3435 26.3564 26.0553C28.0201 24.4098 29.6903 22.7644 31.3731 21.1318C31.9723 20.545 32.6162 20.0029 33.2345 19.4417C33.6042 19.1037 34.0249 18.9698 34.5221 19.0591C34.5859 19.0718 34.6688 19.0335 34.7261 18.9889C34.9747 18.7784 35.2233 18.5616 35.4656 18.3384C35.8863 17.9494 36.3325 17.5922 36.8552 17.3371C38.7676 16.3932 40.6799 17.943 40.6672 19.869ZM27.8735 33.0961C27.8799 33.0897 27.9181 33.0578 27.95 33.0259C30.0855 30.8831 32.2209 28.753 34.3437 26.5973C35.2616 25.6662 36.1413 24.7032 37.0273 23.7466C37.2887 23.466 37.2823 23.4468 37.0465 23.1471C36.2879 22.1904 35.4146 21.3486 34.4839 20.5642C34.299 20.4047 34.2863 20.4047 34.1078 20.5769C33.0241 21.6101 31.9341 22.6369 30.8695 23.6892C28.8297 25.7109 26.8026 27.7517 24.7691 29.7861C24.7309 29.8244 24.6926 29.869 24.6416 29.9201C25.7253 30.9787 26.7962 32.031 27.8735 33.0961ZM21.4034 39.5247C23.1882 37.7517 24.9795 35.9787 26.7516 34.2185C25.6807 33.1471 24.6161 32.0821 23.5835 31.0489C21.805 32.8155 20.0137 34.5884 18.2352 36.355C19.2934 37.4137 20.3516 38.4788 21.4034 39.5247ZM16.2783 41.5272C17.5149 41.1892 18.7133 40.7874 19.9436 40.2836C19.0958 39.4226 18.2799 38.5935 17.4321 37.739C17.0241 39.0208 16.5524 40.2326 16.2783 41.5272ZM37.8879 21.6356C38.1174 21.4124 38.3851 21.1637 38.6401 20.8958C38.8696 20.6598 39.048 20.392 39.15 20.0795C39.3222 19.5629 39.1628 19.0527 38.7229 18.7019C38.3469 18.3958 37.907 18.3639 37.4417 18.6955C36.9572 19.0399 36.5237 19.4545 36.0265 19.869C36.6704 20.4813 37.2759 21.0552 37.8879 21.6356Z" fill="#4E5B76"/>
<path d="M22.7545 16.6737C22.7545 16.7566 22.7545 16.8204 22.7545 16.8778C22.7481 18.7018 22.7545 20.5258 22.7354 22.3434C22.729 23.0258 22.6717 23.7082 22.6207 24.397C22.6015 24.6903 22.5505 24.7286 22.2509 24.7414C20.9888 24.7924 19.7266 24.8625 18.4645 24.8753C16.4119 24.9008 14.3529 24.9008 12.3003 24.888C11.2103 24.8817 10.1266 24.8179 9.03656 24.7732C8.76246 24.7605 8.68596 24.7095 8.64134 24.4289C8.58397 24.0845 8.54572 23.7337 8.53297 23.3829C8.49473 22.1202 8.48198 20.8574 8.45011 19.5883C8.43098 18.8102 8.39911 18.0258 8.36724 17.2477C8.36086 17.152 8.34811 17.0564 8.32899 16.9607C8.29712 16.7949 8.24612 16.6801 8.03576 16.6418C7.89552 16.6163 7.75528 16.4952 7.64054 16.3931C6.95847 15.749 6.37201 15.0219 5.90667 14.2056C5.66444 13.7719 5.67719 13.638 6.04054 13.3C6.50588 12.8663 6.97759 12.439 7.48118 12.05C9.827 10.2388 12.1792 8.44029 14.5441 6.65458C15.1943 6.16988 15.9338 6.11886 16.6286 6.57804C17.2788 7.00534 17.9163 7.45815 18.5346 7.93647C20.4214 9.38417 22.3019 10.8383 24.1697 12.3051C24.5968 12.6431 24.9856 13.0321 25.3872 13.3957C25.6231 13.6061 25.6231 13.8357 25.4764 14.11C25.1513 14.7094 24.7434 15.2515 24.3099 15.7745C24.1442 15.9658 23.9657 16.1508 23.7936 16.3357C23.5577 16.5781 23.2836 16.7056 22.933 16.6674C22.9011 16.6674 22.8438 16.6737 22.7545 16.6737ZM18.643 23.4467C19.5609 23.4467 20.4406 23.4467 21.3203 23.4467C21.3203 23.4084 21.3266 23.3829 21.3266 23.3574C21.3266 20.7618 21.3266 18.1725 21.3203 15.5768C21.3203 15.5066 21.2693 15.4174 21.2119 15.3727C19.478 14.0398 17.7378 12.7133 16.0103 11.3804C15.8764 11.2783 15.7744 11.2656 15.6406 11.3548C15.2517 11.6099 14.8437 11.8459 14.4677 12.1201C13.0461 13.1852 11.631 14.263 10.2095 15.3344C10.1075 15.411 10.0629 15.4939 10.0629 15.6214C10.0692 18.1661 10.0629 20.7107 10.0629 23.2554C10.0629 23.3192 10.0629 23.3766 10.0629 23.4403C10.9617 23.4403 11.8413 23.4403 12.7338 23.4403C12.7338 23.3702 12.7338 23.3064 12.7338 23.2426C12.7402 22.0054 12.7274 20.7681 12.7529 19.5309C12.7657 18.8612 12.8294 18.198 12.8804 17.5283C12.8995 17.2987 13.0398 17.152 13.2692 17.1074C13.4222 17.0819 13.5752 17.05 13.7282 17.0436C14.4103 17.0309 15.0987 16.999 15.7808 17.0181C16.533 17.0373 17.2852 17.0819 18.0374 17.1329C18.3434 17.1521 18.4071 17.2286 18.4581 17.5347C18.5027 17.8089 18.541 18.0896 18.5537 18.3702C18.592 19.5373 18.6238 20.7044 18.6493 21.8714C18.6493 22.4072 18.643 22.9237 18.643 23.4467ZM7.40468 13.9122C7.65329 14.2184 7.88915 14.499 8.13138 14.786C8.22062 14.888 8.31624 14.8816 8.42461 14.8051C8.70509 14.601 8.99194 14.4161 9.26604 14.2056C10.9107 12.9684 12.5553 11.7247 14.2063 10.4939C14.6334 10.175 15.0796 9.89438 15.5194 9.58826C15.6342 9.50535 15.7426 9.49897 15.87 9.58826C16.0422 9.70943 16.2334 9.81147 16.3991 9.93902C17.7888 10.9722 19.172 12.0117 20.5617 13.0449C21.3585 13.638 22.1617 14.2184 22.9585 14.8051C23.0733 14.8944 23.1752 14.888 23.2645 14.7796C23.5003 14.499 23.7362 14.212 23.9721 13.9186C23.9083 13.8676 23.8828 13.8357 23.8509 13.8102C22.2637 12.5921 20.6828 11.3676 19.0892 10.1559C18.0629 9.38417 17.0175 8.638 15.9848 7.87269C15.8445 7.77065 15.7234 7.75789 15.5832 7.85356C15.0605 8.19795 14.5186 8.51682 14.0214 8.8931C12.3003 10.175 10.5983 11.476 8.88995 12.777C8.39274 13.1469 7.91465 13.5168 7.40468 13.9122ZM17.0175 18.4722C16.0613 18.4722 15.1242 18.4722 14.1808 18.4722C14.1808 20.1368 14.1808 21.7885 14.1808 23.4531C15.1306 23.4531 16.074 23.4531 17.0175 23.4531C17.0175 21.7885 17.0175 20.1368 17.0175 18.4722Z" fill="#2AA7EE"/>
<path d="M11.0444 32.0566C12.6826 32.0758 14.3272 32.0885 15.9655 32.1077C16.1822 32.1077 16.399 32.1268 16.6157 32.1395C16.7751 32.1459 16.8898 32.2225 16.9472 32.3691C17.0619 32.637 17.0555 32.9049 16.9472 33.1727C16.8643 33.3768 16.6858 33.4023 16.5009 33.4087C15.9272 33.4278 15.3535 33.4533 14.7798 33.4533C12.3639 33.4597 9.94795 33.4661 7.532 33.4597C6.8818 33.4597 6.22523 33.4278 5.57503 33.4087C5.24355 33.3959 5.11606 33.2875 5.06506 32.9559C5.04594 32.8092 5.04594 32.6561 5.05869 32.5158C5.09056 32.248 5.18618 32.1523 5.46028 32.1395C5.91925 32.1204 6.38459 32.1013 6.84356 32.1013C8.23957 32.0949 9.63559 32.1013 11.0316 32.1013C11.0444 32.0885 11.0444 32.0694 11.0444 32.0566Z" fill="#636A86"/>
<path d="M16.7758 27.751C18.0953 27.7765 19.4212 27.802 20.7407 27.8339C21.1487 27.8403 21.3144 28.0061 21.3208 28.4206C21.3272 28.5418 21.3081 28.663 21.2762 28.7841C21.2125 29.0265 21.1041 29.1094 20.8555 29.1158C20.0013 29.1413 19.1471 29.1859 18.2929 29.1859C16.7567 29.1923 15.2268 29.1796 13.6905 29.1668C13.3399 29.1668 12.9893 29.1285 12.6387 29.1222C12.4602 29.1158 12.3519 29.0329 12.2818 28.8798C12.1798 28.6311 12.167 28.376 12.2435 28.1145C12.2881 27.9678 12.3774 27.8721 12.5495 27.8658C13.2634 27.8466 13.9838 27.8148 14.6977 27.802C15.3861 27.7892 16.081 27.802 16.7694 27.802C16.7758 27.7765 16.7758 27.7637 16.7758 27.751Z" fill="#636A86"/>
<path d="M7.6787 27.751C8.47552 27.7765 9.27233 27.802 10.0691 27.8339C10.3942 27.8466 10.5281 27.9551 10.5727 28.2739C10.5982 28.4461 10.5791 28.6375 10.5409 28.8097C10.5026 28.9946 10.3751 29.1158 10.1648 29.1222C9.20221 29.1477 8.23329 29.1859 7.27074 29.1923C6.67791 29.1987 6.08508 29.1477 5.49224 29.1222C5.30738 29.1158 5.19902 29.0201 5.13527 28.8543C5.03965 28.6056 5.02691 28.3568 5.1034 28.1081C5.14802 27.9614 5.23726 27.8658 5.39663 27.8594C5.97671 27.8339 6.55042 27.802 7.1305 27.7829C7.31536 27.7765 7.50022 27.7829 7.68508 27.7829C7.6787 27.7637 7.6787 27.7574 7.6787 27.751Z" fill="#636A86"/>
</svg>
