<svg width="41" height="42" viewBox="0 0 41 42" fill="none" xmlns="http://www.w3.org/2000/svg">
<g clip-path="url(#clip0_921_518)">
<path d="M40.317 18.9794C40.317 17.9144 40.0037 16.9434 39.3773 16.0977C38.3593 14.7351 36.9967 14.0773 35.3052 14.0616C34.7884 14.0616 26.3311 14.046 24.3107 14.0616C21.9145 14.0773 19.9567 15.5808 19.4242 17.8518C19.3303 18.2746 19.299 18.7288 19.299 19.1674C19.2833 24.0851 19.299 29.0029 19.299 33.9207C19.299 33.9207 19.5026 36.3796 19.3303 36.5519C19.5965 39.1674 21.6325 41.0468 24.3264 41.0468C27.9912 41.0468 31.656 41.0468 35.3209 41.0468C38.14 41.0468 40.3013 38.9324 40.317 36.1133C40.3326 30.4125 40.317 24.6959 40.317 18.9794ZM39.1423 27.5464C39.1423 30.3185 39.0954 33.1063 39.158 35.8784C39.205 38.165 37.4509 39.9191 35.1486 39.8878C31.5934 39.8408 28.0225 39.8721 24.4673 39.8721C22.0711 39.8721 20.4892 38.306 20.4892 35.9097C20.4892 30.3028 20.4892 24.6803 20.4892 19.0734C20.4892 17.194 21.6482 15.7218 23.4336 15.3302C23.7782 15.2519 24.1384 15.2363 24.483 15.2363C28.0382 15.2363 31.6091 15.2676 35.1643 15.2206C37.5292 15.1893 39.205 16.9904 39.158 19.23C39.0954 22.0021 39.1423 24.7743 39.1423 27.5464Z" fill="#636A86"/>
<path d="M18.2966 36.5052C18.234 36.4269 18.187 36.3329 18.1713 36.239C18.093 35.7378 18.0773 35.2523 18.0773 34.7511C18.0773 34.6258 18.1087 34.5162 18.1556 34.4222C18.1087 34.3909 18.046 34.3439 18.0147 34.2656C18.2026 33.6548 18.4376 33.1536 18.5002 32.6368C18.5785 32.0729 18.3123 31.5718 17.9364 31.1489C18.7195 29.8646 18.7351 29.2538 17.9364 28.1262C18.3749 27.6094 18.6098 27.0299 18.5002 26.3408C18.3123 25.2444 17.4979 24.524 16.3859 24.524C14.1776 24.524 11.9693 24.524 9.77663 24.524C9.63568 24.524 9.49472 24.524 9.32244 24.524C9.30678 24.3517 9.30678 24.2108 9.30678 24.0855C9.30678 17.6798 9.30678 11.2742 9.30678 4.86855C9.2598 3.20841 10.2465 2.20606 11.891 2.20606C16.4642 2.20606 21.0217 2.20606 25.595 2.20606H25.9865C26.0022 2.36268 26.0022 2.48797 26.0022 2.62893C26.0022 4.0698 26.0022 5.49502 26.0022 6.9359C26.0022 7.57803 26.1901 7.76597 26.8479 7.76597C28.1322 7.76597 29.4321 7.76597 30.7163 7.76597H31.2019V12.1982C31.6404 12.1982 32.0789 12.2139 32.5174 12.2296C32.5174 10.9766 32.5174 9.72368 32.5174 8.45508C32.5174 7.45273 32.1885 6.56002 31.4994 5.82392C30.3405 4.58664 29.1658 3.34937 28.0069 2.12775C27.3021 1.39165 26.425 0.953125 25.407 0.953125C20.8181 0.953125 16.1979 0.953125 11.5934 0.953125C10.9043 0.953125 10.2465 1.15673 9.68266 1.53261C8.47671 2.34702 7.97554 3.49032 7.97554 4.91554C7.9912 11.2585 7.97554 17.6015 7.97554 23.9445V24.524C6.94186 24.4457 6.00216 24.5553 5.42268 25.495C4.85886 26.4191 4.99981 27.3118 5.65761 28.1262C5.14077 28.8936 5.12511 28.9093 5.07812 30.0369C5.01547 30.0526 4.95283 30.0682 4.89018 30.0839C2.43129 30.4441 0.536227 32.4332 0.348286 34.8451C0.144684 37.4919 1.66387 39.7785 4.13842 40.4989C4.7179 40.6712 5.34437 40.7182 5.95518 40.7182C9.41642 40.7339 12.8777 40.7339 16.3232 40.7182C17.4979 40.7182 18.4062 39.8725 18.4845 38.7292C18.5315 38.1027 18.2809 37.5702 17.9051 37.116C18.0617 36.8967 18.187 36.7088 18.2966 36.5052ZM27.3021 3.22407C28.3514 4.33605 29.3538 5.38539 30.3874 6.49737H27.3021V3.22407ZM16.3702 33.4668C15.2739 33.4825 14.1776 33.4825 13.0813 33.4668C12.9873 33.4668 12.8463 33.3885 12.7837 33.2946C12.4861 32.7934 12.1885 32.2922 11.891 31.744C13.3945 31.744 14.8824 31.7284 16.3859 31.744C16.9027 31.744 17.2629 32.1669 17.2316 32.6368C17.2159 33.1066 16.8714 33.4668 16.3702 33.4668ZM17.2316 35.6125C17.2316 36.098 16.8557 36.4582 16.3076 36.4739C15.2582 36.4895 14.2089 36.4739 13.1282 36.4739C13.1596 35.8631 13.1752 35.3306 13.2065 34.7354C13.5511 34.7354 13.8957 34.7354 14.2559 34.7354C14.945 34.7354 15.6341 34.7198 16.3232 34.7354C16.8714 34.7668 17.2473 35.127 17.2316 35.6125ZM6.36238 26.5287C6.40937 26.0745 6.76959 25.7769 7.28642 25.7769C8.80561 25.7769 10.3091 25.7769 11.8283 25.7769C13.2849 25.7769 14.7414 25.7769 16.2136 25.7769C16.8557 25.7769 17.2473 26.1215 17.2473 26.6383C17.2473 27.1708 16.8401 27.4997 16.1979 27.4997C13.2535 27.4997 10.3091 27.4997 7.36473 27.4997C6.70694 27.4997 6.29974 27.1082 6.36238 26.5287ZM7.23944 28.7683C7.75627 28.7527 8.28877 28.7683 8.80561 28.7683C11.2332 28.7683 13.6607 28.7683 16.0883 28.7683C16.2136 28.7683 16.3546 28.7683 16.4798 28.784C16.934 28.8466 17.2629 29.2382 17.2473 29.6767C17.2316 30.1309 16.887 30.4911 16.4172 30.4911C15.3679 30.5068 14.3342 30.4911 13.2849 30.4911C12.956 30.4911 12.6271 30.4911 12.3138 30.4911C11.1705 30.4911 10.0429 30.5224 8.91524 30.1622C8.24179 29.9429 7.47436 30.0369 6.73826 30.0369C6.45635 30.0369 6.37804 29.9273 6.36238 29.6767C6.34672 29.1599 6.70694 28.784 7.23944 28.7683ZM3.90349 31.5248C3.91916 31.5561 3.95048 31.5718 3.96614 31.6031C3.71555 31.9476 3.49629 32.3235 3.19872 32.6211C3.05776 32.7621 2.76019 32.7307 2.52526 32.7934C2.49394 32.7307 2.46262 32.6837 2.44696 32.6211C2.94813 32.2609 3.41798 31.885 3.90349 31.5248ZM2.6349 33.9837C2.58791 34.2656 2.54093 34.5631 2.49394 34.8607H1.5699C1.58556 33.968 1.74218 33.8427 2.6349 33.9837ZM1.61688 36.0823H2.5096C2.57225 36.3956 2.65056 36.7088 2.7132 37.022C1.82049 37.1473 1.64821 37.0064 1.61688 36.0823ZM3.91916 39.199C3.51195 38.9171 3.10475 38.6352 2.61923 38.3063C3.05776 38.1967 3.30835 38.181 3.51195 38.5256C3.63724 38.7448 3.82519 38.9171 3.9818 39.1207C3.96614 39.152 3.93482 39.1834 3.91916 39.199ZM7.83458 39.5592C5.53231 39.5592 3.66857 37.6955 3.65291 35.3776C3.63724 33.091 5.53231 31.1959 7.83458 31.1959C10.1055 31.1959 12.0163 33.0753 12.0163 35.3462C12.0163 37.6798 10.1682 39.5436 7.83458 39.5592ZM16.4485 39.4496C14.7727 39.4653 13.0969 39.4653 11.4368 39.4653C11.8283 38.9171 12.2042 38.3846 12.5957 37.8521C12.6584 37.7738 12.7993 37.7425 12.8933 37.7425C14.0523 37.7425 15.2112 37.7268 16.3702 37.7425C16.8714 37.7425 17.2159 38.1184 17.2316 38.5882C17.2473 39.0267 16.9184 39.4496 16.4485 39.4496Z" fill="#636A86"/>
<path d="M15.8379 15.002C16.2451 15.1273 16.5896 15.2056 16.9342 15.3466C17.3414 15.5188 17.451 15.8007 17.2944 16.1296C17.1378 16.4585 16.9029 16.5212 16.48 16.3176C15.9945 16.0827 15.4933 16.02 14.9608 16.1453C14.6163 16.2393 14.3657 16.4272 14.3187 16.7874C14.256 17.179 14.35 17.5235 14.7102 17.7271C14.9608 17.8681 15.2271 17.9777 15.4933 18.0874C15.7752 18.2126 16.0571 18.291 16.3234 18.4319C17.5763 19.0584 17.9835 20.7812 17.1221 21.8775C16.8872 22.1751 16.5113 22.3787 16.1511 22.5666C15.9318 22.6762 15.8065 22.7545 15.8535 23.0051C15.8535 23.0365 15.8535 23.0834 15.8535 23.1148C15.8065 23.4437 15.6343 23.6473 15.2897 23.6473C14.9452 23.6473 14.7259 23.428 14.7416 23.0991C14.7572 22.7389 14.5849 22.6292 14.2717 22.5353C13.9428 22.4256 13.6452 22.222 13.3633 22.0184C13.238 21.9245 13.1284 21.7679 13.0814 21.6112C12.9874 21.345 13.0657 21.0944 13.3163 20.9221C13.5669 20.7498 13.7705 20.8595 13.9271 21.0631C14.3343 21.5486 14.8512 21.7209 15.462 21.6269C16.0101 21.5486 16.3234 21.3293 16.4017 20.8908C16.4957 20.374 16.4643 19.8571 15.9632 19.5282C15.6969 19.3559 15.3837 19.2307 15.0861 19.1054C14.8355 18.9957 14.5849 18.9018 14.3343 18.7921C13.5199 18.4162 13.1441 17.7741 13.191 16.8814C13.238 16.0357 13.6609 15.4718 14.4596 15.1743C14.5693 15.1273 14.6319 14.9707 14.6946 14.8454C14.7259 14.7827 14.6946 14.6888 14.7102 14.6105C14.7416 14.2659 14.9765 14.0153 15.2897 14.031C15.6186 14.0623 15.8065 14.2502 15.8379 14.5791C15.8535 14.7357 15.8379 14.8767 15.8379 15.002Z" fill="#636A86"/>
<path d="M22.353 13.1378C20.7555 13.1378 19.1737 13.1378 17.5762 13.1378C17.4039 13.1378 17.169 13.1378 17.0594 13.0439C16.9028 12.9186 16.7461 12.668 16.7775 12.5114C16.8088 12.3234 17.0124 12.1355 17.1847 12.0102C17.2943 11.9319 17.4822 11.9632 17.6389 11.9632C20.8025 11.9632 23.9505 11.9632 27.1142 11.9632C27.1768 11.9632 27.2395 11.9632 27.3021 11.9632C27.7407 11.9789 27.9913 12.1825 27.9913 12.5427C28.0069 12.9186 27.7407 13.1535 27.2865 13.1535C25.642 13.1378 23.9975 13.1378 22.353 13.1378Z" fill="#636A86"/>
<path d="M18.3281 9.01856C20.0039 9.01856 21.6641 9.01856 23.3399 9.01856C23.4495 9.01856 23.5748 9.0029 23.6844 9.03423C23.982 9.11253 24.1699 9.30047 24.1543 9.61371C24.1543 9.92694 23.9663 10.1149 23.6531 10.1775C23.6218 10.1932 23.5748 10.1932 23.5435 10.1932C20.0822 10.1932 16.6053 10.1932 13.1441 10.1932C12.7525 10.1932 12.502 9.92694 12.502 9.59805C12.5176 9.25349 12.7839 9.01856 13.1911 9.01856C14.9139 9.01856 16.621 9.01856 18.3281 9.01856Z" fill="#636A86"/>
<path d="M14.0055 13.1375C13.7079 13.1375 13.4103 13.1532 13.1128 13.1375C12.7525 13.1219 12.502 12.8713 12.502 12.5581C12.502 12.2448 12.7369 11.9786 13.0971 11.9629C13.7236 11.9473 14.35 11.9473 14.9608 11.9629C15.3367 11.9786 15.556 12.2292 15.5403 12.5581C15.5403 12.887 15.3211 13.1219 14.9295 13.1375C14.6319 13.1532 14.3187 13.1375 14.0055 13.1375Z" fill="#636A86"/>
<path d="M26.6602 10.1937C26.394 10.1937 26.1434 10.2094 25.8771 10.1937C25.5482 10.1624 25.3603 9.95876 25.329 9.62987C25.2976 9.31663 25.5326 9.03472 25.8615 9.01906C26.394 9.0034 26.9265 8.98774 27.459 9.01906C27.7879 9.03472 27.9758 9.25399 27.9758 9.59854C27.9915 9.91178 27.7565 10.1624 27.4276 10.178C27.1771 10.2094 26.9265 10.1937 26.6602 10.1937Z" fill="#636A86"/>
<path d="M29.8235 16.583C31.5933 16.583 33.3787 16.583 35.1485 16.583C36.5581 16.583 37.3568 17.3818 37.3568 18.7913C37.3568 19.3865 37.3568 19.9973 37.3568 20.5924C37.3411 21.8923 36.5111 22.7224 35.2111 22.7224C33.1908 22.7224 31.1704 22.7224 29.1501 22.7224C28.9934 22.7224 28.7898 22.7381 28.6959 22.6598C28.5393 22.5031 28.3513 22.2682 28.367 22.0803C28.3826 21.8923 28.6332 21.7044 28.8055 21.5791C28.8995 21.5165 29.0874 21.5478 29.2284 21.5478C31.1861 21.5478 33.1438 21.5478 35.1015 21.5478C35.8846 21.5478 36.1508 21.2815 36.1665 20.4984C36.1665 19.919 36.1665 19.3238 36.1665 18.7443C36.1508 18.0865 35.8846 17.8046 35.2425 17.8046C31.609 17.8046 27.9911 17.8046 24.3576 17.8046C23.7311 17.8046 23.4492 18.1022 23.4335 18.713C23.4335 19.3551 23.4335 19.9973 23.4335 20.6237C23.4335 21.2502 23.7311 21.5478 24.3732 21.5478C24.9997 21.5478 25.6262 21.5478 26.2526 21.5478C26.6912 21.5478 26.9418 21.767 26.9574 22.1116C26.9731 22.4718 26.6912 22.7224 26.2526 22.7224C25.5949 22.7224 24.9214 22.7381 24.2636 22.7224C23.1046 22.7067 22.2746 21.8767 22.2589 20.7177C22.2433 20.0599 22.2589 19.3865 22.2589 18.7287C22.2589 17.4131 23.0577 16.6143 24.3889 16.5987C26.2057 16.5674 28.0224 16.583 29.8235 16.583Z" fill="#2AA7EE"/>
<path d="M37.4197 33.7484C37.4197 34.7194 37.4197 35.6748 37.4197 36.6458C37.4197 37.8674 36.7463 38.5409 35.5403 38.5409C35.2271 38.5409 34.9138 38.5565 34.6006 38.5409C33.6609 38.4939 32.9405 37.7891 32.9405 36.8494C32.9248 34.7664 32.9248 32.6677 32.9405 30.5847C32.9405 29.7547 33.5199 29.1125 34.3657 29.0499C34.9138 29.0029 35.462 29.0029 36.0102 29.0499C36.8559 29.1125 37.4197 29.7233 37.4354 30.5847C37.4354 31.6341 37.4197 32.6834 37.4197 33.7484ZM34.1151 33.7327C34.1151 34.7194 34.1151 35.7218 34.1151 36.7085C34.1151 37.1627 34.303 37.3506 34.7572 37.3506C35.0705 37.3506 35.3837 37.3663 35.6969 37.3506C36.0258 37.3349 36.2294 37.1627 36.2294 36.8024C36.2294 34.7507 36.2294 32.6991 36.2294 30.663C36.2294 30.3498 36.0728 30.2089 35.7752 30.2245C35.3993 30.2245 35.0235 30.2245 34.6476 30.2245C34.2247 30.2245 34.1307 30.3341 34.1151 30.7727C34.1151 31.7437 34.1151 32.7304 34.1151 33.7327Z" fill="#4E5B76"/>
<path d="M32.0633 36.2856C32.0633 36.6145 32.079 36.9434 32.0633 37.2566C32.0477 37.9927 31.5308 38.5096 30.7947 38.5252C30.1369 38.5409 29.4948 38.5409 28.837 38.5252C28.1166 38.5096 27.5997 38.0397 27.5684 37.3036C27.5371 36.6145 27.5371 35.9254 27.5684 35.2363C27.5997 34.5315 28.0539 34.0617 28.7587 34.0303C29.4478 33.999 30.1369 33.999 30.8261 34.0303C31.5778 34.0617 32.032 34.5785 32.0477 35.3303C32.0633 35.6591 32.0633 35.9724 32.0633 36.2856ZM30.873 35.2519C30.1369 35.2519 29.4635 35.2519 28.79 35.2519C28.79 35.9567 28.79 36.6302 28.79 37.3506C29.4322 37.3506 30.043 37.3663 30.6538 37.3349C30.7321 37.3349 30.873 37.194 30.873 37.1C30.8887 36.5049 30.873 35.8941 30.873 35.2519Z" fill="#4E5B76"/>
<path d="M32.0633 31.2739C32.0633 31.6028 32.079 31.9317 32.0633 32.2449C32.032 32.981 31.5308 33.4978 30.7947 33.5135C30.1369 33.5291 29.4948 33.5291 28.837 33.5135C28.0852 33.4978 27.584 33.0123 27.5684 32.2605C27.5527 31.6028 27.5527 30.9293 27.5684 30.2715C27.584 29.5511 28.0539 29.0656 28.7743 29.0342C29.4478 29.0029 30.1369 29.0029 30.8104 29.0342C31.6091 29.0656 32.0633 29.5824 32.0633 30.3811C32.0633 30.6787 32.0633 30.9763 32.0633 31.2739ZM28.7743 30.2402C28.7743 30.945 28.7743 31.6184 28.7743 32.3389C29.4321 32.3389 30.0586 32.3389 30.7007 32.3232C30.7634 32.3232 30.873 32.1979 30.873 32.1196C30.8887 31.4931 30.873 30.8823 30.873 30.2245C30.1682 30.2402 29.4948 30.2402 28.7743 30.2402Z" fill="#4E5B76"/>
<path d="M22.2755 31.2269C22.2755 30.8823 22.2599 30.5534 22.2755 30.2089C22.2912 29.598 22.714 29.0812 23.3248 29.0499C24.1079 29.0029 24.9067 29.0029 25.7054 29.0499C26.3162 29.0969 26.7391 29.6137 26.7548 30.2245C26.7704 30.898 26.7704 31.5871 26.7548 32.2605C26.7391 32.9653 26.2536 33.4822 25.5645 33.5135C24.8597 33.5448 24.1549 33.5448 23.4501 33.5135C22.7767 33.4822 22.2912 32.9653 22.2755 32.2919C22.2599 31.9316 22.2755 31.5871 22.2755 31.2269ZM25.5488 30.2402C24.8284 30.2402 24.1549 30.2402 23.4658 30.2402C23.4658 30.945 23.4658 31.6184 23.4658 32.2919C24.1706 32.2919 24.8597 32.2919 25.5488 32.2919C25.5488 31.6027 25.5488 30.945 25.5488 30.2402Z" fill="#4E5B76"/>
<path d="M26.7547 36.3012C26.7547 36.6301 26.7547 36.959 26.7547 37.2723C26.739 37.977 26.2535 38.4939 25.5644 38.5252C24.8596 38.5565 24.1548 38.5565 23.45 38.5252C22.7766 38.4939 22.2911 37.977 22.2754 37.3036C22.2598 36.6301 22.2598 35.941 22.2754 35.2676C22.2911 34.5785 22.7453 34.0773 23.4344 34.046C24.1548 34.0146 24.8753 34.0146 25.58 34.046C26.2692 34.0773 26.7233 34.5785 26.739 35.2676C26.7547 35.6121 26.7547 35.9567 26.7547 36.3012ZM23.4657 37.3506C24.1078 37.3506 24.7343 37.3506 25.3451 37.3349C25.4078 37.3349 25.5331 37.194 25.5487 37.1156C25.5644 36.4892 25.5644 35.8784 25.5644 35.2519C24.8439 35.2519 24.1548 35.2519 23.4657 35.2519C23.4657 35.9723 23.4657 36.6301 23.4657 37.3506Z" fill="#4E5B76"/>
<path d="M29.808 28.2361C29.4634 28.2361 29.1032 28.2518 28.7587 28.2361C28.1009 28.2048 27.6154 27.7663 27.584 27.1085C27.5527 26.3724 27.5527 25.6206 27.584 24.8845C27.6154 24.2424 28.1322 23.7725 28.7743 23.7569C29.4634 23.7412 30.1526 23.7412 30.8417 23.7569C31.5151 23.7725 32.032 24.2737 32.0476 24.9472C32.0789 25.6363 32.0633 26.3254 32.0476 27.0145C32.032 27.7193 31.5308 28.1891 30.826 28.2361C30.4971 28.2361 30.1526 28.2361 29.808 28.2361ZM28.7743 24.9472C28.7743 25.6519 28.7743 26.3254 28.7743 27.0145C29.4791 27.0145 30.1682 27.0145 30.8417 27.0145C30.8417 26.3097 30.8417 25.6363 30.8417 24.9472C30.1526 24.9472 29.4791 24.9472 28.7743 24.9472Z" fill="#4E5B76"/>
<path d="M37.4197 25.9808C37.4197 26.341 37.4354 26.7169 37.4197 27.0771C37.3884 27.7036 36.9185 28.1891 36.2921 28.2205C35.5716 28.2518 34.8355 28.2518 34.0994 28.2205C33.4416 28.2048 32.9561 27.688 32.9405 27.0302C32.9248 26.341 32.9248 25.6519 32.9405 24.9628C32.9561 24.2737 33.4886 23.7725 34.1777 23.7569C34.8512 23.7412 35.5403 23.7412 36.2138 23.7569C36.8872 23.7725 37.3884 24.2737 37.4197 24.9472C37.4354 25.2917 37.4197 25.6363 37.4197 25.9808ZM36.2138 24.9472C35.4933 24.9472 34.8199 24.9472 34.1307 24.9472C34.1307 25.6519 34.1307 26.3254 34.1307 27.0145C34.8355 27.0145 35.509 27.0145 36.2138 27.0145C36.2138 26.3254 36.2138 25.6519 36.2138 24.9472Z" fill="#4E5B76"/>
<path d="M22.2755 25.9652C22.2755 25.6363 22.2755 25.3074 22.2755 24.9941C22.2912 24.305 22.7924 23.7725 23.4815 23.7569C24.1706 23.7412 24.8597 23.7412 25.5488 23.7569C26.2379 23.7725 26.7391 24.305 26.7548 24.9941C26.7704 25.6676 26.7704 26.3567 26.7548 27.0302C26.7391 27.7036 26.2536 28.2204 25.5645 28.2361C24.8597 28.2518 24.1549 28.2518 23.4501 28.2361C22.761 28.2204 22.2912 27.7036 22.2755 27.0302C22.2599 26.6699 22.2755 26.3097 22.2755 25.9652ZM25.5488 24.9472C24.8284 24.9472 24.1549 24.9472 23.4658 24.9472C23.4658 25.6519 23.4658 26.3254 23.4658 27.0145C24.1706 27.0145 24.844 27.0145 25.5488 27.0145C25.5488 26.3254 25.5488 25.6519 25.5488 24.9472Z" fill="#4E5B76"/>
<path d="M7.88194 32.1514C8.06988 32.3236 8.28914 32.4333 8.36745 32.6212C8.46142 32.8092 8.55539 32.9031 8.74333 32.9501C8.88429 32.9814 9.00958 33.0597 9.11921 33.1537C9.35414 33.3573 9.43245 33.6079 9.26017 33.8898C9.10355 34.1561 8.86863 34.2344 8.55539 34.1404C8.32047 34.0778 8.08554 33.9994 7.83495 33.9994C7.72532 33.9994 7.61569 34.1247 7.50606 34.2031C7.58437 34.3127 7.63135 34.4693 7.72532 34.5319C7.94459 34.6572 8.19517 34.7512 8.44576 34.8452C9.04091 35.1114 9.40112 35.55 9.43245 36.2234C9.46377 36.9125 9.26017 37.4763 8.60238 37.8209C8.50841 37.8679 8.47708 38.0245 8.39878 38.1028C8.2265 38.2594 8.05422 38.4787 7.85062 38.5257C7.58437 38.5883 7.38076 38.3847 7.25547 38.1185C7.19282 37.9932 7.08319 37.8992 6.97356 37.8052C6.7543 37.6016 6.45672 37.445 6.30011 37.1944C6.11217 36.9282 6.2218 36.6306 6.48805 36.4427C6.73863 36.2547 6.9579 36.3174 7.19282 36.521C7.33378 36.6463 7.52172 36.7872 7.67834 36.7872C7.86628 36.7872 8.14819 36.6933 8.2265 36.5523C8.35179 36.333 8.25782 36.0668 7.97591 35.9415C7.70966 35.8162 7.41209 35.7222 7.14584 35.5813C6.4254 35.2211 6.14349 34.5476 6.39408 33.7802C6.44106 33.6236 6.53503 33.467 6.64466 33.3417C6.91091 33.0597 7.28679 32.9031 7.38076 32.4489C7.41209 32.3393 7.66268 32.2767 7.88194 32.1514Z" fill="#636A86"/>
</g>
<defs>
<clipPath id="clip0_921_518">
<rect width="40" height="40.094" fill="white" transform="translate(0.333008 0.953125)"/>
</clipPath>
</defs>
</svg>
