<svg width="43" height="44" viewBox="0 0 43 44" fill="none" xmlns="http://www.w3.org/2000/svg">
<g clip-path="url(#clip0_921_42)">
<path d="M25.3871 27.0283C25.4711 27.5824 25.5215 28.1029 25.6222 28.6066C25.6894 28.9424 25.9244 29.1439 26.277 29.1607C26.8143 29.1775 27.3348 29.1775 27.8721 29.1607C27.9728 29.1607 28.1072 29.0431 28.1743 28.9424C28.5941 28.17 29.2321 27.7503 30.1052 27.7503C30.9783 27.7503 31.6163 28.17 32.0361 28.9592C32.0865 29.0599 32.2544 29.1607 32.3719 29.1775C33.245 29.1943 34.1013 29.1775 34.9744 29.1943C35.2598 29.211 35.3102 29.0096 35.411 28.8417C35.8979 28.0021 36.8717 27.5992 37.8288 27.8342C38.7522 28.0693 39.3903 28.9088 39.4238 29.8659C39.4406 30.8397 38.8194 31.696 37.8791 31.9814C36.9221 32.2669 35.8811 31.8639 35.411 30.9572C35.2598 30.6886 35.1087 30.6214 34.8233 30.6214C34.0342 30.6382 33.2282 30.6214 32.4391 30.6382C32.3047 30.6382 32.1033 30.7558 32.0361 30.8901C31.6163 31.6456 30.9951 32.0486 30.1388 32.0654C29.2657 32.0654 28.6277 31.6456 28.1911 30.8901C28.124 30.7725 27.9225 30.655 27.7882 30.655C27.2844 30.6214 26.7807 30.655 26.277 30.6382C25.2024 30.5879 24.3629 29.8491 24.2118 28.7913C23.3891 23.2673 22.5832 17.7601 21.7604 12.236C21.6429 11.4805 21.4582 11.3126 20.7026 11.3126C19.796 11.3126 18.8893 11.3126 17.9658 11.3126C17.9658 10.8256 17.9658 10.3891 17.9658 9.91897C18.0498 9.90218 18.1505 9.88539 18.2345 9.88539C19.1579 9.88539 20.0814 9.8686 21.0049 9.88539C22.0962 9.90218 22.9525 10.641 23.1204 11.7155C23.1876 12.1185 23.238 12.5215 23.3051 12.9244C23.3723 13.3274 23.4227 13.7136 23.5066 14.1837C23.6745 14.1837 23.8424 14.1837 24.0103 14.1837C29.9877 14.1837 35.965 14.1837 41.9256 14.1837C42.8826 14.1837 43.1177 14.4524 42.9498 15.3758C42.2782 19.0193 41.5898 22.6628 40.9182 26.2895C40.8006 26.9108 40.5824 27.0955 39.894 27.0955C35.2431 27.0955 30.6089 27.0955 25.958 27.0955C25.7565 27.0283 25.5886 27.0283 25.3871 27.0283ZM23.7081 15.5605C23.7081 15.6445 23.7081 15.6948 23.7081 15.7452C24.1614 18.8346 24.6484 21.924 25.0681 25.0303C25.1353 25.4836 25.2696 25.5843 25.7062 25.5843C30.1388 25.5675 34.5714 25.5675 39.0041 25.5675C39.172 25.5675 39.3399 25.5675 39.5078 25.5675C40.1458 22.2095 40.7671 18.885 41.3883 15.5437C35.4781 15.5605 29.6015 15.5605 23.7081 15.5605ZM30.7936 29.9162C30.8104 29.5301 30.5082 29.1775 30.1052 29.1607C29.7358 29.1439 29.4 29.4461 29.3664 29.8155C29.3329 30.2185 29.6183 30.5543 30.0213 30.5711C30.441 30.6046 30.7768 30.3192 30.7936 29.9162ZM37.2579 29.1607C36.8717 29.1607 36.5359 29.4797 36.5359 29.8659C36.5359 30.2353 36.8381 30.5543 37.2243 30.5711C37.6273 30.5879 37.9463 30.2856 37.9631 29.8827C37.9631 29.4965 37.6609 29.1775 37.2579 29.1607Z" fill="#2AA7EE"/>
<path d="M10.0243 6.25908C10.0243 6.42698 10.0243 6.57809 10.0243 6.72921C10.0243 7.93811 10.0411 9.1638 10.0075 10.3727C10.0075 10.6246 9.87316 10.9436 9.70525 11.0947C9.55414 11.229 9.18475 11.2458 9.01685 11.1451C8.81537 11.0275 8.63067 10.7253 8.59709 10.4902C8.54672 9.85221 8.5803 9.19738 8.5803 8.55935C8.5803 7.13217 8.5803 5.705 8.5803 4.27782C8.59709 2.01113 10.125 0.5 12.3917 0.5C18.4698 0.5 24.5311 0.5 30.6092 0.5C31.5159 0.5 32.3554 0.735064 33.0774 1.27235C33.9337 1.91039 34.4206 2.71632 34.4038 3.84127C34.3702 6.3934 34.387 8.96232 34.387 11.5144C34.387 11.632 34.387 11.7663 34.387 11.8838C34.3534 12.3708 34.068 12.6898 33.6315 12.673C33.2285 12.6562 32.943 12.3708 32.943 11.8838C32.9263 10.6749 32.943 9.48282 32.943 8.27392C32.943 7.6023 32.943 6.93069 32.943 6.25908C25.2867 6.25908 17.6974 6.25908 10.0243 6.25908ZM10.0914 4.76474C17.6974 4.76474 25.3202 4.76474 32.9598 4.76474C32.9598 4.46251 32.9263 4.17708 32.9598 3.90843C33.0606 3.1025 32.624 2.582 31.9692 2.27977C31.583 2.09508 31.1129 1.96076 30.6931 1.96076C24.5647 1.94397 18.4362 1.94397 12.3245 1.94397C10.7463 1.94397 9.75562 3.18645 10.0914 4.76474Z" fill="#636A86"/>
<path d="M10.0241 36.297C17.6973 36.297 25.2865 36.297 32.9429 36.297C32.9429 35.7093 32.9429 35.1384 32.9429 34.5676C32.9429 34.0135 32.9429 33.4426 32.9429 32.8885C32.9429 32.3512 33.2115 32.0322 33.6481 32.0322C34.1014 32.0322 34.3868 32.3512 34.3868 32.9053C34.3868 34.9034 34.4036 36.9014 34.3868 38.8995C34.3868 39.5039 34.3868 40.1419 34.2693 40.7296C33.8999 42.3583 32.5063 43.4664 30.8441 43.4664C24.6149 43.4832 18.4024 43.4832 12.1732 43.4664C10.192 43.4664 8.66406 41.9553 8.61369 39.9237C8.56332 37.7913 8.5969 35.6757 8.5969 33.5434C8.5969 33.0396 8.88234 32.7206 9.3021 32.7206C9.73864 32.7206 10.0241 33.0229 10.0241 33.5601C10.0409 34.4836 10.0241 35.3735 10.0241 36.297ZM32.9093 37.8081C25.2865 37.8081 17.6637 37.8081 10.0241 37.8081C10.0241 38.4461 10.0241 39.0338 10.0241 39.6382C10.0241 41.2165 10.8804 42.056 12.4755 42.056C18.4864 42.056 24.4973 42.056 30.5083 42.056C30.6426 42.056 30.7937 42.056 30.928 42.056C31.9354 41.9889 32.8253 41.2333 32.8925 40.2595C32.9764 39.4535 32.9093 38.6476 32.9093 37.8081Z" fill="#636A86"/>
<path d="M9.31863 12.6729C14.4565 12.6729 18.6373 16.8704 18.6205 21.9915C18.6205 27.1293 14.4229 31.3101 9.28504 31.2933C4.164 31.3101 0 27.1293 0 21.9915C0 16.8536 4.18079 12.6729 9.31863 12.6729ZM1.42718 21.9915C1.42718 26.3234 4.96993 29.8661 9.30184 29.8829C13.6337 29.8829 17.1765 26.357 17.1933 22.0251C17.2101 17.6764 13.6505 14.1168 9.30184 14.1168C4.96993 14.1168 1.42718 17.6596 1.42718 21.9915Z" fill="#4E5B76"/>
<path d="M30.8105 16.2656C32.4223 16.2656 34.0342 16.2656 35.6293 16.2656C36.2169 16.2656 36.5192 16.5175 36.5192 16.9708C36.5192 17.4242 36.2002 17.6928 35.6461 17.7096C32.4223 17.7096 29.1818 17.7096 25.9581 17.7096C25.3872 17.7096 25.085 17.4409 25.085 16.9708C25.085 16.5175 25.3872 16.2824 25.9413 16.2656C27.5699 16.2656 29.1818 16.2656 30.8105 16.2656Z" fill="#2AA7EE"/>
<path d="M38.6845 16.2824C38.9364 16.2824 39.1882 16.2656 39.4401 16.2824C39.8263 16.2992 40.0949 16.5846 40.1285 16.9372C40.1621 17.2898 39.9102 17.6424 39.5408 17.676C38.9868 17.7096 38.4327 17.7096 37.8786 17.676C37.4924 17.6424 37.2742 17.3066 37.2909 16.9372C37.3077 16.5679 37.5596 16.2992 37.9626 16.2656C38.1808 16.2656 38.4327 16.2824 38.6845 16.2824Z" fill="#636A86"/>
<path d="M19.3756 2.66567C19.6275 2.66567 19.8793 2.64888 20.1312 2.66567C20.5006 2.69925 20.7188 2.91752 20.7692 3.27012C20.8196 3.6395 20.6181 3.9921 20.2655 4.02568C19.661 4.07605 19.0398 4.07605 18.4353 4.02568C18.0827 3.9921 17.8981 3.67308 17.9316 3.3037C17.9652 2.9511 18.1667 2.69925 18.5361 2.66567C18.8047 2.64888 19.0902 2.66567 19.3756 2.66567Z" fill="#636A86"/>
<path d="M23.6408 2.66567C23.9094 2.66567 24.1781 2.64888 24.4299 2.66567C24.7993 2.69925 25.0679 2.98468 25.0679 3.33728C25.0679 3.68987 24.9 4.00889 24.5307 4.04247C23.943 4.09284 23.3385 4.09284 22.7341 4.04247C22.3815 4.00889 22.18 3.65629 22.2136 3.3037C22.264 2.93431 22.4654 2.71604 22.8348 2.68246C23.1035 2.64888 23.3721 2.66567 23.6408 2.66567Z" fill="#636A86"/>
<path d="M21.4582 40.6293C21.0216 40.6293 20.5851 40.6293 20.1653 40.6293C19.6784 40.6125 19.3594 40.3271 19.3594 39.9073C19.3594 39.4876 19.6784 39.2021 20.1653 39.2021C21.0552 39.2021 21.9451 39.2021 22.8518 39.2021C23.3387 39.2021 23.6577 39.4876 23.6577 39.9073C23.6577 40.3271 23.3387 40.6125 22.8518 40.6293C22.835 40.6293 22.8182 40.6293 22.8182 40.6293C22.348 40.6293 21.8947 40.6293 21.4582 40.6293Z" fill="#636A86"/>
<path d="M6.46387 24.275C6.46387 23.7881 6.71572 23.4523 7.15227 23.4355C7.57203 23.4187 7.85746 23.7209 7.90783 24.2582C7.975 24.8794 8.37796 25.3831 8.96562 25.5343C9.57008 25.6854 10.1745 25.4671 10.5103 24.9634C10.8629 24.4597 10.8461 23.8049 10.4768 23.3179C10.2081 22.9485 9.82193 22.7974 9.36859 22.7303C8.88167 22.6463 8.36117 22.5792 7.92462 22.3441C6.86683 21.7732 6.37992 20.8162 6.48066 19.6241C6.5814 18.4823 7.18585 17.6596 8.24364 17.2231C8.54587 17.1055 8.61303 16.9544 8.59624 16.669C8.57945 16.4843 8.59624 16.2828 8.62982 16.0813C8.71377 15.7119 8.98241 15.5272 9.33501 15.544C9.68761 15.5608 10.0234 15.7623 9.98983 16.1317C9.90588 16.8705 10.2921 17.1559 10.8797 17.4749C11.7192 17.9282 12.1222 18.7342 12.1726 19.6912C12.2062 20.1781 11.9375 20.514 11.5178 20.5475C11.1148 20.5811 10.7958 20.2789 10.7454 19.792C10.6614 19.0028 10.1577 18.4823 9.41896 18.4152C8.78093 18.348 8.1429 18.7846 7.95821 19.4394C7.70635 20.2621 8.24364 21.1352 9.09995 21.2527C9.38538 21.3031 9.68761 21.2863 9.97304 21.3535C11.1652 21.6221 12.0718 22.6463 12.1726 23.8552C12.2901 25.0977 11.6017 26.2898 10.46 26.7432C10.1242 26.8775 10.0234 27.0286 10.0402 27.3812C10.057 28.1032 9.80514 28.4558 9.33501 28.439C8.84809 28.439 8.59624 28.0864 8.62982 27.3644C8.64661 27.0118 8.52908 26.8607 8.19327 26.7432C7.15227 26.3402 6.46387 25.316 6.46387 24.275Z" fill="#4E5B76"/>
</g>
<defs>
<clipPath id="clip0_921_42">
<rect width="42.9496" height="43" fill="white" transform="translate(0 0.5)"/>
</clipPath>
</defs>
</svg>
