<svg width="42" height="38" viewBox="0 0 42 38" fill="none" xmlns="http://www.w3.org/2000/svg">
<g clip-path="url(#clip0_921_418)">
<path d="M15.9618 31.4969C15.9769 31.4666 6.70245 31.3909 2.16354 31.3909C1.08934 31.3909 0.211816 30.6647 0.0302594 29.5905C0 29.4846 0 29.3636 0 29.2425C0 20.4219 0 11.5862 0 2.75046C0 1.54008 0.922911 0.617173 2.11816 0.586914C2.22406 0.586914 2.31484 0.586914 2.42075 0.586914C13.9193 0.586914 25.4179 0.586914 36.9164 0.586914C37.9755 0.586914 38.8379 1.22236 39.08 2.20579C39.1254 2.40248 39.1405 2.61429 39.1405 2.81098C39.1405 10.4363 39.1405 18.0617 39.1405 25.6871C39.1405 25.8232 39.1707 25.8989 39.2918 25.9745C41.4402 27.4724 42.4388 30.0747 41.8184 32.6165C41.2284 35.0977 39.1254 36.9738 36.5684 37.3369C33.1794 37.8211 29.987 35.4003 29.518 31.9961C29.4878 31.7843 29.4726 31.5876 29.4424 31.3758C27.3545 31.3758 23.1938 31.4817 23.2089 31.5271M3.75216 27.6539C3.82781 27.6539 3.88833 27.6539 3.96398 27.6539C12.7543 27.6539 21.5447 27.6539 30.335 27.6539C30.4561 27.6539 30.5468 27.6237 30.6225 27.5177C31.7723 25.9594 33.3004 25.0819 35.237 24.9003C35.2975 24.9003 35.3581 24.8852 35.4035 24.8701C35.4035 18.0163 35.4035 11.1777 35.4035 4.3542C24.8581 4.3542 14.3127 4.3542 3.76729 4.3542C3.75216 12.1157 3.75216 19.8621 3.75216 27.6539ZM38.1722 25.3088C38.1722 25.2786 38.1722 25.218 38.1722 25.1575C38.1722 17.6986 38.1722 10.2397 38.1722 2.79585C38.1722 2.70507 38.1722 2.61429 38.1571 2.52351C38.0512 1.93346 37.567 1.55521 36.9013 1.55521C32.9524 1.55521 29.0036 1.55521 25.0548 1.55521C17.4597 1.55521 9.86455 1.55521 2.26945 1.55521C2.13329 1.55521 1.98199 1.55521 1.84582 1.6006C1.28602 1.73677 0.95317 2.20579 0.95317 2.82611C0.95317 11.6013 0.95317 20.3765 0.95317 29.1518C0.95317 29.1971 0.95317 29.2425 0.95317 29.2879C0.9683 29.651 1.1196 29.9385 1.39193 30.1654C1.63401 30.3621 1.92147 30.4226 2.23919 30.4226C7.06556 30.4226 11.8768 30.4226 16.7032 30.4226C20.9092 30.4226 25.1153 30.4226 29.3213 30.4226C29.3818 30.4226 29.4272 30.4226 29.4424 30.4226C29.6088 29.8023 29.7752 29.2123 29.9265 28.6071C29.8811 28.6071 29.8055 28.6071 29.745 28.6071C20.9546 28.6071 12.1643 28.6071 3.35879 28.6071C2.93516 28.6071 2.76873 28.4407 2.76873 28.017C2.76873 20.0437 2.76873 12.0703 2.76873 4.097C2.76873 3.50694 2.95029 3.35565 3.51009 3.35565C14.2219 3.35565 24.9186 3.35565 35.6304 3.35565C35.7363 3.35565 35.8422 3.35565 35.9481 3.37078C36.1751 3.40103 36.3415 3.56746 36.3566 3.79441C36.3566 3.87006 36.3566 3.9457 36.3566 4.02135C36.3566 10.8902 36.3566 17.7742 36.3566 24.6431C36.3566 24.7188 36.3566 24.7944 36.3566 24.8398C36.9769 25.0062 37.567 25.1575 38.1722 25.3088ZM30.4107 31.1337C30.4107 34.0538 32.786 36.4443 35.7212 36.4443C38.6412 36.4443 41.0317 34.0689 41.0317 31.1337C41.0468 28.2288 38.6412 25.8232 35.7363 25.8232C32.8012 25.8384 30.4107 28.2137 30.4107 31.1337Z" fill="#636A86"/>
<path d="M19.5471 25.4904C16.0673 25.4904 12.6026 25.4904 9.12278 25.4904C8.80506 25.4904 8.60837 25.3542 8.56298 25.0819C8.54785 25.0214 8.54785 24.976 8.54785 24.9155C8.54785 21.1936 8.54785 17.4868 8.54785 13.7649C8.54785 13.3866 8.72941 13.2051 9.10765 13.2051C16.0673 13.2051 23.027 13.2051 29.9866 13.2051C30.3649 13.2051 30.5464 13.3866 30.5464 13.7649C30.5464 17.4716 30.5464 21.1784 30.5464 24.8852C30.5464 25.3088 30.38 25.4753 29.9564 25.4753C26.5068 25.4904 23.027 25.4904 19.5471 25.4904ZM9.54641 14.1885C9.54641 17.6381 9.54641 21.0725 9.54641 24.507C16.2337 24.507 22.9059 24.507 29.5932 24.507C29.5932 21.0574 29.5932 17.6229 29.5932 14.1885C22.9059 14.1885 16.2337 14.1885 9.54641 14.1885Z" fill="#636A86"/>
<path d="M19.3511 9.77045C19.3511 9.84609 19.3511 9.90661 19.3511 9.96713C19.3511 10.5118 19.3511 11.0413 19.3511 11.586C19.3511 11.8886 19.1544 12.1004 18.867 12.1004C18.5795 12.1004 18.3828 11.8886 18.3828 11.586C18.3828 10.0579 18.3828 8.52981 18.3828 7.00171C18.3828 6.68399 18.5795 6.4873 18.8972 6.4873C19.3965 6.4873 19.8958 6.4873 20.3951 6.4873C20.8641 6.4873 21.3028 6.60834 21.666 6.89581C22.1501 7.27405 22.3619 7.78846 22.256 8.39364C22.135 9.04422 21.7265 9.45272 21.1062 9.64941C20.8641 9.72506 20.5917 9.75532 20.3345 9.77045C20.0017 9.78558 19.684 9.77045 19.3511 9.77045ZM19.3511 8.81728C19.4873 8.81728 19.6234 8.81728 19.7596 8.81728C20.0773 8.80215 20.3951 8.81728 20.7128 8.77189C21.091 8.71137 21.318 8.43903 21.318 8.13644C21.318 7.83385 21.0759 7.56151 20.7128 7.50099C20.274 7.44047 19.8201 7.4556 19.3662 7.44047C19.3511 7.90949 19.3511 8.34826 19.3511 8.81728Z" fill="#4E5B76"/>
<path d="M15.7196 6.47266C16.355 6.48779 16.9451 6.66934 17.4595 7.03245C17.6713 7.18375 17.7318 7.4107 17.6411 7.62251C17.5503 7.83433 17.3385 7.95537 17.1266 7.90998C17.0359 7.89485 16.9451 7.83433 16.8694 7.78894C16.0978 7.28966 15.0993 7.35018 14.4184 7.94024C13.904 8.39413 13.6922 8.98418 13.8284 9.64989C13.9797 10.3459 14.4336 10.7997 15.1144 11.0267C15.7347 11.2234 16.3096 11.1326 16.8694 10.7846C16.9451 10.7392 17.0056 10.6938 17.0813 10.6787C17.3082 10.6182 17.5503 10.7241 17.6411 10.9359C17.7318 11.1477 17.6713 11.3898 17.4746 11.5411C17.1115 11.7983 16.703 11.9647 16.2794 12.0404C14.948 12.2976 13.556 11.5714 13.0416 10.3459C12.3457 8.71185 13.3896 6.8509 15.19 6.53317C15.3565 6.51804 15.538 6.50292 15.7196 6.47266Z" fill="#4E5B76"/>
<path d="M24.4651 10.6631C24.2987 10.6631 24.1474 10.6631 23.9961 10.6631C23.8902 10.6631 23.86 10.7085 23.8297 10.7993C23.7389 11.1019 23.6481 11.4045 23.5574 11.707C23.4666 12.0096 23.2245 12.1609 22.9522 12.0853C22.6798 12.0096 22.5437 11.7373 22.6345 11.4196C23.0883 9.90661 23.5422 8.39364 23.981 6.88068C24.0566 6.62347 24.2231 6.4873 24.4651 6.4873C24.6921 6.4873 24.8736 6.62347 24.9493 6.88068C25.4032 8.39364 25.8571 9.90661 26.2958 11.4196C26.4017 11.7978 26.1899 12.1155 25.8268 12.1004C25.615 12.0853 25.4486 11.9642 25.3881 11.7373C25.2973 11.4196 25.1914 11.1019 25.1157 10.7993C25.0855 10.6934 25.0401 10.6631 24.9342 10.6631C24.7677 10.6782 24.6164 10.6631 24.4651 10.6631ZM24.7526 9.6948C24.6618 9.36194 24.5559 9.04422 24.4651 8.74163C24.45 8.74163 24.4349 8.74163 24.4349 8.74163C24.3441 9.05935 24.2533 9.37707 24.1474 9.6948C24.3592 9.6948 24.5559 9.6948 24.7526 9.6948Z" fill="#4E5B76"/>
<path d="M36.2657 27.5929C36.2051 27.7896 36.2959 27.9107 36.5531 28.0166C37.2642 28.304 37.6878 29.0303 37.6425 29.8019C37.6273 30.0742 37.4155 30.2709 37.1432 30.2709C36.8708 30.2709 36.6893 30.0591 36.6742 29.7867C36.659 29.2875 36.4472 28.9849 36.0387 28.8638C35.5848 28.7277 35.1158 28.9395 34.904 29.3934C34.677 29.8473 34.7527 30.1045 35.1763 30.3617C35.373 30.4827 35.5848 30.5583 35.7815 30.6491C36.2203 30.8156 36.6288 31.0274 36.9767 31.3602C38.0056 32.3285 37.7181 33.7658 36.4018 34.2954C36.1144 34.4013 36.1144 34.4013 36.1144 34.719C36.1144 34.8249 36.1144 34.9157 36.1144 35.0216C36.0992 35.2788 35.8874 35.4604 35.6302 35.4604C35.373 35.4604 35.1612 35.2637 35.1461 35.0065C35.1309 34.8552 35.1461 34.7039 35.1461 34.5526C35.1461 34.4618 35.1309 34.4164 35.025 34.3862C34.1172 34.129 33.739 33.3573 33.7693 32.5101C33.7693 32.2529 33.9811 32.0713 34.2231 32.0562C34.4803 32.0411 34.6922 32.2226 34.7224 32.4798C34.7376 32.6311 34.7376 32.7824 34.7829 32.9337C34.8586 33.2514 35.0855 33.433 35.4033 33.4784C35.7059 33.5086 35.9933 33.4481 36.2505 33.2817C36.6288 33.0396 36.7044 32.6462 36.4623 32.268C36.2959 32.0108 36.0387 31.8444 35.7664 31.7082C35.5243 31.6023 35.2822 31.5115 35.0401 31.4056C34.6922 31.2543 34.3744 31.0425 34.1172 30.755C33.8298 30.4222 33.7239 30.0288 33.7995 29.6052C33.9508 28.8184 34.3593 28.2435 35.1461 27.9712C35.2217 27.9409 35.252 27.9107 35.252 27.8199C35.252 27.6686 35.252 27.5173 35.252 27.366C35.2671 27.0937 35.4638 26.8818 35.7361 26.8818C36.0084 26.8818 36.2203 27.0937 36.2203 27.3811C36.2657 27.4114 36.2657 27.487 36.2657 27.5929Z" fill="#636A86"/>
<path d="M13.9495 21.4208C13.9495 21.1182 13.9495 20.8458 13.9495 20.5886C13.9495 20.286 14.1461 20.0742 14.4185 20.0742C14.6908 20.0742 14.9026 20.286 14.9026 20.5886C14.9026 20.8458 14.9026 21.1182 14.9026 21.3754C14.9026 21.3905 14.9178 21.3905 14.9329 21.4359C14.9934 21.4359 15.0691 21.4359 15.1447 21.4359C19.2449 21.4359 23.345 21.4359 27.4451 21.4359C27.5057 21.4359 27.551 21.4359 27.6116 21.4359C27.8688 21.451 28.0503 21.6477 28.0655 21.8898C28.0806 22.1319 27.899 22.3437 27.657 22.3891C27.5813 22.4042 27.5057 22.4042 27.43 22.4042C23.3299 22.4042 19.2449 22.4042 15.1447 22.4042C15.0691 22.4042 15.0085 22.4042 14.9178 22.4042C14.9178 22.7068 14.9178 22.9942 14.9178 23.2666C14.9026 23.66 14.5093 23.8718 14.1915 23.6751C14.0402 23.5843 13.9495 23.433 13.9646 23.2515C13.9646 22.9791 13.9646 22.6917 13.9646 22.3891C13.8889 22.3891 13.8284 22.3891 13.7679 22.3891C13.0568 22.3891 12.3306 22.3891 11.6195 22.3891C11.2564 22.3891 11.0143 22.1016 11.1051 21.7839C11.1656 21.5569 11.3472 21.4359 11.6195 21.4359C12.3306 21.4359 13.0568 21.4359 13.7679 21.4359C13.8133 21.4208 13.8738 21.4208 13.9495 21.4208Z" fill="#4E5B76"/>
<path d="M17.3086 17.5018C17.3086 16.8512 17.3086 16.2007 17.3086 15.5501C17.3086 15.0508 17.6868 14.839 18.1105 15.0962C19.2301 15.7468 20.3648 16.3973 21.4844 17.0479C21.9231 17.3051 21.9231 17.7288 21.4844 17.986C20.3648 18.6365 19.2452 19.2871 18.1256 19.9226C17.6717 20.1798 17.3086 19.9679 17.3086 19.4384C17.3086 18.7727 17.3086 18.1373 17.3086 17.5018ZM18.292 18.6819C18.988 18.2734 19.6688 17.8952 20.3648 17.4867C19.6537 17.0782 18.988 16.6848 18.292 16.2914C18.292 17.1084 18.292 17.8801 18.292 18.6819Z" fill="#2AA7EE"/>
</g>
<defs>
<clipPath id="clip0_921_418">
<rect width="42" height="36.8256" fill="white" transform="translate(0 0.586914)"/>
</clipPath>
</defs>
</svg>
