<svg width="65" height="81" viewBox="0 0 65 81" fill="none" xmlns="http://www.w3.org/2000/svg">
<path d="M12.1865 45.62C13.7981 52.9539 19.868 59.2887 27.2357 61.0531C28.2194 58.5447 29.9776 57.1204 32.6986 57.333C35.0009 57.5031 36.4661 58.9061 37.2615 61.2019C38.308 60.8405 39.3755 60.5004 40.3801 60.0752C41.1755 59.7351 41.9499 59.31 42.7244 58.9061C43.4151 58.5447 43.8756 58.5659 44.1267 59.0549C44.3779 59.5225 44.1686 59.9052 43.4988 60.2878C41.7197 61.3294 39.8569 62.116 37.8685 62.6049C37.5126 62.6899 37.3661 62.8387 37.3243 63.2426C37.0522 65.6873 35.1056 67.5155 32.5521 67.7705C30.3753 68.0044 28.0938 66.4526 27.3612 64.2843C27.2566 63.9654 27.131 63.6465 27.131 63.3064C27.131 62.7962 26.9008 62.6262 26.4403 62.4986C18.2773 60.0115 13.0446 54.612 10.7004 46.3002C10.5957 45.9176 10.4492 45.7475 10.0306 45.6837C7.89568 45.3436 6.43053 44.0894 5.82354 41.9424C5.23748 39.8591 5.80261 38.031 7.39334 36.5642C8.18871 35.8201 9.13059 35.395 10.1981 35.31C10.5539 35.2887 10.6585 35.1186 10.7423 34.7998C11.433 32.1851 12.5214 29.7404 14.0702 27.5509C17.2308 23.0655 21.4169 20.0894 26.6705 18.6651C27.131 18.5376 27.2775 18.3675 27.3612 17.8786C27.7589 15.6678 29.0357 14.201 31.1706 13.6483C33.18 13.1169 34.9172 13.7121 36.3196 15.2639C37.0522 16.093 37.4917 17.0496 37.5545 18.1762C37.5754 18.5589 37.8057 18.6226 38.0778 18.7077C41.6778 19.6855 44.8384 21.4712 47.5594 24.0434C50.7199 27.0407 52.8548 30.6758 53.9432 34.9061C54.0479 35.31 54.1944 35.48 54.6549 35.5651C56.8107 35.9264 58.255 37.1806 58.862 39.3277C59.448 41.4109 58.8829 43.1966 57.3131 44.6634C56.5177 45.4074 55.5549 45.8538 54.4456 45.9388C54.0898 45.9601 54.006 46.1727 53.9223 46.4703C53.2316 49.1275 52.0804 51.5721 50.5106 53.8042C49.4013 55.3985 48.0826 56.8228 46.6175 58.077C46.1779 58.4384 45.7175 58.4384 45.4035 58.077C45.1105 57.7369 45.1523 57.248 45.5919 56.8653C47.1826 55.4836 48.564 53.9318 49.6943 52.1674C50.9501 50.2116 51.8711 48.1071 52.4362 45.8325C50.0501 44.8972 48.6478 43.2178 48.7315 40.5819C48.7943 38.0947 50.1966 36.5217 52.4572 35.6713C51.0757 28.7838 45.0686 22.0026 37.4289 20.2382C36.508 22.6616 34.8335 24.0646 32.2172 23.9796C29.7892 23.8945 28.2613 22.4703 27.424 20.217C20.8099 21.5562 14.0284 27.5509 12.2074 35.48C14.6354 36.4579 15.9959 38.201 15.8912 40.9433C15.8493 42.984 14.6563 44.4295 12.1865 45.62ZM28.6589 62.7112C28.8055 64.7732 30.4799 66.325 32.4055 66.1762C34.4568 66.0274 36.0056 64.2843 35.8382 62.286C35.6707 60.2028 33.9753 58.7147 31.9241 58.8848C30.0194 59.0336 28.5124 60.798 28.6589 62.7112ZM36.0475 18.6014C35.9428 16.5394 34.2474 14.945 32.3218 15.0513C30.2915 15.1789 28.7636 16.8795 28.8682 18.8777C28.9729 20.9185 30.6683 22.449 32.6567 22.364C34.5823 22.2577 36.1521 20.5358 36.0475 18.6014ZM14.3633 40.5394C14.3633 38.5199 12.7516 36.8618 10.7632 36.8618C8.7957 36.8618 7.18404 38.4986 7.16311 40.4968C7.14217 42.4951 8.7957 44.1744 10.7841 44.1744C12.7516 44.1532 14.3633 42.5376 14.3633 40.5394ZM54.027 44.3658C56.0572 44.2595 57.627 42.5376 57.5224 40.5819C57.3968 38.5411 55.7223 36.9681 53.7967 37.0744C51.7246 37.1806 50.2176 38.86 50.3222 40.922C50.4269 42.899 52.1223 44.472 54.027 44.3658Z" fill="#1DA5F1"/>
<path d="M46.9938 37.754C46.9938 38.6469 46.9729 39.5184 46.9938 40.4113C47.0147 41.0065 46.7636 41.3466 46.2612 41.623C44.3356 42.6646 42.41 43.77 40.4844 44.8116C40.1495 45.0029 40.0239 45.2155 40.0448 45.5982C40.0658 47.1712 40.0448 48.7443 40.0658 50.3174C40.0658 50.8488 39.8774 51.1677 39.4169 51.4228C37.282 52.592 35.1261 53.7824 33.0121 54.9728C32.5516 55.2279 32.1539 55.2279 31.6935 54.9728C29.6004 53.7824 27.4864 52.6132 25.3724 51.4653C24.8491 51.1889 24.6398 50.8276 24.6607 50.2536C24.6817 48.6805 24.6607 47.1075 24.6817 45.5344C24.6817 45.173 24.577 44.9604 24.2631 44.7904C22.3374 43.7487 20.4118 42.6433 18.4862 41.6017C18.0048 41.3466 17.8164 41.0277 17.8164 40.475C17.8373 38.6256 17.8373 36.7974 17.8164 34.948C17.8164 34.4378 18.0048 34.119 18.4443 33.8851C20.6002 32.6947 22.7561 31.5043 24.9119 30.3138C25.3515 30.0587 25.7491 30.08 26.1887 30.3351C28.1352 31.4405 30.1027 32.5034 32.0493 33.6088C32.3423 33.7788 32.5726 33.7788 32.8656 33.6088C34.7912 32.5246 36.7168 31.483 38.6215 30.3989C39.1239 30.1013 39.5634 30.1013 40.0867 30.3776C42.1588 31.5468 44.2519 32.716 46.3659 33.8639C46.8892 34.1402 47.0985 34.5016 47.0775 35.0968C46.9729 35.9471 46.9938 36.8612 46.9938 37.754ZM30.7516 34.6929C29.0562 33.7576 27.4655 32.8648 25.8747 31.9719C25.6026 31.8231 25.3933 31.8231 25.1212 31.9719C23.6561 32.801 22.17 33.63 20.6839 34.4378C20.5583 34.5016 20.4327 34.5866 20.2653 34.7142C21.6258 35.4795 22.9863 36.1385 24.2421 36.9463C25.0794 37.4777 25.8329 37.7115 26.6492 36.9888C26.6701 36.9675 26.712 36.9463 26.7329 36.9463C27.1724 36.7549 27.612 36.8612 27.8213 37.2439C28.0306 37.6265 27.905 38.0729 27.4864 38.328C27.1934 38.5193 26.8585 38.6469 26.5864 38.8382C26.4608 38.9232 26.3143 39.0933 26.2933 39.2208C26.2724 40.4963 26.2724 41.793 26.2724 43.0685C26.3561 43.0685 26.398 43.0897 26.4189 43.0685C28.0725 42.1544 29.726 41.2403 31.3586 40.3262C31.4632 40.2625 31.5888 40.1349 31.5888 40.0286C31.6097 38.7319 31.5888 37.4352 31.5888 36.0534C31.1702 36.2873 30.8144 36.4786 30.4586 36.6699C29.9562 36.925 29.4957 36.8187 29.2864 36.3936C29.0771 35.9897 29.2236 35.5858 29.6841 35.2881C30.019 35.0968 30.333 34.9268 30.7516 34.6929ZM34.0377 34.7142C35.775 35.6708 37.4076 36.5849 39.0401 37.4777C39.1657 37.5415 39.3541 37.584 39.4588 37.5202C41.1332 36.6061 42.8077 35.6708 44.4821 34.7354C44.4403 34.6717 44.4403 34.6292 44.3984 34.6079C42.7658 33.6938 41.1332 32.7797 39.5006 31.8869C39.375 31.8231 39.1239 31.8444 38.9774 31.9294C38.1192 32.3758 37.3029 32.8435 36.4657 33.3112C35.6912 33.7788 34.9168 34.2253 34.0377 34.7142ZM27.1934 44.5565C27.2771 44.6203 27.298 44.6628 27.3399 44.6841C28.9306 45.5556 30.5004 46.4485 32.1121 47.32C32.2586 47.4051 32.5516 47.3626 32.7191 47.2775C33.7865 46.7036 34.854 46.1083 35.9215 45.5131C36.4657 45.2155 37.0099 44.9179 37.575 44.599C37.4913 44.514 37.4703 44.4715 37.4285 44.4502C35.8377 43.5574 34.2679 42.6858 32.6772 41.8143C32.5307 41.7292 32.2377 41.7718 32.0702 41.8568C30.8772 42.4945 29.6841 43.1748 28.4911 43.8338C28.0515 44.0463 27.6329 44.3014 27.1934 44.5565ZM26.2306 45.917C26.2306 47.2563 26.2515 48.468 26.2306 49.6796C26.2306 50.0198 26.3352 50.1898 26.6282 50.3386C28.1352 51.1464 29.6213 51.9967 31.1074 52.8258C31.233 52.8896 31.3795 52.9533 31.5679 53.0384C31.5679 52.0605 31.4842 51.1677 31.5888 50.2749C31.7144 49.212 31.3167 48.638 30.3748 48.1916C28.9934 47.5114 27.6957 46.7036 26.2306 45.917ZM38.4959 45.8958C37.0308 46.7248 35.6703 47.5326 34.2679 48.2129C33.4098 48.638 33.033 49.1269 33.1377 50.1261C33.2423 51.0614 33.1586 52.018 33.1586 53.0384C34.9377 52.0393 36.6331 51.1039 38.3076 50.1686C38.3913 50.1261 38.475 49.9773 38.475 49.8922C38.4959 48.5955 38.4959 47.2988 38.4959 45.8958ZM19.3653 36.0747C19.3653 37.3714 19.3862 38.5831 19.3653 39.7948C19.3653 40.1349 19.4699 40.3262 19.763 40.4963C21.27 41.3041 22.7561 42.1544 24.2421 42.9622C24.3677 43.026 24.5142 43.0897 24.7026 43.1748C24.7026 41.8993 24.6817 40.7089 24.7026 39.5184C24.7026 39.1571 24.6189 38.9445 24.284 38.7744C22.8607 38.0091 21.4374 37.2013 20.0351 36.4148C19.8467 36.3298 19.6374 36.2235 19.3653 36.0747ZM38.5169 43.2173C38.5169 41.8568 38.5378 40.5813 38.4959 39.3059C38.4959 39.1571 38.3285 38.9232 38.182 38.8382C37.1773 38.243 36.1517 37.6903 35.1261 37.1163C34.4982 36.7762 33.8912 36.4361 33.1795 36.0534C33.1795 37.4352 33.1795 38.7319 33.1795 40.0499C33.1795 40.1562 33.2842 40.305 33.3889 40.3687C35.0633 41.3041 36.7378 42.2394 38.5169 43.2173ZM40.0867 43.1323C40.1704 43.1323 40.2123 43.1535 40.2541 43.1323C41.9077 42.2182 43.5612 41.3253 45.1938 40.39C45.3194 40.3262 45.424 40.0924 45.424 39.9223C45.4449 39.1783 45.4449 38.4343 45.4449 37.6903C45.4449 37.1801 45.4449 36.6486 45.4449 36.0534C43.6658 37.0313 41.9914 37.9666 40.3378 38.902C40.2332 38.9657 40.1285 39.1783 40.1285 39.3271C40.0867 40.5813 40.0867 41.8355 40.0867 43.1323Z" fill="#393D53"/>
<rect x="1.66699" y="1.4375" width="62.1" height="78.125" rx="6" stroke="#636A86" stroke-width="2"/>
</svg>
