<svg xmlns="http://www.w3.org/2000/svg"
                             width="35px" height="35px" viewBox="0 0 35 35" version="1.1">
                            <g>
                                <path style=" stroke:none;fill-rule:nonzero;fill:var(--color-black);fill-opacity:1;"
                                      d="M 17.5 0.3125 C 15.429688 0.3125 13.441406 1.136719 11.976562 2.601562 C 10.511719 4.066406 9.6875 6.054688 9.6875 8.125 C 9.6875 10.195312 10.511719 12.183594 11.976562 13.648438 C 13.441406 15.113281 15.429688 15.9375 17.5 15.9375 C 19.574219 15.9375 21.558594 15.113281 23.023438 13.648438 C 24.488281 12.183594 25.3125 10.195312 25.3125 8.125 C 25.3125 6.054688 24.488281 4.066406 23.023438 2.601562 C 21.558594 1.136719 19.574219 0.3125 17.5 0.3125 Z M 9.167969 20.105469 C 7.09375 20.105469 5.109375 20.925781 3.644531 22.390625 C 2.179688 23.859375 1.355469 25.84375 1.355469 27.917969 L 1.355469 30.390625 C 1.355469 31.960938 2.492188 33.300781 4.042969 33.550781 C 12.953125 35.007812 22.046875 35.007812 30.960938 33.550781 C 31.710938 33.429688 32.390625 33.046875 32.882812 32.464844 C 33.375 31.886719 33.648438 31.152344 33.648438 30.390625 L 33.648438 27.917969 C 33.648438 25.84375 32.824219 23.859375 31.359375 22.390625 C 29.894531 20.925781 27.90625 20.105469 25.835938 20.105469 L 25.125 20.105469 C 24.742188 20.105469 24.355469 20.167969 23.992188 20.285156 L 22.1875 20.871094 C 19.140625 21.867188 15.859375 21.867188 12.8125 20.871094 L 11.007812 20.285156 C 10.644531 20.164062 10.261719 20.105469 9.878906 20.105469 Z M 9.167969 20.105469 "/>
                            </g>
                        </svg>