<svg width="70" height="69" viewBox="0 0 70 69" fill="none" xmlns="http://www.w3.org/2000/svg">
<rect width="69.46" height="69" rx="5.52" fill="white"/>
<g clip-path="url(#clip0_1161_885)">
<path d="M19.5499 49.68H29.6699V47.15H22.0799V29.44H29.6699V21.85H42.3199V26.91H44.8499V19.32H26.6339L19.5499 26.404V49.68ZM27.1399 26.91H22.5859L27.1399 22.356V26.91ZM39.7899 49.68C45.3559 49.68 49.9099 45.126 49.9099 39.56C49.9099 33.994 45.3559 29.44 39.7899 29.44C34.2239 29.44 29.6699 33.994 29.6699 39.56C29.6699 45.126 34.2239 49.68 39.7899 49.68ZM39.7899 31.97C43.9644 31.97 47.3799 35.3855 47.3799 39.56C47.3799 43.7345 43.9644 47.15 39.7899 47.15C35.6154 47.15 32.1999 43.7345 32.1999 39.56C32.1999 35.3855 35.6154 31.97 39.7899 31.97ZM36.8804 44.2405L41.0549 40.066V34.5H38.5249V39.054L35.1094 42.4695L36.8804 44.2405Z" fill="#B0B9D0"/>
<path d="M39.7899 49.68C45.3559 49.68 49.9099 45.126 49.9099 39.56C49.9099 33.994 45.3559 29.44 39.7899 29.44C34.2239 29.44 29.6699 33.994 29.6699 39.56C29.6699 45.126 34.2239 49.68 39.7899 49.68ZM39.7899 31.97C43.9644 31.97 47.3799 35.3855 47.3799 39.56C47.3799 43.7345 43.9644 47.15 39.7899 47.15C35.6154 47.15 32.1999 43.7345 32.1999 39.56C32.1999 35.3855 35.6154 31.97 39.7899 31.97ZM36.8804 44.2405L41.0549 40.066V34.5H38.5249V39.054L35.1094 42.4695L36.8804 44.2405Z" fill="url(#paint0_linear_1161_885)"/>
</g>
<defs>
<linearGradient id="paint0_linear_1161_885" x1="49.9099" y1="31.2525" x2="28.9108" y2="32.7002" gradientUnits="userSpaceOnUse">
<stop stop-color="#00F0FF"/>
<stop offset="1" stop-color="#1DA5F1"/>
</linearGradient>
<clipPath id="clip0_1161_885">
<rect width="30.36" height="30.36" fill="white" transform="matrix(-1 0 0 1 49.9099 19.32)"/>
</clipPath>
</defs>
</svg>
