<svg width="75" height="76" viewBox="0 0 75 76" fill="none" xmlns="http://www.w3.org/2000/svg">
<g clip-path="url(#clip0_921_379)">
<path d="M65.3109 63.1064C68.5809 63.1064 71.7602 63.1064 74.9394 63.1064C74.9394 65.4075 75.1211 67.7087 74.9092 69.9493C74.6064 73.068 72.0327 75.1875 68.8837 75.1875C65.0081 75.2178 61.1324 75.1875 57.2568 75.1875C43.6011 75.1875 29.9455 75.1875 16.2899 75.1875C12.2023 75.1875 9.68914 72.6744 9.68914 68.6171C9.68914 59.049 9.68914 49.481 9.68914 39.8827C9.68914 39.5799 9.68914 39.2771 9.68914 38.9441C6.47961 38.9441 3.30036 38.9441 0 38.9441C0 38.611 0 38.3688 0 38.0963C0 27.5896 0 17.0829 0 6.57628C0 2.7309 2.57368 0.1875 6.41906 0.1875C23.8898 0.1875 41.3908 0.1875 58.8615 0.1875C62.7372 0.1875 65.3109 2.7309 65.3109 6.60656C65.3109 25.0765 65.3109 43.5464 65.3109 62.0163C65.3109 62.3494 65.3109 62.6522 65.3109 63.1064ZM62.8886 63.0458C62.8886 62.7127 62.8886 62.4402 62.8886 62.1677C62.8886 43.6978 62.8886 25.2279 62.8886 6.75795C62.8886 4.03288 61.4655 2.60979 58.7707 2.60979C43.1167 2.60979 27.4627 2.60979 11.8086 2.60979C11.5361 2.60979 11.2636 2.60979 10.8397 2.60979C12.2023 4.33566 12.1114 6.24321 12.1114 8.12048C12.1114 28.2255 12.1114 48.3304 12.1114 68.4354C12.1114 68.7382 12.1114 69.041 12.1114 69.3437C12.2325 71.221 13.807 72.7349 15.6843 72.7349C17.6827 72.7349 19.3177 71.1605 19.348 69.1015C19.3783 67.1031 19.348 65.135 19.348 63.0761C20.983 63.0761 22.5575 63.0761 24.2229 63.0761C24.2229 60.6235 24.2229 58.2315 24.2229 55.8698C26.6754 55.8698 29.0371 55.8698 31.4594 55.8698C31.4594 58.2921 31.4594 60.6538 31.4594 63.0155C32.3072 63.0155 33.0642 63.0155 33.8817 63.0155C33.8817 58.9885 33.8817 55.022 33.8817 51.0252C36.304 51.0252 38.696 51.0252 41.1486 51.0252C41.1486 55.0523 41.1486 59.049 41.1486 63.0155C41.9661 63.0155 42.7231 63.0155 43.5406 63.0155C43.5406 58.1709 43.5406 53.3869 43.5406 48.5726C45.9931 48.5726 48.3549 48.5726 50.7771 48.5726C50.7771 53.4172 50.7771 58.2012 50.7771 62.9852C51.625 62.9852 52.3819 62.9852 53.1994 62.9852C53.1994 56.5359 53.1994 50.1471 53.1994 43.7584C55.6217 43.7584 58.0137 43.7584 60.4663 43.7584C60.4663 50.2077 60.4663 56.6267 60.4663 63.0458C61.3141 63.0458 62.0408 63.0458 62.8886 63.0458ZM72.5474 65.5589C55.5914 65.5589 38.696 65.5589 21.8006 65.5589C21.6492 68.0115 22.285 70.5246 20.5591 72.7652C20.983 72.7652 21.2253 72.7652 21.4675 72.7652C37.1215 72.7652 52.8058 72.7652 68.4598 72.7652C68.6718 72.7652 68.914 72.7652 69.126 72.7652C70.9124 72.6441 72.396 71.2513 72.4869 69.4649C72.608 68.1629 72.5474 66.8912 72.5474 65.5589ZM9.68914 36.4612C9.68914 36.0979 9.68914 35.7951 9.68914 35.4923C9.68914 28.8613 9.68914 22.2303 9.68914 15.6296C9.68914 12.5412 9.68914 9.42246 9.68914 6.33405C9.68914 4.60817 8.62939 3.21536 7.0549 2.76118C4.6629 2.09505 2.42229 3.82093 2.42229 6.39461C2.42229 16.2049 2.42229 25.9848 2.42229 35.7951C2.42229 36.007 2.45256 36.219 2.45256 36.4309C4.87485 36.4612 7.23658 36.4612 9.68914 36.4612ZM58.0137 63.0458C58.0137 57.3837 58.0137 51.7822 58.0137 46.1806C57.2265 46.1806 56.4695 46.1806 55.6823 46.1806C55.6823 51.8125 55.6823 57.414 55.6823 63.0458C56.4695 63.0458 57.1962 63.0458 58.0137 63.0458ZM48.3246 63.0458C48.3246 58.9885 48.3246 55.022 48.3246 51.0252C47.5373 51.0252 46.7804 51.0252 45.9931 51.0252C45.9931 55.0523 45.9931 59.0187 45.9931 63.0458C46.7804 63.0458 47.5373 63.0458 48.3246 63.0458ZM38.6657 53.4475C37.8482 53.4475 37.0912 53.4475 36.3343 53.4475C36.3343 56.6873 36.3343 59.8363 36.3343 63.0458C37.1215 63.0458 37.8785 63.0458 38.6657 63.0458C38.6657 59.8363 38.6657 56.6873 38.6657 53.4475ZM26.6754 58.2921C26.6754 59.9271 26.6754 61.4713 26.6754 63.0155C27.4929 63.0155 28.2499 63.0155 29.0069 63.0155C29.0069 61.4108 29.0069 59.8665 29.0069 58.2921C28.2196 58.2921 27.4627 58.2921 26.6754 58.2921Z" fill="#636A86"/>
<path d="M60.4061 26.7722C49.1425 26.7722 37.9394 26.7722 26.6455 26.7722C26.6455 19.5357 26.6455 12.3294 26.6455 5.0625C37.8789 5.0625 49.1122 5.0625 60.4061 5.0625C60.4061 12.3294 60.4061 19.5357 60.4061 26.7722ZM58.0141 7.51506C48.325 7.51506 38.6964 7.51506 29.0981 7.51506C29.0981 13.1772 29.0981 18.7787 29.0981 24.3499C38.7569 24.3499 48.3855 24.3499 58.0141 24.3499C58.0141 18.7181 58.0141 13.1469 58.0141 7.51506Z" fill="#4E5B76"/>
<path d="M40.0285 38.4899C41.5425 40.0341 43.1169 41.5783 44.6006 43.0923C46.8412 40.8516 49.0515 38.6413 51.2922 36.4007C50.0205 35.129 48.6276 33.7665 47.1137 32.2525C51.8372 31.0717 56.3184 29.9514 60.9207 28.8008C59.7702 33.4031 58.6499 37.8843 57.5295 42.3959C56.1065 40.9425 54.7439 39.58 53.3511 38.1569C50.4444 41.0939 47.6587 43.8795 44.8731 46.6954C43.2078 44.9998 41.6333 43.4253 40.0588 41.8508C36.2437 45.6659 32.5497 49.3902 28.8255 53.1145C28.1896 52.4181 27.6749 51.8428 27.2207 51.3583C31.3991 47.1193 35.6684 42.85 40.0285 38.4899ZM52.2308 33.4334C53.5933 34.7959 54.9256 36.1282 56.2578 37.4605C56.6817 35.7951 57.1359 33.9784 57.5901 32.1011C55.6826 32.5856 53.8961 33.0398 52.2308 33.4334Z" fill="#636A86"/>
<path d="M14.5039 7.42423C15.7453 7.42423 16.8959 7.42423 18.1071 7.42423C18.1071 6.63698 18.1071 5.88002 18.1071 5.0625C18.9246 5.0625 19.6815 5.0625 20.5596 5.0625C20.5596 5.69835 20.5899 6.3342 20.5596 6.97005C20.5293 7.42423 20.6807 7.6059 21.1046 7.78757C22.9819 8.51426 24.1325 10.2401 24.1628 12.2082C23.4058 12.2082 22.6488 12.2082 22.0433 12.2082C21.5891 11.5421 21.3166 10.7549 20.7413 10.3915C20.1357 9.99791 19.2879 9.96763 18.531 9.87679C18.0465 9.81623 17.5318 9.87679 16.9868 9.87679C16.9868 10.876 16.8959 11.8752 17.017 12.8138C17.1684 13.9038 18.1373 14.6305 19.2576 14.6911C22.3763 14.903 24.1628 16.8106 24.1628 19.9293C24.1628 21.3826 24.1628 22.836 24.1628 24.3499C22.9516 24.3499 21.801 24.3499 20.5596 24.3499C20.5596 25.1675 20.5596 25.9244 20.5596 26.7419C19.7118 26.7419 18.9549 26.7419 18.1071 26.7419C18.1071 26.0758 18.0768 25.4097 18.1071 24.7738C18.1373 24.3499 17.9859 24.1683 17.5923 24.0169C15.6545 23.2296 14.4434 21.4735 14.5342 19.5659C15.2912 19.5659 16.0784 19.5659 16.8354 19.5659C17.3198 21.4129 18.0162 21.9277 19.9541 21.9579C20.5293 21.9579 21.1046 21.9579 21.7405 21.9579C21.7405 20.989 21.801 20.0807 21.7102 19.2026C21.5891 18.052 20.6202 17.2345 19.4393 17.1436C16.2298 16.9014 14.4736 15.0241 14.4736 11.7843C14.5039 10.3612 14.5039 8.96843 14.5039 7.42423Z" fill="#636A86"/>
<path d="M14.5342 38.8534C14.5342 38.0662 14.5342 37.3092 14.5342 36.522C18.531 36.522 22.4974 36.522 26.5245 36.522C26.5245 37.2789 26.5245 38.0359 26.5245 38.8534C22.5883 38.8534 18.5915 38.8534 14.5342 38.8534Z" fill="#636A86"/>
<path d="M14.5342 43.6674C14.5342 42.8801 14.5342 42.1232 14.5342 41.3359C18.531 41.3359 22.4974 41.3359 26.5245 41.3359C26.5245 42.0929 26.5245 42.8499 26.5245 43.6674C22.5883 43.6674 18.5915 43.6674 14.5342 43.6674Z" fill="#636A86"/>
<path d="M16.8959 34.039C16.1087 34.039 15.3517 34.039 14.5645 34.039C14.5645 33.2517 14.5645 32.4948 14.5645 31.6772C15.3517 31.6772 16.1087 31.6772 16.8959 31.6772C16.8959 32.4645 16.8959 33.1912 16.8959 34.039Z" fill="#636A86"/>
<path d="M21.7699 31.6772C21.7699 32.4645 21.7699 33.1912 21.7699 34.0087C20.9827 34.0087 20.2257 34.0087 19.4082 34.0087C19.4082 33.2517 19.4082 32.4948 19.4082 31.6772C20.1652 31.6772 20.9221 31.6772 21.7699 31.6772Z" fill="#636A86"/>
<path d="M26.5844 31.6772C26.5844 32.4645 26.5844 33.2215 26.5844 34.0087C25.8274 34.0087 25.0402 34.0087 24.2529 34.0087C24.2529 33.2517 24.2529 32.4948 24.2529 31.6772C25.0099 31.6772 25.7366 31.6772 26.5844 31.6772Z" fill="#636A86"/>
<path d="M58.1045 67.9512C58.8917 67.9512 59.6487 67.9512 60.4359 67.9512C60.4359 68.7384 60.4359 69.4651 60.4359 70.2826C59.679 70.2826 58.922 70.2826 58.1045 70.2826C58.1045 69.5559 58.1045 68.7687 58.1045 67.9512Z" fill="#636A86"/>
<path d="M65.2504 70.3129C64.4631 70.3129 63.7365 70.3129 62.9492 70.3129C62.9492 69.5257 62.9492 68.7687 62.9492 67.9512C63.7062 67.9512 64.4631 67.9512 65.2504 67.9512C65.2504 68.7687 65.2504 69.5257 65.2504 70.3129Z" fill="#636A86"/>
<path d="M70.1254 70.3129C69.3382 70.3129 68.6115 70.3129 67.7939 70.3129C67.7939 69.5559 67.7939 68.799 67.7939 67.9814C68.5509 67.9814 69.3079 67.9814 70.1254 67.9814C70.1254 68.7384 70.1254 69.4651 70.1254 70.3129Z" fill="#636A86"/>
<path d="M7.23672 21.9883C7.23672 22.7755 7.23672 23.5022 7.23672 24.3197C6.47976 24.3197 5.72279 24.3197 4.90527 24.3197C4.90527 23.5628 4.90527 22.8058 4.90527 21.9883C5.63196 21.9883 6.38892 21.9883 7.23672 21.9883Z" fill="#636A86"/>
<path d="M7.20645 29.1942C6.41921 29.1942 5.66224 29.1942 4.875 29.1942C4.875 28.407 4.875 27.6803 4.875 26.8628C5.63196 26.8628 6.38893 26.8628 7.20645 26.8628C7.20645 27.5895 7.20645 28.3464 7.20645 29.1942Z" fill="#636A86"/>
<path d="M4.875 34.0087C4.875 33.2517 4.875 32.4948 4.875 31.6772C5.63196 31.6772 6.38893 31.6772 7.20645 31.6772C7.20645 32.4342 7.20645 33.1912 7.20645 34.0087C6.44948 34.0087 5.69252 34.0087 4.875 34.0087Z" fill="#636A86"/>
<path d="M55.6214 9.90674C55.6214 10.694 55.6214 11.4509 55.6214 12.2382C49.2024 12.2382 42.8136 12.2382 36.3643 12.2382C36.3643 11.4812 36.3643 10.7243 36.3643 9.90674C42.7228 9.90674 49.1418 9.90674 55.6214 9.90674Z" fill="#2AA7EE"/>
<path d="M55.6214 14.7515C55.6214 15.5387 55.6214 16.2957 55.6214 17.0829C49.2024 17.0829 42.8136 17.0829 36.3643 17.0829C36.3643 16.326 36.3643 15.569 36.3643 14.7515C42.7228 14.7515 49.1418 14.7515 55.6214 14.7515Z" fill="#2AA7EE"/>
<path d="M36.3037 21.8974C36.3037 21.1101 36.3037 20.3532 36.3037 19.5659C42.7228 19.5659 49.1115 19.5659 55.5609 19.5659C55.5609 20.3229 55.5609 21.0798 55.5609 21.8974C49.2024 21.8974 42.7833 21.8974 36.3037 21.8974Z" fill="#2AA7EE"/>
<path d="M31.5195 14.7212C32.3068 14.7212 33.0335 14.7212 33.8207 14.7212C33.8207 15.5084 33.8207 16.2654 33.8207 17.0829C33.0637 17.0829 32.3068 17.0829 31.5195 17.0829C31.5195 16.326 31.5195 15.569 31.5195 14.7212Z" fill="#2AA7EE"/>
<path d="M31.4893 19.5659C32.3068 19.5659 33.0335 19.5659 33.8207 19.5659C33.8207 20.3532 33.8207 21.0798 33.8207 21.8974C33.0637 21.8974 32.3068 21.8974 31.4893 21.8974C31.4893 21.1707 31.4893 20.3834 31.4893 19.5659Z" fill="#2AA7EE"/>
<path d="M33.851 9.90674C33.851 10.694 33.851 11.4207 33.851 12.2382C33.0637 12.2382 32.3068 12.2382 31.4893 12.2382C31.4893 11.4812 31.4893 10.7243 31.4893 9.90674C32.2765 9.90674 33.0335 9.90674 33.851 9.90674Z" fill="#2AA7EE"/>
</g>
<defs>
<clipPath id="clip0_921_379">
<rect width="75" height="75" fill="white" transform="translate(0 0.1875)"/>
</clipPath>
</defs>
</svg>
