<svg width="71" height="69" viewBox="0 0 71 69" fill="none" xmlns="http://www.w3.org/2000/svg">
<rect x="0.666748" width="69.46" height="69" rx="5.52" fill="white"/>
<path fill-rule="evenodd" clip-rule="evenodd" d="M25.0469 21.85V47.15H45.7469V21.85H25.0469ZM23.8969 18.4C23.2869 18.4 22.7019 18.6423 22.2706 19.0736C21.8392 19.505 21.5969 20.09 21.5969 20.7V48.3C21.5969 48.91 21.8392 49.495 22.2706 49.9263C22.7019 50.3577 23.2869 50.6 23.8969 50.6H46.8969C47.5069 50.6 48.0919 50.3577 48.5233 49.9263C48.9546 49.495 49.1969 48.91 49.1969 48.3V20.7C49.1969 20.09 48.9546 19.505 48.5233 19.0736C48.0919 18.6423 47.5069 18.4 46.8969 18.4H23.8969ZM35.3969 41.4C35.3969 40.9425 35.5787 40.5037 35.9022 40.1802C36.2257 39.8567 36.6644 39.675 37.1219 39.675H41.1469C41.6044 39.675 42.0432 39.8567 42.3667 40.1802C42.6902 40.5037 42.8719 40.9425 42.8719 41.4C42.8719 41.8575 42.6902 42.2963 42.3667 42.6198C42.0432 42.9433 41.6044 43.125 41.1469 43.125H37.1219C36.6644 43.125 36.2257 42.9433 35.9022 42.6198C35.5787 42.2963 35.3969 41.8575 35.3969 41.4ZM30.7969 43.7C31.4069 43.7 31.9919 43.4577 32.4233 43.0263C32.8546 42.595 33.0969 42.01 33.0969 41.4C33.0969 40.79 32.8546 40.205 32.4233 39.7736C31.9919 39.3423 31.4069 39.1 30.7969 39.1C30.1869 39.1 29.6019 39.3423 29.1706 39.7736C28.7392 40.205 28.4969 40.79 28.4969 41.4C28.4969 42.01 28.7392 42.595 29.1706 43.0263C29.6019 43.4577 30.1869 43.7 30.7969 43.7ZM35.3969 34.5C35.3969 34.0425 35.5787 33.6037 35.9022 33.2802C36.2257 32.9567 36.6644 32.775 37.1219 32.775H41.1469C41.6044 32.775 42.0432 32.9567 42.3667 33.2802C42.6902 33.6037 42.8719 34.0425 42.8719 34.5C42.8719 34.9575 42.6902 35.3963 42.3667 35.7198C42.0432 36.0433 41.6044 36.225 41.1469 36.225H37.1219C36.6644 36.225 36.2257 36.0433 35.9022 35.7198C35.5787 35.3963 35.3969 34.9575 35.3969 34.5ZM30.7969 36.8C31.4069 36.8 31.9919 36.5577 32.4233 36.1263C32.8546 35.695 33.0969 35.11 33.0969 34.5C33.0969 33.89 32.8546 33.305 32.4233 32.8736C31.9919 32.4423 31.4069 32.2 30.7969 32.2C30.1869 32.2 29.6019 32.4423 29.1706 32.8736C28.7392 33.305 28.4969 33.89 28.4969 34.5C28.4969 35.11 28.7392 35.695 29.1706 36.1263C29.6019 36.5577 30.1869 36.8 30.7969 36.8ZM35.3969 27.6C35.3969 27.1425 35.5787 26.7037 35.9022 26.3802C36.2257 26.0567 36.6644 25.875 37.1219 25.875H41.1469C41.6044 25.875 42.0432 26.0567 42.3667 26.3802C42.6902 26.7037 42.8719 27.1425 42.8719 27.6C42.8719 28.0575 42.6902 28.4963 42.3667 28.8198C42.0432 29.1433 41.6044 29.325 41.1469 29.325H37.1219C36.6644 29.325 36.2257 29.1433 35.9022 28.8198C35.5787 28.4963 35.3969 28.0575 35.3969 27.6ZM30.7969 29.9C31.4069 29.9 31.9919 29.6577 32.4233 29.2263C32.8546 28.795 33.0969 28.21 33.0969 27.6C33.0969 26.99 32.8546 26.405 32.4233 25.9736C31.9919 25.5423 31.4069 25.3 30.7969 25.3C30.1869 25.3 29.6019 25.5423 29.1706 25.9736C28.7392 26.405 28.4969 26.99 28.4969 27.6C28.4969 28.21 28.7392 28.795 29.1706 29.2263C29.6019 29.6577 30.1869 29.9 30.7969 29.9Z" fill="#B0B9D0"/>
<path fill-rule="evenodd" clip-rule="evenodd" d="M35.3969 41.4C35.3969 40.9425 35.5787 40.5037 35.9022 40.1802C36.2257 39.8567 36.6644 39.675 37.1219 39.675H41.1469C41.6044 39.675 42.0432 39.8567 42.3667 40.1802C42.6902 40.5037 42.8719 40.9425 42.8719 41.4C42.8719 41.8575 42.6902 42.2962 42.3667 42.6197C42.0432 42.9432 41.6044 43.125 41.1469 43.125H37.1219C36.6644 43.125 36.2257 42.9432 35.9022 42.6197C35.5787 42.2962 35.3969 41.8575 35.3969 41.4ZM30.7969 43.7C31.4069 43.7 31.9919 43.4577 32.4233 43.0263C32.8546 42.595 33.0969 42.01 33.0969 41.4C33.0969 40.79 32.8546 40.205 32.4233 39.7736C31.9919 39.3423 31.4069 39.1 30.7969 39.1C30.1869 39.1 29.6019 39.3423 29.1706 39.7736C28.7392 40.205 28.4969 40.79 28.4969 41.4C28.4969 42.01 28.7392 42.595 29.1706 43.0263C29.6019 43.4577 30.1869 43.7 30.7969 43.7ZM35.3969 34.5C35.3969 34.0425 35.5787 33.6037 35.9022 33.2802C36.2257 32.9567 36.6644 32.775 37.1219 32.775H41.1469C41.6044 32.775 42.0432 32.9567 42.3667 33.2802C42.6902 33.6037 42.8719 34.0425 42.8719 34.5C42.8719 34.9575 42.6902 35.3962 42.3667 35.7197C42.0432 36.0432 41.6044 36.225 41.1469 36.225H37.1219C36.6644 36.225 36.2257 36.0432 35.9022 35.7197C35.5787 35.3962 35.3969 34.9575 35.3969 34.5ZM30.7969 36.8C31.4069 36.8 31.9919 36.5577 32.4233 36.1263C32.8546 35.695 33.0969 35.11 33.0969 34.5C33.0969 33.89 32.8546 33.305 32.4233 32.8736C31.9919 32.4423 31.4069 32.2 30.7969 32.2C30.1869 32.2 29.6019 32.4423 29.1706 32.8736C28.7392 33.305 28.4969 33.89 28.4969 34.5C28.4969 35.11 28.7392 35.695 29.1706 36.1263C29.6019 36.5577 30.1869 36.8 30.7969 36.8ZM35.3969 27.6C35.3969 27.1425 35.5787 26.7037 35.9022 26.3802C36.2257 26.0567 36.6644 25.875 37.1219 25.875H41.1469C41.6044 25.875 42.0432 26.0567 42.3667 26.3802C42.6902 26.7037 42.8719 27.1425 42.8719 27.6C42.8719 28.0575 42.6902 28.4962 42.3667 28.8197C42.0432 29.1432 41.6044 29.325 41.1469 29.325H37.1219C36.6644 29.325 36.2257 29.1432 35.9022 28.8197C35.5787 28.4962 35.3969 28.0575 35.3969 27.6ZM30.7969 29.9C31.4069 29.9 31.9919 29.6577 32.4233 29.2263C32.8546 28.795 33.0969 28.21 33.0969 27.6C33.0969 26.99 32.8546 26.405 32.4233 25.9736C31.9919 25.5423 31.4069 25.3 30.7969 25.3C30.1869 25.3 29.6019 25.5423 29.1706 25.9736C28.7392 26.405 28.4969 26.99 28.4969 27.6C28.4969 28.21 28.7392 28.795 29.1706 29.2263C29.6019 29.6577 30.1869 29.9 30.7969 29.9Z" fill="url(#paint0_linear_1094_380)"/>
<defs>
<linearGradient id="paint0_linear_1094_380" x1="21.5969" y1="23.3776" x2="50.2522" y2="25.201" gradientUnits="userSpaceOnUse">
<stop stop-color="#00F0FF"/>
<stop offset="1" stop-color="#1DA5F1"/>
</linearGradient>
</defs>
</svg>
