<svg width="83" height="65" viewBox="0 0 83 65" fill="none" xmlns="http://www.w3.org/2000/svg">
<path d="M36.0118 44.0974C41.597 44.0974 47.2147 44.0974 52.8 44.0974C54.7808 44.0974 55.7874 43.0908 55.7874 41.11C55.7874 34.6804 55.7874 28.2509 55.7874 21.8214V17.2103C55.7874 12.4369 55.7874 7.66347 55.7874 2.85756C55.7874 1.10406 54.7159 0 52.9948 0C36.2391 0 19.5159 0 2.79262 0C1.10406 0 0 1.07159 0 2.76015C0 15.6192 0 28.4782 0 41.3373C0 42.9934 1.07159 44.0649 2.72767 44.0974C4.18893 44.0974 5.65018 44.0649 7.11144 44.1299C7.46863 44.1299 7.92324 44.3572 8.15055 44.6494C9.15719 45.9159 10.0989 47.2147 11.0731 48.5136C11.8524 49.5528 12.7291 49.5528 13.5085 48.5461C14.4827 47.2797 15.4244 46.0133 16.366 44.7144C16.6908 44.2922 17.0155 44.0974 17.5675 44.0974C22.2435 44.1299 26.9195 44.0974 31.5956 44.0974C31.8878 44.0974 36.0118 44.0974 36.0118 44.0974ZM16.9181 41.4671C15.9439 41.4671 15.2945 41.7594 14.7424 42.5712C13.9956 43.6428 13.1838 44.6819 12.3395 45.8184C11.4303 44.5845 10.5535 43.4804 9.70922 42.3114C9.28708 41.7269 8.76752 41.4672 8.05313 41.4996C6.26716 41.5321 4.48118 41.4996 2.66273 41.4996V2.63026H53.1247V41.4996H52.1505C40.3956 41.4996 28.6406 41.4996 16.9181 41.4671Z" fill="#393D53"/>
<path d="M79.9794 18.1523C74.2968 18.1523 68.6466 18.1523 62.9639 18.1523H55.8525C55.82 19.0291 55.9174 19.776 55.9174 20.6527L80.3366 20.8151V57.0542C78.8104 57.0542 77.2842 57.1516 75.758 57.0217C74.4267 56.9243 73.5174 57.3464 72.803 58.483C72.2185 59.4571 71.4392 60.3339 70.6599 61.3405C69.8481 60.2365 69.0038 59.2298 68.2894 58.1907C67.7049 57.3464 67.023 57.0217 65.9838 57.0217C56.0148 57.0542 46.0458 57.0542 36.0768 57.0542H35.0377V44.0003C34.161 44.0328 33.2518 44.0653 32.375 44.0977C32.375 47.0527 32.375 53.5796 32.375 56.5346C32.375 58.7427 33.3167 59.6844 35.5573 59.6844C45.4613 59.6844 55.3979 59.6844 65.3019 59.6844C65.9189 59.6844 66.2761 59.8793 66.6333 60.3664C67.5425 61.6328 68.4842 62.8667 69.4584 64.1331C70.2377 65.1723 71.1145 65.1723 71.8938 64.1331C72.9005 62.8343 73.8422 61.4704 74.8813 60.204C75.0761 59.9442 75.4982 59.7494 75.7905 59.7494C77.1868 59.6844 78.6156 59.7169 80.0119 59.7169C81.9927 59.7169 82.9993 58.7103 82.9993 56.7295C82.9993 44.9095 82.9993 33.0571 82.9993 21.2372C83.0318 19.159 82.0252 18.1523 79.9794 18.1523Z" fill="#636A86"/>
<path d="M45.2991 26.4976C45.8836 27.4068 47.5397 28.1212 46.2733 29.3876C45.0068 30.654 44.2924 29.0304 43.3832 28.4135C41.4024 29.6799 39.2592 30.167 36.9212 29.55C35.0378 29.0629 33.5441 27.9913 32.4725 26.4002C30.2969 23.2179 30.8164 18.964 33.674 16.3013C36.4666 13.7035 40.8179 13.5736 43.7729 15.9766C46.6305 18.2821 47.8644 22.6334 45.2991 26.4976ZM43.2858 24.7116C44.7471 22.3411 44.1301 19.4511 41.9869 17.8599C39.8437 16.3013 36.8563 16.5935 35.0703 18.5743C33.2519 20.5876 33.3168 23.5751 35.1353 25.5884C36.7589 27.3743 39.7788 27.7965 41.4998 26.3677C40.8179 25.7182 40.1685 25.1013 39.519 24.4518C38.8046 23.7374 38.7397 22.9581 39.3567 22.4061C39.9412 21.854 40.6555 21.919 41.3699 22.6009C41.9869 23.2828 42.6039 23.9972 43.2858 24.7116Z" fill="#2AA7EE"/>
<path d="M26.8869 24.6465C25.523 24.6465 24.2241 24.614 22.8928 24.679C22.6655 24.679 22.3407 24.9712 22.2433 25.1985C21.7238 26.3675 21.2691 27.6015 20.7821 28.803C20.4249 29.6797 19.7429 30.0369 19.0286 29.7771C18.2817 29.4849 18.0219 28.738 18.3791 27.8288C20.0352 23.7048 21.6913 19.5808 23.3474 15.4244C23.6072 14.8074 23.9319 14.3203 24.6787 14.3203C25.3931 14.3203 25.7503 14.7749 26.0101 15.4244C27.6662 19.5484 29.3223 23.6723 30.9784 27.7963C31.3356 28.738 31.1083 29.4524 30.3614 29.7771C29.6145 30.0694 28.9651 29.7122 28.5754 28.7705C27.9584 27.3742 27.4389 26.0103 26.8869 24.6465ZM25.8477 22.0163C25.4581 21.0421 25.1009 20.1653 24.6463 19.0613C24.1917 20.1653 23.8345 21.0421 23.4773 22.0163C24.3215 22.0163 25.0035 22.0163 25.8477 22.0163Z" fill="#2AA7EE"/>
<path d="M13.0216 16.8529C13.0216 18.1843 13.0216 19.4182 13.0216 20.7496C14.7102 20.7496 16.3338 20.7496 17.9899 20.7496C18.6069 20.7496 19.094 20.9444 19.3537 21.5614C19.7434 22.4382 19.1264 23.3474 18.0549 23.3474C16.3988 23.3799 14.7751 23.3474 12.9892 23.3474C12.9892 24.5489 12.9892 25.7179 12.9892 26.9193C12.9892 27.4389 12.9892 27.9584 12.9892 28.4455C12.9567 29.2898 12.4371 29.8094 11.6903 29.8094C10.9434 29.8094 10.4239 29.2573 10.3914 28.4455C10.3589 27.3739 10.3914 26.2699 10.3914 25.1983C10.3914 22.1134 10.3914 19.0286 10.3914 15.9437C10.3914 14.6773 10.8135 14.2227 12.0799 14.2227C13.9633 14.2227 15.8792 14.2227 17.7626 14.2227C18.8667 14.2227 19.4512 14.6773 19.4836 15.4891C19.4836 16.3334 18.8991 16.788 17.7951 16.8204C16.2039 16.8529 14.6453 16.8529 13.0216 16.8529Z" fill="#2AA7EE"/>
<path d="M57.6386 49.2926C52.0534 49.2926 46.4681 49.2926 40.8829 49.2926C40.6556 49.2926 40.3958 49.2926 40.1685 49.2926C39.4541 49.2277 38.967 48.7081 38.9346 48.0262C38.9346 47.3443 39.4217 46.7923 40.136 46.7273C40.3634 46.6949 40.6231 46.7273 40.8504 46.7273C52.1183 46.7273 63.3538 46.7273 74.6217 46.7273C74.6866 46.7273 74.7191 46.7273 74.784 46.7273C75.9205 46.7273 76.5375 47.2144 76.5375 48.0587C76.505 48.8705 75.9205 49.3251 74.8165 49.3251C69.1014 49.2926 63.3538 49.2926 57.6386 49.2926Z" fill="#636A86"/>
<path d="M52.5405 54.4558C48.6114 54.4558 44.7147 54.4558 40.7855 54.4558C40.5258 54.4558 40.2335 54.4882 39.9737 54.4233C39.2918 54.2609 38.8697 53.8063 38.9021 53.0919C38.9346 52.41 39.3243 51.9879 39.9737 51.858C40.201 51.8255 40.4608 51.8255 40.6881 51.8255C48.5464 51.8255 56.4047 51.8255 64.263 51.8255C64.4903 51.8255 64.7501 51.793 64.9774 51.858C65.6593 51.9879 66.0815 52.4425 66.0815 53.1569C66.0815 53.8713 65.6593 54.2934 64.9449 54.4233C64.7176 54.4558 64.4579 54.4558 64.2306 54.4558C60.3663 54.4558 56.4697 54.4558 52.5405 54.4558Z" fill="#636A86"/>
<path d="M68.03 31.1408C65.7894 31.1408 63.5488 31.1408 61.3082 31.1408C60.2691 31.1408 59.6846 30.6861 59.6846 29.8743C59.6846 29.0625 60.2691 28.5754 61.2757 28.543C65.8218 28.543 70.4004 28.543 74.9466 28.543C75.9532 28.543 76.5377 29.0625 76.5377 29.8743C76.5377 30.6861 75.9207 31.1408 74.9141 31.1408C72.6086 31.1408 70.303 31.1408 68.03 31.1408Z" fill="#636A86"/>
<path d="M68.0946 33.7064C70.3352 33.7064 72.5758 33.7064 74.8164 33.7064C75.9204 33.7064 76.5049 34.161 76.5374 34.9728C76.5374 35.8171 75.9529 36.3041 74.8813 36.3041C70.3352 36.3041 65.8215 36.3041 61.2754 36.3041C60.6584 36.3041 60.0739 36.2067 59.8791 35.5898C59.7492 35.2001 59.7167 34.5831 59.944 34.3233C60.2038 33.9986 60.7883 33.7388 61.2429 33.7388C63.516 33.6739 65.8215 33.7064 68.0946 33.7064Z" fill="#636A86"/>
<path d="M68.03 41.5001C65.8218 41.5001 63.6137 41.5001 61.4056 41.5001C60.3015 41.5001 59.717 41.0455 59.6846 40.2337C59.6846 39.3894 60.2691 38.9023 61.3407 38.9023C65.8868 38.9023 70.4654 38.9023 75.0115 38.9023C75.6285 38.9023 76.213 39.0647 76.3753 39.6817C76.4728 40.0713 76.4728 40.6558 76.213 40.9481C75.9532 41.2728 75.4012 41.4677 74.979 41.5001C72.6735 41.5326 70.3355 41.5001 68.03 41.5001Z" fill="#636A86"/>
<path d="M70.6917 25.9454C69.2954 25.9454 67.8991 25.9454 66.4703 25.9454C65.4312 25.9454 64.8467 25.4908 64.8467 24.679C64.8467 23.8672 65.4312 23.3477 66.4378 23.3477C69.2629 23.3477 72.088 23.3477 74.9131 23.3477C75.9197 23.3477 76.5042 23.8672 76.5042 24.679C76.5042 25.4908 75.8873 25.9454 74.8806 25.9454C73.4843 25.9454 72.088 25.9454 70.6917 25.9454Z" fill="#636A86"/>
</svg>
