<svg width="70" height="81" viewBox="0 0 70 81" fill="none" xmlns="http://www.w3.org/2000/svg">
<path d="M35.091 71.7847C35.4034 71.7847 35.6533 71.8159 35.872 71.8159C40.995 71.8159 46.118 71.8159 51.241 71.8159C52.3031 71.8159 52.3343 71.7534 52.3343 70.7226C52.3343 65.2872 52.3343 59.8518 52.3343 54.4164C52.3343 54.1041 52.3343 53.7917 52.428 53.4793C52.5842 52.917 53.0215 52.6359 53.6151 52.6984C54.2086 52.7608 54.5522 53.1045 54.6459 53.698C54.6771 53.9166 54.6771 54.1665 54.6771 54.3852C54.6771 59.883 54.6771 65.3809 54.6771 70.8475C54.6771 73.0966 53.5838 74.1587 51.3035 74.1587C45.1496 74.1587 39.027 74.1587 32.8732 74.1587C32.2172 74.1587 31.7174 74.3149 31.2488 74.7522C30.749 75.1896 30.2179 75.6269 29.6557 76.033C28.0938 77.1263 26.0946 76.5328 25.4073 74.7522C25.2199 74.2524 24.9388 74.19 24.4702 74.19C19.5346 74.19 14.5678 74.19 9.63224 74.19C7.28941 74.19 6.19608 73.0966 6.19608 70.7538C6.19608 51.605 6.19608 32.425 6.19608 13.2763C6.19608 12.9326 6.19608 12.6203 6.19608 12.2766C6.03989 12.2142 5.97742 12.1829 5.91494 12.1829C3.50963 12.0892 2.97859 12.1205 2.97859 14.9319C3.00983 35.2989 3.00983 55.6347 3.00983 76.0018C3.00983 76.4391 2.94735 76.9701 3.16602 77.2825C3.38468 77.6574 3.88449 77.9073 4.29058 78.0947C4.50924 78.1884 4.79038 78.1259 5.07152 78.1259C22.0024 78.1259 38.9021 78.1259 55.8329 78.1259C57.5198 78.1259 57.8946 77.7511 57.8946 76.0642C57.8946 66.5992 57.8946 57.1029 57.8946 47.6378C57.8946 47.3879 57.8946 47.1068 57.8946 46.8569C57.9571 46.1697 58.4257 45.7323 59.0504 45.7323C59.6752 45.7323 60.1438 46.2009 60.2375 46.8569C60.2687 47.0756 60.2375 47.263 60.2375 47.4816C60.2375 57.0716 60.2375 66.6304 60.2375 76.2204C60.2375 79.0318 58.7693 80.5 55.9579 80.5C38.9645 80.5 21.9712 80.5 4.97781 80.5C2.16641 80.5 0.666992 79.0318 0.666992 76.2517C0.666992 55.541 0.666992 34.7991 0.666992 14.0884C0.666992 11.3083 2.13517 9.8401 4.91533 9.8401C8.50768 9.8401 12.1 9.8401 15.6924 9.8401C16.2234 9.8401 16.5046 9.71515 16.7232 9.18411C17.5354 7.24736 19.0036 6.21652 21.1277 6.1228C21.815 6.09157 22.5334 6.1228 23.2207 6.1228C23.8454 6.1228 24.1578 5.8729 24.1891 5.18567C24.439 2.37427 26.4694 0.531238 29.2183 0.5C30.1242 0.5 31.0301 0.5 31.936 0.5C34.4663 0.562476 36.4967 2.43674 36.7154 4.967C36.8091 5.93538 36.9653 6.06033 37.9024 6.09157C38.5272 6.09157 39.152 6.06033 39.7767 6.09157C41.9321 6.18528 43.4315 7.21613 44.2437 9.18411C44.4624 9.71515 44.7123 9.80886 45.2121 9.80886C48.7732 9.77763 52.3343 9.80886 55.8954 9.80886C58.8005 9.80886 60.2375 11.2458 60.2375 14.1822C60.2375 17.056 60.2375 19.9611 60.2375 22.835C60.2375 23.7409 59.6752 24.3032 58.9255 24.2095C58.2695 24.147 57.8946 23.616 57.8946 22.8038C57.8946 19.9299 57.8946 17.0873 57.8946 14.2134C57.8946 12.5266 57.5198 12.1205 55.8329 12.1205C55.4581 12.1205 55.1145 12.1205 54.6459 12.1205C54.6459 12.4953 54.6459 12.8077 54.6459 13.0888C54.6459 18.493 54.6459 23.9283 54.6459 29.3325C54.6459 29.5824 54.6459 29.8635 54.6147 30.1134C54.5522 30.7382 54.1461 31.113 53.5526 31.1443C52.9278 31.1755 52.4905 30.8631 52.3655 30.2384C52.3031 29.9572 52.3031 29.6761 52.3031 29.395C52.3031 23.9908 52.3031 18.5554 52.3031 13.1513C52.3031 12.8389 52.3031 12.5266 52.3031 12.1517C49.7416 12.1517 47.2425 12.1517 44.681 12.1517C44.6498 12.3391 44.6186 12.5266 44.6186 12.714C44.5249 14.6195 43.3691 15.7753 41.4323 15.8065C39.152 15.8378 36.8404 15.8065 34.56 15.8065C29.7181 15.8065 24.8763 15.8065 20.0344 15.8065C17.4417 15.8065 16.5358 14.9943 16.3171 12.4016C16.3171 12.3391 16.2859 12.2454 16.2234 12.1517C13.7244 12.1517 11.1941 12.1517 8.57016 12.1517C8.57016 12.4328 8.57016 12.714 8.57016 12.9951C8.57016 32.1751 8.57016 51.3551 8.57016 70.5351C8.57016 71.6909 8.63263 71.7534 9.75719 71.7534C14.8802 71.7534 20.0032 71.7534 25.1262 71.7534C25.626 71.7534 25.9384 71.6285 26.157 71.1287C28.3437 65.8495 31.6549 61.3512 35.2472 56.9467C43.7752 46.5133 52.1469 35.9237 60.5811 25.4278C61.8618 23.8346 63.5174 23.1162 65.5479 23.5847C67.3909 24.0221 68.6092 25.2091 69.109 27.0521C69.5463 28.7077 69.0778 30.1759 68.0157 31.4879C64.5483 35.7675 61.1121 40.0783 57.6447 44.3891C50.9911 52.6671 44.3687 60.9764 37.715 69.2232C36.9965 70.1915 36.0282 70.8788 35.091 71.7847ZM36.3093 67.3489C44.681 56.8842 53.0215 46.482 61.3933 36.0798C60.1125 35.049 58.863 34.0494 57.5823 33.0498C49.2105 43.4832 40.87 53.8854 32.5295 64.3188C33.7791 65.3184 34.9973 66.318 36.3093 67.3489ZM30.4678 13.5262C34.0602 13.5262 37.6525 13.5262 41.2449 13.5262C42.1508 13.5262 42.307 13.4012 42.307 12.4953C42.307 11.9955 42.3382 11.4957 42.307 11.0271C42.2445 9.46525 41.2136 8.46564 39.6518 8.4344C39.0895 8.4344 38.496 8.4344 37.9337 8.4344C35.747 8.4344 34.6225 7.40355 34.4038 5.21691C34.2476 3.77997 33.2793 2.87407 31.8111 2.84283C30.9364 2.84283 30.0305 2.84283 29.1559 2.84283C27.6877 2.87407 26.6568 3.84244 26.5631 5.31062C26.4382 7.24736 25.2511 8.37192 23.2832 8.4344C22.5647 8.4344 21.815 8.40316 21.0965 8.46564C19.8158 8.52811 18.8162 9.52772 18.7224 10.8085C18.6912 11.3395 18.7224 11.8393 18.7224 12.3704C18.7224 13.4637 18.7849 13.5262 19.847 13.5262C23.4081 13.5262 26.938 13.5262 30.4678 13.5262ZM59.0504 31.2068C60.3312 32.2376 61.5807 33.2372 62.8614 34.2368C64.111 32.6749 65.298 31.238 66.4538 29.7073C67.2347 28.6765 67.0161 27.2083 66.0477 26.4274C65.0793 25.6152 63.5799 25.6464 62.7365 26.646C61.487 28.1142 60.2999 29.6449 59.0504 31.2068ZM31.28 66.3493C31.1551 66.5679 31.0301 66.6929 30.9677 66.8491C29.9056 68.9732 28.8435 71.0662 27.8439 73.1904C27.7189 73.4403 27.8126 73.7839 27.8126 74.0963C28.0938 74.0025 28.4686 74.0025 28.6873 73.8151C30.2804 72.5656 31.8423 71.2848 33.4042 70.0041C33.8103 69.6917 34.1851 69.3481 34.6225 69.0045C33.4667 68.0986 32.4046 67.2239 31.28 66.3493Z" fill="#636A86"/>
<path d="M37.8085 24.9278C35.122 24.9278 32.4356 24.9278 29.7804 24.9278C29.0619 24.9278 28.5621 24.7091 28.4372 23.9282C28.3122 23.2097 28.7495 22.6787 29.5305 22.5849C30.0303 22.5225 30.5613 22.5537 31.0924 22.5537C35.8405 22.5537 40.6199 22.5537 45.368 22.5537C45.5867 22.5537 45.7741 22.5537 45.9928 22.5537C46.7737 22.6162 47.3048 23.0535 47.3048 23.7095C47.3048 24.3967 46.805 24.8965 45.9616 24.8965C43.2126 24.9278 40.5262 24.9278 37.8085 24.9278Z" fill="#393D53"/>
<path d="M37.8402 27.8017C40.4017 27.8017 42.9945 27.8017 45.556 27.8017C45.8059 27.8017 46.1495 27.708 46.3057 27.8642C46.6805 28.1454 47.1491 28.489 47.2116 28.8638C47.2428 29.2387 46.868 29.7073 46.5243 30.0196C46.3369 30.2071 45.8683 30.1446 45.556 30.1446C40.4017 30.1446 35.2475 30.1446 30.0933 30.1446C29.8434 30.1446 29.5622 30.1446 29.3123 30.0821C28.6563 29.9259 28.3439 29.5198 28.3752 28.8326C28.4377 28.2078 28.8125 27.8642 29.4373 27.8017C29.6559 27.7705 29.9058 27.7705 30.1245 27.7705C32.7172 27.8017 35.2787 27.8017 37.8402 27.8017Z" fill="#393D53"/>
<path d="M37.8713 39.3281C40.4328 39.3281 43.0255 39.3281 45.587 39.3281C45.8369 39.3281 46.1181 39.3281 46.368 39.3906C46.9615 39.5156 47.3364 39.9529 47.2426 40.5152C47.1489 40.9213 46.7741 41.3273 46.4305 41.6085C46.2118 41.7647 45.7745 41.7022 45.4308 41.7022C40.3703 41.7022 35.2786 41.7022 30.218 41.7022C28.9373 41.7022 28.4062 41.3586 28.4062 40.5152C28.4062 39.6717 28.9373 39.3594 30.218 39.3594C32.7795 39.3281 35.3098 39.3281 37.8713 39.3281Z" fill="#393D53"/>
<path d="M18.0666 61.7885C18.9101 60.6014 19.7223 59.4144 20.5344 58.2586C20.9405 57.6963 21.3154 57.1028 21.7527 56.5405C22.19 55.947 22.846 55.8221 23.3771 56.1969C23.9394 56.5718 24.0955 57.259 23.627 57.915C22.3775 59.7268 21.128 61.5386 19.816 63.3504C19.0038 64.4437 17.6606 64.5999 16.5985 63.694C15.7551 62.9755 14.9429 62.257 14.1619 61.5073C13.5996 60.9763 13.5372 60.2891 13.9745 59.7893C14.4118 59.2894 15.0991 59.2582 15.7238 59.758C16.5048 60.3828 17.2545 61.07 18.0666 61.7885Z" fill="#2AA7EE"/>
<path d="M18.0666 44.8891C19.2849 43.1398 20.4719 41.453 21.6589 39.7661C22.065 39.2039 22.5648 38.8915 23.2521 39.2039C23.9081 39.5162 24.158 40.2659 23.7206 40.9219C22.4399 42.7962 21.1279 44.7017 19.7847 46.5447C19.0974 47.4819 17.7855 47.6381 16.8483 46.9196C15.8799 46.1699 15.0053 45.3265 14.0994 44.5143C13.5996 44.0457 13.5996 43.3585 14.0057 42.8899C14.4118 42.3901 15.1302 42.3276 15.6925 42.7962C16.4735 43.4522 17.2232 44.1394 18.0666 44.8891Z" fill="#2AA7EE"/>
<path d="M18.0667 27.7707C19.1912 26.1775 20.2846 24.6156 21.3779 23.0538C21.5341 22.8351 21.659 22.6164 21.8464 22.429C22.2838 21.898 22.9398 21.8042 23.4396 22.1791C23.9394 22.5227 24.0956 23.1787 23.752 23.7722C23.2834 24.5219 22.7523 25.2404 22.2525 25.9589C21.5028 27.021 20.7844 28.083 20.0347 29.1451C19.0975 30.4259 17.7543 30.5821 16.536 29.5512C15.7863 28.8952 15.0678 28.2392 14.3181 27.5832C13.6621 26.9897 13.5684 26.2713 14.037 25.7402C14.5368 25.2092 15.1928 25.2404 15.88 25.8339C16.5985 26.4587 17.317 27.1147 18.0667 27.7707Z" fill="#2AA7EE"/>
<path d="M33.7479 46.8878C32.4359 46.8878 31.1552 46.8878 29.8432 46.8878C28.9373 46.8878 28.4062 46.4504 28.4062 45.7007C28.4062 44.951 28.9061 44.5449 29.8432 44.5449C32.4047 44.5449 34.9974 44.5449 37.5589 44.5449C38.4648 44.5449 38.9959 44.9823 38.9959 45.7007C38.9959 46.4192 38.4336 46.8878 37.5589 46.8878C36.2782 46.8878 34.9974 46.8878 33.7479 46.8878Z" fill="#393D53"/>
</svg>
