<svg width="67" height="81" viewBox="0 0 67 81" fill="none" xmlns="http://www.w3.org/2000/svg">
<path d="M53.3972 28.9924C53.3972 30.4718 53.3972 43.7869 53.3972 45.3721C53.7142 45.0815 53.952 44.8701 54.1897 44.6323C54.7181 44.1568 55.2729 44.1304 55.6956 44.5531C56.1183 44.9758 56.0655 45.5306 55.5635 46.0325C54.771 46.7987 53.952 47.5384 53.133 48.2781C52.631 48.7273 52.1291 48.7537 51.6271 48.2781C50.7817 47.512 49.9627 46.7458 49.1702 45.9797C48.6946 45.5306 48.6946 44.9494 49.0645 44.5267C49.4344 44.1304 50.0156 44.1304 50.5175 44.5795C50.7817 44.8173 51.0195 45.055 51.3629 45.3721C51.3629 43.8398 51.3629 30.4983 51.3629 28.966C51.1252 28.966 50.8874 28.966 50.6232 28.966C46.9774 28.966 43.358 28.966 39.7122 28.966C38.5234 28.966 38.2856 28.7018 38.2856 27.5129C38.2856 26.2713 38.2856 25.0031 38.2856 23.7615C38.2856 22.9425 38.6291 22.5198 39.2631 22.5198C39.8972 22.5198 40.2142 22.9689 40.2406 23.7879C40.2406 24.8182 40.2406 25.875 40.2406 26.9581C41.3502 26.9581 42.4069 26.9581 43.543 26.9581C43.543 26.1127 43.543 25.2409 43.543 24.3955C43.543 21.8593 44.7318 20.3006 47.1623 19.6137C47.2416 19.5873 47.3208 19.5873 47.4265 19.5609C49.1437 19.0853 49.1437 19.0853 49.0909 17.3417C49.0909 17.0775 48.9324 16.7605 48.7475 16.5755C47.5586 15.3603 46.9246 13.9072 46.9246 12.19C46.9246 11.2125 46.951 10.235 47.1888 9.31037C47.9021 6.66849 50.5704 5.0041 53.2651 5.34754C56.0126 5.71741 58.1261 8.01584 58.179 10.7898C58.2054 12.0843 58.2847 13.4053 57.677 14.5941C57.3864 15.1753 57.0694 15.8358 56.5939 16.2585C55.6956 17.0511 56.1183 18.0022 56.0391 18.9268C56.0391 19.0061 56.2504 19.1646 56.4089 19.2174C56.9109 19.3759 57.4128 19.508 57.9148 19.6401C59.7377 20.0892 60.9794 21.1724 61.4813 23.1274C61.6663 22.9161 61.8248 22.784 61.9569 22.599C65.1536 18.4513 65.7876 13.9072 63.4099 9.23111C61.0322 4.52856 56.9637 2.25654 51.7064 2.52073C45.4715 2.81134 40.5048 7.96301 40.2406 14.2243C40.1878 15.5716 40.2142 16.919 40.2142 18.2399C40.2142 18.4777 40.2142 18.7155 40.1613 18.9532C40.0293 19.4288 39.6858 19.6665 39.1838 19.6401C38.7083 19.6137 38.3384 19.3759 38.312 18.9268C38.2328 15.6245 37.995 12.2957 39.3952 9.15185C40.7161 6.19295 42.7768 3.89451 45.6036 2.30938C54.4011 -2.5781 65.497 3.10194 66.6066 13.0883C67.5048 21.1988 61.7191 28.2527 53.5557 28.966C53.5821 28.9396 53.5293 28.966 53.3972 28.9924ZM45.5244 26.9581C45.63 26.9846 45.7093 27.011 45.7886 27.011C48.4304 26.9846 51.0723 27.0638 53.6878 26.9317C55.6956 26.8525 57.5185 26.1392 59.1829 25.0032C59.3943 24.8711 59.5528 24.5276 59.5792 24.2898C59.632 22.7575 58.998 21.9121 57.5185 21.5159C57.2015 21.4366 56.8845 21.3574 56.5939 21.2517C56.2504 21.1196 56.0391 21.1988 55.7749 21.4894C54.2162 23.2595 51.5479 23.5765 49.8835 21.965C49.0381 21.146 48.404 21.2253 47.5322 21.5423C47.4265 21.5687 47.3208 21.6215 47.2152 21.648C46.2641 21.965 45.63 22.6255 45.5508 23.603C45.4715 24.7125 45.5244 25.8221 45.5244 26.9581ZM56.2504 11.6352C56.2504 11.2918 56.2504 11.0276 56.2504 10.737C56.1712 9.04618 54.9295 7.61956 53.2387 7.30254C51.6007 6.98551 49.8042 7.83091 49.223 9.44246C48.404 11.7673 48.6418 14.8055 51.5479 16.1264C52.2347 16.4435 52.8952 16.4699 53.6085 16.1264C55.4843 15.1753 56.3825 13.6959 56.2504 11.6352ZM51.1252 18.2399C51.0195 18.7947 50.8874 19.4024 50.8081 20.0364C50.7817 20.1949 50.9402 20.3799 51.0459 20.5119C51.8649 21.2517 53.2651 21.2253 54.0576 20.4855C54.1633 20.3799 54.2954 20.1949 54.269 20.0628C54.1897 19.4288 54.0576 18.8211 53.952 18.2399C53.0537 18.2399 52.0762 18.2399 51.1252 18.2399Z" fill="#1DA5F1"/>
<path d="M13.6897 51.9499C13.6897 50.5233 13.6897 38.6084 13.6897 37.2346C13.6897 37.1554 13.6633 37.0761 13.6369 36.9176C13.3199 37.2082 13.0557 37.446 12.7915 37.6837C12.2895 38.1064 11.7083 38.08 11.3385 37.6573C10.9686 37.2346 10.995 36.7062 11.4441 36.2835C12.2631 35.491 13.1085 34.6984 13.9539 33.9323C14.4295 33.5096 14.905 33.5096 15.407 33.9323C16.2524 34.672 17.0713 35.4646 17.8639 36.2307C18.3394 36.6798 18.3659 37.261 17.996 37.6837C17.6261 38.08 17.0449 38.08 16.543 37.6573C16.2788 37.4195 16.0146 37.1818 15.6711 36.8647C15.6711 38.4235 15.6711 50.4176 15.6711 51.9499C16.3845 51.9499 17.0713 51.9499 17.7847 51.9499C18.2602 51.9499 18.7357 51.9235 19.2113 51.9763C19.7396 52.0292 20.0303 52.3726 20.0303 52.901C20.0303 53.4294 19.7661 53.7728 19.2377 53.8521C18.9471 53.9049 18.6301 53.8785 18.3394 53.9049C16.3845 53.9577 14.4295 53.7992 12.5273 54.1162C7.82476 54.9088 4.54882 57.6828 2.96369 62.174C1.40498 66.6652 2.32964 70.7865 5.42064 74.4059C5.44706 74.4323 5.4999 74.4587 5.60558 74.538C6.21321 71.5527 8.64374 71.0243 11.0743 70.4695C11.0743 69.7562 11.1007 69.1221 11.0743 68.4881C11.0743 68.3032 10.9422 68.0918 10.8101 67.9597C8.85509 65.9519 8.27388 62.2797 9.54198 59.7435C10.7044 57.445 13.2935 56.2297 15.8032 56.811C18.3394 57.3922 20.1623 59.5585 20.1888 62.1476C20.1888 63.2572 20.1623 64.4196 19.8717 65.4763C19.634 66.3217 19.0263 67.0615 18.498 67.8012C18.2074 68.2239 17.8639 69.9147 18.1017 70.3638C18.1545 70.4695 18.3394 70.5488 18.4715 70.6016C18.8942 70.7337 19.3169 70.8394 19.7132 70.945C21.9852 71.5791 22.7514 72.2924 23.5704 74.538C23.7289 74.4059 23.861 74.2738 23.9667 74.1417C25.6839 72.0546 26.7671 69.7034 26.8199 66.9822C26.8991 62.7552 26.8463 58.5546 26.8727 54.3276C26.8727 54.2219 26.8463 54.1162 26.8199 53.9313C25.9481 53.9313 25.0763 53.9313 24.2308 53.9313C23.9667 53.9313 23.7025 53.9313 23.4647 53.8785C22.9892 53.7728 22.725 53.4029 22.7514 52.9274C22.7778 52.4519 23.0156 52.0556 23.5175 52.0292C25.0234 52.0027 26.5557 52.0027 28.0616 52.0292C28.5635 52.0556 28.8277 52.4519 28.8277 52.9274C28.8277 57.8677 29.0655 62.8609 28.6956 67.7748C28.1937 74.7493 22.1173 80.218 15.2484 80.4558C8.06253 80.6936 1.82768 75.7533 0.612417 68.8051C-0.867037 60.4568 4.99794 52.7953 13.452 52.0292C13.452 52.0027 13.5312 51.9763 13.6897 51.9499ZM14.6672 78.5008C16.9128 78.4744 19.132 77.8403 21.1927 76.5458C21.5097 76.3609 21.6418 76.1495 21.6418 75.7797C21.6418 74.0889 21.087 73.3227 19.4755 72.8736C19.2113 72.7944 18.9207 72.7415 18.6565 72.6358C18.2866 72.4773 18.0488 72.583 17.7847 72.9C16.1731 74.7229 13.3991 74.8814 11.7083 73.1906C11.1007 72.583 10.6252 72.4773 9.93826 72.7944C9.85901 72.8208 9.77975 72.8472 9.70049 72.8736C8.08894 73.3227 7.48131 74.1153 7.53415 75.7797C7.53415 76.0439 7.7455 76.3873 7.95685 76.5194C9.93826 77.8139 12.131 78.448 14.6672 78.5008ZM18.2338 63.0986C18.2338 62.7552 18.2338 62.5174 18.2338 62.2797C18.2074 60.3511 16.7279 58.766 14.8786 58.6339C12.8443 58.5018 11.1799 59.7963 10.9158 61.8041C10.8101 62.5438 10.8365 63.31 10.9158 64.0497C11.1271 65.9255 12.316 67.0351 13.9803 67.6163C14.4295 67.7748 15.0635 67.6691 15.5391 67.4578C17.4412 66.6124 18.3923 65.1065 18.2338 63.0986ZM13.0557 69.5713C13.0293 69.9675 13.0557 70.4431 12.95 70.9186C12.7915 71.6848 12.8708 71.8961 13.6105 72.2131C14.4823 72.583 15.3013 72.4509 16.041 71.8697C16.1731 71.764 16.3316 71.5791 16.3052 71.4734C16.2259 70.8129 16.0938 70.1525 15.9882 69.5977C15.0107 69.5713 14.0596 69.5713 13.0557 69.5713Z" fill="#393D53"/>
<path d="M38.2857 67.0884C36.8062 67.0884 35.3796 67.0884 33.7945 67.0884C34.0851 67.4054 34.3229 67.6696 34.5606 67.9338C34.9833 68.4358 34.9833 68.9906 34.587 69.3868C34.1643 69.7831 33.6095 69.7567 33.1604 69.2812C32.3679 68.4622 31.6017 67.6168 30.8092 66.7714C30.3865 66.3223 30.4129 65.8203 30.8092 65.3712C31.5753 64.5258 32.3679 63.6804 33.1604 62.8614C33.6095 62.4123 34.2172 62.3859 34.6135 62.7821C34.9833 63.152 34.9833 63.7068 34.587 64.1823C34.4549 64.3409 34.3229 64.4729 34.1908 64.605C34.0851 64.7371 33.9794 64.8692 33.7681 65.107C34.772 65.107 35.6438 65.107 36.4892 65.107C37.044 65.107 37.8366 65.2655 38.1007 65.0013C38.3914 64.6579 38.2593 63.9182 38.2593 63.3369C38.2593 60.0346 38.2593 56.7058 38.2593 53.4035C38.2593 52.241 38.5234 51.9768 39.6595 51.9768C44.2563 51.9768 48.8796 51.8976 53.4765 52.0561C59.817 52.2675 65.4178 57.3399 66.4746 63.6011C67.8483 71.6325 62.7759 78.8712 54.7446 80.2978C47.1624 81.6452 39.5274 76.0972 38.4178 68.4886C38.3914 68.0131 38.3385 67.5904 38.2857 67.0884ZM40.2407 53.9318C40.2407 58.2117 40.135 62.4123 40.2671 66.6129C40.452 72.742 44.9696 77.6295 51.0724 78.3957C59.4472 79.4524 66.4481 71.6325 64.4932 63.4426C63.1194 57.7362 58.3112 53.9583 52.3141 53.9318C48.5362 53.9054 44.7319 53.9318 40.954 53.9318C40.7426 53.9054 40.5313 53.9318 40.2407 53.9318Z" fill="#636A86"/>
<path d="M28.8277 13.8544C30.2808 13.8544 31.7338 13.8544 33.2661 13.8544C32.9491 13.511 32.7113 13.2468 32.4735 12.9826C32.0508 12.4807 32.0772 11.9259 32.4999 11.5296C32.9226 11.1597 33.451 11.1861 33.8737 11.6353C34.6663 12.4542 35.4324 13.2996 36.225 14.145C36.6477 14.5942 36.6477 15.0961 36.2514 15.5452C35.4853 16.4171 34.6663 17.2625 33.8737 18.1079C33.451 18.5306 32.8698 18.557 32.4735 18.1871C32.0772 17.8173 32.0772 17.236 32.4471 16.7869C32.6849 16.4963 32.9491 16.2321 33.2925 15.8623C31.7338 15.8623 30.2808 15.8623 28.7749 15.8623C28.7749 16.1529 28.7749 16.3906 28.7749 16.6548C28.7749 20.3006 28.7749 23.92 28.7749 27.5658C28.7749 28.7282 28.5107 28.9924 27.3483 28.966C22.7514 28.966 18.1809 29.0453 13.5841 28.8867C7.29638 28.7018 1.69559 23.7087 0.585996 17.5002C-0.893458 9.44249 4.25821 2.04522 12.316 0.697859C15.8032 0.116645 19.0528 0.829953 22.0909 2.65285C22.8306 3.10197 23.042 3.63035 22.725 4.18514C22.3815 4.73994 21.8267 4.79278 21.0342 4.31724C14.1389 0.143064 5.31497 3.36616 2.85802 10.9748C0.374646 18.6627 5.9226 26.7204 13.9803 26.9846C18.1281 27.1167 22.2759 27.011 26.45 27.0374C26.5557 27.0374 26.6614 27.011 26.7935 27.011C26.8199 26.8789 26.8463 26.7997 26.8463 26.694C26.8463 22.5726 26.8727 18.4249 26.8199 14.3036C26.7935 11.9259 26.0009 9.75952 24.68 7.80452C24.6007 7.69885 24.5215 7.59317 24.4686 7.4875C24.1516 6.95912 24.2573 6.40433 24.7064 6.11372C25.1555 5.82311 25.7103 5.92879 26.0802 6.40433C27.1633 7.85736 27.9295 9.46891 28.3522 11.239C28.5371 12.058 28.6692 12.9298 28.8277 13.8544Z" fill="#636A86"/>
<path d="M23.3057 20.0097C23.3057 21.3571 23.2792 22.678 23.3057 24.0254C23.3057 24.7651 23.0151 25.2671 22.4074 25.6105C20.0826 26.9315 17.7577 28.2788 15.4593 29.6262C14.8516 29.9696 14.2968 29.9696 13.6892 29.6262C11.3644 28.2788 9.01308 26.9315 6.68823 25.5841C6.10701 25.2407 5.81641 24.7651 5.81641 24.1046C5.81641 21.3835 5.81641 18.6624 5.81641 15.9412C5.81641 15.2808 6.13343 14.8052 6.71465 14.4618C9.06592 13.1144 11.3908 11.7671 13.7156 10.4197C14.2969 10.0762 14.8516 10.0762 15.4329 10.4197C17.7577 11.7935 20.109 13.1408 22.4867 14.4882C23.0679 14.8316 23.3321 15.3072 23.3057 15.9941C23.3057 17.3414 23.3057 18.6888 23.3057 20.0097ZM13.5571 27.3277C13.5571 25.0821 13.5571 22.9951 13.5307 20.908C13.5307 20.723 13.3194 20.4853 13.1608 20.406C11.4965 19.4285 9.83207 18.4774 8.16768 17.5264C8.06201 17.4471 7.90349 17.4207 7.71856 17.3678C7.71856 18.9794 7.82424 20.5645 7.69214 22.0968C7.56005 23.5499 8.00917 24.3688 9.35653 24.9765C10.7831 25.5841 12.1041 26.4823 13.5571 27.3277ZM21.3507 17.2358C19.3957 18.3718 17.5728 19.4021 15.7499 20.4853C15.6178 20.5645 15.5385 20.8815 15.5385 21.0929C15.5121 22.9951 15.5385 24.8972 15.5385 26.7994C15.5385 26.9315 15.565 27.0636 15.5914 27.3013C17.4935 26.1917 19.3164 25.1614 21.1393 24.0782C21.245 23.999 21.3507 23.814 21.3507 23.6555C21.3507 21.5684 21.3507 19.4814 21.3507 17.2358ZM8.7489 15.5449C10.017 16.2847 11.153 16.9451 12.289 17.5792C13.0552 18.0283 13.8213 18.768 14.6139 18.768C15.38 18.768 16.1462 18.0019 16.9123 17.5528C18.0483 16.8923 19.1579 16.2318 20.3996 15.5449C18.7088 14.5674 17.0708 13.6692 15.5121 12.6917C14.8252 12.269 14.3233 12.269 13.6628 12.6917C12.0512 13.6692 10.4397 14.5674 8.7489 15.5449Z" fill="#636A86"/>
<path d="M52.3144 56.2568C57.017 56.2833 60.9269 59.2422 62.0894 63.4956C62.2479 64.0768 62.1686 64.5259 61.6403 64.843C61.059 65.16 60.4514 64.8165 60.2401 64.0768C59.7381 62.4388 58.8663 61.0651 57.5453 59.9819C54.9563 57.8684 51.2312 57.657 48.3252 59.4535C45.4719 61.2236 44.0189 64.6844 44.7586 67.9868C45.4719 71.2099 48.2723 73.7461 51.5218 74.1424C55.4582 74.6179 58.9455 72.3723 60.1872 68.568C60.3193 68.1189 60.5042 67.6962 61.0326 67.6169C61.8252 67.4848 62.3536 68.1453 62.0894 68.9907C61.5346 70.8664 60.5307 72.4516 59.0512 73.7461C55.8017 76.5729 51.2312 76.9956 47.5062 74.8293C43.8604 72.6893 41.9582 68.4623 42.7772 64.2882C43.5962 60.1404 47.0571 56.9437 51.2841 56.3889C51.6804 56.2568 52.1031 56.2833 52.3144 56.2568Z" fill="#636A86"/>
<path d="M52.5251 72.5042C52.0232 72.5042 51.6005 72.1079 51.5741 71.5531C51.5476 71.1832 51.442 71.0511 51.0985 70.9455C50.7022 70.8398 50.306 70.6284 49.9361 70.3907C49.4606 70.0736 49.3549 69.5453 49.6191 69.0961C49.8833 68.647 50.3852 68.5413 50.9136 68.7263C51.442 68.9112 52.0232 69.0961 52.578 69.1226C53.1592 69.149 53.5291 68.7263 53.6083 68.1451C53.714 67.5639 53.3177 67.2997 52.8422 67.1147C52.3138 66.9298 51.7854 66.7449 51.2835 66.5071C50.2795 66.0051 49.7247 65.1333 49.7247 63.9973C49.7247 62.9141 50.2531 62.1216 51.2042 61.5668C51.3891 61.4611 51.5476 61.1705 51.5741 60.9327C51.6533 60.2458 51.9703 59.876 52.5516 59.876C53.1328 59.876 53.5291 60.2458 53.5291 60.9327C53.5291 61.329 53.6876 61.4875 54.031 61.646C54.2952 61.7781 54.533 61.9631 54.7443 62.1744C55.1406 62.5707 55.1406 63.0198 54.8236 63.4689C54.533 63.8916 53.9782 63.9181 53.4762 63.6539C53.1856 63.4954 52.8422 63.2576 52.5516 63.284C52.2609 63.3104 51.8118 63.5746 51.759 63.8124C51.6797 64.0766 51.9175 64.5257 52.1553 64.7106C52.5516 64.9748 53.0535 65.1069 53.5291 65.2654C54.7179 65.6881 55.5105 66.4543 55.5897 67.7488C55.6954 69.0433 55.1142 70.0472 53.9782 70.7077C53.6347 70.8926 53.5291 71.0776 53.5291 71.4474C53.4762 72.0815 53.0535 72.5042 52.5251 72.5042Z" fill="#636A86"/>
</svg>
