<svg width="70" height="69" viewBox="0 0 70 69" fill="none" xmlns="http://www.w3.org/2000/svg">
<rect width="69.46" height="69" rx="5.52" fill="white"/>
<path d="M40.4798 28.75L44.3132 24.9167M40.4798 40.25L44.3132 44.0833M28.9798 40.25L25.1465 44.0833M28.9798 28.75L25.1465 24.9167" stroke="#B0B9D0" stroke-width="2.76" stroke-linecap="round" stroke-linejoin="round"/>
<path d="M42.3966 34.5C42.3966 36.0163 41.947 37.4986 41.1046 38.7594C40.2622 40.0201 39.0648 41.0028 37.6639 41.5831C36.263 42.1633 34.7215 42.3152 33.2343 42.0194C31.7471 41.7235 30.381 40.9934 29.3088 39.9212C28.2366 38.8489 27.5064 37.4829 27.2106 35.9957C26.9148 34.5085 27.0666 32.967 27.6469 31.5661C28.2272 30.1652 29.2098 28.9678 30.4706 28.1254C31.7314 27.283 33.2137 26.8333 34.73 26.8333C36.7633 26.8333 38.7134 27.6411 40.1511 29.0788C41.5889 30.5166 42.3966 32.4667 42.3966 34.5ZM48.1466 17.25C47.3885 17.25 46.6473 17.4748 46.017 17.896C45.3866 18.3172 44.8952 18.9159 44.6051 19.6164C44.315 20.3168 44.2391 21.0876 44.387 21.8312C44.5349 22.5748 44.9 23.2578 45.4361 23.7939C45.9722 24.33 46.6552 24.6951 47.3988 24.843C48.1424 24.9909 48.9132 24.915 49.6136 24.6249C50.3141 24.3347 50.9127 23.8434 51.3339 23.213C51.7552 22.5826 51.98 21.8415 51.98 21.0833C51.98 20.0667 51.5761 19.0916 50.8572 18.3728C50.1383 17.6539 49.1633 17.25 48.1466 17.25ZM51.98 47.9167C51.98 47.1585 51.7552 46.4174 51.3339 45.787C50.9127 45.1566 50.3141 44.6653 49.6136 44.3751C48.9132 44.085 48.1424 44.0091 47.3988 44.157C46.6552 44.3049 45.9722 44.67 45.4361 45.2061C44.9 45.7422 44.5349 46.4252 44.387 47.1688C44.2391 47.9124 44.315 48.6832 44.6051 49.3836C44.8952 50.0841 45.3866 50.6828 46.017 51.104C46.6473 51.5252 47.3885 51.75 48.1466 51.75C49.1633 51.75 50.1383 51.3461 50.8572 50.6272C51.5761 49.9084 51.98 48.9333 51.98 47.9167ZM21.3133 51.75C22.0715 51.75 22.8126 51.5252 23.443 51.104C24.0734 50.6828 24.5647 50.0841 24.8549 49.3836C25.145 48.6832 25.2209 47.9124 25.073 47.1688C24.9251 46.4252 24.56 45.7422 24.0239 45.2061C23.4878 44.67 22.8048 44.3049 22.0612 44.157C21.3176 44.0091 20.5468 44.085 19.8464 44.3751C19.1459 44.6653 18.5472 45.1566 18.126 45.787C17.7048 46.4174 17.48 47.1585 17.48 47.9167C17.48 48.9333 17.8838 49.9084 18.6027 50.6272C19.3216 51.3461 20.2967 51.75 21.3133 51.75ZM17.48 21.0833C17.48 21.8415 17.7048 22.5826 18.126 23.213C18.5472 23.8434 19.1459 24.3347 19.8464 24.6249C20.5468 24.915 21.3176 24.9909 22.0612 24.843C22.8048 24.6951 23.4878 24.33 24.0239 23.7939C24.56 23.2578 24.9251 22.5748 25.073 21.8312C25.2209 21.0876 25.145 20.3168 24.8549 19.6164C24.5647 18.9159 24.0734 18.3172 23.443 17.896C22.8126 17.4748 22.0715 17.25 21.3133 17.25C20.2967 17.25 19.3216 17.6539 18.6027 18.3728C17.8838 19.0916 17.48 20.0667 17.48 21.0833Z" stroke="url(#paint0_linear_1094_960)" stroke-width="2.76" stroke-linecap="round" stroke-linejoin="round"/>
<defs>
<linearGradient id="paint0_linear_1094_960" x1="17.48" y1="20.3395" x2="53.274" y2="22.8071" gradientUnits="userSpaceOnUse">
<stop stop-color="#00F0FF"/>
<stop offset="1" stop-color="#1DA5F1"/>
</linearGradient>
</defs>
</svg>
