<svg width="55" height="81" viewBox="0 0 55 81" fill="none" xmlns="http://www.w3.org/2000/svg">
<path d="M9.62441 49.452C11.6358 47.8939 13.5904 46.3925 15.5735 44.8627C14.7803 42.4831 15.1202 40.3868 17.1599 38.8287C18.803 37.5822 20.616 37.4689 22.4574 38.4321C24.3271 39.3953 25.1769 41.2366 25.007 43.8429C26.4801 44.5228 28.0098 45.2593 29.5396 45.9392C29.6812 45.9959 29.9645 45.8259 30.1345 45.7126C32.0608 43.9845 33.9872 43.7296 36.3102 44.8911C36.5368 45.0044 36.9617 44.9477 37.1317 44.8061C39.0014 43.2763 40.8428 41.7182 42.7408 40.1885C43.2224 39.7919 42.9958 39.4803 42.8825 39.0836C42.1742 36.789 43.1374 34.4094 45.2054 33.2479C47.2734 32.1148 49.823 32.5963 51.3811 34.4094C52.8825 36.1941 52.9109 38.772 51.4944 40.6134C50.0497 42.4831 47.4717 43.0497 45.3754 41.9732C45.1204 41.8599 44.8938 41.6899 44.6105 41.5199C42.5992 43.1913 40.5312 44.8911 38.5198 46.6191C38.3498 46.7608 38.3498 47.214 38.4348 47.469C39.5397 50.9534 36.9617 54.2962 33.3356 54.0413C31.126 53.8713 28.4064 51.8316 28.9163 48.0922C27.4149 47.384 25.9135 46.6758 24.3554 45.9959C24.2138 45.9392 23.9588 46.0525 23.8172 46.1659C21.3809 48.1772 19.6245 48.3188 16.9899 46.6758C15.1202 48.1205 13.2222 49.5653 11.3808 51.0384C11.2108 51.1801 11.2108 51.6616 11.2675 51.9733C11.9757 54.6362 10.5309 57.2991 7.95301 58.0923C5.40342 58.8572 2.71218 57.4691 1.83398 54.9195C1.18242 52.9931 1.77732 50.9251 3.33541 49.5936C4.86517 48.2905 7.07482 48.0639 8.85953 49.0271C9.05783 49.0837 9.31279 49.2537 9.62441 49.452ZM33.7323 46.3358C32.2025 46.3358 30.956 47.554 30.956 49.0837C30.956 50.5568 32.1742 51.8033 33.6473 51.8316C35.1487 51.86 36.4518 50.6418 36.4801 49.1404C36.4801 47.6106 35.2337 46.3358 33.7323 46.3358ZM44.8088 37.5256C44.8088 39.0553 46.0553 40.3018 47.5567 40.3018C49.0298 40.3018 50.2763 39.0836 50.3046 37.6105C50.3329 36.1091 49.0865 34.806 47.585 34.806C46.0553 34.7493 44.8088 35.9958 44.8088 37.5256ZM6.42325 55.996C7.95301 55.996 9.19948 54.7778 9.22781 53.2764C9.22781 51.775 7.95301 50.5285 6.45158 50.5285C4.97848 50.5285 3.73201 51.7466 3.70369 53.2197C3.64703 54.6928 4.92182 55.996 6.42325 55.996ZM20.1061 45.486C21.6358 45.486 22.8823 44.2395 22.854 42.7097C22.8256 41.2083 21.5508 39.9902 20.0494 39.9902C18.5763 40.0185 17.3582 41.2083 17.3582 42.7097C17.3582 44.2678 18.5763 45.486 20.1061 45.486Z" fill="#2AA7EE"/>
<path d="M42.3164 63.3615C42.3164 58.7722 42.3164 54.1829 42.3164 49.5653C42.3164 47.3557 43.3079 46.3642 45.5459 46.3642C47.0473 46.3642 48.5771 46.3358 50.0785 46.3642C51.8632 46.3925 52.968 47.4407 52.968 49.2537C52.968 58.6872 52.968 68.1207 52.968 77.5542C52.968 79.4239 51.8632 80.4721 50.0218 80.4721C48.4638 80.4721 46.8773 80.4721 45.3193 80.4721C43.4212 80.4721 42.3447 79.4239 42.3447 77.4975C42.3164 72.795 42.3164 68.064 42.3164 63.3615ZM44.4977 63.3898C44.4977 67.9791 44.5261 72.5967 44.4694 77.1859C44.4694 78.0641 44.7527 78.3474 45.6309 78.3191C47.019 78.2624 48.4071 78.2624 49.7952 78.3191C50.5601 78.3474 50.8151 78.0358 50.7867 77.2992C50.7584 76.3927 50.7867 75.4862 50.7867 74.5797C50.7867 66.2793 50.7867 58.0073 50.7867 49.707C50.7867 48.5738 50.7301 48.5455 49.5969 48.5455C48.2655 48.5455 46.934 48.6021 45.6026 48.5171C44.696 48.4605 44.4694 48.8288 44.4694 49.6786C44.5261 54.2679 44.4977 58.8288 44.4977 63.3898Z" fill="#636A86"/>
<path d="M14.8936 65.967C14.8936 62.1993 14.8936 58.4032 14.8936 54.6355C14.8936 52.5675 15.8567 51.5759 17.9247 51.5476C19.4545 51.5193 21.0126 51.5193 22.5423 51.5476C24.497 51.5759 25.4885 52.5675 25.4885 54.5221C25.4885 62.1709 25.4885 69.8197 25.4885 77.4685C25.4885 79.4515 24.4404 80.4713 22.4574 80.4713C20.9559 80.4713 19.4262 80.4713 17.9247 80.4713C15.8851 80.4713 14.8936 79.4515 14.8936 77.3835C14.8936 73.5874 14.8936 69.7914 14.8936 65.967ZM17.0749 65.9953C17.0749 69.7631 17.1032 73.5591 17.0749 77.3269C17.0749 78.0917 17.3298 78.3467 18.0664 78.3184C19.5112 78.2617 20.9559 78.29 22.429 78.3184C23.0806 78.3467 23.3355 78.0917 23.3355 77.4402C23.3355 69.8197 23.3355 62.1993 23.3355 54.5788C23.3355 53.9556 23.0806 53.7289 22.4574 53.7289C21.0126 53.7573 19.5678 53.7573 18.0947 53.7289C17.3298 53.7006 17.0465 53.9556 17.0465 54.7488C17.1032 58.4882 17.0749 62.2559 17.0749 65.9953Z" fill="#636A86"/>
<path d="M39.2285 69.1685C39.2285 71.9447 39.2285 74.7209 39.2285 77.4971C39.2285 79.4235 38.1804 80.4717 36.254 80.4717C34.6393 80.4717 33.0529 80.4717 31.4381 80.4717C29.7101 80.4717 28.6052 79.4518 28.6052 77.7521C28.5769 72.0014 28.5769 66.2789 28.6052 60.5282C28.6052 58.8001 29.7101 57.8086 31.4381 57.7803C33.0812 57.7803 34.6959 57.7803 36.339 57.7803C38.152 57.7803 39.2285 58.8284 39.2285 60.6415C39.2285 63.5027 39.2285 66.3356 39.2285 69.1685ZM37.0472 69.1118C37.0472 66.3922 37.0189 63.6727 37.0756 60.9531C37.0756 60.1882 36.8206 59.9333 36.084 59.9616C34.6393 60.0183 33.1945 59.9899 31.7214 59.9616C31.0698 59.9333 30.7866 60.1599 30.7866 60.8398C30.8149 66.3639 30.8149 71.888 30.7866 77.4122C30.7866 78.0637 31.0132 78.3187 31.6931 78.3187C33.1378 78.2904 34.5826 78.262 36.0557 78.3187C36.8772 78.347 37.0756 78.0071 37.0756 77.2422C37.0189 74.5226 37.0472 71.803 37.0472 69.1118Z" fill="#636A86"/>
<path d="M11.8057 71.2362C11.8057 73.3325 11.8057 75.4005 11.8057 77.4969C11.8057 79.4232 10.7292 80.4714 8.8595 80.4997C7.24476 80.4997 5.65834 80.4997 4.0436 80.4997C2.28721 80.4997 1.18239 79.4515 1.15406 77.6952C1.12573 73.4175 1.12573 69.1115 1.15406 64.8339C1.15406 63.0208 2.23055 62.001 4.07193 61.9727C5.715 61.9727 7.32974 61.9727 8.97282 61.9727C10.7009 62.001 11.8057 63.0492 11.8057 64.8055C11.8057 66.9302 11.8057 69.0832 11.8057 71.2362ZM9.62438 71.2079C9.62438 69.1399 9.59605 67.1002 9.62438 65.0322C9.62438 64.3806 9.42608 64.0973 8.74619 64.1256C7.24476 64.154 5.715 64.154 4.21357 64.1256C3.50535 64.0973 3.33538 64.4373 3.33538 65.0605C3.33538 69.1682 3.36371 73.2759 3.33538 77.3835C3.33538 78.1201 3.647 78.3184 4.32689 78.2901C5.74333 78.2617 7.15977 78.2334 8.57621 78.2901C9.34109 78.3184 9.65271 78.0634 9.62438 77.2702C9.59605 75.2589 9.62438 73.2475 9.62438 71.2079Z" fill="#636A86"/>
<path d="M54.3278 27.1002C54.2994 26.7036 54.2428 26.307 54.2144 25.882C54.1011 24.4373 53.9595 22.9642 53.6479 21.5194C52.0331 14.2389 47.3589 7.89322 40.8149 4.09715C34.2709 0.357746 26.4239 -0.520448 19.3133 1.71753C8.18009 5.23031 0.559638 15.457 0.333008 27.1285C0.333008 27.4968 0.361337 27.9784 0.644625 28.29C0.899584 28.5449 1.26786 28.6583 1.83444 28.6583C3.05258 28.6583 4.29904 28.6583 5.51718 28.6583H7.01861H8.54837C9.05829 28.6583 9.56821 28.6583 10.0781 28.6583C10.8147 28.6583 11.5512 28.6583 12.3161 28.6583C13.3076 28.6583 13.7042 28.2616 13.7609 27.2418C13.7892 26.6469 13.8175 25.9953 13.9308 25.3721C15.0357 18.4032 21.353 13.5023 28.6052 13.9839C35.2341 14.4372 40.7866 20.3296 40.9282 27.1852C40.9566 28.29 41.3532 28.6866 42.4297 28.6866C45.8858 28.6866 49.3702 28.6866 52.8263 28.6866C53.4212 28.6866 53.7895 28.5733 54.0445 28.29C54.2994 28.0067 54.3844 27.6384 54.3278 27.1002ZM40.6733 6.7034C43.7044 8.65809 46.1691 11.1227 48.1521 14.1822L40.6449 18.5165L36.3106 14.2105L40.6733 6.7034ZM38.6902 5.57025L34.3559 13.0774L28.5202 11.5193V2.79403C32.2313 3.02066 35.5457 3.92718 38.6902 5.57025ZM43.3362 26.307L41.7781 20.4995L49.3136 16.1652C50.985 19.3664 51.8632 22.6809 52.0615 26.3353H43.3362V26.307ZM12.911 20.4995L11.3246 26.3636H2.6843C2.486 24.0123 3.98743 18.4032 5.40387 16.1936L12.911 20.4995ZM18.4068 14.3239C18.2085 14.4938 18.0102 14.6638 17.8119 14.8338C17.217 15.3154 16.6504 15.797 16.1405 16.3069C15.6022 16.8168 15.149 17.3834 14.6674 17.9783C14.4974 18.1766 14.3275 18.3749 14.1575 18.5732L6.56535 14.2105C7.67018 11.9726 11.2113 8.43146 14.0158 6.73173L18.4068 14.3239ZM26.1689 2.79403V11.5193L20.3332 13.0774L15.9705 5.57025C19.1434 3.92718 22.4862 3.02066 26.1689 2.79403Z" fill="#393D53"/>
<path d="M33.5057 20.216C33.1941 20.1876 32.8824 20.3576 32.5708 20.6409L32.5425 20.6692C32.1742 21.0375 31.8059 21.3774 31.466 21.7457C31.0127 22.199 30.5595 22.6806 30.1345 23.1338L29.7379 23.5304C27.8966 22.5673 25.2903 22.5106 23.6189 24.6919C22.2591 26.4766 22.3724 28.9696 23.9022 30.641C24.8087 31.6325 26.0552 32.1424 27.33 32.1424C28.1799 32.1424 29.058 31.9158 29.7946 31.4342C31.8626 30.1027 32.4008 27.8647 31.296 25.0885L32.0326 24.3803C32.7408 23.6721 33.449 22.9922 34.1572 22.284C34.6955 21.774 34.7238 21.1225 34.2706 20.6409C34.0723 20.3576 33.789 20.216 33.5057 20.216ZM27.33 29.8761C26.7068 29.8761 26.1118 29.6211 25.6586 29.1962C25.2053 28.7429 24.9504 28.148 24.9504 27.5248C24.9504 26.9016 25.2053 26.3067 25.6586 25.8534C26.1118 25.4001 26.7068 25.1452 27.33 25.1452C28.6331 25.1452 29.7096 26.1933 29.7096 27.4965C29.7096 28.1197 29.483 28.7146 29.0297 29.1679C28.5765 29.6211 27.9816 29.8761 27.33 29.8761Z" fill="#393D53"/>
</svg>
