<svg width="43" height="42" viewBox="0 0 43 42" fill="none" xmlns="http://www.w3.org/2000/svg">
<g clip-path="url(#clip0_921_559)">
<path d="M42.6731 40.0988C42.6731 38.9091 42.3635 38.4853 41.2552 38.306V15.1303C41.9886 14.7717 42.2005 14.4131 42.2005 13.533V13.256C42.2005 12.001 41.7115 11.5121 40.4729 11.5121C38.5008 11.5121 36.5288 11.5121 34.5404 11.5121H31.8023C31.8023 11.4795 31.8023 11.4469 31.8023 11.4143C31.8023 11.1372 31.8023 10.8602 31.8023 10.6157C31.8023 10.5994 31.8349 10.5505 31.8838 10.5016C32.3076 10.0942 32.5357 9.50744 32.5032 8.92071C32.4706 8.33398 32.1935 7.79614 31.7371 7.43759C30.9711 6.83456 30.2051 6.24783 29.4391 5.6611L26.6848 3.52606C25.3646 2.49929 24.0445 1.48881 22.7243 0.462036C21.942 -0.140991 21.3879 -0.140991 20.6219 0.462036L17.8023 2.64597C15.7488 4.24318 13.6626 5.87298 11.5765 7.48648C11.169 7.81244 10.8757 8.43177 10.8594 9.08369C10.8431 9.60522 11.0061 10.029 11.2994 10.2897C11.6091 10.5668 11.5928 10.8439 11.5765 11.2187C11.5765 11.3165 11.5602 11.4143 11.5602 11.4958H9.34367C7.22492 11.4958 5.04099 11.4958 2.88965 11.4958C2.5148 11.4958 2.18883 11.561 1.92807 11.6751C1.42283 11.9195 1.16206 12.3922 1.19466 13.0767C1.19466 13.1745 1.19466 13.2886 1.19466 13.4027C1.16206 13.9731 1.16206 14.6576 1.89547 15.0162C2.12364 15.114 2.13994 15.1954 2.13994 15.4562C2.13994 21.7961 2.13994 28.1524 2.13994 34.4923V38.306C2.10734 38.306 2.07475 38.306 2.04215 38.3223C1.27615 38.4201 0.787205 38.8439 0.722013 39.4469C0.624225 40.653 0.559033 41.3864 1.42283 41.8264C1.71619 41.9731 2.09105 41.9894 2.4496 41.9894C10.9898 41.9894 19.5299 41.9894 28.0701 41.9894C32.3402 41.9894 36.6266 41.9894 40.8966 41.9894H40.9618C41.1411 41.9894 41.3204 41.9894 41.4997 41.9731C42.1353 41.8916 42.6079 41.4027 42.6731 40.767C42.6894 40.5715 42.6894 40.3922 42.6894 40.2129L42.6731 40.0988ZM39.7232 15.2443V38.2734H31.8349V15.2443H39.7232ZM31.8349 13.7286V12.9952C31.9001 12.9952 31.949 12.9789 32.0142 12.9789C32.8128 12.9789 33.6114 12.9789 34.41 12.9789C36.3984 12.9789 38.4682 12.9789 40.4892 12.9626C40.6848 12.9626 40.7337 12.9952 40.7337 13.0115C40.7663 13.0441 40.7663 13.2071 40.7663 13.3212V13.4027C40.7663 13.5167 40.7663 13.6634 40.7337 13.696C40.7337 13.696 40.6848 13.7449 40.4892 13.7286C39.1201 13.7123 37.7348 13.7123 36.3821 13.7123C35.6487 13.7123 34.9316 13.7123 34.2144 13.7123C33.481 13.7123 32.7639 13.7123 32.0305 13.7123H31.8349V13.7286ZM11.5276 15.2443V38.2734H3.65566V15.2443H11.5276ZM11.5276 13.7286C11.4624 13.7286 11.3972 13.7286 11.3483 13.7286C10.566 13.7286 9.78371 13.7286 9.0177 13.7286C7.01305 13.7286 4.9432 13.7286 2.90595 13.7449C2.71037 13.7449 2.66148 13.7123 2.64518 13.696C2.59629 13.6471 2.61258 13.4516 2.61258 13.3864C2.61258 13.3375 2.61258 13.2886 2.61258 13.256C2.61258 12.9952 2.61258 12.9789 2.80816 12.9789C2.82446 12.9789 2.84076 12.9789 2.87335 12.9789C4.9269 12.9952 7.01305 12.9952 9.034 12.9952C9.71852 12.9952 10.403 12.9952 11.1039 12.9952C11.2505 12.9952 11.3809 12.9952 11.5276 12.9952V13.7286ZM41.19 40.5389C41.1737 40.5389 41.1737 40.5389 41.1574 40.5389C41.1085 40.5552 41.0433 40.5389 40.9781 40.5389C40.9455 40.5389 40.9129 40.5389 40.8803 40.5389H38.9572C26.7988 40.5389 14.6405 40.5389 2.4985 40.5389C2.40071 40.5389 2.27032 40.5226 2.18883 40.5063C2.17254 40.3107 2.17254 40.0825 2.18883 39.8218C2.25403 39.8055 2.31922 39.8055 2.38441 39.8055C3.94902 39.8055 5.51363 39.8055 7.07824 39.8055H24.2889C29.7977 39.8055 35.3064 39.8055 40.8151 39.8055C40.9618 39.8055 41.1085 39.8218 41.19 39.8381C41.2226 40.0499 41.2063 40.2781 41.19 40.5389ZM12.4892 8.61104C13.3367 7.97542 14.1679 7.3072 14.9991 6.67158C15.3413 6.41081 15.6673 6.15004 16.0096 5.88928L17.3949 4.81361C18.7313 3.77053 20.1167 2.69486 21.4857 1.63549C21.665 1.48881 21.7139 1.48881 21.8931 1.63549C25.169 4.19428 27.9397 6.34562 30.7756 8.51326C31.02 8.70883 31.0363 8.90441 30.9874 9.23037C30.9222 9.26297 30.8245 9.27926 30.7756 9.27926C29.4717 9.29556 28.1516 9.29556 26.8803 9.29556H21.6976H20.0189C17.6231 9.29556 15.1458 9.29556 12.7011 9.29556C12.6033 9.29556 12.4729 9.26297 12.3914 9.23037C12.3914 9.19777 12.3751 9.16518 12.3751 9.13258C12.3425 8.85552 12.3262 8.74143 12.4892 8.61104ZM25.6906 32.9766V38.2734H22.4473V32.9766H25.6906ZM27.2063 32.944C28.3472 32.4876 28.7546 31.5587 28.3472 30.3363C28.1516 29.7496 27.63 29.391 26.9618 29.391C26.1306 29.391 25.2994 29.391 24.4519 29.391H16.743C16.0422 29.391 15.6184 29.5051 15.3413 29.7822C15.0643 30.0592 14.9502 30.483 14.9502 31.2001C14.9502 31.4609 14.9502 31.7705 15.048 32.0639C15.2598 32.6832 15.7977 32.8788 16.1562 32.944V38.2897H13.0596V10.7624H30.3192V38.2734H27.2226V32.944H27.2063ZM16.4007 31.1675V31.1186C16.4007 30.8415 16.417 30.8252 16.5963 30.8252C16.6126 30.8252 16.6126 30.8252 16.6289 30.8252C19.97 30.8415 23.36 30.8415 26.7337 30.8252C26.9455 30.8252 26.9455 30.8252 26.9618 31.1023V31.1675C26.9781 31.3794 26.9455 31.4283 26.9292 31.4283C26.9292 31.4283 26.8803 31.4609 26.7011 31.4609C25.4787 31.4446 24.2238 31.4446 23.0177 31.4446C22.105 31.4446 21.176 31.4446 20.2633 31.4446C19.0736 31.4446 17.8349 31.4446 16.6289 31.4609C16.4496 31.4609 16.417 31.4283 16.417 31.4283C16.417 31.4283 16.4007 31.3794 16.4007 31.1675ZM20.9316 32.9766V38.2734H17.6883V32.9766H20.9316Z" fill="#636A86"/>
<path d="M26.7496 19.3028C26.9777 18.439 26.8473 17.5589 26.3747 16.8092C25.9021 16.0595 25.1687 15.5706 24.3049 15.3913C23.3596 15.212 22.5121 15.4402 21.6972 16.0758C21.6809 16.0758 21.6809 16.0595 21.6646 16.0595C20.6867 15.2772 19.5784 15.1142 18.4865 15.5705C17.3456 16.0432 16.6774 16.9559 16.547 18.2108C16.4492 19.2539 16.8893 20.1177 17.2967 20.737C18.3724 22.3994 19.8555 23.6381 21.1756 24.616C21.3549 24.7463 21.5342 24.8115 21.6972 24.8115C21.8928 24.8115 22.1046 24.73 22.2839 24.5508C22.561 24.3063 22.838 24.0455 23.1151 23.801C23.8648 23.1165 24.6471 22.4157 25.3805 21.6823C26.0324 21.0304 26.5051 20.1992 26.7496 19.3028ZM22.0883 20.5577C21.8602 20.7533 21.4853 20.7533 21.2734 20.5414C21.029 20.3133 21.0127 19.971 21.2408 19.6939C21.3875 19.5147 21.5179 19.3354 21.6809 19.1398L21.6972 19.1072C21.7135 19.1235 21.7135 19.1398 21.7298 19.1561C21.8765 19.3517 22.0231 19.531 22.1698 19.7102C22.3654 19.9873 22.3328 20.3459 22.0883 20.5577ZM20.8171 17.5263C20.6215 17.9338 20.377 18.3575 20.0511 18.7976C19.5132 19.5473 19.448 20.3133 19.8555 21.0793C20.2629 21.8453 20.9638 22.2364 21.8276 22.1712C22.6914 22.1061 23.327 21.6334 23.6366 20.8185C23.9137 20.1014 23.7833 19.3843 23.2618 18.6998C23.001 18.3738 22.7728 17.9664 22.561 17.51C22.5447 17.4611 22.5936 17.2818 22.6588 17.2329C23.1314 16.7603 23.9463 16.6788 24.5656 17.0374C25.2338 17.4285 25.5598 18.1945 25.3316 18.8302C25.0546 19.5962 24.7286 20.1829 24.3538 20.6229C23.8159 21.2423 23.1966 21.8127 22.5936 22.3668C22.3165 22.6113 22.0557 22.8558 21.795 23.1165C21.6972 23.198 21.6972 23.198 21.5994 23.1328C20.5237 22.269 19.4155 21.3238 18.6494 20.134C18.4213 19.7754 18.242 19.3517 18.1116 19.042C18.079 18.9442 18.0301 18.8627 17.9975 18.7813C18.0138 17.8686 18.3561 17.2166 18.9917 16.9722C19.6599 16.7114 20.2467 16.8092 20.7356 17.2818C20.7845 17.2981 20.8334 17.4611 20.8171 17.5263Z" fill="#4E5B76"/>
<path d="M17.0524 23.3606C16.6449 23.6866 16.2864 24.0451 15.9604 24.4363C15.7974 24.6319 15.7648 24.8926 15.8626 25.1371C15.9767 25.3979 16.2538 25.5609 16.5471 25.5772H16.5634L16.6123 25.5609C16.6775 25.5609 16.8079 25.5446 16.9057 25.4468L17.1013 25.2675C17.4109 24.9578 17.7532 24.6482 18.0303 24.3059C18.2095 24.094 18.1118 23.6051 17.9162 23.4421C17.7369 23.2791 17.2806 23.1814 17.0524 23.3606Z" fill="#2AA7EE"/>
<path d="M26.473 23.4582C26.3915 23.3767 26.2774 23.3278 26.1796 23.2626C26.1307 23.2463 26.0818 23.2137 26.0329 23.1811L25.8862 23.0996L25.7559 23.2137C25.7233 23.2463 25.6744 23.2789 25.6255 23.3115C25.4951 23.4093 25.3321 23.5071 25.2832 23.6863C25.218 23.9308 25.2669 24.2568 25.4136 24.4523C25.6255 24.7131 25.8536 24.9413 26.0981 25.1532C26.1633 25.2184 26.2285 25.2672 26.2774 25.3324C26.4567 25.4954 26.636 25.5769 26.8315 25.5769C27.0108 25.5769 27.1738 25.5117 27.3205 25.365C27.516 25.1858 27.5649 24.9902 27.5649 24.8598C27.5649 24.6642 27.4834 24.4686 27.3042 24.2894C27.0434 24.0123 26.7663 23.7352 26.473 23.4582Z" fill="#2AA7EE"/>
<path d="M20.9639 13.0277V13.2232C20.9639 13.3862 20.9639 13.5329 20.9639 13.6959C20.9802 14.1196 21.2409 14.3967 21.6647 14.413C21.681 14.413 21.681 14.413 21.6973 14.413C22.121 14.413 22.3981 14.1522 22.4144 13.7285L22.4307 13.5329C22.447 13.1581 22.4633 12.7506 22.3981 12.3758C22.3655 12.1639 22.1862 12.0172 22.0232 11.8868C21.958 11.8379 21.9092 11.8053 21.8766 11.7564L21.6973 11.5771L21.5343 11.7564C21.4854 11.8053 21.4365 11.8379 21.3876 11.8868C21.2572 12.0009 21.1105 12.1313 21.0291 12.3269C20.9476 12.5061 20.9639 12.6854 20.9802 12.8647C20.9639 12.9136 20.9639 12.9788 20.9639 13.0277Z" fill="#2AA7EE"/>
<path d="M16.3676 19.7097C16.3676 19.4163 16.0091 19.0415 15.732 19.0089C15.2757 18.9437 14.803 18.9437 14.3467 19.0089C14.037 19.0577 13.7437 19.4163 13.7111 19.6934C13.6622 19.9867 14.0696 20.3127 14.2815 20.3942C14.4771 20.4594 14.6889 20.4594 14.8682 20.4431C14.9008 20.4431 14.9334 20.4431 14.9823 20.4431H15.0801C15.129 20.4431 15.1942 20.4431 15.2431 20.4594C15.3083 20.4594 15.3898 20.4757 15.455 20.4757C15.569 20.4757 15.6668 20.4594 15.7809 20.4105C15.9439 20.3127 16.3676 20.0356 16.3676 19.7097Z" fill="#2AA7EE"/>
<path d="M22.3984 25.6746C22.3821 25.4301 22.2843 25.2183 22.1213 25.1042C21.9747 24.9901 21.7954 24.9575 21.6161 25.0064C21.339 25.0716 21.1109 25.3649 20.9968 25.6094C20.9153 25.7887 20.9316 25.968 20.9479 26.1472C20.9479 26.2124 20.9642 26.2613 20.9642 26.3102C20.9642 26.3754 20.9642 26.4406 20.9479 26.4895C20.9316 26.6688 20.9153 26.8644 20.9968 27.0436C21.0783 27.2229 21.2249 27.3696 21.3553 27.4837C21.4042 27.5326 21.4531 27.5652 21.502 27.6141L21.665 27.7933L21.8443 27.6304C21.8932 27.5978 21.9421 27.5489 21.991 27.5C22.1539 27.3696 22.3332 27.2392 22.3821 27.011C22.4473 26.6199 22.431 26.2287 22.4147 25.8539L22.3984 25.6746Z" fill="#2AA7EE"/>
<path d="M29.048 18.9932C28.5917 18.928 28.1027 18.928 27.6301 18.9932C27.353 19.0258 26.9782 19.417 27.0108 19.694C27.0434 19.9711 27.3367 20.2482 27.5812 20.3623C27.6953 20.4112 27.8094 20.4275 27.9235 20.4275C28.005 20.4275 28.0701 20.4275 28.1516 20.4112C28.2168 20.4112 28.282 20.3949 28.3309 20.3949H28.4124C28.445 20.3949 28.4939 20.3949 28.5265 20.4112C28.7058 20.4275 28.9176 20.4438 29.1132 20.3623C29.3414 20.2645 29.6674 19.9711 29.6674 19.6777C29.6674 19.4007 29.3251 19.0421 29.048 18.9932Z" fill="#2AA7EE"/>
<path d="M16.8734 15.8636C16.9875 15.9451 17.1179 15.994 17.2646 15.994C17.3623 15.994 17.4764 15.9614 17.5742 15.9125C17.835 15.7821 17.9817 15.5213 17.9817 15.2442C17.9654 14.8205 17.0038 13.8426 16.58 13.8263C16.303 13.81 16.0259 13.973 15.8955 14.2175C15.7651 14.4456 15.7814 14.7064 15.9444 14.9183C16.1889 15.2605 16.5148 15.5865 16.8734 15.8636Z" fill="#2AA7EE"/>
<path d="M26.1628 15.9615C26.2769 15.9615 26.3909 15.9289 26.4561 15.88C26.8636 15.5704 27.1732 15.2607 27.4177 14.9347C27.5644 14.7392 27.5807 14.4947 27.4829 14.2828C27.3688 14.0221 27.0918 13.8591 26.7984 13.8428H26.7821H26.7495C26.6843 13.8428 26.5702 13.8428 26.4724 13.9406L26.2932 14.1198C26.0161 14.3969 25.7227 14.674 25.462 14.9999C25.2827 15.2281 25.462 15.6682 25.6412 15.8148C25.7716 15.88 25.9835 15.9615 26.1628 15.9615Z" fill="#2AA7EE"/>
<path d="M34.3122 22.53C34.8012 22.5463 35.3064 22.5463 35.7953 22.5463C36.3006 22.5463 36.7895 22.5463 37.2785 22.53C38.0771 22.5137 38.6149 21.9433 38.6312 21.0958C38.6312 20.7209 38.6312 20.3298 38.6312 19.9712C38.6312 19.7919 38.6312 19.6289 38.6312 19.4497C38.6312 19.2867 38.6312 19.1237 38.6312 18.9607C38.6312 18.5859 38.6312 18.1947 38.6312 17.8199C38.6149 16.9072 38.0771 16.353 37.1807 16.353C36.268 16.3367 35.339 16.3367 34.41 16.353C33.5299 16.3693 32.9758 16.9072 32.9595 17.7873C32.9432 18.8629 32.9432 19.9875 32.9595 21.1121C32.9758 21.9433 33.4973 22.5137 34.3122 22.53ZM34.41 19.8571C34.41 19.7104 34.41 19.5638 34.41 19.4171C34.41 19.2704 34.41 19.1237 34.41 18.977C34.41 18.6348 34.41 18.2762 34.41 17.9177C34.41 17.8362 34.4263 17.8036 34.4263 17.8036C34.4263 17.8036 34.4589 17.7873 34.5567 17.7873C35.5183 17.8036 36.3006 17.8036 37.0503 17.7873C37.1481 17.7873 37.1807 17.8036 37.1807 17.8036C37.1807 17.8036 37.197 17.8362 37.197 17.9665C37.1807 18.8955 37.1807 19.8734 37.197 20.9165C37.197 21.0143 37.1807 21.0469 37.1807 21.0469C37.1807 21.0469 37.1481 21.0632 37.0666 21.0632C36.2354 21.0469 35.3879 21.0469 34.5404 21.0632C34.4589 21.0632 34.4263 21.0469 34.4263 21.0469C34.4263 21.0469 34.41 21.0143 34.41 20.9165C34.41 20.5742 34.41 20.2157 34.41 19.8571Z" fill="#636A86"/>
<path d="M34.3937 29.8637C34.8827 29.8637 35.3553 29.88 35.8116 29.88C36.2843 29.88 36.7569 29.88 37.2133 29.8637C38.0608 29.8474 38.6149 29.2932 38.6312 28.4457C38.6475 28.0546 38.6312 27.6634 38.6312 27.2886C38.6312 27.1093 38.6312 26.93 38.6312 26.7671C38.6312 26.6041 38.6312 26.4411 38.6312 26.2781C38.6312 25.9033 38.6312 25.5121 38.6312 25.121C38.6149 24.2409 38.0608 23.6867 37.197 23.6704C36.2354 23.6541 35.2901 23.6541 34.3774 23.6704C33.5299 23.6867 32.9758 24.2409 32.9595 25.0884C32.9432 26.1314 32.9432 27.2071 32.9595 28.4132C32.9758 29.2769 33.5299 29.8474 34.3937 29.8637ZM34.41 27.1908C34.41 27.0441 34.41 26.8974 34.41 26.7671C34.41 26.6204 34.41 26.4737 34.41 26.327C34.41 25.9847 34.41 25.6099 34.41 25.2676C34.41 25.1698 34.4263 25.1372 34.4263 25.1372C34.4263 25.1372 34.4589 25.121 34.5404 25.121C35.4531 25.1372 36.3658 25.121 37.0666 25.121C37.1318 25.121 37.1644 25.1372 37.1644 25.1372C37.1644 25.1372 37.1807 25.1698 37.1807 25.235C37.1644 26.4574 37.1644 27.4027 37.1807 28.2828C37.1807 28.3643 37.1644 28.3969 37.1644 28.3969C37.1644 28.3969 37.1318 28.4132 37.0177 28.4132C36.2354 28.4132 35.3879 28.3969 34.5404 28.4132C34.4426 28.4132 34.41 28.3969 34.41 28.3969C34.41 28.3969 34.3937 28.3643 34.3937 28.2339C34.4263 27.8753 34.41 27.5331 34.41 27.1908Z" fill="#636A86"/>
<path d="M37.2137 30.9878C36.3011 30.9715 35.3558 30.9715 34.3942 30.9878C33.5304 31.0041 32.9763 31.5582 32.96 32.4383C32.96 32.8132 32.96 33.2043 32.96 33.5792C32.96 33.7422 32.96 33.9215 32.96 34.0844V35.7142C32.96 35.7468 32.96 35.7794 32.96 35.8283C33.0089 36.6269 33.563 37.1648 34.329 37.1811C34.8016 37.1974 35.2906 37.1974 35.7795 37.1974C36.2685 37.1974 36.7411 37.1974 37.23 37.1811C38.0449 37.1648 38.5991 36.6106 38.6154 35.7794C38.6317 34.6875 38.6317 33.5466 38.6154 32.4057C38.6154 31.5745 38.0449 31.0041 37.2137 30.9878ZM37.1811 33.6444C37.1811 33.7911 37.1811 33.9378 37.1811 34.0844C37.1811 34.2311 37.1811 34.3778 37.1811 34.5245C37.1811 34.8667 37.1811 35.2253 37.1811 35.5839C37.1811 35.6653 37.1648 35.6979 37.1648 35.6979C37.1648 35.6979 37.1323 35.7142 37.0345 35.7142C36.6433 35.7142 36.2359 35.7142 35.7795 35.7142C35.3884 35.7142 34.9646 35.7142 34.492 35.7142C34.4268 35.7142 34.4105 35.7142 34.4105 35.7142C34.4105 35.7142 34.3942 35.6816 34.3942 35.6001C34.4105 34.5571 34.4105 33.5303 34.3942 32.5524C34.3942 32.4872 34.4105 32.4546 34.3942 32.4546C34.3942 32.4546 34.4268 32.4383 34.492 32.4383C35.5025 32.4383 36.2848 32.4383 37.0182 32.4383C37.0997 32.4383 37.1323 32.4546 37.1323 32.4546C37.1323 32.4546 37.1486 32.4872 37.1486 32.585C37.1811 32.9436 37.1811 33.3021 37.1811 33.6444Z" fill="#636A86"/>
<path d="M9.01813 23.6704C8.05655 23.6541 7.09496 23.6541 6.14968 23.6704C5.31848 23.6867 4.76434 24.2409 4.74805 25.1047C4.74805 25.4795 4.74805 25.8707 4.74805 26.2455C4.74805 26.4085 4.74805 26.5878 4.74805 26.7508C4.74805 26.9137 4.74805 27.093 4.74805 27.256C4.74805 27.6471 4.74805 28.0383 4.74805 28.4294C4.76434 29.2932 5.31848 29.8474 6.14968 29.8637C6.62232 29.88 7.09496 29.88 7.5676 29.88C8.04025 29.88 8.52919 29.88 9.00183 29.8637C9.83303 29.8474 10.3872 29.2932 10.4035 28.4783C10.4198 27.3701 10.4198 26.2129 10.4035 25.0558C10.4035 24.2409 9.84933 23.6867 9.01813 23.6704ZM8.96923 26.3433C8.96923 26.49 8.96923 26.6367 8.96923 26.7671C8.96923 26.9137 8.96923 27.0441 8.96923 27.1908C8.96923 27.5331 8.96923 27.8753 8.96923 28.2176C8.96923 28.3317 8.95294 28.3643 8.95294 28.3643C8.95294 28.3643 8.92034 28.3806 8.82255 28.3806C8.4151 28.3806 8.00765 28.3643 7.5839 28.3643C7.17645 28.3643 6.7527 28.3643 6.32895 28.3806C6.23117 28.3806 6.19857 28.3643 6.19857 28.3643C6.19857 28.3643 6.18227 28.3317 6.18227 28.2013C6.19857 27.1908 6.19857 26.1966 6.18227 25.2513C6.18227 25.1372 6.19857 25.121 6.19857 25.121C6.19857 25.121 6.23117 25.1047 6.34525 25.1047C7.29054 25.121 8.07284 25.121 8.78996 25.1047C8.90404 25.1047 8.93664 25.121 8.93664 25.121C8.93664 25.121 8.95294 25.1535 8.95294 25.3002C8.95294 25.6588 8.96923 26.001 8.96923 26.3433Z" fill="#636A86"/>
<path d="M6.11661 22.53C6.62185 22.5463 7.11079 22.5463 7.58343 22.5463C8.08867 22.5463 8.59391 22.5463 9.08285 22.53C9.86515 22.5137 10.403 21.9433 10.4193 21.1447C10.4356 20.7535 10.4193 20.3461 10.4193 19.9549C10.4193 19.7919 10.4193 19.6126 10.4193 19.4497C10.4193 19.2704 10.4193 19.0911 10.4193 18.9118C10.4193 18.5207 10.4193 18.1132 10.4193 17.7221C10.403 16.9072 9.86515 16.3693 9.05025 16.353C8.12127 16.3367 7.17598 16.3367 6.1492 16.353C5.31801 16.3693 4.76387 16.9235 4.74758 17.7384C4.73128 18.7814 4.73128 19.8897 4.74758 21.1121C4.76387 21.9433 5.30171 22.5137 6.11661 22.53ZM6.1981 17.934C6.1981 17.8362 6.2144 17.8036 6.2144 17.8036C6.2144 17.8036 6.24699 17.7873 6.34478 17.7873C7.09449 17.8036 7.90939 17.8036 8.87097 17.7873C8.93617 17.7873 8.95246 17.7873 8.95246 17.7873C8.95246 17.7873 8.96876 17.8199 8.96876 17.9014C8.96876 18.2762 8.96876 18.6348 8.96876 18.9933C8.96876 19.14 8.96876 19.2867 8.96876 19.4497C8.96876 19.5964 8.96876 19.743 8.96876 19.8897C8.96876 20.232 8.96876 20.5905 8.96876 20.9491C8.96876 20.998 8.96876 21.0306 8.96876 21.0469C8.95246 21.0469 8.91987 21.0632 8.87097 21.0632C7.94199 21.0469 7.11079 21.0469 6.34478 21.0632C6.26329 21.0632 6.23069 21.0469 6.23069 21.0469C6.23069 21.0469 6.2144 21.0143 6.2144 20.9165C6.1981 19.9712 6.1981 18.9933 6.1981 17.934Z" fill="#636A86"/>
<path d="M10.4193 34.0844V32.4872C10.4193 32.4546 10.4193 32.422 10.4193 32.3894C10.3867 31.5582 9.84886 31.0041 9.05025 30.9878C8.10497 30.9715 7.12709 30.9715 6.13291 30.9878C5.31801 31.0041 4.76387 31.5745 4.74758 32.3894C4.73128 33.4977 4.73128 34.6386 4.74758 35.7631C4.76387 36.5943 5.3343 37.1648 6.1655 37.1811C6.62185 37.1811 7.09449 37.1974 7.56713 37.1974C8.03978 37.1974 8.51242 37.1974 8.98506 37.1811C9.84886 37.1648 10.403 36.6106 10.4193 35.7305C10.4193 35.3557 10.4193 34.9645 10.4193 34.606C10.4193 34.4267 10.4193 34.2637 10.4193 34.0844ZM8.96876 33.6607C8.96876 33.8074 8.96876 33.954 8.96876 34.0844C8.96876 34.2311 8.96876 34.3778 8.96876 34.5245C8.96876 34.8667 8.96876 35.2253 8.96876 35.5839C8.96876 35.6816 8.95246 35.7142 8.96876 35.7142C8.96876 35.7142 8.93617 35.7305 8.85468 35.7305C8.44723 35.7305 8.03978 35.7305 7.64862 35.7305C7.19228 35.7305 6.75223 35.7305 6.32848 35.7305C6.24699 35.7305 6.23069 35.7142 6.2144 35.7142C6.2144 35.7142 6.1981 35.6816 6.1981 35.6164C6.2144 34.443 6.2144 33.4651 6.1981 32.5687C6.1981 32.4872 6.2144 32.4546 6.2144 32.4546C6.2144 32.4546 6.24699 32.4383 6.36108 32.4383C7.09449 32.4383 7.97458 32.4546 8.85468 32.4383C8.95246 32.4383 8.98506 32.4546 8.98506 32.4546C8.98506 32.4546 9.00136 32.4872 9.00136 32.6176C8.95246 32.9599 8.96876 33.3184 8.96876 33.6607Z" fill="#636A86"/>
<path d="M21.6976 8.39904C23.0177 8.39904 24.0934 7.32337 24.0934 6.00323C24.0934 4.68309 23.0177 3.62372 21.7139 3.60742C21.7139 3.60742 21.7139 3.60742 21.6976 3.60742C20.3937 3.60742 19.3181 4.66679 19.3018 5.97063C19.3018 6.60626 19.5462 7.20928 20.0026 7.68193C20.4589 8.13827 21.0619 8.39904 21.6976 8.39904ZM20.7686 6.00323C20.7686 5.74246 20.8664 5.51429 21.0456 5.31871C21.2249 5.13944 21.4531 5.04165 21.6976 5.04165C21.6976 5.04165 21.6976 5.04165 21.7139 5.04165C22.2028 5.04165 22.6266 5.4654 22.6266 5.97063C22.6266 6.47587 22.2191 6.88332 21.7139 6.88332C21.176 6.91592 20.7849 6.52477 20.7686 6.00323Z" fill="#636A86"/>
</g>
<defs>
<clipPath id="clip0_921_559">
<rect width="42" height="41.9796" fill="white" transform="translate(0.666992 0.00976562)"/>
</clipPath>
</defs>
</svg>
