<svg width="20" height="20" viewBox="0 0 20 20" fill="none" xmlns="http://www.w3.org/2000/svg">
                            <path d="M10.0003 3.125C9.17152 3.125 8.37667 3.45424 7.79062 4.04029C7.20457 4.62634 6.87533 5.4212 6.87533 6.25C6.87533 7.0788 7.20457 7.87366 7.79062 8.45971C8.37667 9.04576 9.17152 9.375 10.0003 9.375C10.8291 9.375 11.624 9.04576 12.21 8.45971C12.7961 7.87366 13.1253 7.0788 13.1253 6.25C13.1253 5.4212 12.7961 4.62634 12.21 4.04029C11.624 3.45424 10.8291 3.125 10.0003 3.125ZM6.66699 11.0417C5.83819 11.0417 5.04333 11.3709 4.45728 11.957C3.87123 12.543 3.54199 13.3379 3.54199 14.1667V15.1567C3.54199 15.785 3.99699 16.32 4.61699 16.4208C8.18199 17.0033 11.8187 17.0033 15.3837 16.4208C15.6837 16.372 15.9566 16.218 16.1536 15.9864C16.3505 15.7548 16.4587 15.4607 16.4587 15.1567V14.1667C16.4587 13.3379 16.1294 12.543 15.5434 11.957C14.9573 11.3709 14.1625 11.0417 13.3337 11.0417H13.0503C12.8962 11.0417 12.7428 11.0667 12.597 11.1133L11.8753 11.3492C10.657 11.7469 9.34369 11.7469 8.12533 11.3492L7.40366 11.1133C7.25754 11.0658 7.10482 11.0416 6.95116 11.0417H6.66699Z"
                                  fill="#4E5B76"/>
                        </svg>