<svg width="42" height="42" viewBox="0 0 42 42" fill="none" xmlns="http://www.w3.org/2000/svg">
<g clip-path="url(#clip0_921_486)">
<path d="M41.9676 37.1065C41.8856 36.1393 41.0332 35.4344 40.066 35.418C39.8529 35.418 39.6397 35.418 39.3774 35.418V34.8114C39.3774 27.254 39.3774 19.6967 39.3774 12.1557C39.3774 10.2377 38.3447 9.18848 36.4266 9.18848C35.6397 9.18848 32.7381 9.18848 31.9512 9.18848C32.1152 9.3852 32.2791 9.58192 32.443 9.79503C32.5742 9.97536 32.5906 10.1885 32.525 10.3852C32.5742 10.418 32.607 10.4508 32.6561 10.5C33.2791 10.5 36.0496 10.5 36.6725 10.5C37.5086 10.5 38.0496 11.0573 38.0496 11.8934C38.0496 12.7131 38.0496 13.5327 38.0496 14.3524C38.0496 21.1885 38.0496 28.0409 38.0496 34.877V35.3852H3.95122V34.9426C3.95122 27.3196 3.95122 19.6967 3.95122 12.0737C3.95122 10.9754 4.42663 10.5 5.52499 10.5C5.96761 10.5 8.19712 10.5 8.63974 10.5C8.63974 10.418 8.63974 10.336 8.65614 10.2541C8.7381 9.877 8.88564 9.53274 9.0004 9.18848C8.45942 9.18848 6.09876 9.18848 5.55778 9.18848C3.70532 9.18848 2.65614 10.2541 2.65614 12.1229C2.65614 19.7131 2.65614 27.3196 2.65614 34.9098V35.4344C2.39384 35.4344 2.18073 35.4344 1.96761 35.4344C0.984007 35.4672 0.147941 36.1721 0.065974 37.1229C0.000400234 37.795 -0.0159932 38.5 0.0823674 39.1721C0.328269 40.9098 1.68892 41.9918 3.5086 41.9918C15.1807 41.9918 26.8693 41.9918 38.5414 41.9918C38.6397 41.9918 38.7381 41.9918 38.8201 41.9918C40.3447 41.9426 41.6725 40.8442 41.9184 39.336C42.0168 38.5983 42.0168 37.8442 41.9676 37.1065ZM26.2463 36.7459C26.0332 37.3524 25.984 37.3852 25.3938 37.3852C22.4922 37.3852 19.607 37.3688 16.7053 37.4016C16.1971 37.4016 15.9184 37.2377 15.7381 36.7459H26.2463ZM40.6725 38.5327C40.6725 39.8442 39.8529 40.6639 38.5578 40.6639C36.0332 40.6639 33.5086 40.6639 30.984 40.6639H20.984C15.1807 40.6639 9.37745 40.6639 3.57417 40.6639C2.09876 40.6639 1.32827 39.8934 1.32827 38.418C1.32827 38.0737 1.31188 37.7295 1.32827 37.4016C1.34466 37.0082 1.59056 36.7786 1.98401 36.7459C2.09876 36.7295 2.19712 36.7459 2.31188 36.7459C6.09876 36.7459 9.86925 36.7459 13.6561 36.7295C13.984 36.7295 14.1807 36.8278 14.3447 37.1065C14.5578 37.4836 14.8529 37.8278 15.066 38.2049C15.2791 38.5819 15.5742 38.7131 15.9676 38.6967C16.9512 38.6967 17.9348 38.7131 18.9184 38.7131C21.2791 38.7131 23.6397 38.6967 26.0004 38.7131C26.4102 38.7131 26.7053 38.5819 26.9184 38.2377C27.1971 37.8114 27.4594 37.3852 27.7709 36.9754C27.8529 36.8606 28.0496 36.7459 28.1807 36.7459C32.0824 36.7295 35.984 36.7295 39.902 36.7295C40.443 36.7295 40.6725 36.9754 40.6725 37.5C40.6889 37.8442 40.6725 38.1885 40.6725 38.5327Z" fill="#636A86"/>
<path d="M35.9341 11.8115C35.7373 11.8115 33.9013 11.8115 33.7045 11.8115C33.7701 12.2541 33.7373 12.7132 33.7209 13.1558H35.4095V32.7787H6.60619V13.123C6.73734 13.123 8.50783 13.123 8.63898 13.123C8.55701 12.6804 8.49143 12.2541 8.44225 11.8115C8.21275 11.8115 6.34389 11.8115 6.11439 11.8115C5.49143 11.8115 5.27832 12.041 5.27832 12.6476C5.27832 19.5164 5.27832 26.3853 5.27832 33.2541C5.27832 33.8771 5.50783 34.1066 6.11439 34.1066C16.0652 34.1066 25.9996 34.1066 35.9504 34.1066C36.5406 34.1066 36.7701 33.8771 36.7701 33.2869C36.7701 26.4017 36.7701 19.5164 36.7701 12.6312C36.7373 12.041 36.5078 11.8115 35.9341 11.8115Z" fill="#636A86"/>
<path d="M17.0324 17.0571V22.9588H16.5898C14.639 22.9588 12.6882 22.9588 10.7374 22.9588C10.0652 22.9588 9.85211 23.1719 9.85211 23.844C9.85211 24.7784 9.85211 25.7293 9.85211 26.6637C9.85211 26.8932 9.81932 27.0243 9.58981 27.1391C8.75375 27.5817 8.3767 28.467 8.60621 29.3522C8.83571 30.2211 9.58981 30.8276 10.4915 30.8276C11.4095 30.8276 12.18 30.2374 12.4095 29.3358C12.639 28.4506 12.2619 27.5653 11.4259 27.1227C11.2292 27.0079 11.1636 26.9096 11.1636 26.6801C11.18 25.926 11.1636 25.1719 11.1636 24.4342C11.1636 24.4014 11.18 24.3522 11.1964 24.2538H11.6226C13.5734 24.2538 15.5242 24.2538 17.4751 24.2538C18.1636 24.2538 18.3767 24.0407 18.3767 23.3522C18.3767 21.6637 18.3767 18.7456 18.3767 17.0407C17.9341 17.0735 17.4915 17.0079 17.0324 17.0571ZM10.5242 29.5161C10.1636 29.5325 9.8685 29.2374 9.85211 28.8768C9.83571 28.5161 10.1308 28.2211 10.4915 28.2047C10.8521 28.1883 11.1472 28.4834 11.1636 28.844C11.18 29.1883 10.8849 29.4997 10.5242 29.5161Z" fill="#2AA7EE"/>
<path d="M33.689 11.7784C33.607 11.7293 33.5414 11.6473 33.5087 11.4997C33.4431 11.2374 33.3283 10.9752 33.2136 10.6965C33.1972 10.6637 33.1644 10.6473 33.148 10.6145C32.7546 10.0735 32.2791 9.5981 31.8365 9.08991C31.5906 9.02433 31.3611 8.90958 31.1316 8.71286C31.0169 8.6145 30.8857 8.48335 30.8693 8.3522C30.4759 6.53253 29.2136 5.33581 27.3775 5.12269C27.0005 5.07351 26.8693 4.94237 26.7382 4.6145C25.4267 1.15548 21.6398 -0.762552 18.1152 0.319415C15.2792 1.18827 13.5906 3.12269 13.0496 6.04073C12.9841 6.40138 12.8693 6.54892 12.4923 6.63089C11.066 6.90958 9.96768 7.69646 9.18079 8.90958C9.09882 9.02433 9.03325 9.1063 8.93489 9.15548C8.80374 9.68007 8.54145 10.1719 8.42669 10.7129C8.42669 10.7293 8.42669 10.7456 8.4103 10.762C8.39391 10.926 8.36112 11.1063 8.34473 11.2702C8.37751 11.3522 8.39391 11.4342 8.39391 11.5161C8.44309 12.1555 8.59063 12.7948 8.68899 13.4342C8.70538 13.5325 8.70538 13.6309 8.68899 13.7293C9.49227 15.6801 10.9841 16.8112 13.1152 17.0571C13.9185 17.1391 29.1644 17.1391 29.9185 17.0407C31.9349 16.762 33.3119 15.3522 33.6398 13.3522C33.6398 13.3194 33.6562 13.2702 33.689 13.2047H33.7054C33.7054 13.0407 33.7218 12.8768 33.7218 12.7129C33.7218 12.467 33.7546 11.9915 33.689 11.7784ZM32.148 13.8276C31.7054 15.0243 30.6726 15.7456 29.3283 15.7456C26.689 15.762 24.0496 15.7456 21.4267 15.7456C18.8201 15.7456 16.2136 15.762 13.607 15.7456C11.5906 15.7293 9.96768 14.2866 9.6726 12.3194C9.34473 10.0243 11.066 7.94237 13.3611 7.81122C14.0824 7.76204 14.23 7.6145 14.2628 6.89319C14.3775 4.00794 16.5578 1.71286 19.5414 1.3522C22.1972 1.04073 24.9021 2.87679 25.6562 5.53253C25.689 5.66368 25.7218 5.79482 25.7546 5.92597C25.8693 6.3522 26.148 6.51614 26.5906 6.46696C28.2628 6.27023 29.5414 7.3522 29.5906 9.02433C29.607 9.46696 29.8365 9.66368 30.23 9.79482C31.9841 10.3686 32.8037 12.0899 32.148 13.8276Z" fill="#4E5B76"/>
<path d="M32.4755 27.1722C32.2132 27.0247 32.1476 26.8771 32.1476 26.6148C32.164 25.6804 32.1476 24.7624 32.1476 23.828C32.1476 23.1886 31.9345 22.9591 31.2952 22.9591C29.3444 22.9591 27.3935 22.9591 25.4427 22.9591H24.9673V17.0575C24.5247 17.0411 24.0821 17.0739 23.623 17.0575C23.623 18.6968 23.623 21.7296 23.623 23.3689C23.623 24.0575 23.8362 24.2706 24.5247 24.2706C26.4591 24.2706 28.4099 24.2706 30.3444 24.2706H30.8362C30.8362 25.1558 30.8526 26.0083 30.8198 26.8771C30.8198 26.9755 30.6394 27.0903 30.5247 27.1558C29.7378 27.6148 29.3608 28.5329 29.6067 29.4017C29.8526 30.2542 30.623 30.8444 31.5247 30.828C32.4099 30.8116 33.1804 30.2214 33.3935 29.3362C33.623 28.5001 33.2624 27.5821 32.4755 27.1722ZM31.4919 29.5165C31.1312 29.5165 30.8526 29.205 30.8526 28.8607C30.8526 28.5001 31.164 28.2214 31.5083 28.2214C31.8689 28.2214 32.1476 28.5329 32.1476 28.8771C32.1476 29.2214 31.8362 29.5165 31.4919 29.5165Z" fill="#2AA7EE"/>
<path d="M22.0001 27.1886C21.7378 27.0411 21.6395 26.8935 21.6558 26.5985C21.6722 23.8444 21.6722 19.8116 21.6558 17.0575C21.2132 17.0411 20.787 17.0739 20.3444 17.0575C20.3444 19.828 20.3444 23.828 20.3444 26.5985C20.3444 26.8607 20.2952 27.0247 20.0165 27.1722C19.2296 27.5821 18.869 28.5165 19.0985 29.3689C19.328 30.2214 20.0821 30.8116 20.9673 30.828C21.869 30.8444 22.6558 30.2542 22.8854 29.4017C23.1477 28.5329 22.787 27.6148 22.0001 27.1886ZM20.9837 29.5165C20.6231 29.5001 20.3444 29.205 20.3444 28.8444C20.3608 28.4837 20.6558 28.205 21.0165 28.205C21.3772 28.2214 21.6558 28.5165 21.6558 28.8771C21.6395 29.2214 21.3444 29.5165 20.9837 29.5165Z" fill="#2AA7EE"/>
</g>
<defs>
<clipPath id="clip0_921_486">
<rect width="42" height="41.9508" fill="white" transform="translate(0 0.0244141)"/>
</clipPath>
</defs>
</svg>
