<svg xmlns="http://www.w3.org/2000/svg"
                                 width="33px" height="35px" viewBox="0 0 33 35" version="1.1">
                                <g>
                                    <path style=" stroke:none;fill-rule:nonzero;fill:var(--color-black);fill-opacity:1;"
                                          d="M 18.863281 0.90625 C 18.214844 0.328125 17.375 0.0078125 16.5 0.0078125 C 15.628906 0.0078125 14.789062 0.328125 14.136719 0.90625 L 1.175781 12.4375 C 0.804688 12.765625 0.507812 13.164062 0.308594 13.613281 C 0.105469 14.0625 0 14.546875 0 15.039062 L 0 31.5 C 0 32.429688 0.371094 33.320312 1.035156 33.976562 C 1.699219 34.632812 2.597656 35 3.535156 35 L 8.25 35 C 9.1875 35 10.085938 34.632812 10.75 33.976562 C 11.414062 33.320312 11.785156 32.429688 11.785156 31.5 L 11.785156 22.167969 C 11.785156 21.859375 11.910156 21.5625 12.132812 21.34375 C 12.351562 21.125 12.652344 21 12.964844 21 L 20.035156 21 C 20.347656 21 20.648438 21.125 20.867188 21.34375 C 21.089844 21.5625 21.214844 21.859375 21.214844 22.167969 L 21.214844 31.5 C 21.214844 32.429688 21.585938 33.320312 22.25 33.976562 C 22.914062 34.632812 23.8125 35 24.75 35 L 29.464844 35 C 30.402344 35 31.300781 34.632812 31.964844 33.976562 C 32.628906 33.320312 33 32.429688 33 31.5 L 33 15.039062 C 33 14.546875 32.894531 14.0625 32.695312 13.613281 C 32.492188 13.167969 32.195312 12.765625 31.828125 12.4375 Z M 18.863281 0.90625 "/>
                                </g>
                            </svg>