<svg style="min-width: 37px; min-height: 49px;" width="37" height="49" viewBox="0 0 37 49" fill="none" xmlns="http://www.w3.org/2000/svg">
                        <path d="M18.4327 37.4854C14.8297 37.4854 11.3077 36.4048 8.31193 34.3804C5.31619 32.356 2.98129 29.4785 1.6025 26.112C0.223713 22.7455 -0.13704 19.0411 0.56586 15.4672C1.26876 11.8933 3.00374 8.61054 5.55141 6.03392C8.09908 3.4573 11.345 1.7026 14.8787 0.991712C18.4124 0.280825 22.0752 0.645678 25.4039 2.04013C28.7326 3.43459 31.5777 5.79602 33.5794 8.8258C35.5811 11.8556 36.6495 15.4176 36.6495 19.0615C36.6449 23.9464 34.7242 28.6299 31.3089 32.0841C27.8935 35.5382 23.2627 37.4808 18.4327 37.4854ZM18.4327 4.98705C15.6803 4.98705 12.9897 5.8125 10.7011 7.35903C8.41261 8.90555 6.62892 11.1037 5.57562 13.6755C4.52233 16.2472 4.24674 19.0771 4.7837 21.8073C5.32067 24.5375 6.64607 27.0453 8.59231 29.0137C10.5385 30.982 13.0182 32.3225 15.7177 32.8656C18.4172 33.4086 21.2153 33.1299 23.7582 32.0647C26.3011 30.9994 28.4745 29.1954 30.0037 26.8809C31.5328 24.5664 32.349 21.8452 32.349 19.0615C32.3444 15.3302 30.8768 11.7529 28.268 9.11445C25.6591 6.47597 22.1221 4.99165 18.4327 4.98705Z" fill="#31374F"/>
                        <path d="M30.6289 39.5029H5.66895V43.3825H30.6289V39.5029Z" fill="#31374F"/>
                        <path d="M35.4284 45.1577H0.542969V48.7242H35.4284V45.1577Z" fill="#31374F"/>
                    </svg>