<svg width="70" height="79" viewBox="0 0 70 79" fill="none" xmlns="http://www.w3.org/2000/svg">
<path d="M60.707 6.12025C60.707 3.02259 58.6419 0.921875 55.5443 0.921875C47.1058 0.921875 42.762 0.921875 35.2492 0.921875C25.2085 0.921875 15.2035 0.921875 5.16277 0.921875C2.06511 0.921875 0 3.02259 0 6.12025C0 25.4183 0 44.7164 0 64.0145C0 64.3705 0 64.7622 0.0712106 65.1182C0.534079 67.6462 2.52798 69.2128 5.30519 69.2128C12.2838 69.2128 19.2625 69.2128 26.2767 69.2128C27.4873 69.2128 28.6623 69.2128 29.8728 69.2128C32.5076 69.2128 35.1068 69.2128 37.7416 69.2128C37.8484 69.2128 37.9552 69.2128 38.0621 69.2128C43.8301 69.2128 49.6338 69.2128 55.4018 69.2128C58.6775 69.2128 60.707 67.1833 60.707 63.9432C60.707 44.6808 60.707 25.3827 60.707 6.12025ZM2.99084 5.51496C3.02645 4.69604 3.70295 4.09075 4.52187 3.94832C4.77111 3.91272 5.05595 3.87711 5.34079 3.87711C12.6043 3.87711 19.8678 3.87711 27.0956 3.87711C36.4954 3.87711 45.9308 3.87711 55.3306 3.91272C55.9359 3.91272 56.5768 4.12635 57.0753 4.4468C57.3957 4.66043 57.6806 5.23012 57.6806 5.62177C57.7518 7.65128 57.7162 9.68078 57.7162 11.7815H38.7742H26.9888H2.99084C2.99084 9.68078 2.95524 7.58006 2.99084 5.51496ZM57.7518 15.7337C57.7518 31.7205 57.7518 47.7072 57.7518 63.694C57.7518 65.6523 57.1109 66.2932 55.1526 66.2932C49.4557 66.2932 43.7589 66.2932 38.0621 66.2932C34.1455 66.2932 30.1933 66.2932 26.2767 66.2932C19.3693 66.2932 12.4619 66.2932 5.59003 66.2932C3.63174 66.2932 2.99084 65.6523 2.99084 63.694C2.99084 47.7428 2.99084 31.7561 2.99084 15.8049V14.8792H26.882H38.6673H57.7874V15.7337H57.7518Z" fill="#636A86"/>
<path d="M29.9081 51.4812C30.8694 51.4812 31.4035 51.054 31.3679 50.3063C31.3679 49.5941 30.8338 49.1669 29.8725 49.1669C29.4808 49.1669 29.1247 49.1669 28.6975 49.1669C28.6975 48.8464 28.6975 48.6328 28.6975 48.3836C28.6975 43.0428 28.6975 37.7376 28.6975 32.3968C28.6975 31.293 28.3058 30.9014 27.2021 30.9014C25.5286 30.9014 23.8908 30.9014 22.2173 30.9014C20.9355 30.9014 20.6151 31.2574 20.6151 32.5036C20.6151 37.8088 20.6151 43.114 20.6151 48.4192C20.6151 48.6328 20.6151 48.882 20.6151 49.0957C19.6181 49.0957 18.6568 49.0957 17.6954 49.0957C17.6954 48.8464 17.6954 48.5972 17.6954 48.3836C17.6954 45.4995 17.6954 42.6511 17.6954 39.7671C17.6954 38.6989 17.2682 38.2717 16.2356 38.2717C14.5266 38.2717 12.8175 38.2717 11.0729 38.2717C10.0047 38.2717 9.61304 38.6989 9.61304 39.7671C9.61304 42.6511 9.61304 45.5707 9.61304 48.4548C9.61304 48.6684 9.61304 48.882 9.61304 49.1313C9.18578 49.1669 8.82972 49.1313 8.47367 49.2025C7.9752 49.2737 7.58354 49.5941 7.58354 50.057C7.54793 50.4487 7.69036 50.9115 7.93959 51.1964C8.15322 51.4456 8.61609 51.4812 9.00775 51.5168C10.966 51.5524 12.8887 51.5168 14.847 51.5168C19.8674 51.4812 24.8877 51.4812 29.9081 51.4812ZM23.0006 33.2513C24.14 33.2513 25.2082 33.2513 26.3475 33.2513C26.3475 38.5565 26.3475 43.8261 26.3475 49.1313C25.2438 49.1313 24.14 49.1313 23.0006 49.1313C23.0006 43.8617 23.0006 38.5921 23.0006 33.2513ZM11.9986 40.6572C13.1024 40.6572 14.2061 40.6572 15.3455 40.6572C15.3455 43.47 15.3455 46.2829 15.3455 49.1313C14.2417 49.1313 13.138 49.1313 11.9986 49.1313C11.9986 46.2829 11.9986 43.5056 11.9986 40.6572Z" fill="#2AA7EE"/>
<path d="M33.1133 27.9104C33.1133 33.3936 37.4927 37.7731 42.9759 37.8087C48.4236 37.8087 52.8742 33.4292 52.9098 27.9816C52.9454 22.534 48.5304 18.0833 43.0828 18.0477C37.5995 17.9765 33.1133 22.4272 33.1133 27.9104ZM44.2577 25.7741C44.3646 24.1362 44.2933 22.4984 44.2933 20.8249C46.0736 20.7893 48.5304 22.5696 49.4917 24.5279C50.7023 26.949 50.5243 30.0467 48.9576 32.0406C47.7827 30.8656 46.6433 29.6194 45.3971 28.5157C44.5426 27.768 44.1865 26.9134 44.2577 25.7741ZM41.7298 20.7893C41.7298 23.0325 41.7654 25.24 41.7298 27.4475C41.7298 28.1596 41.9434 28.6937 42.4775 29.1922C44.0441 30.7232 45.6107 32.2898 47.1418 33.8565C45.5039 35.4587 41.9434 35.6723 39.5222 34.3549C36.6382 32.7527 35.1784 29.477 35.8905 26.3081C36.5314 23.4241 39.1306 20.9674 41.7298 20.7893Z" fill="#393D53"/>
<path d="M50.3817 57.249C50.2393 57.249 50.0969 57.249 49.9544 57.249C44.2932 57.249 38.6676 57.249 33.0063 57.249C27.2739 57.249 21.577 57.249 15.8446 57.249C15.6309 57.249 15.4173 57.249 15.2037 57.249C14.7052 57.3202 14.3492 57.6763 14.3135 58.1748C14.2779 58.6376 14.5628 59.1005 14.99 59.2429C15.2037 59.3141 15.4529 59.3141 15.6665 59.3141C27.2027 59.3141 38.7744 59.3141 50.3105 59.3141C51.165 59.3141 51.6635 58.9225 51.6635 58.246C51.7347 57.6407 51.2362 57.2846 50.3817 57.249Z" fill="#636A86"/>
<path d="M9.04409 56.8579C8.22517 56.8223 7.58427 57.4276 7.51306 58.2465C7.47746 59.0655 8.15396 59.7776 8.97288 59.7776C9.7562 59.7776 10.4327 59.1367 10.4683 58.3534C10.4683 57.57 9.82741 56.8935 9.04409 56.8579Z" fill="#636A86"/>
<path d="M13.3879 9.46749C14.2068 9.46749 14.8477 8.82659 14.8833 8.04327C14.8833 7.25996 14.2424 6.54785 13.4591 6.54785C12.6758 6.54785 11.9637 7.18875 11.9281 7.97206C11.8925 8.79098 12.569 9.46749 13.3879 9.46749Z" fill="#636A86"/>
<path d="M7.7621 9.46749C8.58102 9.46749 9.25752 8.75538 9.25752 7.97206C9.22192 7.18875 8.54542 6.54785 7.7621 6.54785C6.97879 6.54785 6.33789 7.22435 6.33789 8.04327C6.33789 8.82659 6.94318 9.46749 7.7621 9.46749Z" fill="#636A86"/>
<path d="M19.2273 9.46704C20.0106 9.46704 20.6515 8.82614 20.6515 8.00722C20.6515 7.1883 20.0106 6.58301 19.1917 6.58301C18.3728 6.58301 17.7319 7.2239 17.6963 8.00722C17.6963 8.79054 18.4084 9.46704 19.2273 9.46704Z" fill="#636A86"/>
<path d="M69.9644 15.0216C69.9644 11.924 67.8993 9.82324 64.8016 9.82324C62.238 9.82324 60.0661 9.82324 58.0366 9.82324C57.8942 10.8202 57.7874 11.8171 57.6806 12.7785C59.9949 12.7785 62.2736 12.7785 64.588 12.7785C65.1933 12.7785 65.8342 12.9921 66.3326 13.3126C66.6531 13.5262 66.9379 14.0959 66.9379 14.4875C67.0091 16.517 66.9735 18.5465 66.9735 20.6473H57.4669C57.5025 21.6798 57.5381 22.6768 57.5737 23.7093H67.0091V24.5638C67.0091 40.5506 67.0091 56.5374 67.0091 72.5242C67.0091 74.4825 66.3683 75.1234 64.41 75.1234C58.7131 75.1234 53.0163 75.1234 47.3194 75.1234C43.4028 75.1234 39.4507 75.1234 35.5341 75.1234C28.6266 75.1234 21.7192 75.1234 14.8474 75.1234C12.8891 75.1234 12.2482 74.4825 12.2482 72.5242V69.1417C11.2513 69.1061 10.2899 69.0704 9.29297 69.0704C9.29297 70.3522 9.29297 71.5984 9.29297 72.8802C9.29297 73.2363 9.29297 73.6279 9.36418 73.984C9.82705 76.512 11.8209 78.0786 14.5982 78.0786C21.5768 78.0786 28.5554 78.0786 35.5697 78.0786C36.7803 78.0786 37.9552 78.0786 39.1658 78.0786C41.8006 78.0786 44.3998 78.0786 47.0346 78.0786C47.1414 78.0786 47.2482 78.0786 47.355 78.0786C53.1231 78.0786 58.9267 78.0786 64.6948 78.0786C67.9705 78.0786 70 76.0491 70 72.809C69.9644 53.5821 69.9644 34.2841 69.9644 15.0216Z" fill="#636A86"/>
</svg>
