<svg width="57" height="80" viewBox="0 0 57 80" fill="none" xmlns="http://www.w3.org/2000/svg">
<path d="M8.20767 71.0615C8.20767 70.1224 8.20767 69.2146 8.20767 68.2128C7.67549 68.2128 7.14331 68.2128 6.64244 68.2128C5.64069 68.2128 5.10851 67.7746 5.10851 67.0232C5.10851 66.2719 5.64069 65.8337 6.61113 65.8337C11.3694 65.8337 16.159 65.8337 20.9174 65.8337C29.9331 65.8337 38.9801 65.8337 47.9959 65.8337C48.3089 65.8337 48.622 65.8337 48.935 65.865C49.4985 65.9589 49.8115 66.3032 49.8741 66.8667C49.9368 67.4615 49.7176 67.8998 49.1228 68.0876C48.7785 68.1815 48.4028 68.1815 48.0585 68.1815C38.5419 68.1815 29.0253 68.1815 19.5086 68.1815C19.1643 68.1815 18.8512 68.1815 18.4756 68.1815C18.4756 69.152 18.4756 70.0598 18.4756 71.0615C18.726 71.0928 19.0078 71.1241 19.2895 71.1241C30.4966 71.1241 41.7349 71.1241 52.942 71.1241C53.9751 71.1241 54.069 71.0302 54.069 70.0285C54.069 68.025 54.069 66.0215 54.069 64.018C54.069 63.0789 54.4759 62.578 55.2272 62.578C55.9473 62.578 56.4168 63.1102 56.4168 64.018C56.4168 66.178 56.4481 68.338 56.4168 70.4981C56.3855 72.2511 55.2585 73.4094 53.4742 73.5346C53.1924 73.5659 52.9107 73.5346 52.629 73.5346C41.6097 73.5346 30.5592 73.5346 19.5399 73.5346C19.1956 73.5346 18.8826 73.5346 18.4443 73.5346C18.4443 75.0372 18.4443 76.4772 18.4443 77.8859C18.4443 78.1677 18.4443 78.4494 18.4443 78.7312C18.3817 79.8581 17.4425 80.3277 16.5347 79.7016C15.5956 79.0755 14.719 78.3868 13.8112 77.7294C13.4982 77.479 13.2477 77.4477 12.9347 77.7294C12.1521 78.3242 11.3381 78.919 10.5555 79.4825C10.0546 79.8581 9.55377 80.2025 8.92768 79.8581C8.33289 79.5451 8.30158 78.9816 8.30158 78.3868C8.30158 76.7903 8.30158 75.2251 8.30158 73.5659C7.7694 73.5033 7.26853 73.472 6.79896 73.3781C3.0424 72.5642 0.569336 69.4963 0.569336 65.6458C0.569336 53.6249 0.569336 41.6039 0.569336 29.5829C0.569336 22.2263 0.569336 14.901 0.569336 7.57572C0.569336 4.00699 2.88588 1.00175 6.23548 0.125219C6.61113 0.0313046 7.01809 0 7.39375 0C22.7956 0 38.1662 0 53.5681 0C55.1333 0 56.1664 0.87653 56.3855 2.44176C56.4168 2.7235 56.4168 3.00525 56.4168 3.28699C56.4168 21.3185 56.4168 39.3499 56.4168 57.3501C56.4168 57.5692 56.4481 57.8197 56.3855 58.0388C56.2916 58.7275 55.8846 59.1032 55.1959 59.1345C54.9455 59.1345 54.6638 59.1345 54.4133 59.1345C39.1367 59.1345 23.8287 59.1345 8.55202 59.1345C5.60938 59.1345 3.38675 60.8562 3.0424 63.611C2.88588 64.8945 2.94849 66.3032 3.29284 67.5554C3.85632 69.7467 5.98504 71.1241 8.20767 71.0615ZM54.069 56.8179C54.069 56.4736 54.069 56.2544 54.069 56.0353C54.069 38.4734 54.069 20.8802 54.069 3.31829C54.069 2.34785 53.9438 2.22263 53.0046 2.22263C38.1662 2.19132 23.3278 2.19132 8.48941 2.19132C5.20242 2.19132 2.91718 4.47656 2.91718 7.76355C2.91718 24.5428 2.91718 41.3534 2.91718 58.1327C2.91718 58.3519 2.94849 58.571 2.97979 58.9153C4.92068 57.131 7.17462 56.7866 9.58507 56.7866C24.0165 56.8179 38.4793 56.8179 52.942 56.8179C53.2864 56.8179 53.5994 56.8179 54.069 56.8179ZM16.0338 68.2754C14.1869 68.2754 12.4025 68.2754 10.6181 68.2754C10.6181 70.9989 10.6181 73.6598 10.6181 76.4459C11.2442 75.9764 11.8077 75.6007 12.3086 75.1937C12.966 74.6616 13.6234 74.6616 14.2808 75.1937C14.8129 75.6007 15.3764 75.9764 16.0025 76.4459C16.0338 73.6285 16.0338 70.9676 16.0338 68.2754Z" fill="#636A86"/>
<path d="M21.8255 63.6106C17.9438 63.6106 14.062 63.6106 10.1802 63.6106C9.92978 63.6106 9.64804 63.6106 9.3976 63.5793C8.80281 63.4854 8.45846 63.1097 8.42716 62.5149C8.39585 61.9201 8.67759 61.5132 9.24108 61.3254C9.46021 61.2627 9.71065 61.2314 9.92978 61.2314C17.8185 61.2314 25.7386 61.2314 33.6274 61.2314C33.8778 61.2314 34.1596 61.2314 34.41 61.3254C34.9735 61.5132 35.2239 61.9515 35.1926 62.5462C35.13 63.1097 34.817 63.4541 34.2848 63.548C34.003 63.6106 33.7213 63.5793 33.4396 63.5793C29.5578 63.6106 25.676 63.6106 21.8255 63.6106Z" fill="#636A86"/>
<path d="M44.0831 63.6115C42.6431 63.6115 41.2031 63.6115 39.7944 63.6115C38.9179 63.6115 38.417 63.2045 38.417 62.4845C38.417 61.7645 38.8866 61.295 39.7631 61.295C42.7057 61.2637 45.6484 61.2637 48.591 61.295C49.4675 61.295 49.9371 61.7645 49.9371 62.4845C49.9371 63.2045 49.4675 63.6115 48.5597 63.6428C47.0571 63.6115 45.5858 63.6115 44.0831 63.6115Z" fill="#636A86"/>
<path d="M22.9523 11.1132C21.1366 8.98444 18.7262 7.92009 15.8461 8.20183C11.6513 8.64009 8.55216 12.021 8.42694 16.1532C8.30172 20.2541 11.2131 23.7602 15.314 24.4802C19.9784 25.3255 24.5801 21.6628 24.8306 16.9045C24.8932 15.7149 25.3001 15.1515 26.0828 15.1828C26.8654 15.2141 27.241 15.8089 27.2097 16.9984C27.0532 22.0072 22.8897 26.3585 17.787 26.8907C12.4652 27.4542 7.58172 24.0107 6.36083 18.8454C5.26517 14.1497 7.36258 9.3914 11.5887 7.10617C15.7522 4.82093 20.8862 5.60354 24.2358 9.04705C24.3923 9.20358 24.5488 9.3914 24.8619 9.73575C25.1749 9.3601 25.3941 8.98444 25.7071 8.6714C26.3332 8.0453 26.9906 8.0453 27.4915 8.54618C27.9923 9.04705 27.961 9.73575 27.3349 10.3305C24.5488 13.1167 21.7627 15.9028 18.9766 18.6889C18.3818 19.2837 17.8183 19.8785 17.1922 20.4419C16.5661 21.0367 15.9401 21.0367 15.3453 20.4106C14.0618 19.1585 12.7783 17.875 11.5261 16.5915C10.9313 15.9654 10.9 15.308 11.4322 14.8071C11.9331 14.3062 12.6218 14.3688 13.2166 14.9636C14.2183 15.9654 15.1887 16.9671 16.1279 17.9063C18.4131 15.6523 20.6357 13.4297 22.9523 11.1132Z" fill="#2AA7EE"/>
<path d="M40.3885 26.953C34.5346 26.9216 29.8389 22.1946 29.8389 16.3094C29.8702 10.518 34.6285 5.79102 40.4198 5.79102C46.2738 5.79102 51.0008 10.5493 50.9695 16.4033C51.0008 22.2573 46.2425 26.953 40.3885 26.953ZM48.653 16.3407C48.653 11.8328 44.959 8.13886 40.4198 8.13886C35.912 8.13886 32.218 11.8641 32.218 16.372C32.218 20.9112 35.912 24.6051 40.4824 24.6051C45.0216 24.5738 48.653 20.8799 48.653 16.3407Z" fill="#393D53"/>
<path d="M42.0792 16.5916C43.1123 17.6247 44.0514 18.5325 44.9905 19.4717C45.1471 19.6282 45.3349 19.7847 45.4914 19.9725C45.9297 20.536 45.9297 21.1308 45.4601 21.6004C44.9905 22.0699 44.3018 22.0699 43.7697 21.5691C42.9244 20.7864 42.1418 19.9412 41.3279 19.1273C41.0462 18.8456 40.7957 18.5638 40.4514 18.1882C39.5122 19.1586 38.6357 20.0351 37.7592 20.9117C37.5714 21.1308 37.3522 21.3186 37.1644 21.5065C36.6009 22.0386 35.8809 22.0699 35.4113 21.6004C34.9105 21.1308 34.9418 20.4421 35.4739 19.8473C36.3192 18.9708 37.1957 18.0942 38.0722 17.249C38.2914 17.0612 38.5105 16.9047 38.8235 16.6542C37.8218 15.6525 36.914 14.7447 36.0061 13.8681C35.8183 13.6803 35.6305 13.4925 35.4426 13.3046C34.9105 12.7099 34.8792 12.0525 35.3487 11.5516C35.8183 11.082 36.5383 11.082 37.1018 11.6142C38.1974 12.6785 39.2305 13.7429 40.3888 14.9012C41.2966 13.9933 42.1731 13.1168 43.0497 12.2403C43.2375 12.0525 43.4253 11.8646 43.6131 11.6768C44.2392 11.082 44.8966 11.0507 45.3975 11.5203C45.8984 12.0211 45.8984 12.7099 45.2723 13.3046C44.3019 14.4316 43.2375 15.4647 42.0792 16.5916Z" fill="#393D53"/>
</svg>
