<svg width="27" height="36" viewBox="0 0 27 36" fill="none" xmlns="http://www.w3.org/2000/svg">
                        <path d="M13.18 26.9256C10.5732 26.9256 8.025 26.1438 5.85757 24.6791C3.69013 23.2144 2.00083 21.1326 1.00327 18.6969C0.00571067 16.2612 -0.255296 13.581 0.253255 10.9953C0.761806 8.40962 2.01707 6.0345 3.86032 4.1703C5.70357 2.30611 8.05201 1.03658 10.6087 0.522246C13.1653 0.00791601 15.8154 0.271889 18.2237 1.28078C20.632 2.28968 22.6904 3.99818 24.1387 6.19024C25.5869 8.3823 26.3599 10.9595 26.3599 13.5958C26.3566 17.1301 24.9669 20.5186 22.4959 23.0177C20.0249 25.5168 16.6745 26.9222 13.18 26.9256ZM13.18 3.41289C11.1886 3.41289 9.24194 4.01011 7.58618 5.12902C5.93041 6.24794 4.6399 7.8383 3.87784 9.69899C3.11578 11.5597 2.91639 13.6071 3.30488 15.5824C3.69338 17.5577 4.65231 19.3722 6.06042 20.7963C7.46853 22.2204 9.26257 23.1902 11.2157 23.5831C13.1688 23.976 15.1932 23.7744 17.033 23.0037C18.8728 22.2329 20.4453 20.9278 21.5516 19.2532C22.658 17.5786 23.2485 15.6098 23.2485 13.5958C23.2452 10.8962 22.1833 8.30803 20.2958 6.39908C18.4083 4.49013 15.8493 3.41622 13.18 3.41289Z"
                              fill="#31374F"/>
                        <path d="M22.004 28.3857H3.94531V31.1927H22.004V28.3857Z" fill="#31374F"/>
                        <path d="M25.4771 32.4766H0.237305V35.0569H25.4771V32.4766Z" fill="#31374F"/>
                    </svg>