<svg width="70" height="69" viewBox="0 0 70 69" fill="none" xmlns="http://www.w3.org/2000/svg">
<rect x="0.333252" width="69.46" height="69" rx="5.52" fill="white"/>
<g clip-path="url(#clip0_1094_690)">
<path d="M46.5632 51.75H42.7452C41.6872 51.75 40.8132 50.876 40.8132 49.818C40.8132 48.76 41.6872 47.886 42.7452 47.886H46.5632C47.0692 47.886 47.5752 47.702 47.8972 47.334C48.2652 46.966 48.4492 46.506 48.4492 46V42.182C48.4492 41.124 49.3232 40.25 50.3812 40.25C51.4392 40.25 52.3132 41.124 52.3132 42.182V46C52.3132 47.518 51.7152 48.99 50.6112 50.048C49.5532 51.152 48.0812 51.75 46.5632 51.75ZM27.3812 51.75H23.5632C22.0452 51.75 20.5732 51.152 19.5152 50.048C18.4112 48.99 17.8132 47.518 17.8132 46V42.182C17.8132 41.124 18.6872 40.25 19.7452 40.25C20.8032 40.25 21.6772 41.124 21.6772 42.182V46C21.6772 46.506 21.8612 47.012 22.2292 47.334C22.5972 47.702 23.0572 47.886 23.5632 47.886H27.3812C28.4392 47.886 29.3132 48.76 29.3132 49.818C29.3132 50.876 28.4392 51.75 27.3812 51.75ZM50.3812 28.75C49.3232 28.75 48.4492 27.876 48.4492 26.818V23C48.4492 22.494 48.2652 21.988 47.8972 21.666C47.5292 21.298 47.0692 21.114 46.5632 21.114H42.7452C41.6872 21.114 40.8132 20.24 40.8132 19.182C40.8132 18.124 41.6872 17.25 42.7452 17.25H46.5632C48.0812 17.25 49.5532 17.848 50.6112 18.952C51.7152 20.01 52.3132 21.482 52.3132 23V26.818C52.3132 27.876 51.4392 28.75 50.3812 28.75ZM19.7452 28.75C18.6872 28.75 17.8132 27.876 17.8132 26.818V23C17.8132 21.482 18.4112 20.01 19.5152 18.952C20.5732 17.848 22.0452 17.25 23.5632 17.25H27.3812C28.4392 17.25 29.3132 18.124 29.3132 19.182C29.3132 20.24 28.4392 21.114 27.3812 21.114H23.5632C23.0572 21.114 22.5512 21.298 22.2292 21.666C21.8612 22.034 21.6772 22.494 21.6772 23V26.818C21.6312 27.876 20.8032 28.75 19.7452 28.75Z" fill="#B0B9D0"/>
<path d="M40.8131 45.034H29.3131C28.3011 45.034 27.3351 44.62 26.5991 43.93C25.8631 43.194 25.4951 42.228 25.4951 41.216V35.466C25.4951 34.454 25.9091 33.488 26.5991 32.752C27.3351 32.016 28.3011 31.648 29.3131 31.648V29.716C29.3131 28.198 29.9111 26.726 31.0151 25.668C32.1191 24.564 33.5451 23.966 35.0631 23.966C36.5811 23.966 38.0531 24.564 39.1111 25.668C40.2151 26.772 40.8131 28.198 40.8131 29.716V31.648C41.8251 31.648 42.7911 32.062 43.5271 32.752C44.2631 33.488 44.6311 34.454 44.6311 35.466V41.216C44.6311 42.228 44.2171 43.194 43.5271 43.93C42.7911 44.62 41.8251 45.034 40.8131 45.034ZM29.3131 35.466V41.216H40.8131V35.466H38.9271C38.9271 35.466 38.9271 35.466 38.8811 35.466H31.2451H29.3131ZM33.1311 31.648H36.9491V29.716C36.9491 29.21 36.7651 28.704 36.3971 28.382C36.0291 28.014 35.5691 27.83 35.0631 27.83C34.5571 27.83 34.0511 28.014 33.7291 28.382C33.4071 28.75 33.1771 29.21 33.1771 29.716V31.648H33.1311Z" fill="url(#paint0_linear_1094_690)"/>
</g>
<defs>
<linearGradient id="paint0_linear_1094_690" x1="25.4951" y1="25.8527" x2="45.3653" y2="27.0969" gradientUnits="userSpaceOnUse">
<stop stop-color="#00F0FF"/>
<stop offset="1" stop-color="#1DA5F1"/>
</linearGradient>
<clipPath id="clip0_1094_690">
<rect width="34.5" height="34.5" fill="white" transform="translate(17.8132 17.25)"/>
</clipPath>
</defs>
</svg>
