<svg width="537" height="480" viewBox="0 0 537 470" fill="none" xmlns="http://www.w3.org/2000/svg">
                <path d="M268.5 322.411C215.396 322.411 163.484 306.681 119.329 277.211C75.1749 247.74 40.7606 205.852 20.4385 156.844C0.116337 107.835 -5.20086 53.9082 5.15927 1.88144C15.5194 -50.1454 41.0915 -97.935 78.6419 -135.444C116.192 -172.953 164.034 -198.498 216.118 -208.846C268.202 -219.195 322.189 -213.884 371.251 -193.584C420.312 -173.284 462.246 -138.908 491.75 -94.8013C521.253 -50.6951 537 1.1597 537 54.2057C536.933 125.318 508.623 193.498 458.284 243.782C407.945 294.066 339.69 322.344 268.5 322.411ZM268.5 -150.684C227.932 -150.684 188.275 -138.668 154.544 -116.154C120.814 -93.6403 94.5234 -61.6409 78.9988 -24.2022C63.4742 13.2365 59.4122 54.433 67.3266 94.1778C75.241 133.923 94.7763 170.43 123.462 199.085C152.148 227.739 188.696 247.253 228.484 255.159C268.273 263.064 309.514 259.007 346.994 243.499C384.474 227.992 416.508 201.73 439.047 168.036C461.585 134.342 473.615 94.7292 473.615 54.2057C473.548 -0.113831 451.916 -52.1894 413.464 -90.5992C375.012 -129.009 322.879 -150.617 268.5 -150.684Z"
                      fill="white" fill-opacity="0.05"/>
                <path d="M448.261 351.782H80.373V408.26H448.261V351.782Z" fill="white" fill-opacity="0.05"/>
                <path d="M519.016 434.113H4.83496V486.032H519.016V434.113Z" fill="white" fill-opacity="0.05"/>
            </svg>