<svg width="66" height="81" viewBox="0 0 66 81" fill="none" xmlns="http://www.w3.org/2000/svg">
<path d="M65.2366 5.17173C65.2366 1.95406 63.47 0.1875 60.2524 0.1875C54.8896 0.1875 49.5268 0.1875 44.1956 0.1875H43.817C41.0095 0.1875 38.2019 0.1875 35.4259 0.1875C34.4795 0.1875 33.5016 0.1875 32.5552 0.1875C23.3123 0.1875 14.1325 0.1875 4.92114 0.1875C1.76656 0.1875 0 1.95406 0 5.10864C0 28.5156 0 51.891 0 75.2664C0 78.4209 1.76656 80.1875 4.92114 80.1875C11.9558 80.1875 19.0221 80.1875 26.0568 80.1875C37.4448 80.1875 48.8644 80.1875 60.2524 80.1875C63.4385 80.1875 65.205 78.4209 65.205 75.2033C65.205 63.5313 65.205 51.8594 65.205 40.156C65.2366 28.5156 65.2366 16.8437 65.2366 5.17173ZM62.7129 58.6733C62.7129 64.2253 62.7129 69.7459 62.7129 75.2979C62.7129 77.0014 62.0505 77.6638 60.3155 77.6638C48.8959 77.6638 37.5079 77.6638 26.0883 77.6638C19.0221 77.6638 11.9874 77.6638 4.92114 77.6638C3.15457 77.6638 2.52366 77.0014 2.52366 75.2348C2.52366 69.7143 2.52366 64.2253 2.52366 58.7048V57.8847H9.52681H10.1577H16.6877C16.6877 58.7995 16.6877 59.6828 16.6877 60.566C16.6877 63.5944 18.4858 65.3925 21.5457 65.3925C22.9338 65.3925 24.3218 65.3925 25.836 65.3925C25.836 65.8026 25.8044 66.1496 25.836 66.4966C25.8991 67.2537 26.4038 67.7585 27.0978 67.7585C27.7918 67.7585 28.3281 67.2537 28.3281 66.4966C28.3596 65.5503 28.3281 64.6039 28.3281 63.6575C28.3281 58.2001 28.3281 52.7427 28.3281 47.2853C28.3281 47.0645 28.3281 46.8121 28.3281 46.5913C28.265 45.8973 27.7287 45.4241 27.0662 45.4241C26.4038 45.4241 25.8675 45.8973 25.8044 46.5913C25.7729 46.9383 25.8044 47.3168 25.8044 47.79C24.3218 47.79 22.9338 47.79 21.5142 47.79C18.4543 47.79 16.6562 49.5881 16.6562 52.6165C16.6562 53.4998 16.6562 54.3831 16.6562 55.2979H10.347H9.71609H2.58675V14.4146H30.4416H42.1136H62.6498V55.2979H56.2461H55.6151H48.5174C48.5174 54.4462 48.5174 53.5944 48.5174 52.7427C48.5174 49.525 46.7508 47.7585 43.5647 47.7585C42.2082 47.7585 40.8517 47.7585 39.3691 47.7585C39.3691 47.3484 39.4006 47.0014 39.3691 46.6544C39.306 45.8973 38.8013 45.3925 38.1073 45.4241C37.4133 45.4241 36.877 45.9288 36.877 46.6859C36.8454 47.8531 36.877 49.0203 36.877 50.2821C35.6782 50.2821 34.5741 50.2821 33.4385 50.2821C32.3975 50.2821 31.7981 50.7869 31.8297 51.5755C31.8612 52.3642 32.429 52.8058 33.4385 52.8058C34.5426 52.8058 35.6467 52.8058 36.877 52.8058V60.3768C35.6151 60.3768 34.3849 60.3452 33.1546 60.3768C32.3975 60.3768 31.8927 60.8815 31.8297 61.5755C31.7981 62.2695 32.3028 62.8058 33.0284 62.9004C33.2808 62.932 33.5647 62.9004 33.817 62.9004C34.795 62.9004 35.8044 62.9004 36.877 62.9004C36.877 64.0676 36.877 65.1717 36.877 66.2443C36.877 67.1907 37.3502 67.7585 38.1073 67.7585C38.8959 67.79 39.3691 67.1907 39.4006 66.2127C39.4006 65.9919 39.4006 65.7395 39.4006 65.3925C40.7571 65.3925 42.082 65.3925 43.4069 65.3925C44.0063 65.3925 44.6372 65.361 45.2051 65.2348C47.0978 64.7932 48.4543 63.0897 48.5174 61.1339C48.5489 60.0613 48.5174 58.9888 48.5174 57.8847H55.6782H56.2776H62.6814V58.6733H62.7129ZM19.2429 52.1433C19.2429 51.1023 20 50.3452 21.041 50.3137C22.6183 50.2821 24.164 50.3137 25.8044 50.3137V62.9004C24.1956 62.9004 22.6183 62.932 21.041 62.9004C20.0315 62.8689 19.2744 62.0802 19.2429 61.0708C19.2114 58.0424 19.2114 55.0771 19.2429 52.1433ZM45.9937 61.0077C45.9937 62.0487 45.2366 62.8058 44.1956 62.8373C42.6183 62.8689 41.0726 62.8373 39.4322 62.8373V50.2506C41.041 50.2506 42.5868 50.219 44.1325 50.2506C45.205 50.2821 45.9622 51.0392 45.9937 52.1118C46.0252 55.1086 46.0252 58.0739 45.9937 61.0077ZM62.7129 11.7963H42.1136H30.4416H2.58675C2.55521 11.6071 2.52366 11.4178 2.52366 11.197C2.52366 9.0834 2.52366 7.00138 2.52366 4.88781C2.52366 3.43671 3.24921 2.67961 4.70032 2.67961C17.7287 2.67961 30.7571 2.67961 43.7855 2.67961C49.3691 2.67961 54.9527 2.67961 60.5363 2.67961C61.9874 2.67961 62.7129 3.40517 62.7445 4.85627C62.7129 7.15911 62.7129 9.4304 62.7129 11.7963Z" fill="#636A86"/>
<path d="M21.7033 23.3418C18.8957 23.3418 16.6875 25.5815 16.6875 28.5153C16.6875 31.6068 16.6875 34.6983 16.6875 37.7897C16.6875 38.7992 17.1291 39.367 17.9178 39.3986C18.738 39.4301 19.2112 38.8308 19.2112 37.7897C19.2112 36.3702 19.2112 34.9191 19.2112 33.4364C19.432 33.4364 19.5897 33.4049 19.7474 33.4049C21.1985 33.4049 22.6812 33.4049 24.2585 33.4049C24.2585 34.9506 24.2585 36.4017 24.2585 37.8213C24.2585 38.7992 24.7317 39.3986 25.5203 39.367C26.309 39.367 26.7821 38.7677 26.7821 37.7897C26.7821 34.6983 26.7821 31.6068 26.7821 28.5153C26.7821 25.5815 24.5739 23.3418 21.7033 23.3418ZM24.2585 30.8497C22.555 30.8497 20.9462 30.8497 19.2743 30.8497C19.2743 29.8718 19.1796 28.8938 19.3058 27.9475C19.4635 26.6856 20.6623 25.7708 21.9241 25.8655C23.1544 25.9601 24.1954 26.938 24.2585 28.1998C24.29 29.0831 24.2585 29.9349 24.2585 30.8497Z" fill="url(#paint0_linear_921_406)"/>
<path d="M33.4065 37.8216C33.4065 36.3705 33.4065 34.951 33.4065 33.4368C34.3528 33.4368 35.173 33.4368 35.9617 33.4368C38.7377 33.3737 40.9459 31.1655 40.9459 28.3895C40.9459 25.645 38.7377 23.4052 35.9617 23.3421C34.7945 23.3106 33.5957 23.3421 32.4286 23.3421C31.3245 23.3421 30.8828 23.7838 30.8828 24.8563C30.8828 29.1781 30.8828 33.5314 30.8828 37.8532C30.8828 38.8311 31.3875 39.3989 32.1762 39.3989C32.9333 39.3989 33.4065 38.7996 33.4065 37.8216ZM33.4065 25.9604C34.479 25.9604 35.5516 25.8343 36.5926 25.992C37.7913 26.1813 38.5169 27.38 38.4222 28.5787C38.3276 29.7459 37.3812 30.7554 36.214 30.8816C35.5516 30.9447 34.8576 30.9131 34.1636 30.9131C33.9427 30.9131 33.6904 30.9131 33.4065 30.9131C33.4065 29.1781 33.4065 27.5693 33.4065 25.9604Z" fill="url(#paint1_linear_921_406)"/>
<path d="M46.3405 39.3989C47.1292 39.3989 47.5708 38.7995 47.5708 37.7269C47.5708 35.6134 47.5708 33.4683 47.5708 31.3547C47.5708 29.1781 47.6024 27.0014 47.5393 24.8247C47.5393 24.4146 47.3185 23.8784 47.003 23.626C46.7191 23.4052 46.1513 23.3736 45.7727 23.4683C45.1734 23.626 45.0156 24.1938 45.0156 24.7932C45.0156 29.115 45.0156 33.4367 45.0156 37.7585C45.0472 38.831 45.5204 39.3989 46.3405 39.3989Z" fill="url(#paint2_linear_921_406)"/>
<path d="M7.60232 6.02372C6.90831 5.99217 6.34049 6.55999 6.30894 7.22245C6.27739 7.88491 6.81367 8.48428 7.50768 8.51583C8.20168 8.54737 8.8326 7.97955 8.8326 7.28555C8.8326 6.62308 8.26478 6.05526 7.60232 6.02372Z" fill="#2AA7EE"/>
<path d="M13.9119 6.0233C13.2494 5.99175 12.6501 6.52803 12.6185 7.22203C12.587 7.88449 13.1232 8.48386 13.7857 8.54696C14.4797 8.5785 15.1106 8.01068 15.1106 7.31667C15.1422 6.62267 14.5743 6.05484 13.9119 6.0233Z" fill="#2AA7EE"/>
<path d="M20.2207 6.0233C19.5582 5.99175 18.9589 6.52803 18.8958 7.19049C18.8642 7.8845 19.4321 8.51541 20.1261 8.51541C20.7885 8.51541 21.3879 7.97913 21.3879 7.28513C21.451 6.62267 20.9147 6.05484 20.2207 6.0233Z" fill="#2AA7EE"/>
<defs>
<linearGradient id="paint0_linear_921_406" x1="16.6875" y1="24.7798" x2="27.1908" y2="25.235" gradientUnits="userSpaceOnUse">
<stop stop-color="#00F0FF"/>
<stop offset="1" stop-color="#1DA5F1"/>
</linearGradient>
<linearGradient id="paint1_linear_921_406" x1="30.8828" y1="24.7673" x2="41.3535" y2="25.2193" gradientUnits="userSpaceOnUse">
<stop stop-color="#00F0FF"/>
<stop offset="1" stop-color="#1DA5F1"/>
</linearGradient>
<linearGradient id="paint2_linear_921_406" x1="45.0156" y1="24.8491" x2="47.6872" y2="24.8786" gradientUnits="userSpaceOnUse">
<stop stop-color="#00F0FF"/>
<stop offset="1" stop-color="#1DA5F1"/>
</linearGradient>
</defs>
</svg>
